<svg width="189" height="58" viewBox="0 0 189 58" fill="none" xmlns="http://www.w3.org/2000/svg">
<rect width="189" height="58" rx="20" fill="#0068B6"/>
<path d="M12.936 39.344C11.7627 39.344 10.7493 39.088 9.896 38.576C9.064 38.064 8.44533 37.4027 8.04 36.592C7.61333 35.76 7.4 34.8853 7.4 33.968C7.4 33.0933 7.58133 32.2507 7.944 31.44C8.30667 30.6293 8.808 29.9787 9.448 29.488C10.088 28.9973 10.824 28.752 11.656 28.752C11.784 28.752 11.8907 28.7947 11.976 28.88C12.0827 28.944 12.136 29.0293 12.136 29.136C12.136 29.8187 12.456 30.384 13.096 30.832C13.736 31.28 14.4827 31.504 15.336 31.504C16.5093 31.504 17.672 31.0453 18.824 30.128C19.976 29.2107 20.904 27.8453 21.608 26.032L21.96 25.136C22.1093 24.7307 22.3227 24.1653 22.6 23.44C22.8773 22.6933 23.112 22.0747 23.304 21.584C23.688 20.56 24.3813 20.048 25.384 20.048C26.3867 20.048 26.888 20.4107 26.888 21.136C26.888 21.328 26.856 21.5413 26.792 21.776C26.5787 22.3947 26.472 22.9067 26.472 23.312C26.472 23.9947 26.792 24.336 27.432 24.336C28.1573 24.336 28.7973 24.0587 29.352 23.504C29.928 22.9493 30.216 22.2027 30.216 21.264C30.216 20.3253 29.7787 19.632 28.904 19.184C28.0507 18.7147 26.9413 18.48 25.576 18.48C23.5707 18.48 21.9173 18.8533 20.616 19.6C19.3147 20.3253 18.664 21.4133 18.664 22.864C18.664 23.3333 18.7813 23.728 19.016 24.048C19.2507 24.3467 19.5387 24.496 19.88 24.496C19.9653 24.752 20.008 24.9547 20.008 25.104C20.008 25.616 19.8267 26.1493 19.464 26.704C19.1013 27.2587 18.5893 27.728 17.928 28.112C17.288 28.4747 16.5413 28.656 15.688 28.656C14.4293 28.656 13.448 28.2507 12.744 27.44C12.04 26.6293 11.688 25.648 11.688 24.496C11.688 22.6187 12.264 20.9013 13.416 19.344C14.568 17.7653 16.2 16.5173 18.312 15.6C20.4453 14.6613 22.92 14.192 25.736 14.192C27.976 14.192 29.8533 14.4693 31.368 15.024C32.904 15.5787 34.0453 16.336 34.792 17.296C35.56 18.2347 35.944 19.2907 35.944 20.464C35.944 21.7227 35.5493 22.8533 34.76 23.856C33.992 24.8587 33.0107 25.4667 31.816 25.68C31.5387 25.744 31.4 25.8827 31.4 26.096C31.4 26.2027 31.4427 26.2987 31.528 26.384C32.552 27.408 33.064 28.7413 33.064 30.384C33.064 31.9413 32.7227 33.328 32.04 34.544C31.3573 35.7387 30.4613 36.6667 29.352 37.328C28.2427 37.9893 27.0587 38.32 25.8 38.32C24.4133 38.32 23.304 37.9253 22.472 37.136C21.64 36.3467 21.1813 35.28 21.096 33.936C19.9227 35.7067 18.6427 37.0507 17.256 37.968C15.8907 38.8853 14.4507 39.344 12.936 39.344ZM26.088 31.376C26.8133 31.376 27.4 31.0773 27.848 30.48C28.296 29.8613 28.52 29.1467 28.52 28.336C28.52 27.8667 28.3493 27.472 28.008 27.152C27.6667 26.8107 27.1653 26.64 26.504 26.64C25.8213 26.64 25.2773 26.8853 24.872 27.376C24.4667 27.8667 24.264 28.4533 24.264 29.136C24.264 29.776 24.4133 30.3093 24.712 30.736C25.032 31.1627 25.4907 31.376 26.088 31.376ZM51.1735 29.232C51.3015 29.04 51.4722 28.944 51.6855 28.944C51.9842 28.944 52.2402 29.072 52.4535 29.328C52.6882 29.584 52.7415 29.8187 52.6135 30.032L52.0055 31.216C51.4082 32.4533 50.8215 33.5307 50.2455 34.448C49.6908 35.3653 48.9655 36.1867 48.0695 36.912C47.1948 37.6373 46.2028 38 45.0935 38C43.2588 38 42.3415 36.8373 42.3415 34.512C42.3415 34.1067 42.3735 33.6693 42.4375 33.2C41.7975 34.5867 41.0615 35.728 40.2295 36.624C39.3975 37.52 38.4162 37.968 37.2855 37.968C36.3895 37.968 35.6962 37.6587 35.2055 37.04C34.7148 36.4 34.4695 35.44 34.4695 34.16C34.4695 32.3893 34.7042 30.7467 35.1735 29.232C35.9415 26.8213 36.6988 25.0187 37.4455 23.824C38.2135 22.608 39.0348 22 39.9095 22C40.5708 22 40.9015 22.4267 40.9015 23.28C40.9015 23.7493 40.8375 24.208 40.7095 24.656C40.6028 25.104 40.4215 25.712 40.1655 26.48C39.9095 27.2053 39.7282 27.7707 39.6215 28.176C39.5148 28.5813 39.4615 28.9867 39.4615 29.392C39.4615 29.8827 39.5575 30.2453 39.7495 30.48C39.9415 30.7147 40.2935 30.832 40.8055 30.832C42.0855 30.832 42.9815 30.0853 43.4935 28.592L43.5255 28.464C44.2082 26.288 44.8908 24.6667 45.5735 23.6C46.2562 22.5333 46.9922 22 47.7815 22C48.4428 22 48.7735 22.4267 48.7735 23.28C48.7735 23.6853 48.7095 24.112 48.5815 24.56C48.4748 24.9867 48.2935 25.584 48.0375 26.352C47.8028 27.0133 47.6215 27.5573 47.4935 27.984C47.3868 28.3893 47.3335 28.7627 47.3335 29.104C47.3335 29.68 47.4828 30.1173 47.7815 30.416C48.1015 30.7147 48.4962 30.864 48.9655 30.864C49.4135 30.864 49.7975 30.7253 50.1175 30.448C50.4588 30.1707 50.8108 29.7653 51.1735 29.232ZM67.0775 29.232C67.1628 29.0827 67.3228 29.008 67.5575 29.008C67.8562 29.008 68.1228 29.1147 68.3575 29.328C68.5922 29.5413 68.6455 29.776 68.5175 30.032L67.8775 31.376C67.1948 32.8693 66.6082 34.0533 66.1175 34.928C65.6268 35.8027 65.0402 36.5387 64.3575 37.136C63.6962 37.712 62.9388 38 62.0855 38C61.6162 38 61.2428 37.7653 60.9655 37.296C60.2828 39.5147 59.5682 41.2747 58.8215 42.576C58.0748 43.8987 57.2428 44.8587 56.3255 45.456C55.4082 46.0533 54.3522 46.352 53.1575 46.352C51.4722 46.352 50.1708 45.9147 49.2535 45.04C48.3148 44.1653 47.8455 42.9493 47.8455 41.392C47.8455 40.4107 48.0268 39.568 48.3895 38.864C48.7308 38.1813 49.1148 37.7013 49.5415 37.424C49.9468 37.1253 50.1602 37.104 50.1815 37.36C50.2668 38.1707 50.5868 38.8213 51.1415 39.312C51.7175 39.8027 52.4748 40.048 53.4135 40.048C54.3522 40.048 55.2268 39.7813 56.0375 39.248C56.8695 38.736 57.5522 38.0427 58.0855 37.168C58.6188 36.2933 58.9388 35.3333 59.0455 34.288V34.192C59.0455 34.0427 59.0135 33.9253 58.9495 33.84C58.8855 33.7333 58.8002 33.68 58.6935 33.68C58.4802 33.68 58.2988 33.8613 58.1495 34.224C57.7015 35.312 57.0935 36.1653 56.3255 36.784C55.5575 37.3813 54.6615 37.68 53.6375 37.68C52.7202 37.68 51.9628 37.3813 51.3655 36.784C50.7682 36.1867 50.4695 35.312 50.4695 34.16C50.4695 32.3893 50.7042 30.7467 51.1735 29.232C51.9415 26.8213 52.6988 25.0187 53.4455 23.824C54.2135 22.608 55.0348 22 55.9095 22C56.5708 22 56.9015 22.4267 56.9015 23.28C56.9015 23.7493 56.8375 24.208 56.7095 24.656C56.6028 25.104 56.4215 25.712 56.1655 26.48C55.9095 27.2053 55.7282 27.7707 55.6215 28.176C55.5148 28.5813 55.4615 28.9867 55.4615 29.392C55.4615 29.8827 55.5575 30.2453 55.7495 30.48C55.9415 30.7147 56.2935 30.832 56.8055 30.832C57.4882 30.832 58.0428 30.64 58.4695 30.256C58.8962 29.8507 59.2482 29.2533 59.5255 28.464C60.2082 26.288 60.8908 24.6667 61.5735 23.6C62.2562 22.5333 62.9922 22 63.7815 22C64.2508 22 64.6028 22.1173 64.8375 22.352C65.0935 22.5653 65.2215 22.9173 65.2215 23.408C65.2215 23.792 65.1468 24.1973 64.9975 24.624C64.8695 25.0293 64.6348 25.6587 64.2935 26.512C64.1868 26.7893 64.0162 27.2373 63.7815 27.856C63.5468 28.4533 63.3335 29.04 63.1415 29.616C63.0135 30.064 62.9495 30.448 62.9495 30.768C62.9495 31.1947 63.0455 31.5147 63.2375 31.728C63.4295 31.92 63.6748 32.016 63.9735 32.016C64.7628 32.016 65.7975 31.088 67.0775 29.232ZM86.867 38.384C84.4777 38.384 82.5577 37.6267 81.107 36.112C79.6563 34.576 78.931 32.272 78.931 29.2C78.931 26.6613 79.507 24.2613 80.659 22C81.8323 19.7387 83.379 17.936 85.299 16.592C87.2403 15.2267 89.2883 14.544 91.443 14.544C93.427 14.544 94.931 14.96 95.955 15.792C97.0003 16.6027 97.523 17.712 97.523 19.12C97.523 20.2933 97.2137 21.3813 96.595 22.384C95.9977 23.3867 95.251 24.176 94.355 24.752C93.459 25.328 92.6057 25.616 91.795 25.616C91.4537 25.616 91.1657 25.5307 90.931 25.36C90.7177 25.1893 90.611 24.9867 90.611 24.752C90.611 24.6667 90.6537 24.5173 90.739 24.304C91.3577 23.1307 91.667 22.1707 91.667 21.424C91.667 20.8907 91.4963 20.496 91.155 20.24C90.835 19.9627 90.3977 19.824 89.843 19.824C88.9043 19.824 88.0403 20.1227 87.251 20.72C86.4617 21.296 85.843 22.0747 85.395 23.056C84.947 24.016 84.723 25.0187 84.723 26.064C84.723 27.5787 85.2563 28.8373 86.323 29.84C87.411 30.8213 88.9683 31.312 90.995 31.312C92.1257 31.312 93.1817 31.152 94.163 30.832C95.1657 30.512 95.9123 29.9787 96.403 29.232C96.531 29.04 96.7017 28.944 96.915 28.944C97.1923 28.944 97.4377 29.072 97.651 29.328C97.8857 29.584 97.9497 29.8187 97.843 30.032C96.4563 32.8267 94.8777 34.9173 93.107 36.304C91.3577 37.6907 89.2777 38.384 86.867 38.384ZM109.032 29.232C109.16 29.04 109.331 28.944 109.544 28.944C109.843 28.944 110.099 29.072 110.312 29.328C110.547 29.584 110.6 29.8187 110.472 30.032L109.864 31.216C109.267 32.4533 108.68 33.5307 108.104 34.448C107.55 35.3653 106.824 36.1867 105.928 36.912C105.054 37.6373 104.062 38 102.952 38C101.736 38 100.84 37.68 100.264 37.04C99.7096 36.3787 99.4323 35.5787 99.4323 34.64C99.4323 33.872 99.5496 33.1147 99.7843 32.368C100.04 31.6 100.392 30.7147 100.84 29.712C101.139 29.0293 101.352 28.496 101.48 28.112C101.608 27.728 101.672 27.3973 101.672 27.12C101.672 26.9067 101.534 26.64 101.256 26.32C100.979 26 100.552 25.7333 99.9763 25.52C99.5923 26.352 98.8776 27.856 97.8323 30.032C97.7469 30.2453 97.5763 30.352 97.3203 30.352C97.0856 30.352 96.8509 30.2667 96.6163 30.096C96.4029 29.904 96.2963 29.7013 96.2963 29.488C96.2963 29.3813 96.3283 29.296 96.3923 29.232C96.9683 28.4213 97.6189 27.024 98.3443 25.04C98.0029 24.912 97.7363 24.72 97.5443 24.464C97.3736 24.1867 97.2883 23.7813 97.2883 23.248C97.2883 22.544 97.5549 21.8933 98.0883 21.296C98.6429 20.6773 99.3256 20.368 100.136 20.368C101.096 20.368 102.046 20.56 102.984 20.944C103.944 21.328 104.723 21.8187 105.32 22.416C105.918 22.992 106.216 23.568 106.216 24.144C106.216 24.5493 106.152 24.9333 106.024 25.296C105.918 25.6587 105.758 26.096 105.544 26.608C105.31 27.1627 105.128 27.6427 105 28.048C104.894 28.432 104.84 28.848 104.84 29.296C104.84 29.7653 105 30.1493 105.32 30.448C105.64 30.7253 106.142 30.864 106.824 30.864C107.272 30.864 107.656 30.736 107.976 30.48C108.318 30.2027 108.67 29.7867 109.032 29.232ZM111.673 38C110.607 38 109.785 37.5627 109.209 36.688C108.655 35.8133 108.377 34.64 108.377 33.168C108.377 31.568 108.697 29.904 109.337 28.176C109.977 26.4267 110.916 24.9653 112.153 23.792C113.412 22.5973 114.905 22 116.633 22C117.359 22 117.903 22.0853 118.265 22.256C118.628 22.4053 118.937 22.608 119.193 22.864C119.471 23.0987 119.705 23.216 119.897 23.216C120.111 23.216 120.292 23.1733 120.441 23.088C120.612 23.0027 120.804 22.8747 121.017 22.704C121.295 22.4693 121.551 22.2987 121.785 22.192C122.02 22.064 122.319 22 122.681 22C123.428 22 123.801 22.3947 123.801 23.184C123.801 23.5253 123.737 23.8667 123.609 24.208C123.481 24.5493 123.289 24.976 123.033 25.488C122.969 25.6587 122.852 25.9253 122.681 26.288C122.511 26.6293 122.372 26.9493 122.265 27.248C121.839 28.1227 121.625 28.88 121.625 29.52C121.625 30.416 122.063 30.864 122.937 30.864C123.94 30.864 124.783 30.32 125.465 29.232C125.593 29.04 125.764 28.944 125.977 28.944C126.255 28.944 126.5 29.072 126.713 29.328C126.948 29.584 127.012 29.8187 126.905 30.032L126.137 31.568C125.476 32.9333 124.889 34.0427 124.377 34.896C123.865 35.728 123.247 36.4533 122.521 37.072C121.796 37.6907 120.964 38 120.025 38C119.108 38 118.404 37.68 117.913 37.04C117.423 36.3787 117.177 35.5147 117.177 34.448C117.177 34.0853 117.209 33.712 117.273 33.328H117.145C116.463 34.7147 115.641 35.8453 114.681 36.72C113.743 37.5733 112.74 38 111.673 38ZM114.873 31.376C115.407 31.376 115.887 31.2267 116.313 30.928C116.74 30.608 117.071 30.2133 117.305 29.744C117.54 29.2747 117.657 28.816 117.657 28.368C117.657 27.8347 117.508 27.4187 117.209 27.12C116.911 26.8213 116.505 26.672 115.993 26.672C115.204 26.672 114.553 26.9813 114.041 27.6C113.529 28.2187 113.273 28.9013 113.273 29.648C113.273 30.1813 113.412 30.608 113.689 30.928C113.988 31.2267 114.383 31.376 114.873 31.376ZM140.047 29.232C140.132 29.0827 140.292 29.008 140.527 29.008C140.825 29.008 141.092 29.1147 141.327 29.328C141.561 29.5413 141.615 29.776 141.487 30.032C140.911 31.2267 140.185 32.24 139.311 33.072C138.436 33.8827 137.316 34.3307 135.951 34.416C135.14 35.5253 134.223 36.4 133.199 37.04C132.175 37.68 131.151 38 130.127 38C128.591 38 127.332 37.4773 126.351 36.432C125.369 35.3867 124.879 34.032 124.879 32.368C124.879 31.3867 125.071 30.3413 125.455 29.232C125.54 29.0187 125.647 28.6987 125.775 28.272L127.887 22.288C128.847 19.6853 129.679 17.8187 130.383 16.688C131.087 15.5573 131.876 14.992 132.751 14.992C133.604 14.992 134.031 15.376 134.031 16.144C134.031 16.6347 133.86 17.2533 133.519 18C133.327 18.448 133.209 18.7253 133.167 18.832C132.292 20.752 131.737 22.1707 131.503 23.088L131.471 23.216C131.471 23.3013 131.503 23.376 131.567 23.44C131.631 23.504 131.716 23.536 131.823 23.536C132.015 23.536 132.196 23.4507 132.367 23.28C132.793 22.8533 133.231 22.5333 133.679 22.32C134.148 22.1067 134.585 22 134.991 22C137.316 22 138.479 23.5147 138.479 26.544C138.479 27.9307 138.255 29.328 137.807 30.736C138.703 30.608 139.449 30.1067 140.047 29.232ZM129.711 29.648C129.711 30.16 129.839 30.576 130.095 30.896C130.372 31.216 130.799 31.376 131.375 31.376C131.887 31.376 132.345 31.2267 132.751 30.928C133.177 30.608 133.508 30.2133 133.743 29.744C133.977 29.2747 134.095 28.816 134.095 28.368C134.095 27.8773 133.945 27.472 133.647 27.152C133.369 26.832 132.932 26.672 132.335 26.672C131.588 26.672 130.959 26.9813 130.447 27.6C129.956 28.2187 129.711 28.9013 129.711 29.648ZM154.641 29.232C154.726 29.0827 154.886 29.008 155.121 29.008C155.419 29.008 155.686 29.1147 155.921 29.328C156.155 29.5413 156.209 29.776 156.081 30.032C155.505 31.2267 154.779 32.24 153.905 33.072C153.03 33.8827 151.91 34.3307 150.545 34.416C149.734 35.5253 148.817 36.4 147.793 37.04C146.769 37.68 145.745 38 144.721 38C143.185 38 141.926 37.4773 140.945 36.432C139.963 35.3867 139.473 34.032 139.473 32.368C139.473 31.3867 139.665 30.3413 140.049 29.232C140.134 29.0187 140.241 28.6987 140.368 28.272L142.481 22.288C143.441 19.6853 144.273 17.8187 144.977 16.688C145.681 15.5573 146.47 14.992 147.345 14.992C148.198 14.992 148.625 15.376 148.625 16.144C148.625 16.6347 148.454 17.2533 148.113 18C147.921 18.448 147.803 18.7253 147.76 18.832C146.886 20.752 146.331 22.1707 146.097 23.088L146.065 23.216C146.065 23.3013 146.097 23.376 146.161 23.44C146.225 23.504 146.31 23.536 146.417 23.536C146.609 23.536 146.79 23.4507 146.961 23.28C147.387 22.8533 147.825 22.5333 148.273 22.32C148.742 22.1067 149.179 22 149.585 22C151.91 22 153.073 23.5147 153.073 26.544C153.073 27.9307 152.849 29.328 152.401 30.736C153.297 30.608 154.043 30.1067 154.641 29.232ZM144.305 29.648C144.305 30.16 144.433 30.576 144.689 30.896C144.966 31.216 145.393 31.376 145.969 31.376C146.481 31.376 146.939 31.2267 147.345 30.928C147.771 30.608 148.102 30.2133 148.337 29.744C148.571 29.2747 148.689 28.816 148.689 28.368C148.689 27.8773 148.539 27.472 148.241 27.152C147.963 26.832 147.526 26.672 146.929 26.672C146.182 26.672 145.553 26.9813 145.041 27.6C144.55 28.2187 144.305 28.9013 144.305 29.648ZM170.546 29.232C170.632 29.0827 170.792 29.008 171.026 29.008C171.325 29.008 171.592 29.1147 171.826 29.328C172.061 29.5413 172.114 29.776 171.986 30.032L171.346 31.376C170.664 32.8693 170.077 34.0533 169.586 34.928C169.096 35.8027 168.509 36.5387 167.826 37.136C167.165 37.712 166.408 38 165.554 38C165.085 38 164.712 37.7653 164.434 37.296C163.752 39.5147 163.037 41.2747 162.29 42.576C161.544 43.8987 160.712 44.8587 159.794 45.456C158.877 46.0533 157.821 46.352 156.626 46.352C154.941 46.352 153.64 45.9147 152.722 45.04C151.784 44.1653 151.314 42.9493 151.314 41.392C151.314 40.4107 151.496 39.568 151.858 38.864C152.2 38.1813 152.584 37.7013 153.01 37.424C153.416 37.1253 153.629 37.104 153.65 37.36C153.736 38.1707 154.056 38.8213 154.61 39.312C155.186 39.8027 155.944 40.048 156.882 40.048C157.821 40.048 158.696 39.7813 159.506 39.248C160.338 38.736 161.021 38.0427 161.554 37.168C162.088 36.2933 162.408 35.3333 162.514 34.288V34.192C162.514 34.0427 162.482 33.9253 162.418 33.84C162.354 33.7333 162.269 33.68 162.162 33.68C161.949 33.68 161.768 33.8613 161.618 34.224C161.17 35.312 160.562 36.1653 159.794 36.784C159.026 37.3813 158.13 37.68 157.106 37.68C156.189 37.68 155.432 37.3813 154.834 36.784C154.237 36.1867 153.938 35.312 153.938 34.16C153.938 32.3893 154.173 30.7467 154.642 29.232C155.41 26.8213 156.168 25.0187 156.914 23.824C157.682 22.608 158.504 22 159.378 22C160.04 22 160.37 22.4267 160.37 23.28C160.37 23.7493 160.306 24.208 160.178 24.656C160.072 25.104 159.89 25.712 159.634 26.48C159.378 27.2053 159.197 27.7707 159.09 28.176C158.984 28.5813 158.93 28.9867 158.93 29.392C158.93 29.8827 159.026 30.2453 159.218 30.48C159.41 30.7147 159.762 30.832 160.274 30.832C160.957 30.832 161.512 30.64 161.938 30.256C162.365 29.8507 162.717 29.2533 162.994 28.464C163.677 26.288 164.36 24.6667 165.042 23.6C165.725 22.5333 166.461 22 167.25 22C167.72 22 168.072 22.1173 168.306 22.352C168.562 22.5653 168.69 22.9173 168.69 23.408C168.69 23.792 168.616 24.1973 168.466 24.624C168.338 25.0293 168.104 25.6587 167.762 26.512C167.656 26.7893 167.485 27.2373 167.25 27.856C167.016 28.4533 166.802 29.04 166.61 29.616C166.482 30.064 166.418 30.448 166.418 30.768C166.418 31.1947 166.514 31.5147 166.706 31.728C166.898 31.92 167.144 32.016 167.442 32.016C168.232 32.016 169.266 31.088 170.546 29.232ZM175.573 30.544C174.954 30.544 174.645 30.064 174.645 29.104C174.645 27.3333 174.911 25.232 175.445 22.8C175.999 20.3467 176.703 18.2453 177.557 16.496C178.41 14.7253 179.306 13.84 180.245 13.84C180.863 13.84 181.333 14.0213 181.653 14.384C181.973 14.7253 182.133 15.2373 182.133 15.92C182.133 17.072 181.695 18.832 180.821 21.2C179.946 23.5467 178.975 25.6907 177.909 27.632C176.842 29.5733 176.063 30.544 175.573 30.544ZM173.525 38.32C172.799 38.32 172.17 38.0533 171.637 37.52C171.103 36.9867 170.837 36.3573 170.837 35.632C170.837 34.8853 171.103 34.256 171.637 33.744C172.17 33.2107 172.799 32.944 173.525 32.944C174.271 32.944 174.901 33.2107 175.413 33.744C175.946 34.256 176.213 34.8853 176.213 35.632C176.213 36.3573 175.946 36.9867 175.413 37.52C174.901 38.0533 174.271 38.32 173.525 38.32Z" fill="white"/>
</svg>
