<svg width="219" height="58" viewBox="0 0 219 58" fill="none" xmlns="http://www.w3.org/2000/svg">
<rect width="219" height="58" rx="20" fill="#0068B6"/>
<path d="M19.936 39.344C18.7627 39.344 17.7493 39.088 16.896 38.576C16.064 38.064 15.4453 37.4027 15.04 36.592C14.6133 35.76 14.4 34.8853 14.4 33.968C14.4 33.0933 14.5813 32.2507 14.944 31.44C15.3067 30.6293 15.808 29.9787 16.448 29.488C17.088 28.9973 17.824 28.752 18.656 28.752C18.784 28.752 18.8907 28.7947 18.976 28.88C19.0827 28.944 19.136 29.0293 19.136 29.136C19.136 29.8187 19.456 30.384 20.096 30.832C20.736 31.28 21.4827 31.504 22.336 31.504C23.5093 31.504 24.672 31.0453 25.824 30.128C26.976 29.2107 27.904 27.8453 28.608 26.032L28.96 25.136C29.1093 24.7307 29.3227 24.1653 29.6 23.44C29.8773 22.6933 30.112 22.0747 30.304 21.584C30.688 20.56 31.3813 20.048 32.384 20.048C33.3867 20.048 33.888 20.4107 33.888 21.136C33.888 21.328 33.856 21.5413 33.792 21.776C33.5787 22.3947 33.472 22.9067 33.472 23.312C33.472 23.9947 33.792 24.336 34.432 24.336C35.1573 24.336 35.7973 24.0587 36.352 23.504C36.928 22.9493 37.216 22.2027 37.216 21.264C37.216 20.3253 36.7787 19.632 35.904 19.184C35.0507 18.7147 33.9413 18.48 32.576 18.48C30.5707 18.48 28.9173 18.8533 27.616 19.6C26.3147 20.3253 25.664 21.4133 25.664 22.864C25.664 23.3333 25.7813 23.728 26.016 24.048C26.2507 24.3467 26.5387 24.496 26.88 24.496C26.9653 24.752 27.008 24.9547 27.008 25.104C27.008 25.616 26.8267 26.1493 26.464 26.704C26.1013 27.2587 25.5893 27.728 24.928 28.112C24.288 28.4747 23.5413 28.656 22.688 28.656C21.4293 28.656 20.448 28.2507 19.744 27.44C19.04 26.6293 18.688 25.648 18.688 24.496C18.688 22.6187 19.264 20.9013 20.416 19.344C21.568 17.7653 23.2 16.5173 25.312 15.6C27.4453 14.6613 29.92 14.192 32.736 14.192C34.976 14.192 36.8533 14.4693 38.368 15.024C39.904 15.5787 41.0453 16.336 41.792 17.296C42.56 18.2347 42.944 19.2907 42.944 20.464C42.944 21.7227 42.5493 22.8533 41.76 23.856C40.992 24.8587 40.0107 25.4667 38.816 25.68C38.5387 25.744 38.4 25.8827 38.4 26.096C38.4 26.2027 38.4427 26.2987 38.528 26.384C39.552 27.408 40.064 28.7413 40.064 30.384C40.064 31.9413 39.7227 33.328 39.04 34.544C38.3573 35.7387 37.4613 36.6667 36.352 37.328C35.2427 37.9893 34.0587 38.32 32.8 38.32C31.4133 38.32 30.304 37.9253 29.472 37.136C28.64 36.3467 28.1813 35.28 28.096 33.936C26.9227 35.7067 25.6427 37.0507 24.256 37.968C22.8907 38.8853 21.4507 39.344 19.936 39.344ZM33.088 31.376C33.8133 31.376 34.4 31.0773 34.848 30.48C35.296 29.8613 35.52 29.1467 35.52 28.336C35.52 27.8667 35.3493 27.472 35.008 27.152C34.6667 26.8107 34.1653 26.64 33.504 26.64C32.8213 26.64 32.2773 26.8853 31.872 27.376C31.4667 27.8667 31.264 28.4533 31.264 29.136C31.264 29.776 31.4133 30.3093 31.712 30.736C32.032 31.1627 32.4907 31.376 33.088 31.376ZM58.1735 29.232C58.3015 29.04 58.4722 28.944 58.6855 28.944C58.9842 28.944 59.2402 29.072 59.4535 29.328C59.6882 29.584 59.7415 29.8187 59.6135 30.032L59.0055 31.216C58.4082 32.4533 57.8215 33.5307 57.2455 34.448C56.6908 35.3653 55.9655 36.1867 55.0695 36.912C54.1948 37.6373 53.2028 38 52.0935 38C50.2588 38 49.3415 36.8373 49.3415 34.512C49.3415 34.1067 49.3735 33.6693 49.4375 33.2C48.7975 34.5867 48.0615 35.728 47.2295 36.624C46.3975 37.52 45.4162 37.968 44.2855 37.968C43.3895 37.968 42.6962 37.6587 42.2055 37.04C41.7148 36.4 41.4695 35.44 41.4695 34.16C41.4695 32.3893 41.7042 30.7467 42.1735 29.232C42.9415 26.8213 43.6988 25.0187 44.4455 23.824C45.2135 22.608 46.0348 22 46.9095 22C47.5708 22 47.9015 22.4267 47.9015 23.28C47.9015 23.7493 47.8375 24.208 47.7095 24.656C47.6028 25.104 47.4215 25.712 47.1655 26.48C46.9095 27.2053 46.7282 27.7707 46.6215 28.176C46.5148 28.5813 46.4615 28.9867 46.4615 29.392C46.4615 29.8827 46.5575 30.2453 46.7495 30.48C46.9415 30.7147 47.2935 30.832 47.8055 30.832C49.0855 30.832 49.9815 30.0853 50.4935 28.592L50.5255 28.464C51.2082 26.288 51.8908 24.6667 52.5735 23.6C53.2562 22.5333 53.9922 22 54.7815 22C55.4428 22 55.7735 22.4267 55.7735 23.28C55.7735 23.6853 55.7095 24.112 55.5815 24.56C55.4748 24.9867 55.2935 25.584 55.0375 26.352C54.8028 27.0133 54.6215 27.5573 54.4935 27.984C54.3868 28.3893 54.3335 28.7627 54.3335 29.104C54.3335 29.68 54.4828 30.1173 54.7815 30.416C55.1015 30.7147 55.4962 30.864 55.9655 30.864C56.4135 30.864 56.7975 30.7253 57.1175 30.448C57.4588 30.1707 57.8108 29.7653 58.1735 29.232ZM74.0775 29.232C74.1628 29.0827 74.3228 29.008 74.5575 29.008C74.8562 29.008 75.1228 29.1147 75.3575 29.328C75.5922 29.5413 75.6455 29.776 75.5175 30.032L74.8775 31.376C74.1948 32.8693 73.6082 34.0533 73.1175 34.928C72.6268 35.8027 72.0402 36.5387 71.3575 37.136C70.6962 37.712 69.9388 38 69.0855 38C68.6162 38 68.2428 37.7653 67.9655 37.296C67.2828 39.5147 66.5682 41.2747 65.8215 42.576C65.0748 43.8987 64.2428 44.8587 63.3255 45.456C62.4082 46.0533 61.3522 46.352 60.1575 46.352C58.4722 46.352 57.1708 45.9147 56.2535 45.04C55.3148 44.1653 54.8455 42.9493 54.8455 41.392C54.8455 40.4107 55.0268 39.568 55.3895 38.864C55.7308 38.1813 56.1148 37.7013 56.5415 37.424C56.9468 37.1253 57.1602 37.104 57.1815 37.36C57.2668 38.1707 57.5868 38.8213 58.1415 39.312C58.7175 39.8027 59.4748 40.048 60.4135 40.048C61.3522 40.048 62.2268 39.7813 63.0375 39.248C63.8695 38.736 64.5522 38.0427 65.0855 37.168C65.6188 36.2933 65.9388 35.3333 66.0455 34.288V34.192C66.0455 34.0427 66.0135 33.9253 65.9495 33.84C65.8855 33.7333 65.8002 33.68 65.6935 33.68C65.4802 33.68 65.2988 33.8613 65.1495 34.224C64.7015 35.312 64.0935 36.1653 63.3255 36.784C62.5575 37.3813 61.6615 37.68 60.6375 37.68C59.7202 37.68 58.9628 37.3813 58.3655 36.784C57.7682 36.1867 57.4695 35.312 57.4695 34.16C57.4695 32.3893 57.7042 30.7467 58.1735 29.232C58.9415 26.8213 59.6988 25.0187 60.4455 23.824C61.2135 22.608 62.0348 22 62.9095 22C63.5708 22 63.9015 22.4267 63.9015 23.28C63.9015 23.7493 63.8375 24.208 63.7095 24.656C63.6028 25.104 63.4215 25.712 63.1655 26.48C62.9095 27.2053 62.7282 27.7707 62.6215 28.176C62.5148 28.5813 62.4615 28.9867 62.4615 29.392C62.4615 29.8827 62.5575 30.2453 62.7495 30.48C62.9415 30.7147 63.2935 30.832 63.8055 30.832C64.4882 30.832 65.0428 30.64 65.4695 30.256C65.8962 29.8507 66.2482 29.2533 66.5255 28.464C67.2082 26.288 67.8908 24.6667 68.5735 23.6C69.2562 22.5333 69.9922 22 70.7815 22C71.2508 22 71.6028 22.1173 71.8375 22.352C72.0935 22.5653 72.2215 22.9173 72.2215 23.408C72.2215 23.792 72.1468 24.1973 71.9975 24.624C71.8695 25.0293 71.6348 25.6587 71.2935 26.512C71.1868 26.7893 71.0162 27.2373 70.7815 27.856C70.5468 28.4533 70.3335 29.04 70.1415 29.616C70.0135 30.064 69.9495 30.448 69.9495 30.768C69.9495 31.1947 70.0455 31.5147 70.2375 31.728C70.4295 31.92 70.6748 32.016 70.9735 32.016C71.7628 32.016 72.7975 31.088 74.0775 29.232ZM97.547 17.136C98.2723 17.3707 98.8057 17.776 99.147 18.352C99.5097 18.9067 99.691 19.5253 99.691 20.208C99.691 20.848 99.4777 21.4773 99.051 22.096C98.6243 22.7147 98.1337 23.2053 97.579 23.568C97.451 23.6533 97.2803 23.664 97.067 23.6C96.875 23.5147 96.7257 23.3973 96.619 23.248C96.5123 23.0773 96.5123 22.9173 96.619 22.768C96.8323 22.512 96.939 22.1707 96.939 21.744C96.939 21.4027 96.843 21.1253 96.651 20.912C96.4803 20.6773 96.2137 20.56 95.851 20.56C95.4243 20.56 95.0723 20.7093 94.795 21.008C94.539 21.2853 94.411 21.7227 94.411 22.32C94.411 22.7253 94.5177 23.1413 94.731 23.568C94.9443 23.9947 95.2643 24.5387 95.691 25.2C96.2243 26.0107 96.6297 26.7253 96.907 27.344C97.1843 27.9413 97.323 28.592 97.323 29.296C97.323 30.448 97.067 31.4827 96.555 32.4C96.0643 33.3173 95.3603 34.032 94.443 34.544C93.547 35.056 92.5337 35.312 91.403 35.312C90.955 35.312 90.4643 35.2587 89.931 35.152C89.7177 36.3893 89.419 37.3387 89.035 38C88.6723 38.6613 88.299 38.992 87.915 38.992C87.275 38.992 86.891 38.704 86.763 38.128C86.699 37.872 86.827 37.424 87.147 36.784C87.4883 36.144 88.0003 35.4507 88.683 34.704C87.8297 34.2987 87.1577 33.68 86.667 32.848C86.1977 31.9947 85.963 30.9813 85.963 29.808C85.963 28.6773 86.1657 27.7387 86.571 26.992C86.9763 26.2453 87.467 25.712 88.043 25.392C88.619 25.0507 89.1737 24.88 89.707 24.88C90.0057 24.88 90.2403 24.9333 90.411 25.04C90.603 25.1467 90.699 25.296 90.699 25.488C90.699 25.616 90.6137 25.776 90.443 25.968C90.2723 26.1387 90.1337 26.32 90.027 26.512C89.9203 26.704 89.867 26.9813 89.867 27.344C89.867 27.984 90.0377 28.4853 90.379 28.848C90.7203 29.2107 91.2003 29.392 91.819 29.392C92.3737 29.392 92.8323 29.2213 93.195 28.88C93.5577 28.5173 93.739 28.048 93.739 27.472C93.739 27.1093 93.6537 26.7573 93.483 26.416C93.3337 26.0747 93.0883 25.5947 92.747 24.976C92.299 24.208 91.9577 23.5467 91.723 22.992C91.4883 22.416 91.371 21.7867 91.371 21.104C91.371 19.9093 91.755 18.9067 92.523 18.096C93.291 17.2853 94.411 16.88 95.883 16.88H96.043C96.2563 15.6853 96.5443 14.768 96.907 14.128C97.291 13.488 97.675 13.168 98.059 13.168C98.7203 13.168 99.1043 13.4453 99.211 14C99.275 14.2347 99.1577 14.6507 98.859 15.248C98.5817 15.824 98.1443 16.4533 97.547 17.136ZM106.336 38.384C103.946 38.384 102.026 37.6267 100.576 36.112C99.1251 34.576 98.3997 32.272 98.3997 29.2C98.3997 26.6613 98.9758 24.2613 100.128 22C101.301 19.7387 102.848 17.936 104.768 16.592C106.709 15.2267 108.757 14.544 110.912 14.544C112.896 14.544 114.4 14.96 115.424 15.792C116.469 16.6027 116.992 17.712 116.992 19.12C116.992 20.2933 116.682 21.3813 116.064 22.384C115.466 23.3867 114.72 24.176 113.824 24.752C112.928 25.328 112.074 25.616 111.264 25.616C110.922 25.616 110.634 25.5307 110.4 25.36C110.186 25.1893 110.08 24.9867 110.08 24.752C110.08 24.6667 110.122 24.5173 110.208 24.304C110.826 23.1307 111.136 22.1707 111.136 21.424C111.136 20.8907 110.965 20.496 110.624 20.24C110.304 19.9627 109.866 19.824 109.312 19.824C108.373 19.824 107.509 20.1227 106.72 20.72C105.93 21.296 105.312 22.0747 104.864 23.056C104.416 24.016 104.192 25.0187 104.192 26.064C104.192 27.5787 104.725 28.8373 105.792 29.84C106.88 30.8213 108.437 31.312 110.464 31.312C111.594 31.312 112.65 31.152 113.632 30.832C114.634 30.512 115.381 29.9787 115.872 29.232C116 29.04 116.17 28.944 116.384 28.944C116.661 28.944 116.906 29.072 117.12 29.328C117.354 29.584 117.418 29.8187 117.312 30.032C115.925 32.8267 114.346 34.9173 112.576 36.304C110.826 37.6907 108.746 38.384 106.336 38.384ZM119.029 39.344C117.301 39.344 116 38.8213 115.125 37.776C114.272 36.7307 113.845 35.4613 113.845 33.968C113.845 33.0933 114.026 32.2507 114.389 31.44C114.752 30.6293 115.253 29.9787 115.893 29.488C116.533 28.9973 117.269 28.752 118.101 28.752C118.229 28.752 118.336 28.7947 118.421 28.88C118.528 28.944 118.581 29.0293 118.581 29.136C118.581 29.84 118.837 30.416 119.349 30.864C119.861 31.2907 120.501 31.504 121.269 31.504C123.381 31.504 125.269 29.68 126.933 26.032L127.285 25.136C127.434 24.7307 127.648 24.1653 127.925 23.44C128.202 22.6933 128.437 22.0747 128.629 21.584C129.013 20.56 129.706 20.048 130.709 20.048C131.712 20.048 132.213 20.4107 132.213 21.136C132.213 21.328 132.181 21.5413 132.117 21.776C131.562 23.376 131.242 24.5067 131.157 25.168C131.136 25.5307 131.221 25.7653 131.413 25.872C131.605 25.9787 131.925 26.032 132.373 26.032C133.034 26.032 133.653 25.8613 134.229 25.52C134.805 25.1573 135.264 24.6773 135.605 24.08C135.968 23.4613 136.149 22.7787 136.149 22.032C136.149 20.7947 135.637 19.8987 134.613 19.344C133.61 18.768 132.234 18.48 130.485 18.48C129.141 18.48 127.978 18.6827 126.997 19.088C126.016 19.4933 125.269 20.016 124.757 20.656C124.245 21.296 123.989 21.968 123.989 22.672C123.989 23.0987 124.106 23.4613 124.341 23.76C124.576 24.0373 124.864 24.176 125.205 24.176C125.29 24.432 125.333 24.6347 125.333 24.784C125.333 25.296 125.152 25.8293 124.789 26.384C124.426 26.9387 123.914 27.408 123.253 27.792C122.613 28.1547 121.866 28.336 121.013 28.336C119.754 28.336 118.773 27.9093 118.069 27.056C117.365 26.1813 117.013 25.1253 117.013 23.888C117.013 22.3307 117.589 20.8053 118.741 19.312C119.914 17.8187 121.568 16.592 123.701 15.632C125.856 14.672 128.309 14.192 131.061 14.192C134.496 14.192 137.066 14.7893 138.773 15.984C140.501 17.1787 141.365 18.8853 141.365 21.104C141.365 22.896 140.906 24.4107 139.989 25.648C139.093 26.864 137.856 27.6 136.277 27.856C135.85 27.92 135.552 27.9947 135.381 28.08C135.232 28.144 135.157 28.24 135.157 28.368C135.157 28.496 135.232 28.6133 135.381 28.72C135.53 28.8267 135.69 28.9653 135.861 29.136C136.053 29.2853 136.245 29.5307 136.437 29.872C136.714 30.3627 137.013 30.736 137.333 30.992C137.674 31.248 138.133 31.376 138.709 31.376C139.37 31.376 139.925 31.2053 140.373 30.864C140.842 30.5013 141.322 29.9573 141.813 29.232C141.941 29.04 142.112 28.944 142.325 28.944C142.602 28.944 142.848 29.072 143.061 29.328C143.274 29.5627 143.338 29.7973 143.253 30.032C142.336 32.1867 141.141 34.0533 139.669 35.632C138.197 37.2107 136.682 38 135.125 38C134.165 38 133.376 37.6693 132.757 37.008C132.16 36.3253 131.808 35.2907 131.701 33.904L131.637 32.944C131.573 31.7067 131.445 30.7467 131.253 30.064C131.061 29.3813 130.677 29.04 130.101 29.04C129.866 29.04 129.685 29.104 129.557 29.232C129.45 29.3387 129.354 29.52 129.269 29.776C128.202 32.6347 126.773 34.9493 124.981 36.72C123.21 38.4693 121.226 39.344 119.029 39.344ZM169.127 29.232C169.255 29.04 169.425 28.944 169.639 28.944C169.937 28.944 170.193 29.072 170.407 29.328C170.641 29.584 170.695 29.8187 170.567 30.032L169.959 31.216C169.361 32.4533 168.775 33.5307 168.199 34.448C167.644 35.3653 166.919 36.1867 166.023 36.912C165.148 37.6373 164.156 38 163.047 38C161.98 38 161.191 37.5627 160.679 36.688C160.188 35.8133 159.943 34.6613 159.943 33.232C159.943 32.5067 160.028 31.6107 160.199 30.544C158.876 30.48 157.575 30.2987 156.295 30L155.143 32.08C153.927 34.192 152.54 35.9307 150.983 37.296C149.447 38.6613 147.868 39.344 146.247 39.344C144.86 39.344 143.708 39.088 142.791 38.576C141.873 38.064 141.201 37.4027 140.774 36.592C140.326 35.7813 140.102 34.9067 140.102 33.968C140.102 33.0933 140.284 32.2507 140.646 31.44C141.009 30.6293 141.511 29.9787 142.151 29.488C142.791 28.9973 143.527 28.752 144.359 28.752C144.487 28.752 144.593 28.7947 144.679 28.88C144.785 28.944 144.839 29.0293 144.839 29.136C144.839 29.84 145.137 30.416 145.735 30.864C146.332 31.2907 147.079 31.504 147.975 31.504C149.809 31.504 151.516 30.5973 153.095 28.784C151.431 27.9307 150.119 26.8427 149.159 25.52C148.22 24.1973 147.751 22.7467 147.751 21.168C147.751 20.08 147.985 19.1413 148.455 18.352C148.924 17.5627 149.553 16.9653 150.343 16.56C151.132 16.1547 151.985 15.952 152.903 15.952C154.055 15.952 154.929 16.2613 155.527 16.88C156.124 17.4773 156.423 18.192 156.423 19.024C156.423 19.2587 156.359 19.44 156.231 19.568C156.103 19.696 155.932 19.7493 155.719 19.728C154.993 19.6427 154.364 19.824 153.831 20.272C153.297 20.72 153.031 21.4773 153.031 22.544C153.031 24.1867 153.628 25.5093 154.823 26.512L155.687 25.04C157.948 20.9653 160.113 18.096 162.183 16.432C164.273 14.768 166.3 13.936 168.263 13.936C169.329 13.936 170.14 14.2347 170.695 14.832C171.271 15.408 171.559 16.1547 171.559 17.072C171.537 18.096 171.292 18.9813 170.823 19.728C170.353 20.4533 169.788 20.816 169.127 20.816C168.999 20.816 168.807 20.7627 168.551 20.656C168.295 20.528 168.092 20.4747 167.943 20.496C167.601 20.496 167.239 20.7947 166.855 21.392C166.471 21.9893 166.087 22.9067 165.703 24.144C165.447 25.0613 165.244 25.8507 165.095 26.512C164.945 27.1733 164.871 27.7707 164.871 28.304C164.871 29.7973 165.415 30.544 166.503 30.544C167.015 30.544 167.505 30.4373 167.975 30.224C168.465 30.0107 168.849 29.68 169.127 29.232ZM160.679 28.368C161.127 26.832 161.713 25.2107 162.439 23.504C162.716 22.864 162.897 22.3947 162.983 22.096C163.089 21.7973 163.143 21.5093 163.143 21.232C163.143 20.9333 163.015 20.784 162.759 20.784C162.545 20.784 162.311 20.88 162.055 21.072C161.82 21.2427 161.479 21.584 161.031 22.096C160.092 23.312 158.897 25.232 157.447 27.856C158.321 28.1333 159.399 28.304 160.679 28.368ZM172.311 39.344C171.138 39.344 170.124 39.088 169.271 38.576C168.439 38.064 167.82 37.4027 167.415 36.592C166.988 35.76 166.775 34.8853 166.775 33.968C166.775 33.0933 166.956 32.2507 167.319 31.44C167.682 30.6293 168.183 29.9787 168.823 29.488C169.463 28.9973 170.199 28.752 171.031 28.752C171.159 28.752 171.266 28.7947 171.351 28.88C171.458 28.944 171.511 29.0293 171.511 29.136C171.511 29.8187 171.831 30.384 172.471 30.832C173.111 31.28 173.858 31.504 174.711 31.504C175.884 31.504 177.047 31.0453 178.199 30.128C179.351 29.2107 180.279 27.8453 180.983 26.032L181.335 25.136C181.484 24.7307 181.698 24.1653 181.975 23.44C182.252 22.6933 182.487 22.0747 182.679 21.584C183.063 20.56 183.756 20.048 184.759 20.048C185.762 20.048 186.263 20.4107 186.263 21.136C186.263 21.328 186.231 21.5413 186.167 21.776C185.954 22.3947 185.847 22.9067 185.847 23.312C185.847 23.9947 186.167 24.336 186.807 24.336C187.532 24.336 188.172 24.0587 188.727 23.504C189.303 22.9493 189.591 22.2027 189.591 21.264C189.591 20.3253 189.154 19.632 188.279 19.184C187.426 18.7147 186.316 18.48 184.951 18.48C182.946 18.48 181.292 18.8533 179.991 19.6C178.69 20.3253 178.039 21.4133 178.039 22.864C178.039 23.3333 178.156 23.728 178.391 24.048C178.626 24.3467 178.914 24.496 179.255 24.496C179.34 24.752 179.383 24.9547 179.383 25.104C179.383 25.616 179.202 26.1493 178.839 26.704C178.476 27.2587 177.964 27.728 177.303 28.112C176.663 28.4747 175.916 28.656 175.063 28.656C173.804 28.656 172.823 28.2507 172.119 27.44C171.415 26.6293 171.063 25.648 171.063 24.496C171.063 22.6187 171.639 20.9013 172.791 19.344C173.943 17.7653 175.575 16.5173 177.687 15.6C179.82 14.6613 182.295 14.192 185.111 14.192C187.351 14.192 189.228 14.4693 190.743 15.024C192.279 15.5787 193.42 16.336 194.167 17.296C194.935 18.2347 195.319 19.2907 195.319 20.464C195.319 21.7227 194.924 22.8533 194.135 23.856C193.367 24.8587 192.386 25.4667 191.191 25.68C190.914 25.744 190.775 25.8827 190.775 26.096C190.775 26.2027 190.818 26.2987 190.903 26.384C191.927 27.408 192.439 28.7413 192.439 30.384C192.439 31.9413 192.098 33.328 191.415 34.544C190.732 35.7387 189.836 36.6667 188.727 37.328C187.618 37.9893 186.434 38.32 185.175 38.32C183.788 38.32 182.679 37.9253 181.847 37.136C181.015 36.3467 180.556 35.28 180.471 33.936C179.298 35.7067 178.018 37.0507 176.631 37.968C175.266 38.8853 173.826 39.344 172.311 39.344ZM185.463 31.376C186.188 31.376 186.775 31.0773 187.223 30.48C187.671 29.8613 187.895 29.1467 187.895 28.336C187.895 27.8667 187.724 27.472 187.383 27.152C187.042 26.8107 186.54 26.64 185.879 26.64C185.196 26.64 184.652 26.8853 184.247 27.376C183.842 27.8667 183.639 28.4533 183.639 29.136C183.639 29.776 183.788 30.3093 184.087 30.736C184.407 31.1627 184.866 31.376 185.463 31.376ZM199.573 30.544C198.954 30.544 198.645 30.064 198.645 29.104C198.645 27.3333 198.911 25.232 199.445 22.8C199.999 20.3467 200.703 18.2453 201.557 16.496C202.41 14.7253 203.306 13.84 204.245 13.84C204.863 13.84 205.333 14.0213 205.653 14.384C205.973 14.7253 206.133 15.2373 206.133 15.92C206.133 17.072 205.695 18.832 204.821 21.2C203.946 23.5467 202.975 25.6907 201.909 27.632C200.842 29.5733 200.063 30.544 199.573 30.544ZM197.525 38.32C196.799 38.32 196.17 38.0533 195.637 37.52C195.103 36.9867 194.837 36.3573 194.837 35.632C194.837 34.8853 195.103 34.256 195.637 33.744C196.17 33.2107 196.799 32.944 197.525 32.944C198.271 32.944 198.901 33.2107 199.413 33.744C199.946 34.256 200.213 34.8853 200.213 35.632C200.213 36.3573 199.946 36.9867 199.413 37.52C198.901 38.0533 198.271 38.32 197.525 38.32Z" fill="white"/>
</svg>
