<svg width="1090" height="202" viewBox="0 0 1090 202" fill="none" xmlns="http://www.w3.org/2000/svg">
<path d="M35.968 136.536C26.4107 136.536 18.7307 133.507 12.928 127.448C7.12533 121.304 4.224 112.088 4.224 99.8C4.224 89.6453 6.528 80.0453 11.136 71C15.8293 61.9547 22.016 54.744 29.696 49.368C37.4613 43.9067 45.6533 41.176 54.272 41.176C62.208 41.176 68.224 42.84 72.32 46.168C76.5013 49.4107 78.592 53.848 78.592 59.48C78.592 64.1733 77.3547 68.5253 74.88 72.536C72.4907 76.5467 69.504 79.704 65.92 82.008C62.336 84.312 58.9227 85.464 55.68 85.464C54.3147 85.464 53.1627 85.1227 52.224 84.44C51.3707 83.7573 50.944 82.9467 50.944 82.008C50.944 81.6667 51.1147 81.0693 51.456 80.216C53.9307 75.5227 55.168 71.6827 55.168 68.696C55.168 66.5627 54.4853 64.984 53.12 63.96C51.84 62.8507 50.0907 62.296 47.872 62.296C44.1173 62.296 40.6613 63.4907 37.504 65.88C34.3467 68.184 31.872 71.2987 30.08 75.224C28.288 79.064 27.392 83.0747 27.392 87.256C27.392 93.3147 29.5253 98.3493 33.792 102.36C38.144 106.285 44.3733 108.248 52.48 108.248C57.0027 108.248 61.2267 107.608 65.152 106.328C69.1627 105.048 72.1493 102.915 74.112 99.928C74.624 99.16 75.3067 98.776 76.16 98.776C77.2693 98.776 78.2507 99.288 79.104 100.312C80.0427 101.336 80.2987 102.275 79.872 103.128C74.3253 114.307 68.0107 122.669 60.928 128.216C53.9307 133.763 45.6107 136.536 35.968 136.536ZM86.741 140.376C79.829 140.376 74.6237 138.285 71.125 134.104C67.7117 129.923 66.005 124.845 66.005 118.872C66.005 115.373 66.7303 112.003 68.181 108.76C69.6317 105.517 71.637 102.915 74.197 100.952C76.757 98.9893 79.701 98.008 83.029 98.008C83.541 98.008 83.9677 98.1787 84.309 98.52C84.7357 98.776 84.949 99.1173 84.949 99.544C84.949 102.36 85.973 104.664 88.021 106.456C90.069 108.163 92.629 109.016 95.701 109.016C104.149 109.016 111.701 101.72 118.357 87.128L119.765 83.544C120.362 81.9227 121.216 79.6613 122.325 76.76C123.434 73.7733 124.373 71.2987 125.141 69.336C126.677 65.24 129.45 63.192 133.461 63.192C137.472 63.192 139.477 64.6427 139.477 67.544C139.477 68.312 139.349 69.1653 139.093 70.104C136.874 76.504 135.594 81.0267 135.253 83.672C135.168 85.1227 135.509 86.0613 136.277 86.488C137.045 86.9147 138.325 87.128 140.117 87.128C142.762 87.128 145.237 86.4453 147.541 85.08C149.845 83.6293 151.68 81.7093 153.045 79.32C154.496 76.8453 155.221 74.1147 155.221 71.128C155.221 66.1787 153.173 62.5947 149.077 60.376C145.066 58.072 139.562 56.92 132.565 56.92C127.189 56.92 122.538 57.7307 118.613 59.352C114.688 60.9733 111.701 63.064 109.653 65.624C107.605 68.184 106.581 70.872 106.581 73.688C106.581 75.3947 107.05 76.8453 107.989 78.04C108.928 79.1493 110.08 79.704 111.445 79.704C111.786 80.728 111.957 81.5387 111.957 82.136C111.957 84.184 111.232 86.3173 109.781 88.536C108.33 90.7547 106.282 92.632 103.637 94.168C101.077 95.6187 98.0903 96.344 94.677 96.344C89.6423 96.344 85.717 94.6373 82.901 91.224C80.085 87.7253 78.677 83.5013 78.677 78.552C78.677 72.3227 80.981 66.2213 85.589 60.248C90.2823 54.2747 96.8957 49.368 105.429 45.528C114.048 41.688 123.861 39.768 134.869 39.768C148.608 39.768 158.89 42.1573 165.717 46.936C172.629 51.7147 176.085 58.5413 176.085 67.416C176.085 74.584 174.25 80.6427 170.581 85.592C166.997 90.456 162.048 93.4 155.733 94.424C154.026 94.68 152.832 94.9787 152.149 95.32C151.552 95.576 151.253 95.96 151.253 96.472C151.253 96.984 151.552 97.4533 152.149 97.88C152.746 98.3067 153.386 98.8613 154.069 99.544C154.837 100.141 155.605 101.123 156.373 102.488C157.482 104.451 158.677 105.944 159.957 106.968C161.322 107.992 163.157 108.504 165.461 108.504C168.106 108.504 170.325 107.821 172.117 106.456C173.994 105.005 175.914 102.829 177.877 99.928C178.389 99.16 179.072 98.776 179.925 98.776C181.034 98.776 182.016 99.288 182.869 100.312C183.722 101.251 183.978 102.189 183.637 103.128C179.968 111.747 175.189 119.213 169.301 125.528C163.413 131.843 157.354 135 151.125 135C147.285 135 144.128 133.677 141.653 131.032C139.264 128.301 137.856 124.163 137.429 118.616L137.173 114.776C136.917 109.827 136.405 105.987 135.637 103.256C134.869 100.525 133.333 99.16 131.029 99.16C130.09 99.16 129.365 99.416 128.853 99.928C128.426 100.355 128.042 101.08 127.701 102.104C123.434 113.539 117.717 122.797 110.549 129.88C103.466 136.877 95.5303 140.376 86.741 140.376ZM287.131 99.928C287.643 99.16 288.326 98.776 289.179 98.776C290.374 98.776 291.398 99.288 292.251 100.312C293.19 101.336 293.403 102.275 292.891 103.128L290.459 107.864C288.07 112.813 285.723 117.123 283.419 120.792C281.2 124.461 278.299 127.747 274.715 130.648C271.216 133.549 267.248 135 262.811 135C258.544 135 255.387 133.251 253.339 129.752C251.376 126.253 250.395 121.645 250.395 115.928C250.395 113.027 250.736 109.443 251.419 105.176C246.128 104.92 240.923 104.195 235.803 103L231.195 111.32C226.331 119.768 220.784 126.723 214.555 132.184C208.411 137.645 202.096 140.376 195.611 140.376C190.064 140.376 185.456 139.352 181.787 137.304C178.118 135.256 175.43 132.611 173.723 129.368C171.931 126.125 171.035 122.627 171.035 118.872C171.035 115.373 171.76 112.003 173.211 108.76C174.662 105.517 176.667 102.915 179.227 100.952C181.787 98.9893 184.731 98.008 188.059 98.008C188.571 98.008 188.998 98.1787 189.339 98.52C189.766 98.776 189.979 99.1173 189.979 99.544C189.979 102.36 191.174 104.664 193.563 106.456C195.952 108.163 198.939 109.016 202.523 109.016C209.862 109.016 216.688 105.389 223.003 98.136C216.347 94.7227 211.099 90.3707 207.259 85.08C203.504 79.7893 201.627 73.9867 201.627 67.672C201.627 63.32 202.566 59.5653 204.443 56.408C206.32 53.2507 208.838 50.8613 211.995 49.24C215.152 47.6187 218.566 46.808 222.235 46.808C226.843 46.808 230.342 48.0453 232.731 50.52C235.12 52.9093 236.315 55.768 236.315 59.096C236.315 60.0347 236.059 60.76 235.547 61.272C235.035 61.784 234.352 61.9973 233.499 61.912C230.598 61.5707 228.08 62.296 225.947 64.088C223.814 65.88 222.747 68.9093 222.747 73.176C222.747 79.7467 225.136 85.0373 229.915 89.048L233.371 83.16C242.416 66.8613 251.078 55.384 259.355 48.728C267.718 42.072 275.824 38.744 283.675 38.744C287.942 38.744 291.184 39.9387 293.403 42.328C295.707 44.632 296.859 47.6187 296.859 51.288C296.774 55.384 295.792 58.9253 293.915 61.912C292.038 64.8133 289.776 66.264 287.131 66.264C286.619 66.264 285.851 66.0507 284.827 65.624C283.803 65.112 282.992 64.8987 282.395 64.984C281.03 64.984 279.579 66.1787 278.043 68.568C276.507 70.9573 274.971 74.6267 273.435 79.576C272.411 83.2453 271.6 86.4027 271.003 89.048C270.406 91.6933 270.107 94.0827 270.107 96.216C270.107 102.189 272.283 105.176 276.635 105.176C278.683 105.176 280.646 104.749 282.523 103.896C284.486 103.043 286.022 101.72 287.131 99.928ZM253.339 96.472C255.131 90.328 257.478 83.8427 260.379 77.016C261.488 74.456 262.214 72.5787 262.555 71.384C262.982 70.1893 263.195 69.0373 263.195 67.928C263.195 66.7333 262.683 66.136 261.659 66.136C260.806 66.136 259.867 66.52 258.843 67.288C257.904 67.9707 256.539 69.336 254.747 71.384C250.992 76.248 246.214 83.928 240.411 94.424C243.91 95.5333 248.219 96.216 253.339 96.472ZM299.869 140.376C295.176 140.376 291.122 139.352 287.709 137.304C284.381 135.256 281.906 132.611 280.285 129.368C278.578 126.04 277.725 122.541 277.725 118.872C277.725 115.373 278.45 112.003 279.901 108.76C281.352 105.517 283.357 102.915 285.917 100.952C288.477 98.9893 291.421 98.008 294.749 98.008C295.261 98.008 295.688 98.1787 296.029 98.52C296.456 98.776 296.669 99.1173 296.669 99.544C296.669 102.275 297.949 104.536 300.509 106.328C303.069 108.12 306.056 109.016 309.469 109.016C314.162 109.016 318.813 107.181 323.421 103.512C328.029 99.8427 331.741 94.3813 334.557 87.128L335.965 83.544C336.562 81.9227 337.416 79.6613 338.525 76.76C339.634 73.7733 340.573 71.2987 341.341 69.336C342.877 65.24 345.65 63.192 349.661 63.192C353.672 63.192 355.677 64.6427 355.677 67.544C355.677 68.312 355.549 69.1653 355.293 70.104C354.44 72.5787 354.013 74.6267 354.013 76.248C354.013 78.9787 355.293 80.344 357.853 80.344C360.754 80.344 363.314 79.2347 365.533 77.016C367.837 74.7973 368.989 71.8107 368.989 68.056C368.989 64.3013 367.24 61.528 363.741 59.736C360.328 57.8587 355.89 56.92 350.429 56.92C342.408 56.92 335.794 58.4133 330.589 61.4C325.384 64.3013 322.781 68.6533 322.781 74.456C322.781 76.3333 323.25 77.912 324.189 79.192C325.128 80.3867 326.28 80.984 327.645 80.984C327.986 82.008 328.157 82.8187 328.157 83.416C328.157 85.464 327.432 87.5973 325.981 89.816C324.53 92.0347 322.482 93.912 319.837 95.448C317.277 96.8987 314.29 97.624 310.877 97.624C305.842 97.624 301.917 96.0027 299.101 92.76C296.285 89.5173 294.877 85.592 294.877 80.984C294.877 73.4747 297.181 66.6053 301.789 60.376C306.397 54.0613 312.925 49.0693 321.373 45.4C329.906 41.6453 339.805 39.768 351.069 39.768C360.029 39.768 367.538 40.8773 373.597 43.096C379.741 45.3147 384.306 48.344 387.293 52.184C390.365 55.9387 391.901 60.1627 391.901 64.856C391.901 69.8907 390.322 74.4133 387.165 78.424C384.093 82.4347 380.168 84.8667 375.389 85.72C374.28 85.976 373.725 86.5307 373.725 87.384C373.725 87.8107 373.896 88.1947 374.237 88.536C378.333 92.632 380.381 97.9653 380.381 104.536C380.381 110.765 379.016 116.312 376.285 121.176C373.554 125.955 369.97 129.667 365.533 132.312C361.096 134.957 356.36 136.28 351.325 136.28C345.778 136.28 341.341 134.701 338.013 131.544C334.685 128.387 332.85 124.12 332.509 118.744C327.816 125.827 322.696 131.203 317.149 134.872C311.688 138.541 305.928 140.376 299.869 140.376ZM352.477 108.504C355.378 108.504 357.725 107.309 359.517 104.92C361.309 102.445 362.205 99.5867 362.205 96.344C362.205 94.4667 361.522 92.888 360.157 91.608C358.792 90.2427 356.786 89.56 354.141 89.56C351.41 89.56 349.234 90.5413 347.613 92.504C345.992 94.4667 345.181 96.8133 345.181 99.544C345.181 102.104 345.778 104.237 346.973 105.944C348.253 107.651 350.088 108.504 352.477 108.504ZM401.619 140.376C396.926 140.376 392.872 139.352 389.459 137.304C386.131 135.256 383.656 132.611 382.035 129.368C380.328 126.04 379.475 122.541 379.475 118.872C379.475 115.373 380.2 112.003 381.651 108.76C383.102 105.517 385.107 102.915 387.667 100.952C390.227 98.9893 393.171 98.008 396.499 98.008C397.011 98.008 397.438 98.1787 397.779 98.52C398.206 98.776 398.419 99.1173 398.419 99.544C398.419 102.275 399.699 104.536 402.259 106.328C404.819 108.12 407.806 109.016 411.219 109.016C415.912 109.016 420.563 107.181 425.171 103.512C429.779 99.8427 433.491 94.3813 436.307 87.128L437.715 83.544C438.312 81.9227 439.166 79.6613 440.275 76.76C441.384 73.7733 442.323 71.2987 443.091 69.336C444.627 65.24 447.4 63.192 451.411 63.192C455.422 63.192 457.427 64.6427 457.427 67.544C457.427 68.312 457.299 69.1653 457.043 70.104C456.19 72.5787 455.763 74.6267 455.763 76.248C455.763 78.9787 457.043 80.344 459.603 80.344C462.504 80.344 465.064 79.2347 467.283 77.016C469.587 74.7973 470.739 71.8107 470.739 68.056C470.739 64.3013 468.99 61.528 465.491 59.736C462.078 57.8587 457.64 56.92 452.179 56.92C444.158 56.92 437.544 58.4133 432.339 61.4C427.134 64.3013 424.531 68.6533 424.531 74.456C424.531 76.3333 425 77.912 425.939 79.192C426.878 80.3867 428.03 80.984 429.395 80.984C429.736 82.008 429.907 82.8187 429.907 83.416C429.907 85.464 429.182 87.5973 427.731 89.816C426.28 92.0347 424.232 93.912 421.587 95.448C419.027 96.8987 416.04 97.624 412.627 97.624C407.592 97.624 403.667 96.0027 400.851 92.76C398.035 89.5173 396.627 85.592 396.627 80.984C396.627 73.4747 398.931 66.6053 403.539 60.376C408.147 54.0613 414.675 49.0693 423.123 45.4C431.656 41.6453 441.555 39.768 452.819 39.768C461.779 39.768 469.288 40.8773 475.347 43.096C481.491 45.3147 486.056 48.344 489.043 52.184C492.115 55.9387 493.651 60.1627 493.651 64.856C493.651 69.8907 492.072 74.4133 488.915 78.424C485.843 82.4347 481.918 84.8667 477.139 85.72C476.03 85.976 475.475 86.5307 475.475 87.384C475.475 87.8107 475.646 88.1947 475.987 88.536C480.083 92.632 482.131 97.9653 482.131 104.536C482.131 110.765 480.766 116.312 478.035 121.176C475.304 125.955 471.72 129.667 467.283 132.312C462.846 134.957 458.11 136.28 453.075 136.28C447.528 136.28 443.091 134.701 439.763 131.544C436.435 128.387 434.6 124.12 434.259 118.744C429.566 125.827 424.446 131.203 418.899 134.872C413.438 138.541 407.678 140.376 401.619 140.376ZM454.227 108.504C457.128 108.504 459.475 107.309 461.267 104.92C463.059 102.445 463.955 99.5867 463.955 96.344C463.955 94.4667 463.272 92.888 461.907 91.608C460.542 90.2427 458.536 89.56 455.891 89.56C453.16 89.56 450.984 90.5413 449.363 92.504C447.742 94.4667 446.931 96.8133 446.931 99.544C446.931 102.104 447.528 104.237 448.723 105.944C450.003 107.651 451.838 108.504 454.227 108.504ZM528.457 162.52C521.033 162.52 514.846 161.197 509.897 158.552C505.033 155.907 501.449 152.493 499.145 148.312C496.841 144.131 495.689 139.651 495.689 134.872C495.689 130.861 496.457 127.107 497.993 123.608C499.614 120.024 501.876 117.165 504.777 115.032C507.678 112.813 511.006 111.704 514.761 111.704C516.212 111.704 517.236 111.875 517.833 112.216C518.516 112.557 518.9 112.941 518.985 113.368C519.07 113.795 519.113 114.52 519.113 115.544C519.113 118.531 519.838 121.347 521.289 123.992C522.74 126.637 525.001 128.813 528.073 130.52C531.23 132.227 535.07 133.08 539.593 133.08C546.932 133.08 552.734 131.203 557.001 127.448C561.353 123.608 564.34 119.384 565.961 114.776C567.668 110.083 568.521 106.2 568.521 103.128C568.521 102.104 568.137 101.592 567.369 101.592C566.686 101.592 566.132 102.104 565.705 103.128C563.742 109.955 560.542 115.288 556.105 119.128C551.668 122.883 546.804 124.76 541.513 124.76C535.966 124.76 531.657 122.797 528.585 118.872C525.513 114.861 523.977 109.656 523.977 103.256C523.977 98.0507 525.342 92.1627 528.073 85.592C530.804 78.936 534.345 72.8773 538.697 67.416C543.049 61.8693 547.486 57.9867 552.009 55.768C541.257 55.3413 532.809 56.536 526.665 59.352C520.521 62.168 517.449 66.3493 517.449 71.896C517.449 73.7733 517.918 75.352 518.857 76.632C519.796 77.8267 520.948 78.424 522.313 78.424C522.654 79.448 522.825 80.2587 522.825 80.856C522.825 82.904 522.1 85.0373 520.649 87.256C519.198 89.4747 517.15 91.352 514.505 92.888C511.945 94.3387 508.958 95.064 505.545 95.064C500.51 95.064 496.585 93.4427 493.769 90.2C490.953 86.9573 489.545 83.032 489.545 78.424C489.545 71.4267 491.892 64.984 496.585 59.096C501.364 53.208 508.148 48.5147 516.937 45.016C525.726 41.5173 535.838 39.768 547.273 39.768C553.673 39.768 558.708 40.7067 562.377 42.584C566.132 44.376 568.009 47.1067 568.009 50.776C568.009 52.2267 567.668 53.8907 566.985 55.768C563.316 57.2187 559.817 59.9067 556.489 63.832C553.246 67.672 550.601 71.9387 548.553 76.632C546.59 81.3253 545.609 85.5067 545.609 89.176C545.609 94.9787 547.7 97.88 551.881 97.88C556.745 97.88 560.67 95.448 563.657 90.584C566.729 85.6347 569.844 77.8267 573.001 67.16C575.817 57.176 578.59 50.6053 581.321 47.448C584.052 44.2907 586.825 42.712 589.641 42.712C592.372 42.712 594.462 43.5227 595.913 45.144C597.449 46.68 598.217 48.8987 598.217 51.8C598.217 53.9333 597.705 56.152 596.681 58.456C595.742 60.76 594.292 63.704 592.329 67.288C590.622 70.4453 589.172 73.2613 587.977 75.736C586.868 78.1253 585.929 80.6427 585.161 83.288C584.905 84.056 584.308 85.8907 583.369 88.792C582.516 91.608 581.705 94.7227 580.937 98.136C580.169 101.464 579.486 105.091 578.889 109.016C576.329 125.997 570.868 139.139 562.505 148.44C554.142 157.827 542.793 162.52 528.457 162.52ZM600.619 140.376C595.926 140.376 591.872 139.352 588.459 137.304C585.131 135.256 582.656 132.611 581.035 129.368C579.328 126.04 578.475 122.541 578.475 118.872C578.475 115.373 579.2 112.003 580.651 108.76C582.102 105.517 584.107 102.915 586.667 100.952C589.227 98.9893 592.171 98.008 595.499 98.008C596.011 98.008 596.438 98.1787 596.779 98.52C597.206 98.776 597.419 99.1173 597.419 99.544C597.419 102.36 598.614 104.664 601.003 106.456C603.478 108.163 606.592 109.016 610.347 109.016C615.979 109.016 621.142 106.883 625.835 102.616C630.614 98.3493 634.411 93.1867 637.227 87.128C640.043 80.984 641.451 75.5227 641.451 70.744C641.451 67.3307 640.683 64.728 639.147 62.936C637.696 61.0587 635.606 60.12 632.875 60.12C630.23 60.12 627.968 60.9733 626.091 62.68C624.299 64.3013 623.403 66.4773 623.403 69.208C623.403 71.4267 624 73.304 625.195 74.84C626.475 76.376 628.054 77.144 629.931 77.144C630.272 77.8267 630.443 78.6373 630.443 79.576C630.443 81.4533 629.803 83.416 628.523 85.464C627.243 87.512 625.366 89.2187 622.891 90.584C620.502 91.864 617.771 92.504 614.699 92.504C609.579 92.504 605.355 90.6693 602.027 87C598.784 83.2453 597.163 78.296 597.163 72.152C597.163 66.4347 598.656 61.1013 601.643 56.152C604.715 51.2027 609.152 47.2347 614.955 44.248C620.758 41.2613 627.627 39.768 635.563 39.768C646.059 39.768 654.038 43.5653 659.499 51.16C665.046 58.7547 667.819 71.1707 667.819 88.408C667.819 90.2 668.374 91.096 669.483 91.096C669.995 91.096 670.464 90.84 670.891 90.328C671.403 89.816 671.702 89.176 671.787 88.408C672.726 79.7893 674.688 71.8107 677.675 64.472C680.747 57.1333 684.971 51.16 690.347 46.552C695.723 41.944 702.208 39.64 709.803 39.64C715.776 39.64 720.256 40.9627 723.243 43.608C726.315 46.168 727.851 49.2827 727.851 52.952C727.851 56.9627 726.699 60.12 724.395 62.424C722.176 64.728 718.806 65.88 714.283 65.88C712.747 65.88 711.424 65.4107 710.315 64.472C709.376 63.704 708.352 63.32 707.243 63.32C700.502 63.32 694.571 68.4827 689.451 78.808C684.331 89.048 680.107 103.085 676.779 120.92C675.84 125.699 674.219 129.24 671.915 131.544C669.611 133.848 666.88 135 663.723 135C659.371 135 656.256 133.165 654.379 129.496C652.502 125.827 651.563 120.365 651.563 113.112C651.563 103.725 652.075 94.1253 653.099 84.312C653.184 83.4587 653.056 82.8187 652.715 82.392C652.459 81.88 652.032 81.624 651.435 81.624C650.923 81.624 650.454 81.8373 650.027 82.264C649.6 82.6907 649.344 83.2453 649.259 83.928C645.334 103.384 639.104 117.677 630.571 126.808C622.038 135.853 612.054 140.376 600.619 140.376ZM738.661 39.64C745.829 39.64 751.29 41.9867 755.045 46.68C758.8 51.288 760.677 57.7733 760.677 66.136C760.677 75.7787 758.586 86.0613 754.405 96.984C750.309 107.821 744.762 116.909 737.765 124.248C730.853 131.587 723.386 135.256 715.365 135.256C711.098 135.256 707.045 134.104 703.205 131.8C699.365 129.411 696.25 125.784 693.861 120.92C691.472 115.971 690.277 109.912 690.277 102.744C690.277 96.0027 691.301 89.048 693.349 81.88C695.482 74.6267 698.042 68.6533 701.029 63.96C704.357 58.84 708.026 56.28 712.037 56.28C713.488 56.28 714.682 56.6213 715.621 57.304C717.328 52.0987 720.101 47.8747 723.941 44.632C727.866 41.304 732.773 39.64 738.661 39.64ZM721.509 106.2C725.52 106.2 729.232 104.707 732.645 101.72C736.144 98.7333 738.917 94.8933 740.965 90.2C743.013 85.4213 744.037 80.6 744.037 75.736C744.037 70.616 743.098 66.776 741.221 64.216C739.429 61.5707 736.912 60.248 733.669 60.248C731.536 60.248 729.829 60.8453 728.549 62.04C727.354 63.1493 726.757 64.6 726.757 66.392C726.757 68.0133 727.226 69.336 728.165 70.36C729.104 71.384 730.341 71.896 731.877 71.896C733.413 71.896 734.565 72.408 735.333 73.432C736.186 74.3707 736.613 75.608 736.613 77.144C736.613 79.5333 735.76 81.6667 734.053 83.544C732.346 85.4213 729.957 86.36 726.885 86.36C723.642 86.36 720.954 85.1227 718.821 82.648C716.688 80.088 715.237 76.8027 714.469 72.792C713.189 75.864 712.208 78.7653 711.525 81.496C710.842 84.1413 710.501 87.1707 710.501 90.584C710.501 100.995 714.17 106.2 721.509 106.2ZM892.296 99.928C892.808 99.2453 893.32 98.904 893.832 98.904C894.515 98.904 895.24 99.3733 896.008 100.312C896.861 101.165 897.544 102.104 898.056 103.128L895.624 107.864C893.235 112.813 890.888 117.123 888.584 120.792C886.365 124.461 883.464 127.747 879.88 130.648C876.381 133.549 872.413 135 867.976 135C863.283 135 859.699 133.379 857.224 130.136C854.835 126.808 853.64 122.2 853.64 116.312C853.64 112.301 854.152 108.461 855.176 104.792C856.285 101.123 857.821 96.6427 859.784 91.352C860.552 89.4747 861.192 87.7253 861.704 86.104C862.301 84.3973 862.6 83.1173 862.6 82.264C862.6 80.3867 861.789 79.448 860.168 79.448C858.547 79.448 856.968 80.5147 855.432 82.648C853.981 84.696 852.275 88.536 850.312 94.168C848.435 99.7147 846.131 107.779 843.4 118.36C842.376 122.371 840.883 125.144 838.92 126.68C837.043 128.131 834.824 128.856 832.264 128.856C828.424 128.856 825.779 128.216 824.328 126.936C822.877 125.656 822.152 123.608 822.152 120.792C822.152 118.829 822.408 116.653 822.92 114.264C823.517 111.875 824.413 108.76 825.608 104.92C826.888 100.483 827.869 96.8133 828.552 93.912C829.235 90.9253 829.576 88.024 829.576 85.208C829.576 81.112 828.552 79.064 826.504 79.064C824.627 79.064 823.432 80.2587 822.92 82.648C818.909 102.445 812.552 117.037 803.848 126.424C795.229 135.725 785.117 140.376 773.512 140.376C768.819 140.376 764.765 139.352 761.352 137.304C758.024 135.256 755.549 132.611 753.928 129.368C752.221 126.04 751.368 122.541 751.368 118.872C751.368 115.373 752.093 112.003 753.544 108.76C754.995 105.517 757 102.915 759.56 100.952C762.12 98.9893 765.064 98.008 768.392 98.008C768.904 98.008 769.331 98.1787 769.672 98.52C770.099 98.776 770.312 99.1173 770.312 99.544C770.312 102.36 771.507 104.664 773.896 106.456C776.371 108.163 779.485 109.016 783.24 109.016C788.872 109.016 794.035 106.883 798.728 102.616C803.507 98.3493 807.304 93.1867 810.12 87.128C812.936 80.984 814.344 75.5227 814.344 70.744C814.344 67.416 813.576 64.856 812.04 63.064C810.504 61.1867 808.328 60.248 805.512 60.248C802.269 60.248 799.496 61.4427 797.192 63.832C794.888 66.136 793.736 69.208 793.736 73.048C793.736 75.2667 794.333 77.144 795.528 78.68C796.808 80.216 798.387 80.984 800.264 80.984C800.605 81.6667 800.776 82.4773 800.776 83.416C800.776 85.2933 800.136 87.256 798.856 89.304C797.576 91.352 795.699 93.0587 793.224 94.424C790.835 95.704 788.104 96.344 785.032 96.344C779.912 96.344 775.688 94.5093 772.36 90.84C769.117 87.1707 767.496 82.3493 767.496 76.376C767.496 69.8907 769.245 63.8747 772.744 58.328C776.243 52.696 781.192 48.216 787.592 44.888C794.077 41.4747 801.459 39.768 809.736 39.768C820.659 39.768 829.235 42.8827 835.464 49.112C841.693 55.256 845.363 63.7893 846.472 74.712C849.373 68.6533 852.957 62.9787 857.224 57.688C861.576 52.312 866.184 48.0027 871.048 44.76C875.997 41.432 880.733 39.768 885.256 39.768C889.864 39.768 893.277 41.0053 895.496 43.48C897.715 45.9547 898.824 49.112 898.824 52.952C898.824 55.4267 898.355 57.944 897.416 60.504C896.477 62.9787 895.24 65.0267 893.704 66.648C892.253 68.2693 890.803 69.08 889.352 69.08C888.669 69.08 887.816 68.8667 886.792 68.44C885.853 67.928 885.128 67.672 884.616 67.672C882.653 67.672 880.861 69.5067 879.24 73.176C877.619 76.8453 876.339 81.112 875.4 85.976C874.461 90.7547 873.992 94.5947 873.992 97.496C873.992 103.469 876.595 106.456 881.8 106.456C883.763 106.456 885.64 105.901 887.432 104.792C889.309 103.683 890.931 102.061 892.296 99.928ZM912.159 136.536C907.892 136.536 904.436 135.427 901.791 133.208C899.146 130.904 897.823 127.917 897.823 124.248C897.823 121.517 898.548 119.085 899.999 116.952C901.535 114.733 904.01 111.917 907.423 108.504C910.154 105.773 912.244 103.597 913.695 101.976C918.388 96.6853 922.228 91.1387 925.215 85.336C928.202 79.5333 931.914 71.1707 936.351 60.248C934.559 59.8213 932.468 59.608 930.079 59.608C925.727 59.608 922.143 60.5893 919.327 62.552C916.596 64.5147 915.231 67.2027 915.231 70.616C915.231 72.4933 915.7 74.072 916.639 75.352C917.578 76.5467 918.73 77.144 920.095 77.144C920.436 78.168 920.607 78.9787 920.607 79.576C920.607 81.624 919.882 83.7573 918.431 85.976C916.98 88.1947 914.932 90.072 912.287 91.608C909.727 93.0587 906.74 93.784 903.327 93.784C898.292 93.784 894.367 92.1627 891.551 88.92C888.735 85.6773 887.327 81.752 887.327 77.144C887.327 70.3173 889.204 64.088 892.959 58.456C896.799 52.7387 902.218 48.216 909.215 44.888C916.298 41.4747 924.447 39.768 933.663 39.768C940.319 39.768 945.055 40.7493 947.871 42.712C950.687 44.6747 952.095 47.6187 952.095 51.544C952.095 53.9333 951.626 56.8773 950.687 60.376C948.81 68.056 946.207 77.6133 942.879 89.048C939.636 100.397 936.778 109.741 934.303 117.08C932.255 123.395 929.311 128.216 925.471 131.544C921.631 134.872 917.194 136.536 912.159 136.536ZM979.718 136.536C970.161 136.536 962.481 133.507 956.678 127.448C950.875 121.304 947.974 112.088 947.974 99.8C947.974 89.6453 950.278 80.0453 954.886 71C959.579 61.9547 965.766 54.744 973.446 49.368C981.211 43.9067 989.403 41.176 998.022 41.176C1005.96 41.176 1011.97 42.84 1016.07 46.168C1020.25 49.4107 1022.34 53.848 1022.34 59.48C1022.34 64.1733 1021.1 68.5253 1018.63 72.536C1016.24 76.5467 1013.25 79.704 1009.67 82.008C1006.09 84.312 1002.67 85.464 999.43 85.464C998.065 85.464 996.913 85.1227 995.974 84.44C995.121 83.7573 994.694 82.9467 994.694 82.008C994.694 81.6667 994.865 81.0693 995.206 80.216C997.681 75.5227 998.918 71.6827 998.918 68.696C998.918 66.5627 998.235 64.984 996.87 63.96C995.59 62.8507 993.841 62.296 991.622 62.296C987.867 62.296 984.411 63.4907 981.254 65.88C978.097 68.184 975.622 71.2987 973.83 75.224C972.038 79.064 971.142 83.0747 971.142 87.256C971.142 93.3147 973.275 98.3493 977.542 102.36C981.894 106.285 988.123 108.248 996.23 108.248C1000.75 108.248 1004.98 107.608 1008.9 106.328C1012.91 105.048 1015.9 102.915 1017.86 99.928C1018.37 99.16 1019.06 98.776 1019.91 98.776C1021.02 98.776 1022 99.288 1022.85 100.312C1023.79 101.336 1024.05 102.275 1023.62 103.128C1018.08 114.307 1011.76 122.669 1004.68 128.216C997.681 133.763 989.361 136.536 979.718 136.536ZM1043.93 140.376C1038.3 140.376 1033.22 139.224 1028.7 136.92C1024.26 134.616 1020.76 131.203 1018.2 126.68C1015.64 122.157 1014.36 116.696 1014.36 110.296C1014.36 104.067 1015.47 98.9467 1017.69 94.936C1019.91 90.9253 1022.56 88.024 1025.63 86.232C1028.78 84.44 1031.81 83.544 1034.72 83.544C1036.34 83.544 1037.62 83.8427 1038.56 84.44C1039.49 85.0373 1039.96 85.8053 1039.96 86.744C1039.96 87.5973 1039.45 88.536 1038.43 89.56C1037.49 90.584 1036.76 91.608 1036.25 92.632C1035.74 93.656 1035.48 95.1067 1035.48 96.984C1035.48 100.483 1036.42 103.256 1038.3 105.304C1040.18 107.267 1042.78 108.248 1046.11 108.248C1049.18 108.248 1051.7 107.267 1053.66 105.304C1055.62 103.341 1056.6 100.781 1056.6 97.624C1056.6 95.6613 1056.13 93.6987 1055.2 91.736C1054.34 89.7733 1053.02 87.256 1051.23 84.184C1048.84 80.088 1046.96 76.4613 1045.6 73.304C1044.32 70.1467 1043.68 66.648 1043.68 62.808C1043.68 58.712 1044.57 54.9147 1046.36 51.416C1048.16 47.9173 1050.89 45.1013 1054.56 42.968C1058.31 40.8347 1062.92 39.768 1068.38 39.768C1075.38 39.768 1080.58 41.5173 1084 45.016C1087.41 48.5147 1089.12 52.824 1089.12 57.944C1089.12 61.784 1088.09 65.368 1086.04 68.696C1084 72.024 1081.22 74.584 1077.72 76.376C1077.47 76.8027 1077.04 77.016 1076.44 77.016C1075.5 77.016 1074.52 76.5893 1073.5 75.736C1072.48 74.7973 1071.96 73.9013 1071.96 73.048C1071.96 72.6213 1072.09 72.28 1072.35 72.024C1073.46 70.6587 1074.01 68.7387 1074.01 66.264C1074.01 64.472 1073.54 62.9787 1072.6 61.784C1071.75 60.504 1070.3 59.864 1068.25 59.864C1065.95 59.864 1064.03 60.632 1062.49 62.168C1061.04 63.704 1060.32 66.0507 1060.32 69.208C1060.32 71.512 1060.87 73.816 1061.98 76.12C1063.09 78.3387 1064.84 81.3253 1067.23 85.08C1070.13 89.6027 1072.35 93.528 1073.88 96.856C1075.42 100.184 1076.19 103.768 1076.19 107.608C1076.19 113.923 1074.78 119.555 1071.96 124.504C1069.23 129.453 1065.44 133.336 1060.57 136.152C1055.71 138.968 1050.16 140.376 1043.93 140.376Z" fill="white"/>
<path d="M35.968 119.536C26.4107 119.536 18.7307 116.507 12.928 110.448C7.12533 104.304 4.224 95.088 4.224 82.8C4.224 72.6453 6.528 63.0453 11.136 54C15.8293 44.9547 22.016 37.744 29.696 32.368C37.4613 26.9067 45.6533 24.176 54.272 24.176C62.208 24.176 68.224 25.84 72.32 29.168C76.5013 32.4107 78.592 36.848 78.592 42.48C78.592 47.1733 77.3547 51.5253 74.88 55.536C72.4907 59.5467 69.504 62.704 65.92 65.008C62.336 67.312 58.9227 68.464 55.68 68.464C54.3147 68.464 53.1627 68.1227 52.224 67.44C51.3707 66.7573 50.944 65.9467 50.944 65.008C50.944 64.6667 51.1147 64.0693 51.456 63.216C53.9307 58.5227 55.168 54.6827 55.168 51.696C55.168 49.5627 54.4853 47.984 53.12 46.96C51.84 45.8507 50.0907 45.296 47.872 45.296C44.1173 45.296 40.6613 46.4907 37.504 48.88C34.3467 51.184 31.872 54.2987 30.08 58.224C28.288 62.064 27.392 66.0747 27.392 70.256C27.392 76.3147 29.5253 81.3493 33.792 85.36C38.144 89.2853 44.3733 91.248 52.48 91.248C57.0027 91.248 61.2267 90.608 65.152 89.328C69.1627 88.048 72.1493 85.9147 74.112 82.928C74.624 82.16 75.3067 81.776 76.16 81.776C77.2693 81.776 78.2507 82.288 79.104 83.312C80.0427 84.336 80.2987 85.2747 79.872 86.128C74.3253 97.3067 68.0107 105.669 60.928 111.216C53.9307 116.763 45.6107 119.536 35.968 119.536ZM86.741 123.376C79.829 123.376 74.6237 121.285 71.125 117.104C67.7117 112.923 66.005 107.845 66.005 101.872C66.005 98.3733 66.7303 95.0027 68.181 91.76C69.6317 88.5173 71.637 85.9147 74.197 83.952C76.757 81.9893 79.701 81.008 83.029 81.008C83.541 81.008 83.9677 81.1787 84.309 81.52C84.7357 81.776 84.949 82.1173 84.949 82.544C84.949 85.36 85.973 87.664 88.021 89.456C90.069 91.1627 92.629 92.016 95.701 92.016C104.149 92.016 111.701 84.72 118.357 70.128L119.765 66.544C120.362 64.9227 121.216 62.6613 122.325 59.76C123.434 56.7733 124.373 54.2987 125.141 52.336C126.677 48.24 129.45 46.192 133.461 46.192C137.472 46.192 139.477 47.6427 139.477 50.544C139.477 51.312 139.349 52.1653 139.093 53.104C136.874 59.504 135.594 64.0267 135.253 66.672C135.168 68.1227 135.509 69.0613 136.277 69.488C137.045 69.9147 138.325 70.128 140.117 70.128C142.762 70.128 145.237 69.4453 147.541 68.08C149.845 66.6293 151.68 64.7093 153.045 62.32C154.496 59.8453 155.221 57.1147 155.221 54.128C155.221 49.1787 153.173 45.5947 149.077 43.376C145.066 41.072 139.562 39.92 132.565 39.92C127.189 39.92 122.538 40.7307 118.613 42.352C114.688 43.9733 111.701 46.064 109.653 48.624C107.605 51.184 106.581 53.872 106.581 56.688C106.581 58.3947 107.05 59.8453 107.989 61.04C108.928 62.1493 110.08 62.704 111.445 62.704C111.786 63.728 111.957 64.5387 111.957 65.136C111.957 67.184 111.232 69.3173 109.781 71.536C108.33 73.7547 106.282 75.632 103.637 77.168C101.077 78.6187 98.0903 79.344 94.677 79.344C89.6423 79.344 85.717 77.6373 82.901 74.224C80.085 70.7253 78.677 66.5013 78.677 61.552C78.677 55.3227 80.981 49.2213 85.589 43.248C90.2823 37.2747 96.8957 32.368 105.429 28.528C114.048 24.688 123.861 22.768 134.869 22.768C148.608 22.768 158.89 25.1573 165.717 29.936C172.629 34.7147 176.085 41.5413 176.085 50.416C176.085 57.584 174.25 63.6427 170.581 68.592C166.997 73.456 162.048 76.4 155.733 77.424C154.026 77.68 152.832 77.9787 152.149 78.32C151.552 78.576 151.253 78.96 151.253 79.472C151.253 79.984 151.552 80.4533 152.149 80.88C152.746 81.3067 153.386 81.8613 154.069 82.544C154.837 83.1413 155.605 84.1227 156.373 85.488C157.482 87.4507 158.677 88.944 159.957 89.968C161.322 90.992 163.157 91.504 165.461 91.504C168.106 91.504 170.325 90.8213 172.117 89.456C173.994 88.0053 175.914 85.8293 177.877 82.928C178.389 82.16 179.072 81.776 179.925 81.776C181.034 81.776 182.016 82.288 182.869 83.312C183.722 84.2507 183.978 85.1893 183.637 86.128C179.968 94.7467 175.189 102.213 169.301 108.528C163.413 114.843 157.354 118 151.125 118C147.285 118 144.128 116.677 141.653 114.032C139.264 111.301 137.856 107.163 137.429 101.616L137.173 97.776C136.917 92.8267 136.405 88.9867 135.637 86.256C134.869 83.5253 133.333 82.16 131.029 82.16C130.09 82.16 129.365 82.416 128.853 82.928C128.426 83.3547 128.042 84.08 127.701 85.104C123.434 96.5387 117.717 105.797 110.549 112.88C103.466 119.877 95.5303 123.376 86.741 123.376ZM287.131 82.928C287.643 82.16 288.326 81.776 289.179 81.776C290.374 81.776 291.398 82.288 292.251 83.312C293.19 84.336 293.403 85.2747 292.891 86.128L290.459 90.864C288.07 95.8133 285.723 100.123 283.419 103.792C281.2 107.461 278.299 110.747 274.715 113.648C271.216 116.549 267.248 118 262.811 118C258.544 118 255.387 116.251 253.339 112.752C251.376 109.253 250.395 104.645 250.395 98.928C250.395 96.0267 250.736 92.4427 251.419 88.176C246.128 87.92 240.923 87.1947 235.803 86L231.195 94.32C226.331 102.768 220.784 109.723 214.555 115.184C208.411 120.645 202.096 123.376 195.611 123.376C190.064 123.376 185.456 122.352 181.787 120.304C178.118 118.256 175.43 115.611 173.723 112.368C171.931 109.125 171.035 105.627 171.035 101.872C171.035 98.3733 171.76 95.0027 173.211 91.76C174.662 88.5173 176.667 85.9147 179.227 83.952C181.787 81.9893 184.731 81.008 188.059 81.008C188.571 81.008 188.998 81.1787 189.339 81.52C189.766 81.776 189.979 82.1173 189.979 82.544C189.979 85.36 191.174 87.664 193.563 89.456C195.952 91.1627 198.939 92.016 202.523 92.016C209.862 92.016 216.688 88.3893 223.003 81.136C216.347 77.7227 211.099 73.3707 207.259 68.08C203.504 62.7893 201.627 56.9867 201.627 50.672C201.627 46.32 202.566 42.5653 204.443 39.408C206.32 36.2507 208.838 33.8613 211.995 32.24C215.152 30.6187 218.566 29.808 222.235 29.808C226.843 29.808 230.342 31.0453 232.731 33.52C235.12 35.9093 236.315 38.768 236.315 42.096C236.315 43.0347 236.059 43.76 235.547 44.272C235.035 44.784 234.352 44.9973 233.499 44.912C230.598 44.5707 228.08 45.296 225.947 47.088C223.814 48.88 222.747 51.9093 222.747 56.176C222.747 62.7467 225.136 68.0373 229.915 72.048L233.371 66.16C242.416 49.8613 251.078 38.384 259.355 31.728C267.718 25.072 275.824 21.744 283.675 21.744C287.942 21.744 291.184 22.9387 293.403 25.328C295.707 27.632 296.859 30.6187 296.859 34.288C296.774 38.384 295.792 41.9253 293.915 44.912C292.038 47.8133 289.776 49.264 287.131 49.264C286.619 49.264 285.851 49.0507 284.827 48.624C283.803 48.112 282.992 47.8987 282.395 47.984C281.03 47.984 279.579 49.1787 278.043 51.568C276.507 53.9573 274.971 57.6267 273.435 62.576C272.411 66.2453 271.6 69.4027 271.003 72.048C270.406 74.6933 270.107 77.0827 270.107 79.216C270.107 85.1893 272.283 88.176 276.635 88.176C278.683 88.176 280.646 87.7493 282.523 86.896C284.486 86.0427 286.022 84.72 287.131 82.928ZM253.339 79.472C255.131 73.328 257.478 66.8427 260.379 60.016C261.488 57.456 262.214 55.5787 262.555 54.384C262.982 53.1893 263.195 52.0373 263.195 50.928C263.195 49.7333 262.683 49.136 261.659 49.136C260.806 49.136 259.867 49.52 258.843 50.288C257.904 50.9707 256.539 52.336 254.747 54.384C250.992 59.248 246.214 66.928 240.411 77.424C243.91 78.5333 248.219 79.216 253.339 79.472ZM299.869 123.376C295.176 123.376 291.122 122.352 287.709 120.304C284.381 118.256 281.906 115.611 280.285 112.368C278.578 109.04 277.725 105.541 277.725 101.872C277.725 98.3733 278.45 95.0027 279.901 91.76C281.352 88.5173 283.357 85.9147 285.917 83.952C288.477 81.9893 291.421 81.008 294.749 81.008C295.261 81.008 295.688 81.1787 296.029 81.52C296.456 81.776 296.669 82.1173 296.669 82.544C296.669 85.2747 297.949 87.536 300.509 89.328C303.069 91.12 306.056 92.016 309.469 92.016C314.162 92.016 318.813 90.1813 323.421 86.512C328.029 82.8427 331.741 77.3813 334.557 70.128L335.965 66.544C336.562 64.9227 337.416 62.6613 338.525 59.76C339.634 56.7733 340.573 54.2987 341.341 52.336C342.877 48.24 345.65 46.192 349.661 46.192C353.672 46.192 355.677 47.6427 355.677 50.544C355.677 51.312 355.549 52.1653 355.293 53.104C354.44 55.5787 354.013 57.6267 354.013 59.248C354.013 61.9787 355.293 63.344 357.853 63.344C360.754 63.344 363.314 62.2347 365.533 60.016C367.837 57.7973 368.989 54.8107 368.989 51.056C368.989 47.3013 367.24 44.528 363.741 42.736C360.328 40.8587 355.89 39.92 350.429 39.92C342.408 39.92 335.794 41.4133 330.589 44.4C325.384 47.3013 322.781 51.6533 322.781 57.456C322.781 59.3333 323.25 60.912 324.189 62.192C325.128 63.3867 326.28 63.984 327.645 63.984C327.986 65.008 328.157 65.8187 328.157 66.416C328.157 68.464 327.432 70.5973 325.981 72.816C324.53 75.0347 322.482 76.912 319.837 78.448C317.277 79.8987 314.29 80.624 310.877 80.624C305.842 80.624 301.917 79.0027 299.101 75.76C296.285 72.5173 294.877 68.592 294.877 63.984C294.877 56.4747 297.181 49.6053 301.789 43.376C306.397 37.0613 312.925 32.0693 321.373 28.4C329.906 24.6453 339.805 22.768 351.069 22.768C360.029 22.768 367.538 23.8773 373.597 26.096C379.741 28.3147 384.306 31.344 387.293 35.184C390.365 38.9387 391.901 43.1627 391.901 47.856C391.901 52.8907 390.322 57.4133 387.165 61.424C384.093 65.4347 380.168 67.8667 375.389 68.72C374.28 68.976 373.725 69.5307 373.725 70.384C373.725 70.8107 373.896 71.1947 374.237 71.536C378.333 75.632 380.381 80.9653 380.381 87.536C380.381 93.7653 379.016 99.312 376.285 104.176C373.554 108.955 369.97 112.667 365.533 115.312C361.096 117.957 356.36 119.28 351.325 119.28C345.778 119.28 341.341 117.701 338.013 114.544C334.685 111.387 332.85 107.12 332.509 101.744C327.816 108.827 322.696 114.203 317.149 117.872C311.688 121.541 305.928 123.376 299.869 123.376ZM352.477 91.504C355.378 91.504 357.725 90.3093 359.517 87.92C361.309 85.4453 362.205 82.5867 362.205 79.344C362.205 77.4667 361.522 75.888 360.157 74.608C358.792 73.2427 356.786 72.56 354.141 72.56C351.41 72.56 349.234 73.5413 347.613 75.504C345.992 77.4667 345.181 79.8133 345.181 82.544C345.181 85.104 345.778 87.2373 346.973 88.944C348.253 90.6507 350.088 91.504 352.477 91.504ZM401.619 123.376C396.926 123.376 392.872 122.352 389.459 120.304C386.131 118.256 383.656 115.611 382.035 112.368C380.328 109.04 379.475 105.541 379.475 101.872C379.475 98.3733 380.2 95.0027 381.651 91.76C383.102 88.5173 385.107 85.9147 387.667 83.952C390.227 81.9893 393.171 81.008 396.499 81.008C397.011 81.008 397.438 81.1787 397.779 81.52C398.206 81.776 398.419 82.1173 398.419 82.544C398.419 85.2747 399.699 87.536 402.259 89.328C404.819 91.12 407.806 92.016 411.219 92.016C415.912 92.016 420.563 90.1813 425.171 86.512C429.779 82.8427 433.491 77.3813 436.307 70.128L437.715 66.544C438.312 64.9227 439.166 62.6613 440.275 59.76C441.384 56.7733 442.323 54.2987 443.091 52.336C444.627 48.24 447.4 46.192 451.411 46.192C455.422 46.192 457.427 47.6427 457.427 50.544C457.427 51.312 457.299 52.1653 457.043 53.104C456.19 55.5787 455.763 57.6267 455.763 59.248C455.763 61.9787 457.043 63.344 459.603 63.344C462.504 63.344 465.064 62.2347 467.283 60.016C469.587 57.7973 470.739 54.8107 470.739 51.056C470.739 47.3013 468.99 44.528 465.491 42.736C462.078 40.8587 457.64 39.92 452.179 39.92C444.158 39.92 437.544 41.4133 432.339 44.4C427.134 47.3013 424.531 51.6533 424.531 57.456C424.531 59.3333 425 60.912 425.939 62.192C426.878 63.3867 428.03 63.984 429.395 63.984C429.736 65.008 429.907 65.8187 429.907 66.416C429.907 68.464 429.182 70.5973 427.731 72.816C426.28 75.0347 424.232 76.912 421.587 78.448C419.027 79.8987 416.04 80.624 412.627 80.624C407.592 80.624 403.667 79.0027 400.851 75.76C398.035 72.5173 396.627 68.592 396.627 63.984C396.627 56.4747 398.931 49.6053 403.539 43.376C408.147 37.0613 414.675 32.0693 423.123 28.4C431.656 24.6453 441.555 22.768 452.819 22.768C461.779 22.768 469.288 23.8773 475.347 26.096C481.491 28.3147 486.056 31.344 489.043 35.184C492.115 38.9387 493.651 43.1627 493.651 47.856C493.651 52.8907 492.072 57.4133 488.915 61.424C485.843 65.4347 481.918 67.8667 477.139 68.72C476.03 68.976 475.475 69.5307 475.475 70.384C475.475 70.8107 475.646 71.1947 475.987 71.536C480.083 75.632 482.131 80.9653 482.131 87.536C482.131 93.7653 480.766 99.312 478.035 104.176C475.304 108.955 471.72 112.667 467.283 115.312C462.846 117.957 458.11 119.28 453.075 119.28C447.528 119.28 443.091 117.701 439.763 114.544C436.435 111.387 434.6 107.12 434.259 101.744C429.566 108.827 424.446 114.203 418.899 117.872C413.438 121.541 407.678 123.376 401.619 123.376ZM454.227 91.504C457.128 91.504 459.475 90.3093 461.267 87.92C463.059 85.4453 463.955 82.5867 463.955 79.344C463.955 77.4667 463.272 75.888 461.907 74.608C460.542 73.2427 458.536 72.56 455.891 72.56C453.16 72.56 450.984 73.5413 449.363 75.504C447.742 77.4667 446.931 79.8133 446.931 82.544C446.931 85.104 447.528 87.2373 448.723 88.944C450.003 90.6507 451.838 91.504 454.227 91.504ZM528.457 145.52C521.033 145.52 514.846 144.197 509.897 141.552C505.033 138.907 501.449 135.493 499.145 131.312C496.841 127.131 495.689 122.651 495.689 117.872C495.689 113.861 496.457 110.107 497.993 106.608C499.614 103.024 501.876 100.165 504.777 98.032C507.678 95.8133 511.006 94.704 514.761 94.704C516.212 94.704 517.236 94.8747 517.833 95.216C518.516 95.5573 518.9 95.9413 518.985 96.368C519.07 96.7947 519.113 97.52 519.113 98.544C519.113 101.531 519.838 104.347 521.289 106.992C522.74 109.637 525.001 111.813 528.073 113.52C531.23 115.227 535.07 116.08 539.593 116.08C546.932 116.08 552.734 114.203 557.001 110.448C561.353 106.608 564.34 102.384 565.961 97.776C567.668 93.0827 568.521 89.2 568.521 86.128C568.521 85.104 568.137 84.592 567.369 84.592C566.686 84.592 566.132 85.104 565.705 86.128C563.742 92.9547 560.542 98.288 556.105 102.128C551.668 105.883 546.804 107.76 541.513 107.76C535.966 107.76 531.657 105.797 528.585 101.872C525.513 97.8613 523.977 92.656 523.977 86.256C523.977 81.0507 525.342 75.1627 528.073 68.592C530.804 61.936 534.345 55.8773 538.697 50.416C543.049 44.8693 547.486 40.9867 552.009 38.768C541.257 38.3413 532.809 39.536 526.665 42.352C520.521 45.168 517.449 49.3493 517.449 54.896C517.449 56.7733 517.918 58.352 518.857 59.632C519.796 60.8267 520.948 61.424 522.313 61.424C522.654 62.448 522.825 63.2587 522.825 63.856C522.825 65.904 522.1 68.0373 520.649 70.256C519.198 72.4747 517.15 74.352 514.505 75.888C511.945 77.3387 508.958 78.064 505.545 78.064C500.51 78.064 496.585 76.4427 493.769 73.2C490.953 69.9573 489.545 66.032 489.545 61.424C489.545 54.4267 491.892 47.984 496.585 42.096C501.364 36.208 508.148 31.5147 516.937 28.016C525.726 24.5173 535.838 22.768 547.273 22.768C553.673 22.768 558.708 23.7067 562.377 25.584C566.132 27.376 568.009 30.1067 568.009 33.776C568.009 35.2267 567.668 36.8907 566.985 38.768C563.316 40.2187 559.817 42.9067 556.489 46.832C553.246 50.672 550.601 54.9387 548.553 59.632C546.59 64.3253 545.609 68.5067 545.609 72.176C545.609 77.9787 547.7 80.88 551.881 80.88C556.745 80.88 560.67 78.448 563.657 73.584C566.729 68.6347 569.844 60.8267 573.001 50.16C575.817 40.176 578.59 33.6053 581.321 30.448C584.052 27.2907 586.825 25.712 589.641 25.712C592.372 25.712 594.462 26.5227 595.913 28.144C597.449 29.68 598.217 31.8987 598.217 34.8C598.217 36.9333 597.705 39.152 596.681 41.456C595.742 43.76 594.292 46.704 592.329 50.288C590.622 53.4453 589.172 56.2613 587.977 58.736C586.868 61.1253 585.929 63.6427 585.161 66.288C584.905 67.056 584.308 68.8907 583.369 71.792C582.516 74.608 581.705 77.7227 580.937 81.136C580.169 84.464 579.486 88.0907 578.889 92.016C576.329 108.997 570.868 122.139 562.505 131.44C554.142 140.827 542.793 145.52 528.457 145.52ZM600.619 123.376C595.926 123.376 591.872 122.352 588.459 120.304C585.131 118.256 582.656 115.611 581.035 112.368C579.328 109.04 578.475 105.541 578.475 101.872C578.475 98.3733 579.2 95.0027 580.651 91.76C582.102 88.5173 584.107 85.9147 586.667 83.952C589.227 81.9893 592.171 81.008 595.499 81.008C596.011 81.008 596.438 81.1787 596.779 81.52C597.206 81.776 597.419 82.1173 597.419 82.544C597.419 85.36 598.614 87.664 601.003 89.456C603.478 91.1627 606.592 92.016 610.347 92.016C615.979 92.016 621.142 89.8827 625.835 85.616C630.614 81.3493 634.411 76.1867 637.227 70.128C640.043 63.984 641.451 58.5227 641.451 53.744C641.451 50.3307 640.683 47.728 639.147 45.936C637.696 44.0587 635.606 43.12 632.875 43.12C630.23 43.12 627.968 43.9733 626.091 45.68C624.299 47.3013 623.403 49.4773 623.403 52.208C623.403 54.4267 624 56.304 625.195 57.84C626.475 59.376 628.054 60.144 629.931 60.144C630.272 60.8267 630.443 61.6373 630.443 62.576C630.443 64.4533 629.803 66.416 628.523 68.464C627.243 70.512 625.366 72.2187 622.891 73.584C620.502 74.864 617.771 75.504 614.699 75.504C609.579 75.504 605.355 73.6693 602.027 70C598.784 66.2453 597.163 61.296 597.163 55.152C597.163 49.4347 598.656 44.1013 601.643 39.152C604.715 34.2027 609.152 30.2347 614.955 27.248C620.758 24.2613 627.627 22.768 635.563 22.768C646.059 22.768 654.038 26.5653 659.499 34.16C665.046 41.7547 667.819 54.1707 667.819 71.408C667.819 73.2 668.374 74.096 669.483 74.096C669.995 74.096 670.464 73.84 670.891 73.328C671.403 72.816 671.702 72.176 671.787 71.408C672.726 62.7893 674.688 54.8107 677.675 47.472C680.747 40.1333 684.971 34.16 690.347 29.552C695.723 24.944 702.208 22.64 709.803 22.64C715.776 22.64 720.256 23.9627 723.243 26.608C726.315 29.168 727.851 32.2827 727.851 35.952C727.851 39.9627 726.699 43.12 724.395 45.424C722.176 47.728 718.806 48.88 714.283 48.88C712.747 48.88 711.424 48.4107 710.315 47.472C709.376 46.704 708.352 46.32 707.243 46.32C700.502 46.32 694.571 51.4827 689.451 61.808C684.331 72.048 680.107 86.0853 676.779 103.92C675.84 108.699 674.219 112.24 671.915 114.544C669.611 116.848 666.88 118 663.723 118C659.371 118 656.256 116.165 654.379 112.496C652.502 108.827 651.563 103.365 651.563 96.112C651.563 86.7253 652.075 77.1253 653.099 67.312C653.184 66.4587 653.056 65.8187 652.715 65.392C652.459 64.88 652.032 64.624 651.435 64.624C650.923 64.624 650.454 64.8373 650.027 65.264C649.6 65.6907 649.344 66.2453 649.259 66.928C645.334 86.384 639.104 100.677 630.571 109.808C622.038 118.853 612.054 123.376 600.619 123.376ZM738.661 22.64C745.829 22.64 751.29 24.9867 755.045 29.68C758.8 34.288 760.677 40.7733 760.677 49.136C760.677 58.7787 758.586 69.0613 754.405 79.984C750.309 90.8213 744.762 99.9093 737.765 107.248C730.853 114.587 723.386 118.256 715.365 118.256C711.098 118.256 707.045 117.104 703.205 114.8C699.365 112.411 696.25 108.784 693.861 103.92C691.472 98.9707 690.277 92.912 690.277 85.744C690.277 79.0027 691.301 72.048 693.349 64.88C695.482 57.6267 698.042 51.6533 701.029 46.96C704.357 41.84 708.026 39.28 712.037 39.28C713.488 39.28 714.682 39.6213 715.621 40.304C717.328 35.0987 720.101 30.8747 723.941 27.632C727.866 24.304 732.773 22.64 738.661 22.64ZM721.509 89.2C725.52 89.2 729.232 87.7067 732.645 84.72C736.144 81.7333 738.917 77.8933 740.965 73.2C743.013 68.4213 744.037 63.6 744.037 58.736C744.037 53.616 743.098 49.776 741.221 47.216C739.429 44.5707 736.912 43.248 733.669 43.248C731.536 43.248 729.829 43.8453 728.549 45.04C727.354 46.1493 726.757 47.6 726.757 49.392C726.757 51.0133 727.226 52.336 728.165 53.36C729.104 54.384 730.341 54.896 731.877 54.896C733.413 54.896 734.565 55.408 735.333 56.432C736.186 57.3707 736.613 58.608 736.613 60.144C736.613 62.5333 735.76 64.6667 734.053 66.544C732.346 68.4213 729.957 69.36 726.885 69.36C723.642 69.36 720.954 68.1227 718.821 65.648C716.688 63.088 715.237 59.8027 714.469 55.792C713.189 58.864 712.208 61.7653 711.525 64.496C710.842 67.1413 710.501 70.1707 710.501 73.584C710.501 83.9947 714.17 89.2 721.509 89.2ZM892.296 82.928C892.808 82.2453 893.32 81.904 893.832 81.904C894.515 81.904 895.24 82.3733 896.008 83.312C896.861 84.1653 897.544 85.104 898.056 86.128L895.624 90.864C893.235 95.8133 890.888 100.123 888.584 103.792C886.365 107.461 883.464 110.747 879.88 113.648C876.381 116.549 872.413 118 867.976 118C863.283 118 859.699 116.379 857.224 113.136C854.835 109.808 853.64 105.2 853.64 99.312C853.64 95.3013 854.152 91.4613 855.176 87.792C856.285 84.1227 857.821 79.6427 859.784 74.352C860.552 72.4747 861.192 70.7253 861.704 69.104C862.301 67.3973 862.6 66.1173 862.6 65.264C862.6 63.3867 861.789 62.448 860.168 62.448C858.547 62.448 856.968 63.5147 855.432 65.648C853.981 67.696 852.275 71.536 850.312 77.168C848.435 82.7147 846.131 90.7787 843.4 101.36C842.376 105.371 840.883 108.144 838.92 109.68C837.043 111.131 834.824 111.856 832.264 111.856C828.424 111.856 825.779 111.216 824.328 109.936C822.877 108.656 822.152 106.608 822.152 103.792C822.152 101.829 822.408 99.6533 822.92 97.264C823.517 94.8747 824.413 91.76 825.608 87.92C826.888 83.4827 827.869 79.8133 828.552 76.912C829.235 73.9253 829.576 71.024 829.576 68.208C829.576 64.112 828.552 62.064 826.504 62.064C824.627 62.064 823.432 63.2587 822.92 65.648C818.909 85.4453 812.552 100.037 803.848 109.424C795.229 118.725 785.117 123.376 773.512 123.376C768.819 123.376 764.765 122.352 761.352 120.304C758.024 118.256 755.549 115.611 753.928 112.368C752.221 109.04 751.368 105.541 751.368 101.872C751.368 98.3733 752.093 95.0027 753.544 91.76C754.995 88.5173 757 85.9147 759.56 83.952C762.12 81.9893 765.064 81.008 768.392 81.008C768.904 81.008 769.331 81.1787 769.672 81.52C770.099 81.776 770.312 82.1173 770.312 82.544C770.312 85.36 771.507 87.664 773.896 89.456C776.371 91.1627 779.485 92.016 783.24 92.016C788.872 92.016 794.035 89.8827 798.728 85.616C803.507 81.3493 807.304 76.1867 810.12 70.128C812.936 63.984 814.344 58.5227 814.344 53.744C814.344 50.416 813.576 47.856 812.04 46.064C810.504 44.1867 808.328 43.248 805.512 43.248C802.269 43.248 799.496 44.4427 797.192 46.832C794.888 49.136 793.736 52.208 793.736 56.048C793.736 58.2667 794.333 60.144 795.528 61.68C796.808 63.216 798.387 63.984 800.264 63.984C800.605 64.6667 800.776 65.4773 800.776 66.416C800.776 68.2933 800.136 70.256 798.856 72.304C797.576 74.352 795.699 76.0587 793.224 77.424C790.835 78.704 788.104 79.344 785.032 79.344C779.912 79.344 775.688 77.5093 772.36 73.84C769.117 70.1707 767.496 65.3493 767.496 59.376C767.496 52.8907 769.245 46.8747 772.744 41.328C776.243 35.696 781.192 31.216 787.592 27.888C794.077 24.4747 801.459 22.768 809.736 22.768C820.659 22.768 829.235 25.8827 835.464 32.112C841.693 38.256 845.363 46.7893 846.472 57.712C849.373 51.6533 852.957 45.9787 857.224 40.688C861.576 35.312 866.184 31.0027 871.048 27.76C875.997 24.432 880.733 22.768 885.256 22.768C889.864 22.768 893.277 24.0053 895.496 26.48C897.715 28.9547 898.824 32.112 898.824 35.952C898.824 38.4267 898.355 40.944 897.416 43.504C896.477 45.9787 895.24 48.0267 893.704 49.648C892.253 51.2693 890.803 52.08 889.352 52.08C888.669 52.08 887.816 51.8667 886.792 51.44C885.853 50.928 885.128 50.672 884.616 50.672C882.653 50.672 880.861 52.5067 879.24 56.176C877.619 59.8453 876.339 64.112 875.4 68.976C874.461 73.7547 873.992 77.5947 873.992 80.496C873.992 86.4693 876.595 89.456 881.8 89.456C883.763 89.456 885.64 88.9013 887.432 87.792C889.309 86.6827 890.931 85.0613 892.296 82.928ZM912.159 119.536C907.892 119.536 904.436 118.427 901.791 116.208C899.146 113.904 897.823 110.917 897.823 107.248C897.823 104.517 898.548 102.085 899.999 99.952C901.535 97.7333 904.01 94.9173 907.423 91.504C910.154 88.7733 912.244 86.5973 913.695 84.976C918.388 79.6853 922.228 74.1387 925.215 68.336C928.202 62.5333 931.914 54.1707 936.351 43.248C934.559 42.8213 932.468 42.608 930.079 42.608C925.727 42.608 922.143 43.5893 919.327 45.552C916.596 47.5147 915.231 50.2027 915.231 53.616C915.231 55.4933 915.7 57.072 916.639 58.352C917.578 59.5467 918.73 60.144 920.095 60.144C920.436 61.168 920.607 61.9787 920.607 62.576C920.607 64.624 919.882 66.7573 918.431 68.976C916.98 71.1947 914.932 73.072 912.287 74.608C909.727 76.0587 906.74 76.784 903.327 76.784C898.292 76.784 894.367 75.1627 891.551 71.92C888.735 68.6773 887.327 64.752 887.327 60.144C887.327 53.3173 889.204 47.088 892.959 41.456C896.799 35.7387 902.218 31.216 909.215 27.888C916.298 24.4747 924.447 22.768 933.663 22.768C940.319 22.768 945.055 23.7493 947.871 25.712C950.687 27.6747 952.095 30.6187 952.095 34.544C952.095 36.9333 951.626 39.8773 950.687 43.376C948.81 51.056 946.207 60.6133 942.879 72.048C939.636 83.3973 936.778 92.7413 934.303 100.08C932.255 106.395 929.311 111.216 925.471 114.544C921.631 117.872 917.194 119.536 912.159 119.536ZM979.718 119.536C970.161 119.536 962.481 116.507 956.678 110.448C950.875 104.304 947.974 95.088 947.974 82.8C947.974 72.6453 950.278 63.0453 954.886 54C959.579 44.9547 965.766 37.744 973.446 32.368C981.211 26.9067 989.403 24.176 998.022 24.176C1005.96 24.176 1011.97 25.84 1016.07 29.168C1020.25 32.4107 1022.34 36.848 1022.34 42.48C1022.34 47.1733 1021.1 51.5253 1018.63 55.536C1016.24 59.5467 1013.25 62.704 1009.67 65.008C1006.09 67.312 1002.67 68.464 999.43 68.464C998.065 68.464 996.913 68.1227 995.974 67.44C995.121 66.7573 994.694 65.9467 994.694 65.008C994.694 64.6667 994.865 64.0693 995.206 63.216C997.681 58.5227 998.918 54.6827 998.918 51.696C998.918 49.5627 998.235 47.984 996.87 46.96C995.59 45.8507 993.841 45.296 991.622 45.296C987.867 45.296 984.411 46.4907 981.254 48.88C978.097 51.184 975.622 54.2987 973.83 58.224C972.038 62.064 971.142 66.0747 971.142 70.256C971.142 76.3147 973.275 81.3493 977.542 85.36C981.894 89.2853 988.123 91.248 996.23 91.248C1000.75 91.248 1004.98 90.608 1008.9 89.328C1012.91 88.048 1015.9 85.9147 1017.86 82.928C1018.37 82.16 1019.06 81.776 1019.91 81.776C1021.02 81.776 1022 82.288 1022.85 83.312C1023.79 84.336 1024.05 85.2747 1023.62 86.128C1018.08 97.3067 1011.76 105.669 1004.68 111.216C997.681 116.763 989.361 119.536 979.718 119.536ZM1043.93 123.376C1038.3 123.376 1033.22 122.224 1028.7 119.92C1024.26 117.616 1020.76 114.203 1018.2 109.68C1015.64 105.157 1014.36 99.696 1014.36 93.296C1014.36 87.0667 1015.47 81.9467 1017.69 77.936C1019.91 73.9253 1022.56 71.024 1025.63 69.232C1028.78 67.44 1031.81 66.544 1034.72 66.544C1036.34 66.544 1037.62 66.8427 1038.56 67.44C1039.49 68.0373 1039.96 68.8053 1039.96 69.744C1039.96 70.5973 1039.45 71.536 1038.43 72.56C1037.49 73.584 1036.76 74.608 1036.25 75.632C1035.74 76.656 1035.48 78.1067 1035.48 79.984C1035.48 83.4827 1036.42 86.256 1038.3 88.304C1040.18 90.2667 1042.78 91.248 1046.11 91.248C1049.18 91.248 1051.7 90.2667 1053.66 88.304C1055.62 86.3413 1056.6 83.7813 1056.6 80.624C1056.6 78.6613 1056.13 76.6987 1055.2 74.736C1054.34 72.7733 1053.02 70.256 1051.23 67.184C1048.84 63.088 1046.96 59.4613 1045.6 56.304C1044.32 53.1467 1043.68 49.648 1043.68 45.808C1043.68 41.712 1044.57 37.9147 1046.36 34.416C1048.16 30.9173 1050.89 28.1013 1054.56 25.968C1058.31 23.8347 1062.92 22.768 1068.38 22.768C1075.38 22.768 1080.58 24.5173 1084 28.016C1087.41 31.5147 1089.12 35.824 1089.12 40.944C1089.12 44.784 1088.09 48.368 1086.04 51.696C1084 55.024 1081.22 57.584 1077.72 59.376C1077.47 59.8027 1077.04 60.016 1076.44 60.016C1075.5 60.016 1074.52 59.5893 1073.5 58.736C1072.48 57.7973 1071.96 56.9013 1071.96 56.048C1071.96 55.6213 1072.09 55.28 1072.35 55.024C1073.46 53.6587 1074.01 51.7387 1074.01 49.264C1074.01 47.472 1073.54 45.9787 1072.6 44.784C1071.75 43.504 1070.3 42.864 1068.25 42.864C1065.95 42.864 1064.03 43.632 1062.49 45.168C1061.04 46.704 1060.32 49.0507 1060.32 52.208C1060.32 54.512 1060.87 56.816 1061.98 59.12C1063.09 61.3387 1064.84 64.3253 1067.23 68.08C1070.13 72.6027 1072.35 76.528 1073.88 79.856C1075.42 83.184 1076.19 86.768 1076.19 90.608C1076.19 96.9227 1074.78 102.555 1071.96 107.504C1069.23 112.453 1065.44 116.336 1060.57 119.152C1055.71 121.968 1050.16 123.376 1043.93 123.376Z" fill="#0068B6"/>
</svg>
