<svg width="735" height="202" viewBox="0 0 735 202" fill="none" xmlns="http://www.w3.org/2000/svg">
<path d="M35.968 136.536C26.4107 136.536 18.7307 133.507 12.928 127.448C7.12533 121.304 4.224 112.088 4.224 99.8C4.224 89.6453 6.528 80.0453 11.136 71C15.8293 61.9547 22.016 54.744 29.696 49.368C37.4613 43.9067 45.6533 41.176 54.272 41.176C62.208 41.176 68.224 42.84 72.32 46.168C76.5013 49.4107 78.592 53.848 78.592 59.48C78.592 64.1733 77.3547 68.5253 74.88 72.536C72.4907 76.5467 69.504 79.704 65.92 82.008C62.336 84.312 58.9227 85.464 55.68 85.464C54.3147 85.464 53.1627 85.1227 52.224 84.44C51.3707 83.7573 50.944 82.9467 50.944 82.008C50.944 81.6667 51.1147 81.0693 51.456 80.216C53.9307 75.5227 55.168 71.6827 55.168 68.696C55.168 66.5627 54.4853 64.984 53.12 63.96C51.84 62.8507 50.0907 62.296 47.872 62.296C44.1173 62.296 40.6613 63.4907 37.504 65.88C34.3467 68.184 31.872 71.2987 30.08 75.224C28.288 79.064 27.392 83.0747 27.392 87.256C27.392 93.3147 29.5253 98.3493 33.792 102.36C38.144 106.285 44.3733 108.248 52.48 108.248C57.0027 108.248 61.2267 107.608 65.152 106.328C69.1627 105.048 72.1493 102.915 74.112 99.928C74.624 99.16 75.3067 98.776 76.16 98.776C77.2693 98.776 78.2507 99.288 79.104 100.312C80.0427 101.336 80.2987 102.275 79.872 103.128C74.3253 114.307 68.0107 122.669 60.928 128.216C53.9307 133.763 45.6107 136.536 35.968 136.536ZM124.629 99.928C125.141 99.16 125.824 98.776 126.677 98.776C127.872 98.776 128.896 99.288 129.749 100.312C130.688 101.336 130.901 102.275 130.389 103.128L127.957 107.864C125.568 112.813 123.221 117.123 120.917 120.792C118.698 124.461 115.797 127.747 112.213 130.648C108.714 133.549 104.746 135 100.309 135C95.445 135 91.861 133.72 89.557 131.16C87.3383 128.515 86.229 125.315 86.229 121.56C86.229 118.488 86.6983 115.459 87.637 112.472C88.661 109.4 90.069 105.859 91.861 101.848C93.0557 99.1173 93.909 96.984 94.421 95.448C94.933 93.912 95.189 92.5893 95.189 91.48C95.189 90.6267 94.6343 89.56 93.525 88.28C92.4157 87 90.709 85.9333 88.405 85.08C86.869 88.408 84.0103 94.424 79.829 103.128C79.4877 103.981 78.805 104.408 77.781 104.408C76.8423 104.408 75.9037 104.067 74.965 103.384C74.1117 102.616 73.685 101.805 73.685 100.952C73.685 100.525 73.813 100.184 74.069 99.928C76.373 96.6853 78.9757 91.096 81.877 83.16C80.5117 82.648 79.445 81.88 78.677 80.856C77.9943 79.7467 77.653 78.1253 77.653 75.992C77.653 73.176 78.7197 70.5733 80.853 68.184C83.0717 65.7093 85.8023 64.472 89.045 64.472C92.885 64.472 96.6823 65.24 100.437 66.776C104.277 68.312 107.392 70.2747 109.781 72.664C112.17 74.968 113.365 77.272 113.365 79.576C113.365 81.1973 113.109 82.7333 112.597 84.184C112.17 85.6347 111.53 87.384 110.677 89.432C109.738 91.6507 109.013 93.5707 108.501 95.192C108.074 96.728 107.861 98.392 107.861 100.184C107.861 102.061 108.501 103.597 109.781 104.792C111.061 105.901 113.066 106.456 115.797 106.456C117.589 106.456 119.125 105.944 120.405 104.92C121.77 103.811 123.178 102.147 124.629 99.928ZM135.193 135C130.926 135 127.641 133.251 125.337 129.752C123.118 126.253 122.009 121.56 122.009 115.672C122.009 109.272 123.289 102.616 125.849 95.704C128.409 88.7067 132.164 82.8613 137.113 78.168C142.148 73.3893 148.121 71 155.033 71C157.934 71 160.11 71.3413 161.561 72.024C163.012 72.6213 164.249 73.432 165.273 74.456C166.382 75.3947 167.321 75.864 168.089 75.864C168.942 75.864 169.668 75.6933 170.265 75.352C170.948 75.0107 171.716 74.4987 172.569 73.816C173.678 72.8773 174.702 72.1947 175.641 71.768C176.58 71.256 177.774 71 179.225 71C182.212 71 183.705 72.5787 183.705 75.736C183.705 77.1013 183.449 78.4667 182.937 79.832C182.425 81.1973 181.657 82.904 180.633 84.952C180.377 85.6347 179.908 86.7013 179.225 88.152C178.542 89.5173 177.988 90.7973 177.561 91.992C175.854 95.4907 175.001 98.52 175.001 101.08C175.001 104.664 176.75 106.456 180.249 106.456C184.26 106.456 187.63 104.28 190.361 99.928C190.873 99.16 191.556 98.776 192.409 98.776C193.518 98.776 194.5 99.288 195.353 100.312C196.292 101.336 196.548 102.275 196.121 103.128L193.049 109.272C190.404 114.733 188.057 119.171 186.009 122.584C183.961 125.912 181.486 128.813 178.585 131.288C175.684 133.763 172.356 135 168.601 135C164.932 135 162.116 133.72 160.153 131.16C158.19 128.515 157.209 125.059 157.209 120.792C157.209 119.341 157.337 117.848 157.593 116.312H157.081C154.35 121.859 151.065 126.381 147.225 129.88C143.47 133.293 139.46 135 135.193 135ZM147.993 108.504C150.126 108.504 152.046 107.907 153.753 106.712C155.46 105.432 156.782 103.853 157.721 101.976C158.66 100.099 159.129 98.264 159.129 96.472C159.129 94.3387 158.532 92.6747 157.337 91.48C156.142 90.2853 154.521 89.688 152.473 89.688C149.316 89.688 146.713 90.9253 144.665 93.4C142.617 95.8747 141.593 98.6053 141.593 101.592C141.593 103.725 142.148 105.432 143.257 106.712C144.452 107.907 146.03 108.504 147.993 108.504ZM248.687 99.928C249.028 99.3307 249.668 99.032 250.607 99.032C251.802 99.032 252.868 99.4587 253.807 100.312C254.746 101.165 254.959 102.104 254.447 103.128C252.143 107.907 249.242 111.96 245.743 115.288C242.244 118.531 237.764 120.323 232.303 120.664C229.06 125.101 225.391 128.6 221.295 131.16C217.199 133.72 213.103 135 209.007 135C202.863 135 197.828 132.909 193.903 128.728C189.978 124.547 188.015 119.128 188.015 112.472C188.015 108.547 188.783 104.365 190.319 99.928C190.66 99.0747 191.087 97.7947 191.599 96.088L200.047 72.152C203.887 61.7413 207.215 54.2747 210.031 49.752C212.847 45.2293 216.004 42.968 219.503 42.968C222.916 42.968 224.623 44.504 224.623 47.576C224.623 49.5387 223.94 52.0133 222.575 55C221.807 56.792 221.338 57.9013 221.167 58.328C217.668 66.008 215.45 71.6827 214.511 75.352L214.383 75.864C214.383 76.2053 214.511 76.504 214.767 76.76C215.023 77.016 215.364 77.144 215.791 77.144C216.559 77.144 217.284 76.8027 217.967 76.12C219.674 74.4133 221.423 73.1333 223.215 72.28C225.092 71.4267 226.842 71 228.463 71C237.764 71 242.415 77.0587 242.415 89.176C242.415 94.7227 241.519 100.312 239.727 105.944C243.311 105.432 246.298 103.427 248.687 99.928ZM207.343 101.592C207.343 103.64 207.855 105.304 208.879 106.584C209.988 107.864 211.695 108.504 213.999 108.504C216.047 108.504 217.882 107.907 219.503 106.712C221.21 105.432 222.532 103.853 223.471 101.976C224.41 100.099 224.879 98.264 224.879 96.472C224.879 94.5093 224.282 92.888 223.087 91.608C221.978 90.328 220.228 89.688 217.839 89.688C214.852 89.688 212.335 90.9253 210.287 93.4C208.324 95.8747 207.343 98.6053 207.343 101.592ZM307.062 99.928C307.403 99.3307 308.043 99.032 308.982 99.032C310.177 99.032 311.243 99.4587 312.182 100.312C313.121 101.165 313.334 102.104 312.822 103.128C310.518 107.907 307.617 111.96 304.118 115.288C300.619 118.531 296.139 120.323 290.678 120.664C287.435 125.101 283.766 128.6 279.67 131.16C275.574 133.72 271.478 135 267.382 135C261.238 135 256.203 132.909 252.278 128.728C248.353 124.547 246.39 119.128 246.39 112.472C246.39 108.547 247.158 104.365 248.694 99.928C249.035 99.0747 249.462 97.7947 249.974 96.088L258.422 72.152C262.262 61.7413 265.59 54.2747 268.406 49.752C271.222 45.2293 274.379 42.968 277.878 42.968C281.291 42.968 282.998 44.504 282.998 47.576C282.998 49.5387 282.315 52.0133 280.95 55C280.182 56.792 279.713 57.9013 279.542 58.328C276.043 66.008 273.825 71.6827 272.886 75.352L272.758 75.864C272.758 76.2053 272.886 76.504 273.142 76.76C273.398 77.016 273.739 77.144 274.166 77.144C274.934 77.144 275.659 76.8027 276.342 76.12C278.049 74.4133 279.798 73.1333 281.59 72.28C283.467 71.4267 285.217 71 286.838 71C296.139 71 300.79 77.0587 300.79 89.176C300.79 94.7227 299.894 100.312 298.102 105.944C301.686 105.432 304.673 103.427 307.062 99.928ZM265.718 101.592C265.718 103.64 266.23 105.304 267.254 106.584C268.363 107.864 270.07 108.504 272.374 108.504C274.422 108.504 276.257 107.907 277.878 106.712C279.585 105.432 280.907 103.853 281.846 101.976C282.785 100.099 283.254 98.264 283.254 96.472C283.254 94.5093 282.657 92.888 281.462 91.608C280.353 90.328 278.603 89.688 276.214 89.688C273.227 89.688 270.71 90.9253 268.662 93.4C266.699 95.8747 265.718 98.6053 265.718 101.592ZM370.685 99.928C371.026 99.3307 371.666 99.032 372.605 99.032C373.8 99.032 374.866 99.4587 375.805 100.312C376.744 101.165 376.957 102.104 376.445 103.128L373.885 108.504C371.154 114.477 368.808 119.213 366.845 122.712C364.882 126.211 362.536 129.155 359.805 131.544C357.16 133.848 354.13 135 350.717 135C348.84 135 347.346 134.061 346.237 132.184C343.506 141.059 340.648 148.099 337.661 153.304C334.674 158.595 331.346 162.435 327.677 164.824C324.008 167.213 319.784 168.408 315.005 168.408C308.264 168.408 303.058 166.659 299.389 163.16C295.634 159.661 293.757 154.797 293.757 148.568C293.757 144.643 294.482 141.272 295.933 138.456C297.298 135.725 298.834 133.805 300.541 132.696C302.162 131.501 303.016 131.416 303.101 132.44C303.442 135.683 304.722 138.285 306.941 140.248C309.245 142.211 312.274 143.192 316.029 143.192C319.784 143.192 323.282 142.125 326.525 139.992C329.853 137.944 332.584 135.171 334.717 131.672C336.85 128.173 338.13 124.333 338.557 120.152V119.768C338.557 119.171 338.429 118.701 338.173 118.36C337.917 117.933 337.576 117.72 337.149 117.72C336.296 117.72 335.57 118.445 334.973 119.896C333.181 124.248 330.749 127.661 327.677 130.136C324.605 132.525 321.021 133.72 316.925 133.72C313.256 133.72 310.226 132.525 307.837 130.136C305.448 127.747 304.253 124.248 304.253 119.64C304.253 112.557 305.192 105.987 307.069 99.928C310.141 90.2853 313.17 83.0747 316.157 78.296C319.229 73.432 322.514 71 326.013 71C328.658 71 329.981 72.7067 329.981 76.12C329.981 77.9973 329.725 79.832 329.213 81.624C328.786 83.416 328.061 85.848 327.037 88.92C326.013 91.8213 325.288 94.0827 324.861 95.704C324.434 97.3253 324.221 98.9467 324.221 100.568C324.221 102.531 324.605 103.981 325.373 104.92C326.141 105.859 327.549 106.328 329.597 106.328C332.328 106.328 334.546 105.56 336.253 104.024C337.96 102.403 339.368 100.013 340.477 96.856C343.208 88.152 345.938 81.6667 348.669 77.4C351.4 73.1333 354.344 71 357.501 71C359.378 71 360.786 71.4693 361.725 72.408C362.749 73.2613 363.261 74.6693 363.261 76.632C363.261 78.168 362.962 79.7893 362.365 81.496C361.853 83.1173 360.914 85.6347 359.549 89.048C359.122 90.1573 358.44 91.9493 357.501 94.424C356.562 96.8133 355.709 99.16 354.941 101.464C354.429 103.256 354.173 104.792 354.173 106.072C354.173 107.779 354.557 109.059 355.325 109.912C356.093 110.68 357.074 111.064 358.269 111.064C361.426 111.064 365.565 107.352 370.685 99.928ZM375.814 135C372.913 135 370.609 134.147 368.902 132.44C367.281 130.648 366.47 128.387 366.47 125.656C366.47 118.573 367.878 109.997 370.694 99.928C372.913 91.9067 375.473 85.08 378.374 79.448C381.275 73.816 383.835 71 386.054 71C388.87 71 390.278 72.6213 390.278 75.864C390.278 79.0213 391.131 80.6 392.838 80.6C394.033 80.6 395.398 79.832 396.934 78.296C401.969 73.432 407.131 71 412.422 71C416.177 71 419.035 72.1093 420.998 74.328C422.961 76.5467 423.942 79.3627 423.942 82.776C423.942 84.312 423.771 85.72 423.43 87C423.089 88.1947 422.577 89.7733 421.894 91.736C421.211 93.4427 420.699 94.8933 420.358 96.088C420.017 97.2827 419.846 98.6053 419.846 100.056C419.846 102.275 420.315 103.896 421.254 104.92C422.278 105.944 423.857 106.456 425.99 106.456C427.782 106.456 429.318 105.944 430.598 104.92C431.963 103.811 433.371 102.147 434.822 99.928C435.334 99.16 436.017 98.776 436.87 98.776C438.065 98.776 439.089 99.288 439.942 100.312C440.881 101.336 441.094 102.275 440.582 103.128L438.15 107.864C435.761 112.813 433.414 117.123 431.11 120.792C428.891 124.461 425.99 127.747 422.406 130.648C418.907 133.549 414.939 135 410.502 135C406.747 135 403.974 133.763 402.182 131.288C400.475 128.813 399.622 125.613 399.622 121.688C399.622 119.213 399.921 116.824 400.518 114.52C401.115 112.131 401.926 109.443 402.95 106.456C403.121 105.944 403.505 104.749 404.102 102.872C404.699 100.909 404.998 99.3307 404.998 98.136C404.998 96.6853 404.571 95.576 403.718 94.808C402.865 94.04 401.67 93.656 400.134 93.656C397.745 93.656 395.483 94.7227 393.35 96.856C391.217 98.904 389.51 101.635 388.23 105.048C386.95 108.376 386.31 111.917 386.31 115.672V121.432C386.31 130.477 382.811 135 375.814 135ZM495.747 99.928C496.088 99.3307 496.728 99.032 497.667 99.032C498.862 99.032 499.928 99.4587 500.867 100.312C501.806 101.165 502.019 102.104 501.507 103.128C499.118 108.163 496.174 112.344 492.675 115.672C489.176 119 484.654 120.664 479.107 120.664H477.571C474.328 125.101 470.488 128.6 466.051 131.16C461.699 133.72 457.176 135 452.483 135C446.595 135 441.816 133.08 438.147 129.24C434.478 125.315 432.643 120.067 432.643 113.496C432.643 107.011 434.179 100.483 437.251 93.912C440.408 87.256 444.675 81.7947 450.051 77.528C455.427 73.176 461.358 71 467.843 71C473.475 71 477.998 72.792 481.411 76.376C484.824 79.8747 486.531 85.4213 486.531 93.016C486.531 97.5387 485.891 101.933 484.611 106.2H485.507C489.432 106.2 492.846 104.109 495.747 99.928ZM459.779 108.504C461.827 108.504 463.662 107.907 465.283 106.712C466.99 105.432 468.312 103.853 469.251 101.976C470.19 100.099 470.659 98.264 470.659 96.472C470.659 94.5093 470.062 92.888 468.867 91.608C467.758 90.328 466.008 89.688 463.619 89.688C460.632 89.688 458.115 90.9253 456.067 93.4C454.104 95.8747 453.123 98.6053 453.123 101.592C453.123 103.64 453.635 105.304 454.659 106.584C455.768 107.864 457.475 108.504 459.779 108.504ZM500.814 135C497.913 135 495.609 134.147 493.902 132.44C492.281 130.648 491.47 128.387 491.47 125.656C491.47 116.781 492.878 108.205 495.694 99.928C498.766 90.712 501.539 83.5867 504.014 78.552C506.574 73.5173 509.006 71 511.31 71C512.675 71 513.657 71.4693 514.254 72.408C514.937 73.2613 515.278 74.4133 515.278 75.864C515.278 77.2293 515.534 78.3387 516.046 79.192C516.643 80.0453 517.369 80.472 518.222 80.472C519.417 80.472 520.739 79.7467 522.19 78.296C527.225 73.432 532.387 71 537.678 71C540.665 71 543.097 71.7253 544.974 73.176C546.851 74.6267 548.131 76.5893 548.814 79.064C549.07 80.0027 549.454 80.472 549.966 80.472C550.478 80.472 551.161 80.0027 552.014 79.064C557.049 73.5173 562.553 70.744 568.526 70.744C573.219 70.744 576.675 71.8533 578.894 74.072C581.113 76.2053 582.222 79.0213 582.222 82.52C582.222 84.056 582.051 85.464 581.71 86.744C581.369 87.9387 580.857 89.5173 580.174 91.48C579.491 93.1867 578.979 94.6373 578.638 95.832C578.297 97.0267 578.126 98.3493 578.126 99.8C578.126 102.019 578.638 103.683 579.662 104.792C580.686 105.901 582.265 106.456 584.398 106.456C586.19 106.456 587.726 105.901 589.006 104.792C590.371 103.683 591.779 102.061 593.23 99.928C593.742 99.16 594.425 98.776 595.278 98.776C596.473 98.776 597.497 99.288 598.35 100.312C599.289 101.336 599.502 102.275 598.99 103.128L596.558 107.864C594.169 112.813 591.822 117.123 589.518 120.792C587.299 124.461 584.398 127.747 580.814 130.648C577.315 133.549 573.347 135 568.91 135C565.07 135 562.254 133.763 560.462 131.288C558.755 128.728 557.902 125.443 557.902 121.432C557.902 118.957 558.201 116.568 558.798 114.264C559.395 111.875 560.206 109.187 561.23 106.2C561.401 105.688 561.785 104.493 562.382 102.616C562.979 100.653 563.278 99.0747 563.278 97.88C563.278 96.4293 562.851 95.32 561.998 94.552C561.145 93.784 559.95 93.4 558.414 93.4C556.025 93.4 553.763 94.424 551.63 96.472C549.497 98.4347 547.79 100.995 546.51 104.152C545.23 107.309 544.59 110.467 544.59 113.624C544.59 114.819 544.761 116.269 545.102 117.976C545.102 118.317 545.145 118.915 545.23 119.768C545.401 120.536 545.486 121.389 545.486 122.328C545.486 125.741 544.633 128.685 542.926 131.16C541.305 133.549 538.361 134.744 534.094 134.744C527.267 134.744 523.854 131.032 523.854 123.608C523.854 121.219 524.153 118.915 524.75 116.696C525.433 114.392 526.371 111.704 527.566 108.632C528.505 106.157 529.187 104.195 529.614 102.744C530.041 101.293 530.254 99.928 530.254 98.648C530.254 95.32 528.633 93.656 525.39 93.656C523.001 93.656 520.739 94.7227 518.606 96.856C516.473 98.904 514.766 101.635 513.486 105.048C512.206 108.376 511.566 111.917 511.566 115.672V121.432C511.566 125.443 510.798 128.728 509.262 131.288C507.726 133.763 504.91 135 500.814 135ZM615.978 65.752C612.565 65.752 609.834 65.0267 607.786 63.576C605.738 62.1253 604.714 59.8213 604.714 56.664C604.714 48.8133 608.981 44.888 617.514 44.888C625.535 44.888 629.247 48.344 628.65 55.256C627.967 62.2533 623.743 65.752 615.978 65.752ZM601.77 135C597.674 135 594.687 133.549 592.81 130.648C590.933 127.747 589.994 123.864 589.994 119C589.994 113.112 591.061 106.755 593.194 99.928C596.351 90.0293 599.338 82.7333 602.154 78.04C604.97 73.3467 608.127 71 611.626 71C614.527 71 615.978 72.92 615.978 76.76C615.978 78.552 615.722 80.3867 615.21 82.264C614.698 84.1413 613.93 86.4027 612.906 89.048C612.735 89.4747 612.394 90.4987 611.882 92.12C611.37 93.7413 610.943 95.192 610.602 96.472C610.346 97.752 610.218 98.904 610.218 99.928C610.218 101.976 610.73 103.555 611.754 104.664C612.778 105.773 614.186 106.328 615.978 106.328C617.77 106.328 619.306 105.816 620.586 104.792C621.951 103.683 623.359 102.061 624.81 99.928C625.322 99.16 626.005 98.776 626.858 98.776C627.967 98.776 628.949 99.288 629.802 100.312C630.741 101.251 630.997 102.147 630.57 103C629.802 104.28 628.906 106.072 627.882 108.376C625.493 113.325 623.231 117.592 621.098 121.176C618.965 124.76 616.234 127.96 612.906 130.776C609.578 133.592 605.866 135 601.77 135ZM644.278 135C637.025 135 631.521 132.653 627.766 127.96C624.011 123.181 622.134 117.208 622.134 110.04C622.134 103.896 623.457 97.7947 626.102 91.736C628.833 85.6773 632.673 80.728 637.622 76.888C642.571 72.9627 648.246 71 654.646 71C660.449 71 664.843 72.4933 667.83 75.48C670.817 78.4667 672.31 82.2213 672.31 86.744C672.31 90.1573 671.627 93.016 670.262 95.32C668.982 97.624 667.318 99.3307 665.27 100.44C663.307 101.549 661.302 102.104 659.254 102.104C657.206 102.104 655.585 101.763 654.39 101.08C653.195 100.312 652.598 99.4587 652.598 98.52C652.598 97.9227 652.897 97.24 653.494 96.472C654.091 95.704 654.561 94.9787 654.902 94.296C655.329 93.6133 655.542 92.5893 655.542 91.224C655.542 89.944 655.115 88.8773 654.262 88.024C653.409 87.1707 652.086 86.744 650.294 86.744C647.563 86.744 645.345 87.9813 643.638 90.456C642.017 92.8453 641.206 95.7467 641.206 99.16C641.206 103.427 642.571 106.712 645.302 109.016C648.118 111.32 651.659 112.472 655.926 112.472C659.937 112.472 663.99 111.405 668.086 109.272C672.182 107.139 675.638 104.024 678.454 99.928C678.966 99.16 679.649 98.776 680.502 98.776C681.697 98.776 682.721 99.288 683.574 100.312C684.513 101.336 684.726 102.275 684.214 103.128C678.582 113.539 672.395 121.475 665.654 126.936C658.913 132.312 651.787 135 644.278 135ZM728.108 99.928C728.62 99.16 729.303 98.776 730.156 98.776C731.265 98.776 732.247 99.288 733.1 100.312C734.039 101.336 734.295 102.275 733.868 103.128C731.393 108.333 728.833 113.027 726.188 117.208C723.543 121.304 719.617 125.272 714.412 129.112C709.292 132.952 703.148 134.872 695.98 134.872C688.812 134.872 683.436 132.909 679.852 128.984C676.353 124.973 674.604 120.024 674.604 114.136C674.604 109.016 675.884 104.28 678.444 99.928L678.956 99.16C680.151 97.5387 682.284 94.3813 685.356 89.688C688.513 84.9093 691.159 81.0693 693.292 78.168C695.511 75.2667 697.857 72.8347 700.332 70.872C702.892 68.824 705.495 67.8 708.14 67.8C711.895 67.8 714.796 68.696 716.844 70.488C718.892 72.28 719.873 74.2853 719.788 76.504C719.788 77.3573 719.404 78.0827 718.636 78.68C717.953 79.2773 716.929 79.96 715.564 80.728C713.943 81.5813 712.705 82.392 711.852 83.16C710.999 83.928 710.572 84.9093 710.572 86.104C710.572 86.872 711.468 89.048 713.26 92.632C716.247 98.3493 718.167 103.043 719.02 106.712C720.812 106.627 722.391 106.029 723.756 104.92C725.207 103.725 726.657 102.061 728.108 99.928ZM691.372 108.504C694.103 108.504 696.236 107.651 697.772 105.944C699.393 104.152 700.204 101.891 700.204 99.16C700.204 96.2587 699.265 93.016 697.388 89.432C697.047 88.5787 696.577 88.152 695.98 88.152C695.468 88.152 694.913 88.5787 694.316 89.432C691.415 93.6987 688.044 98.264 684.204 103.128C684.204 104.664 684.844 105.944 686.124 106.968C687.489 107.992 689.239 108.504 691.372 108.504Z" fill="white"/>
<path d="M35.968 119.536C26.4107 119.536 18.7307 116.507 12.928 110.448C7.12533 104.304 4.224 95.088 4.224 82.8C4.224 72.6453 6.528 63.0453 11.136 54C15.8293 44.9547 22.016 37.744 29.696 32.368C37.4613 26.9067 45.6533 24.176 54.272 24.176C62.208 24.176 68.224 25.84 72.32 29.168C76.5013 32.4107 78.592 36.848 78.592 42.48C78.592 47.1733 77.3547 51.5253 74.88 55.536C72.4907 59.5467 69.504 62.704 65.92 65.008C62.336 67.312 58.9227 68.464 55.68 68.464C54.3147 68.464 53.1627 68.1227 52.224 67.44C51.3707 66.7573 50.944 65.9467 50.944 65.008C50.944 64.6667 51.1147 64.0693 51.456 63.216C53.9307 58.5227 55.168 54.6827 55.168 51.696C55.168 49.5627 54.4853 47.984 53.12 46.96C51.84 45.8507 50.0907 45.296 47.872 45.296C44.1173 45.296 40.6613 46.4907 37.504 48.88C34.3467 51.184 31.872 54.2987 30.08 58.224C28.288 62.064 27.392 66.0747 27.392 70.256C27.392 76.3147 29.5253 81.3493 33.792 85.36C38.144 89.2853 44.3733 91.248 52.48 91.248C57.0027 91.248 61.2267 90.608 65.152 89.328C69.1627 88.048 72.1493 85.9147 74.112 82.928C74.624 82.16 75.3067 81.776 76.16 81.776C77.2693 81.776 78.2507 82.288 79.104 83.312C80.0427 84.336 80.2987 85.2747 79.872 86.128C74.3253 97.3067 68.0107 105.669 60.928 111.216C53.9307 116.763 45.6107 119.536 35.968 119.536ZM124.629 82.928C125.141 82.16 125.824 81.776 126.677 81.776C127.872 81.776 128.896 82.288 129.749 83.312C130.688 84.336 130.901 85.2747 130.389 86.128L127.957 90.864C125.568 95.8133 123.221 100.123 120.917 103.792C118.698 107.461 115.797 110.747 112.213 113.648C108.714 116.549 104.746 118 100.309 118C95.445 118 91.861 116.72 89.557 114.16C87.3383 111.515 86.229 108.315 86.229 104.56C86.229 101.488 86.6983 98.4587 87.637 95.472C88.661 92.4 90.069 88.8587 91.861 84.848C93.0557 82.1173 93.909 79.984 94.421 78.448C94.933 76.912 95.189 75.5893 95.189 74.48C95.189 73.6267 94.6343 72.56 93.525 71.28C92.4157 70 90.709 68.9333 88.405 68.08C86.869 71.408 84.0103 77.424 79.829 86.128C79.4877 86.9813 78.805 87.408 77.781 87.408C76.8423 87.408 75.9037 87.0667 74.965 86.384C74.1117 85.616 73.685 84.8053 73.685 83.952C73.685 83.5253 73.813 83.184 74.069 82.928C76.373 79.6853 78.9757 74.096 81.877 66.16C80.5117 65.648 79.445 64.88 78.677 63.856C77.9943 62.7467 77.653 61.1253 77.653 58.992C77.653 56.176 78.7197 53.5733 80.853 51.184C83.0717 48.7093 85.8023 47.472 89.045 47.472C92.885 47.472 96.6823 48.24 100.437 49.776C104.277 51.312 107.392 53.2747 109.781 55.664C112.17 57.968 113.365 60.272 113.365 62.576C113.365 64.1973 113.109 65.7333 112.597 67.184C112.17 68.6347 111.53 70.384 110.677 72.432C109.738 74.6507 109.013 76.5707 108.501 78.192C108.074 79.728 107.861 81.392 107.861 83.184C107.861 85.0613 108.501 86.5973 109.781 87.792C111.061 88.9013 113.066 89.456 115.797 89.456C117.589 89.456 119.125 88.944 120.405 87.92C121.77 86.8107 123.178 85.1467 124.629 82.928ZM135.193 118C130.926 118 127.641 116.251 125.337 112.752C123.118 109.253 122.009 104.56 122.009 98.672C122.009 92.272 123.289 85.616 125.849 78.704C128.409 71.7067 132.164 65.8613 137.113 61.168C142.148 56.3893 148.121 54 155.033 54C157.934 54 160.11 54.3413 161.561 55.024C163.012 55.6213 164.249 56.432 165.273 57.456C166.382 58.3947 167.321 58.864 168.089 58.864C168.942 58.864 169.668 58.6933 170.265 58.352C170.948 58.0107 171.716 57.4987 172.569 56.816C173.678 55.8773 174.702 55.1947 175.641 54.768C176.58 54.256 177.774 54 179.225 54C182.212 54 183.705 55.5787 183.705 58.736C183.705 60.1013 183.449 61.4667 182.937 62.832C182.425 64.1973 181.657 65.904 180.633 67.952C180.377 68.6347 179.908 69.7013 179.225 71.152C178.542 72.5173 177.988 73.7973 177.561 74.992C175.854 78.4907 175.001 81.52 175.001 84.08C175.001 87.664 176.75 89.456 180.249 89.456C184.26 89.456 187.63 87.28 190.361 82.928C190.873 82.16 191.556 81.776 192.409 81.776C193.518 81.776 194.5 82.288 195.353 83.312C196.292 84.336 196.548 85.2747 196.121 86.128L193.049 92.272C190.404 97.7333 188.057 102.171 186.009 105.584C183.961 108.912 181.486 111.813 178.585 114.288C175.684 116.763 172.356 118 168.601 118C164.932 118 162.116 116.72 160.153 114.16C158.19 111.515 157.209 108.059 157.209 103.792C157.209 102.341 157.337 100.848 157.593 99.312H157.081C154.35 104.859 151.065 109.381 147.225 112.88C143.47 116.293 139.46 118 135.193 118ZM147.993 91.504C150.126 91.504 152.046 90.9067 153.753 89.712C155.46 88.432 156.782 86.8533 157.721 84.976C158.66 83.0987 159.129 81.264 159.129 79.472C159.129 77.3387 158.532 75.6747 157.337 74.48C156.142 73.2853 154.521 72.688 152.473 72.688C149.316 72.688 146.713 73.9253 144.665 76.4C142.617 78.8747 141.593 81.6053 141.593 84.592C141.593 86.7253 142.148 88.432 143.257 89.712C144.452 90.9067 146.03 91.504 147.993 91.504ZM248.687 82.928C249.028 82.3307 249.668 82.032 250.607 82.032C251.802 82.032 252.868 82.4587 253.807 83.312C254.746 84.1653 254.959 85.104 254.447 86.128C252.143 90.9067 249.242 94.96 245.743 98.288C242.244 101.531 237.764 103.323 232.303 103.664C229.06 108.101 225.391 111.6 221.295 114.16C217.199 116.72 213.103 118 209.007 118C202.863 118 197.828 115.909 193.903 111.728C189.978 107.547 188.015 102.128 188.015 95.472C188.015 91.5467 188.783 87.3653 190.319 82.928C190.66 82.0747 191.087 80.7947 191.599 79.088L200.047 55.152C203.887 44.7413 207.215 37.2747 210.031 32.752C212.847 28.2293 216.004 25.968 219.503 25.968C222.916 25.968 224.623 27.504 224.623 30.576C224.623 32.5387 223.94 35.0133 222.575 38C221.807 39.792 221.338 40.9013 221.167 41.328C217.668 49.008 215.45 54.6827 214.511 58.352L214.383 58.864C214.383 59.2053 214.511 59.504 214.767 59.76C215.023 60.016 215.364 60.144 215.791 60.144C216.559 60.144 217.284 59.8027 217.967 59.12C219.674 57.4133 221.423 56.1333 223.215 55.28C225.092 54.4267 226.842 54 228.463 54C237.764 54 242.415 60.0587 242.415 72.176C242.415 77.7227 241.519 83.312 239.727 88.944C243.311 88.432 246.298 86.4267 248.687 82.928ZM207.343 84.592C207.343 86.64 207.855 88.304 208.879 89.584C209.988 90.864 211.695 91.504 213.999 91.504C216.047 91.504 217.882 90.9067 219.503 89.712C221.21 88.432 222.532 86.8533 223.471 84.976C224.41 83.0987 224.879 81.264 224.879 79.472C224.879 77.5093 224.282 75.888 223.087 74.608C221.978 73.328 220.228 72.688 217.839 72.688C214.852 72.688 212.335 73.9253 210.287 76.4C208.324 78.8747 207.343 81.6053 207.343 84.592ZM307.062 82.928C307.403 82.3307 308.043 82.032 308.982 82.032C310.177 82.032 311.243 82.4587 312.182 83.312C313.121 84.1653 313.334 85.104 312.822 86.128C310.518 90.9067 307.617 94.96 304.118 98.288C300.619 101.531 296.139 103.323 290.678 103.664C287.435 108.101 283.766 111.6 279.67 114.16C275.574 116.72 271.478 118 267.382 118C261.238 118 256.203 115.909 252.278 111.728C248.353 107.547 246.39 102.128 246.39 95.472C246.39 91.5467 247.158 87.3653 248.694 82.928C249.035 82.0747 249.462 80.7947 249.974 79.088L258.422 55.152C262.262 44.7413 265.59 37.2747 268.406 32.752C271.222 28.2293 274.379 25.968 277.878 25.968C281.291 25.968 282.998 27.504 282.998 30.576C282.998 32.5387 282.315 35.0133 280.95 38C280.182 39.792 279.713 40.9013 279.542 41.328C276.043 49.008 273.825 54.6827 272.886 58.352L272.758 58.864C272.758 59.2053 272.886 59.504 273.142 59.76C273.398 60.016 273.739 60.144 274.166 60.144C274.934 60.144 275.659 59.8027 276.342 59.12C278.049 57.4133 279.798 56.1333 281.59 55.28C283.467 54.4267 285.217 54 286.838 54C296.139 54 300.79 60.0587 300.79 72.176C300.79 77.7227 299.894 83.312 298.102 88.944C301.686 88.432 304.673 86.4267 307.062 82.928ZM265.718 84.592C265.718 86.64 266.23 88.304 267.254 89.584C268.363 90.864 270.07 91.504 272.374 91.504C274.422 91.504 276.257 90.9067 277.878 89.712C279.585 88.432 280.907 86.8533 281.846 84.976C282.785 83.0987 283.254 81.264 283.254 79.472C283.254 77.5093 282.657 75.888 281.462 74.608C280.353 73.328 278.603 72.688 276.214 72.688C273.227 72.688 270.71 73.9253 268.662 76.4C266.699 78.8747 265.718 81.6053 265.718 84.592ZM370.685 82.928C371.026 82.3307 371.666 82.032 372.605 82.032C373.8 82.032 374.866 82.4587 375.805 83.312C376.744 84.1653 376.957 85.104 376.445 86.128L373.885 91.504C371.154 97.4773 368.808 102.213 366.845 105.712C364.882 109.211 362.536 112.155 359.805 114.544C357.16 116.848 354.13 118 350.717 118C348.84 118 347.346 117.061 346.237 115.184C343.506 124.059 340.648 131.099 337.661 136.304C334.674 141.595 331.346 145.435 327.677 147.824C324.008 150.213 319.784 151.408 315.005 151.408C308.264 151.408 303.058 149.659 299.389 146.16C295.634 142.661 293.757 137.797 293.757 131.568C293.757 127.643 294.482 124.272 295.933 121.456C297.298 118.725 298.834 116.805 300.541 115.696C302.162 114.501 303.016 114.416 303.101 115.44C303.442 118.683 304.722 121.285 306.941 123.248C309.245 125.211 312.274 126.192 316.029 126.192C319.784 126.192 323.282 125.125 326.525 122.992C329.853 120.944 332.584 118.171 334.717 114.672C336.85 111.173 338.13 107.333 338.557 103.152V102.768C338.557 102.171 338.429 101.701 338.173 101.36C337.917 100.933 337.576 100.72 337.149 100.72C336.296 100.72 335.57 101.445 334.973 102.896C333.181 107.248 330.749 110.661 327.677 113.136C324.605 115.525 321.021 116.72 316.925 116.72C313.256 116.72 310.226 115.525 307.837 113.136C305.448 110.747 304.253 107.248 304.253 102.64C304.253 95.5573 305.192 88.9867 307.069 82.928C310.141 73.2853 313.17 66.0747 316.157 61.296C319.229 56.432 322.514 54 326.013 54C328.658 54 329.981 55.7067 329.981 59.12C329.981 60.9973 329.725 62.832 329.213 64.624C328.786 66.416 328.061 68.848 327.037 71.92C326.013 74.8213 325.288 77.0827 324.861 78.704C324.434 80.3253 324.221 81.9467 324.221 83.568C324.221 85.5307 324.605 86.9813 325.373 87.92C326.141 88.8587 327.549 89.328 329.597 89.328C332.328 89.328 334.546 88.56 336.253 87.024C337.96 85.4027 339.368 83.0133 340.477 79.856C343.208 71.152 345.938 64.6667 348.669 60.4C351.4 56.1333 354.344 54 357.501 54C359.378 54 360.786 54.4693 361.725 55.408C362.749 56.2613 363.261 57.6693 363.261 59.632C363.261 61.168 362.962 62.7893 362.365 64.496C361.853 66.1173 360.914 68.6347 359.549 72.048C359.122 73.1573 358.44 74.9493 357.501 77.424C356.562 79.8133 355.709 82.16 354.941 84.464C354.429 86.256 354.173 87.792 354.173 89.072C354.173 90.7787 354.557 92.0587 355.325 92.912C356.093 93.68 357.074 94.064 358.269 94.064C361.426 94.064 365.565 90.352 370.685 82.928ZM375.814 118C372.913 118 370.609 117.147 368.902 115.44C367.281 113.648 366.47 111.387 366.47 108.656C366.47 101.573 367.878 92.9973 370.694 82.928C372.913 74.9067 375.473 68.08 378.374 62.448C381.275 56.816 383.835 54 386.054 54C388.87 54 390.278 55.6213 390.278 58.864C390.278 62.0213 391.131 63.6 392.838 63.6C394.033 63.6 395.398 62.832 396.934 61.296C401.969 56.432 407.131 54 412.422 54C416.177 54 419.035 55.1093 420.998 57.328C422.961 59.5467 423.942 62.3627 423.942 65.776C423.942 67.312 423.771 68.72 423.43 70C423.089 71.1947 422.577 72.7733 421.894 74.736C421.211 76.4427 420.699 77.8933 420.358 79.088C420.017 80.2827 419.846 81.6053 419.846 83.056C419.846 85.2747 420.315 86.896 421.254 87.92C422.278 88.944 423.857 89.456 425.99 89.456C427.782 89.456 429.318 88.944 430.598 87.92C431.963 86.8107 433.371 85.1467 434.822 82.928C435.334 82.16 436.017 81.776 436.87 81.776C438.065 81.776 439.089 82.288 439.942 83.312C440.881 84.336 441.094 85.2747 440.582 86.128L438.15 90.864C435.761 95.8133 433.414 100.123 431.11 103.792C428.891 107.461 425.99 110.747 422.406 113.648C418.907 116.549 414.939 118 410.502 118C406.747 118 403.974 116.763 402.182 114.288C400.475 111.813 399.622 108.613 399.622 104.688C399.622 102.213 399.921 99.824 400.518 97.52C401.115 95.1307 401.926 92.4427 402.95 89.456C403.121 88.944 403.505 87.7493 404.102 85.872C404.699 83.9093 404.998 82.3307 404.998 81.136C404.998 79.6853 404.571 78.576 403.718 77.808C402.865 77.04 401.67 76.656 400.134 76.656C397.745 76.656 395.483 77.7227 393.35 79.856C391.217 81.904 389.51 84.6347 388.23 88.048C386.95 91.376 386.31 94.9173 386.31 98.672V104.432C386.31 113.477 382.811 118 375.814 118ZM495.747 82.928C496.088 82.3307 496.728 82.032 497.667 82.032C498.862 82.032 499.928 82.4587 500.867 83.312C501.806 84.1653 502.019 85.104 501.507 86.128C499.118 91.1627 496.174 95.344 492.675 98.672C489.176 102 484.654 103.664 479.107 103.664H477.571C474.328 108.101 470.488 111.6 466.051 114.16C461.699 116.72 457.176 118 452.483 118C446.595 118 441.816 116.08 438.147 112.24C434.478 108.315 432.643 103.067 432.643 96.496C432.643 90.0107 434.179 83.4827 437.251 76.912C440.408 70.256 444.675 64.7947 450.051 60.528C455.427 56.176 461.358 54 467.843 54C473.475 54 477.998 55.792 481.411 59.376C484.824 62.8747 486.531 68.4213 486.531 76.016C486.531 80.5387 485.891 84.9333 484.611 89.2H485.507C489.432 89.2 492.846 87.1093 495.747 82.928ZM459.779 91.504C461.827 91.504 463.662 90.9067 465.283 89.712C466.99 88.432 468.312 86.8533 469.251 84.976C470.19 83.0987 470.659 81.264 470.659 79.472C470.659 77.5093 470.062 75.888 468.867 74.608C467.758 73.328 466.008 72.688 463.619 72.688C460.632 72.688 458.115 73.9253 456.067 76.4C454.104 78.8747 453.123 81.6053 453.123 84.592C453.123 86.64 453.635 88.304 454.659 89.584C455.768 90.864 457.475 91.504 459.779 91.504ZM500.814 118C497.913 118 495.609 117.147 493.902 115.44C492.281 113.648 491.47 111.387 491.47 108.656C491.47 99.7813 492.878 91.2053 495.694 82.928C498.766 73.712 501.539 66.5867 504.014 61.552C506.574 56.5173 509.006 54 511.31 54C512.675 54 513.657 54.4693 514.254 55.408C514.937 56.2613 515.278 57.4133 515.278 58.864C515.278 60.2293 515.534 61.3387 516.046 62.192C516.643 63.0453 517.369 63.472 518.222 63.472C519.417 63.472 520.739 62.7467 522.19 61.296C527.225 56.432 532.387 54 537.678 54C540.665 54 543.097 54.7253 544.974 56.176C546.851 57.6267 548.131 59.5893 548.814 62.064C549.07 63.0027 549.454 63.472 549.966 63.472C550.478 63.472 551.161 63.0027 552.014 62.064C557.049 56.5173 562.553 53.744 568.526 53.744C573.219 53.744 576.675 54.8533 578.894 57.072C581.113 59.2053 582.222 62.0213 582.222 65.52C582.222 67.056 582.051 68.464 581.71 69.744C581.369 70.9387 580.857 72.5173 580.174 74.48C579.491 76.1867 578.979 77.6373 578.638 78.832C578.297 80.0267 578.126 81.3493 578.126 82.8C578.126 85.0187 578.638 86.6827 579.662 87.792C580.686 88.9013 582.265 89.456 584.398 89.456C586.19 89.456 587.726 88.9013 589.006 87.792C590.371 86.6827 591.779 85.0613 593.23 82.928C593.742 82.16 594.425 81.776 595.278 81.776C596.473 81.776 597.497 82.288 598.35 83.312C599.289 84.336 599.502 85.2747 598.99 86.128L596.558 90.864C594.169 95.8133 591.822 100.123 589.518 103.792C587.299 107.461 584.398 110.747 580.814 113.648C577.315 116.549 573.347 118 568.91 118C565.07 118 562.254 116.763 560.462 114.288C558.755 111.728 557.902 108.443 557.902 104.432C557.902 101.957 558.201 99.568 558.798 97.264C559.395 94.8747 560.206 92.1867 561.23 89.2C561.401 88.688 561.785 87.4933 562.382 85.616C562.979 83.6533 563.278 82.0747 563.278 80.88C563.278 79.4293 562.851 78.32 561.998 77.552C561.145 76.784 559.95 76.4 558.414 76.4C556.025 76.4 553.763 77.424 551.63 79.472C549.497 81.4347 547.79 83.9947 546.51 87.152C545.23 90.3093 544.59 93.4667 544.59 96.624C544.59 97.8187 544.761 99.2693 545.102 100.976C545.102 101.317 545.145 101.915 545.23 102.768C545.401 103.536 545.486 104.389 545.486 105.328C545.486 108.741 544.633 111.685 542.926 114.16C541.305 116.549 538.361 117.744 534.094 117.744C527.267 117.744 523.854 114.032 523.854 106.608C523.854 104.219 524.153 101.915 524.75 99.696C525.433 97.392 526.371 94.704 527.566 91.632C528.505 89.1573 529.187 87.1947 529.614 85.744C530.041 84.2933 530.254 82.928 530.254 81.648C530.254 78.32 528.633 76.656 525.39 76.656C523.001 76.656 520.739 77.7227 518.606 79.856C516.473 81.904 514.766 84.6347 513.486 88.048C512.206 91.376 511.566 94.9173 511.566 98.672V104.432C511.566 108.443 510.798 111.728 509.262 114.288C507.726 116.763 504.91 118 500.814 118ZM615.978 48.752C612.565 48.752 609.834 48.0267 607.786 46.576C605.738 45.1253 604.714 42.8213 604.714 39.664C604.714 31.8133 608.981 27.888 617.514 27.888C625.535 27.888 629.247 31.344 628.65 38.256C627.967 45.2533 623.743 48.752 615.978 48.752ZM601.77 118C597.674 118 594.687 116.549 592.81 113.648C590.933 110.747 589.994 106.864 589.994 102C589.994 96.112 591.061 89.7547 593.194 82.928C596.351 73.0293 599.338 65.7333 602.154 61.04C604.97 56.3467 608.127 54 611.626 54C614.527 54 615.978 55.92 615.978 59.76C615.978 61.552 615.722 63.3867 615.21 65.264C614.698 67.1413 613.93 69.4027 612.906 72.048C612.735 72.4747 612.394 73.4987 611.882 75.12C611.37 76.7413 610.943 78.192 610.602 79.472C610.346 80.752 610.218 81.904 610.218 82.928C610.218 84.976 610.73 86.5547 611.754 87.664C612.778 88.7733 614.186 89.328 615.978 89.328C617.77 89.328 619.306 88.816 620.586 87.792C621.951 86.6827 623.359 85.0613 624.81 82.928C625.322 82.16 626.005 81.776 626.858 81.776C627.967 81.776 628.949 82.288 629.802 83.312C630.741 84.2507 630.997 85.1467 630.57 86C629.802 87.28 628.906 89.072 627.882 91.376C625.493 96.3253 623.231 100.592 621.098 104.176C618.965 107.76 616.234 110.96 612.906 113.776C609.578 116.592 605.866 118 601.77 118ZM644.278 118C637.025 118 631.521 115.653 627.766 110.96C624.011 106.181 622.134 100.208 622.134 93.04C622.134 86.896 623.457 80.7947 626.102 74.736C628.833 68.6773 632.673 63.728 637.622 59.888C642.571 55.9627 648.246 54 654.646 54C660.449 54 664.843 55.4933 667.83 58.48C670.817 61.4667 672.31 65.2213 672.31 69.744C672.31 73.1573 671.627 76.016 670.262 78.32C668.982 80.624 667.318 82.3307 665.27 83.44C663.307 84.5493 661.302 85.104 659.254 85.104C657.206 85.104 655.585 84.7627 654.39 84.08C653.195 83.312 652.598 82.4587 652.598 81.52C652.598 80.9227 652.897 80.24 653.494 79.472C654.091 78.704 654.561 77.9787 654.902 77.296C655.329 76.6133 655.542 75.5893 655.542 74.224C655.542 72.944 655.115 71.8773 654.262 71.024C653.409 70.1707 652.086 69.744 650.294 69.744C647.563 69.744 645.345 70.9813 643.638 73.456C642.017 75.8453 641.206 78.7467 641.206 82.16C641.206 86.4267 642.571 89.712 645.302 92.016C648.118 94.32 651.659 95.472 655.926 95.472C659.937 95.472 663.99 94.4053 668.086 92.272C672.182 90.1387 675.638 87.024 678.454 82.928C678.966 82.16 679.649 81.776 680.502 81.776C681.697 81.776 682.721 82.288 683.574 83.312C684.513 84.336 684.726 85.2747 684.214 86.128C678.582 96.5387 672.395 104.475 665.654 109.936C658.913 115.312 651.787 118 644.278 118ZM728.108 82.928C728.62 82.16 729.303 81.776 730.156 81.776C731.265 81.776 732.247 82.288 733.1 83.312C734.039 84.336 734.295 85.2747 733.868 86.128C731.393 91.3333 728.833 96.0267 726.188 100.208C723.543 104.304 719.617 108.272 714.412 112.112C709.292 115.952 703.148 117.872 695.98 117.872C688.812 117.872 683.436 115.909 679.852 111.984C676.353 107.973 674.604 103.024 674.604 97.136C674.604 92.016 675.884 87.28 678.444 82.928L678.956 82.16C680.151 80.5387 682.284 77.3813 685.356 72.688C688.513 67.9093 691.159 64.0693 693.292 61.168C695.511 58.2667 697.857 55.8347 700.332 53.872C702.892 51.824 705.495 50.8 708.14 50.8C711.895 50.8 714.796 51.696 716.844 53.488C718.892 55.28 719.873 57.2853 719.788 59.504C719.788 60.3573 719.404 61.0827 718.636 61.68C717.953 62.2773 716.929 62.96 715.564 63.728C713.943 64.5813 712.705 65.392 711.852 66.16C710.999 66.928 710.572 67.9093 710.572 69.104C710.572 69.872 711.468 72.048 713.26 75.632C716.247 81.3493 718.167 86.0427 719.02 89.712C720.812 89.6267 722.391 89.0293 723.756 87.92C725.207 86.7253 726.657 85.0613 728.108 82.928ZM691.372 91.504C694.103 91.504 696.236 90.6507 697.772 88.944C699.393 87.152 700.204 84.8907 700.204 82.16C700.204 79.2587 699.265 76.016 697.388 72.432C697.047 71.5787 696.577 71.152 695.98 71.152C695.468 71.152 694.913 71.5787 694.316 72.432C691.415 76.6987 688.044 81.264 684.204 86.128C684.204 87.664 684.844 88.944 686.124 89.968C687.489 90.992 689.239 91.504 691.372 91.504Z" fill="#0068B6"/>
</svg>
