<svg width="189" height="58" viewBox="0 0 189 58" fill="none" xmlns="http://www.w3.org/2000/svg">
<rect width="189" height="58" rx="20" fill="#0068B6"/>
<path d="M39.6778 38.344C38.4404 38.344 37.4058 38.088 36.5738 37.576C35.7418 37.064 35.1338 36.4027 34.7498 35.592C34.3444 34.7813 34.1418 33.9067 34.1418 32.968C34.1418 32.0933 34.3231 31.2507 34.6858 30.44C35.0484 29.6293 35.5498 28.9787 36.1898 28.488C36.8298 27.9973 37.5658 27.752 38.3978 27.752C38.5258 27.752 38.6324 27.7947 38.7178 27.88C38.8244 27.944 38.8778 28.0293 38.8778 28.136C38.8778 28.84 39.1764 29.416 39.7738 29.864C40.3711 30.2907 41.1178 30.504 42.0138 30.504C43.1018 30.504 44.2004 30.0453 45.3098 29.128C46.4191 28.2107 47.3258 26.8453 48.0298 25.032L48.3818 24.136C48.5311 23.7307 48.7444 23.1653 49.0218 22.44C49.2991 21.6933 49.5338 21.0747 49.7258 20.584C50.1098 19.56 50.8031 19.048 51.8058 19.048C52.7871 19.048 53.2778 19.432 53.2778 20.2C53.2778 20.5413 53.1604 21.032 52.9258 21.672C52.7124 22.2907 52.3924 23.144 51.9658 24.232C51.4538 25.4907 51.0591 26.5147 50.7818 27.304C50.5258 28.0933 50.3978 28.7333 50.3978 29.224C50.3978 29.672 50.5258 30.0347 50.7818 30.312C51.0378 30.568 51.4218 30.696 51.9338 30.696C52.8298 30.696 53.6404 30.2907 54.3658 29.48C55.1124 28.6693 55.6884 27.6453 56.0938 26.408C56.5204 25.1493 56.7338 23.88 56.7338 22.6C56.7338 21.064 56.2964 19.8267 55.4218 18.888C54.5684 17.9493 53.1178 17.48 51.0698 17.48C49.4058 17.48 47.9871 17.8853 46.8138 18.696C45.6618 19.4853 45.0858 20.648 45.0858 22.184C45.0858 22.6533 45.2031 23.048 45.4378 23.368C45.6724 23.6667 45.9604 23.816 46.3018 23.816C46.4511 23.8373 46.5258 23.9547 46.5258 24.168C46.5258 24.5307 46.3231 25.0213 45.9178 25.64C45.5124 26.2587 44.9684 26.8027 44.2858 27.272C43.6244 27.7413 42.8991 27.976 42.1098 27.976C40.8511 27.976 39.8698 27.528 39.1658 26.632C38.4618 25.7147 38.1098 24.6053 38.1098 23.304C38.1098 21.4907 38.6431 19.816 39.7098 18.28C40.7764 16.7227 42.2591 15.4853 44.1578 14.568C46.0564 13.6507 48.2004 13.192 50.5898 13.192C54.4084 13.192 57.1818 14.1413 58.9098 16.04C60.6378 17.9387 61.5018 20.392 61.5018 23.4C61.5018 25.64 61.0538 27.848 60.1578 30.024C59.2831 32.1787 58.1098 33.9387 56.6378 35.304C55.1658 36.648 53.5978 37.32 51.9338 37.32C50.6324 37.32 49.5871 36.9253 48.7978 36.136C48.0298 35.3467 47.6031 34.28 47.5178 32.936C46.6004 34.6427 45.4698 35.976 44.1258 36.936C42.7818 37.8747 41.2991 38.344 39.6778 38.344ZM67.5003 37C65.6869 37 64.3109 36.4133 63.3723 35.24C62.4336 34.0453 61.9643 32.552 61.9643 30.76C61.9643 29.224 62.3056 27.6987 62.9883 26.184C63.6709 24.6693 64.6523 23.432 65.9323 22.472C67.2123 21.4907 68.6843 21 70.3483 21C71.7563 21 72.8229 21.384 73.5483 22.152C74.2736 22.92 74.6363 23.88 74.6363 25.032C74.6363 25.8213 74.4123 26.6 73.9643 27.368C73.5376 28.136 72.9296 28.7653 72.1403 29.256C71.3723 29.7467 70.4869 29.992 69.4843 29.992C68.4176 29.992 67.5856 29.8213 66.9883 29.48C66.9029 29.4373 66.8389 29.416 66.7963 29.416C66.6896 29.416 66.6043 29.4587 66.5403 29.544C66.4763 29.608 66.4443 29.7147 66.4443 29.864C66.4443 30.3973 66.7536 30.8133 67.3723 31.112C68.0123 31.4107 68.8123 31.56 69.7723 31.56C70.9243 31.56 72.0763 31.272 73.2283 30.696C74.3803 30.12 75.2976 29.2987 75.9803 28.232C76.1083 28.04 76.2789 27.944 76.4923 27.944C76.7909 27.944 77.0469 28.072 77.2603 28.328C77.4949 28.584 77.5483 28.8187 77.4203 29.032C76.0123 31.656 74.4656 33.64 72.7803 34.984C71.1163 36.328 69.3563 37 67.5003 37ZM68.6523 27.592C69.2283 27.592 69.6976 27.4107 70.0603 27.048C70.4443 26.664 70.6363 26.248 70.6363 25.8C70.6363 25.416 70.5083 25.1067 70.2523 24.872C69.9963 24.616 69.6336 24.488 69.1643 24.488C68.5669 24.488 68.0763 24.6693 67.6923 25.032C67.3296 25.3947 67.1483 25.8107 67.1483 26.28C67.1483 26.664 67.2763 26.984 67.5323 27.24C67.7883 27.4747 68.1616 27.592 68.6523 27.592ZM93.8583 28.744C93.8583 28.8507 93.8903 28.8507 93.9543 28.744L93.7943 29.032C93.0903 30.248 92.3863 31.368 91.6823 32.392C90.9996 33.3947 90.0929 34.4187 88.9623 35.464C87.8316 36.488 86.6903 37 85.5383 37C84.5996 37 83.9169 36.616 83.4903 35.848C83.0849 35.08 82.8609 33.9813 82.8183 32.552C82.3063 33.8107 81.6449 34.8667 80.8343 35.72C80.0449 36.5733 79.1169 37 78.0503 37C77.3249 37 76.7703 36.776 76.3863 36.328C76.0236 35.8587 75.8423 35.2827 75.8423 34.6C75.8423 33.96 75.9916 33.3307 76.2903 32.712C76.5889 32.072 77.0049 31.5493 77.5383 31.144C78.0929 30.7173 78.7223 30.504 79.4263 30.504C80.2796 30.504 80.9089 30.1947 81.3143 29.576C81.7409 28.936 81.9543 28.2107 81.9543 27.4C81.9543 26.8453 81.8369 26.3973 81.6023 26.056C81.3889 25.6933 81.0583 25.512 80.6103 25.512C79.9703 25.512 79.4263 25.8107 78.9783 26.408C78.5303 27.0053 78.0076 27.88 77.4103 29.032L75.9703 28.232C76.2689 27.8053 76.5569 27.2827 76.8343 26.664C77.1116 26.024 77.2823 25.64 77.3463 25.512C77.9863 24.04 78.5836 22.92 79.1383 22.152C79.7143 21.384 80.4396 21 81.3143 21C82.1676 21 82.8396 21.3947 83.3303 22.184C83.8423 22.952 84.1196 23.912 84.1623 25.064C84.6103 23.8907 85.2503 22.92 86.0823 22.152C86.9143 21.384 87.8423 21 88.8663 21C89.6343 21 90.2103 21.224 90.5943 21.672C90.9783 22.0987 91.1703 22.664 91.1703 23.368C91.1703 24.0933 90.9996 24.7973 90.6583 25.48C90.3383 26.1413 89.9543 26.472 89.5063 26.472C89.3996 26.472 89.2716 26.3867 89.1223 26.216C88.9943 26.024 88.8449 25.8747 88.6743 25.768C88.5249 25.64 88.3116 25.576 88.0343 25.576C87.4796 25.576 87.0209 25.8213 86.6583 26.312C86.2956 26.8027 86.1143 27.368 86.1143 28.008C86.1143 28.776 86.3916 29.384 86.9463 29.832C87.5009 30.28 88.1623 30.504 88.9303 30.504C89.6983 30.504 90.3489 30.3013 90.8823 29.896C91.4156 29.4693 91.9063 28.9147 92.3543 28.232C92.5036 28.0187 92.6103 27.8907 92.6743 27.848C92.7596 27.784 92.8236 27.7627 92.8663 27.784C92.9303 27.784 92.9836 27.784 93.0263 27.784C93.2396 27.784 93.4316 27.9013 93.6023 28.136C93.7729 28.3707 93.8583 28.5733 93.8583 28.744ZM94.8413 37C93.6679 37 92.7933 36.6373 92.2173 35.912C91.6413 35.1653 91.3533 34.1733 91.3533 32.936C91.3533 31.7627 91.5879 30.5147 92.0573 29.192C92.3346 28.3387 92.8039 27.0267 93.4653 25.256L94.1053 23.496C93.5719 23.496 93.1666 23.3253 92.8893 22.984C92.6333 22.6427 92.5053 22.2587 92.5053 21.832C92.5053 21.5973 92.5373 21.4053 92.6013 21.256C92.6866 21.1067 92.8039 21.032 92.9533 21.032C93.8066 21.032 94.5106 20.7973 95.0653 20.328C95.6199 19.8587 96.0253 19.2827 96.2813 18.6C96.6439 17.7467 96.9959 17.1813 97.3373 16.904C97.6999 16.6053 98.1053 16.456 98.5533 16.456C99.3213 16.456 99.7053 16.8293 99.7053 17.576C99.7053 18.1093 99.5239 18.7387 99.1613 19.464C98.9053 19.976 98.7773 20.3707 98.7773 20.648C98.7773 20.904 98.9159 21.032 99.1933 21.032H100.857C101.007 21.032 101.124 21.1173 101.209 21.288C101.295 21.4373 101.337 21.6507 101.337 21.928C101.337 22.4187 101.209 22.888 100.953 23.336C100.719 23.7627 100.42 23.976 100.057 23.976C98.9693 23.976 98.2119 24.0187 97.7853 24.104C97.3799 24.168 97.0813 24.3387 96.8893 24.616C96.6973 24.8933 96.4946 25.416 96.2813 26.184C96.1319 26.7387 96.0573 27.176 96.0573 27.496C96.0573 28.2213 96.2706 28.7973 96.6973 29.224C97.1453 29.6293 97.7426 29.832 98.4893 29.832C99.1079 29.832 99.6733 29.6933 100.185 29.416C100.697 29.1387 101.113 28.744 101.433 28.232C101.54 28.0613 101.711 27.976 101.945 27.976C102.223 27.976 102.468 28.104 102.681 28.36C102.916 28.5947 102.98 28.8187 102.873 29.032L102.521 29.736C101.924 30.9733 101.305 32.0933 100.665 33.096C100.047 34.0773 99.2359 34.9733 98.2333 35.784C97.2306 36.5947 96.0999 37 94.8413 37ZM116.671 28.232C116.756 28.0827 116.916 28.008 117.151 28.008C117.45 28.008 117.716 28.1147 117.951 28.328C118.186 28.5413 118.239 28.776 118.111 29.032C117.514 30.2907 116.778 31.336 115.903 32.168C115.028 33 113.898 33.416 112.511 33.416H112.127C111.316 34.5253 110.356 35.4 109.247 36.04C108.159 36.68 107.028 37 105.855 37C104.383 37 103.188 36.52 102.271 35.56C101.354 34.5787 100.895 33.2667 100.895 31.624C100.895 30.0027 101.279 28.3707 102.047 26.728C102.836 25.064 103.903 23.6987 105.247 22.632C106.591 21.544 108.074 21 109.695 21C111.103 21 112.234 21.448 113.087 22.344C113.94 23.2187 114.367 24.6053 114.367 26.504C114.367 27.6347 114.207 28.7333 113.887 29.8H114.111C115.092 29.8 115.946 29.2773 116.671 28.232ZM107.679 30.376C108.191 30.376 108.65 30.2267 109.055 29.928C109.482 29.608 109.812 29.2133 110.047 28.744C110.282 28.2747 110.399 27.816 110.399 27.368C110.399 26.8773 110.25 26.472 109.951 26.152C109.674 25.832 109.236 25.672 108.639 25.672C107.892 25.672 107.263 25.9813 106.751 26.6C106.26 27.2187 106.015 27.9013 106.015 28.648C106.015 29.16 106.143 29.576 106.399 29.896C106.676 30.216 107.103 30.376 107.679 30.376ZM131.89 28.232C131.975 28.0827 132.135 28.008 132.37 28.008C132.668 28.008 132.935 28.1147 133.17 28.328C133.404 28.5413 133.458 28.776 133.33 29.032C132.732 30.2907 131.996 31.336 131.122 32.168C130.247 33 129.116 33.416 127.73 33.416H127.346C126.535 34.5253 125.575 35.4 124.466 36.04C123.378 36.68 122.247 37 121.074 37C119.602 37 118.407 36.52 117.49 35.56C116.572 34.5787 116.114 33.2667 116.114 31.624C116.114 30.0027 116.498 28.3707 117.266 26.728C118.055 25.064 119.122 23.6987 120.466 22.632C121.81 21.544 123.292 21 124.914 21C126.322 21 127.452 21.448 128.306 22.344C129.159 23.2187 129.586 24.6053 129.586 26.504C129.586 27.6347 129.426 28.7333 129.106 29.8H129.33C130.311 29.8 131.164 29.2773 131.89 28.232ZM122.898 30.376C123.41 30.376 123.868 30.2267 124.274 29.928C124.7 29.608 125.031 29.2133 125.266 28.744C125.5 28.2747 125.618 27.816 125.618 27.368C125.618 26.8773 125.468 26.472 125.17 26.152C124.892 25.832 124.455 25.672 123.858 25.672C123.111 25.672 122.482 25.9813 121.97 26.6C121.479 27.2187 121.234 27.9013 121.234 28.648C121.234 29.16 121.362 29.576 121.618 29.896C121.895 30.216 122.322 30.376 122.898 30.376ZM133.861 37C131.834 37 130.821 35.9013 130.821 33.704C130.821 32.1253 131.183 30.3013 131.909 28.232L132.613 26.184C133.743 22.8987 134.607 20.488 135.205 18.952C135.823 17.3947 136.453 16.1787 137.093 15.304C137.733 14.4293 138.437 13.992 139.205 13.992C140.079 13.992 140.517 14.3867 140.517 15.176C140.517 15.688 140.335 16.296 139.973 17C138.138 20.6907 136.89 23.752 136.229 26.184C135.973 27.0587 135.845 27.7627 135.845 28.296C135.845 28.7867 135.951 29.1707 136.165 29.448C136.399 29.7253 136.794 29.864 137.349 29.864C138.373 29.864 139.237 29.32 139.941 28.232C140.069 28.04 140.239 27.944 140.453 27.944C140.751 27.944 141.007 28.072 141.221 28.328C141.455 28.584 141.509 28.8187 141.381 29.032L140.773 30.216C140.175 31.4533 139.589 32.5307 139.013 33.448C138.458 34.3653 137.733 35.1867 136.837 35.912C135.962 36.6373 134.97 37 133.861 37ZM152.355 28.232C152.483 28.04 152.654 27.944 152.867 27.944C153.144 27.944 153.39 28.072 153.603 28.328C153.838 28.584 153.902 28.8187 153.795 29.032C153.176 30.3333 152.536 31.5067 151.875 32.552C151.214 33.576 150.232 34.568 148.931 35.528C147.651 36.488 146.115 36.968 144.323 36.968C142.531 36.968 141.187 36.4773 140.291 35.496C139.416 34.4933 138.979 33.256 138.979 31.784C138.979 30.504 139.299 29.32 139.939 28.232L140.067 28.04C140.366 27.6347 140.899 26.8453 141.667 25.672C142.456 24.4773 143.118 23.5173 143.651 22.792C144.206 22.0667 144.792 21.4587 145.411 20.968C146.051 20.456 146.702 20.2 147.363 20.2C148.302 20.2 149.027 20.424 149.539 20.872C150.051 21.32 150.296 21.8213 150.275 22.376C150.275 22.5893 150.179 22.7707 149.987 22.92C149.816 23.0693 149.56 23.24 149.219 23.432C148.814 23.6453 148.504 23.848 148.291 24.04C148.078 24.232 147.971 24.4773 147.971 24.776C147.971 24.968 148.195 25.512 148.643 26.408C149.39 27.8373 149.87 29.0107 150.083 29.928C150.531 29.9067 150.926 29.7573 151.267 29.48C151.63 29.1813 151.992 28.7653 152.355 28.232ZM143.171 30.376C143.854 30.376 144.387 30.1627 144.771 29.736C145.176 29.288 145.379 28.7227 145.379 28.04C145.379 27.3147 145.144 26.504 144.675 25.608C144.59 25.3947 144.472 25.288 144.323 25.288C144.195 25.288 144.056 25.3947 143.907 25.608C143.182 26.6747 142.339 27.816 141.379 29.032C141.379 29.416 141.539 29.736 141.859 29.992C142.2 30.248 142.638 30.376 143.171 30.376Z" fill="white"/>
</svg>
