<svg width="189" height="58" viewBox="0 0 189 58" fill="none" xmlns="http://www.w3.org/2000/svg">
<rect width="189" height="58" rx="20" fill="#0068B6"/>
<path d="M15.2559 38.344C14.0185 38.344 12.9839 38.088 12.1519 37.576C11.3199 37.064 10.7119 36.4027 10.3279 35.592C9.92254 34.7813 9.71988 33.9067 9.71988 32.968C9.71988 32.0933 9.90121 31.2507 10.2639 30.44C10.6265 29.6293 11.1279 28.9787 11.7679 28.488C12.4079 27.9973 13.1439 27.752 13.9759 27.752C14.1039 27.752 14.2105 27.7947 14.2959 27.88C14.4025 27.944 14.4559 28.0293 14.4559 28.136C14.4559 28.84 14.7545 29.416 15.3519 29.864C15.9492 30.2907 16.6959 30.504 17.5919 30.504C18.6799 30.504 19.7785 30.0453 20.8879 29.128C21.9972 28.2107 22.9039 26.8453 23.6079 25.032L23.9599 24.136C24.1092 23.7307 24.3225 23.1653 24.5999 22.44C24.8772 21.6933 25.1119 21.0747 25.3039 20.584C25.6879 19.56 26.3812 19.048 27.3839 19.048C28.3652 19.048 28.8559 19.432 28.8559 20.2C28.8559 20.5413 28.7385 21.032 28.5039 21.672C28.2905 22.2907 27.9705 23.144 27.5439 24.232C27.0319 25.4907 26.6372 26.5147 26.3599 27.304C26.1039 28.0933 25.9759 28.7333 25.9759 29.224C25.9759 29.672 26.1039 30.0347 26.3599 30.312C26.6159 30.568 26.9999 30.696 27.5119 30.696C28.4079 30.696 29.2185 30.2907 29.9439 29.48C30.6905 28.6693 31.2665 27.6453 31.6719 26.408C32.0985 25.1493 32.3119 23.88 32.3119 22.6C32.3119 21.064 31.8745 19.8267 30.9999 18.888C30.1465 17.9493 28.6959 17.48 26.6479 17.48C24.9839 17.48 23.5652 17.8853 22.3919 18.696C21.2399 19.4853 20.6639 20.648 20.6639 22.184C20.6639 22.6533 20.7812 23.048 21.0159 23.368C21.2505 23.6667 21.5385 23.816 21.8799 23.816C22.0292 23.8373 22.1039 23.9547 22.1039 24.168C22.1039 24.5307 21.9012 25.0213 21.4959 25.64C21.0905 26.2587 20.5465 26.8027 19.8639 27.272C19.2025 27.7413 18.4772 27.976 17.6879 27.976C16.4292 27.976 15.4479 27.528 14.7439 26.632C14.0399 25.7147 13.6879 24.6053 13.6879 23.304C13.6879 21.4907 14.2212 19.816 15.2879 18.28C16.3545 16.7227 17.8372 15.4853 19.7359 14.568C21.6345 13.6507 23.7785 13.192 26.1679 13.192C29.9865 13.192 32.7599 14.1413 34.4879 16.04C36.2159 17.9387 37.0799 20.392 37.0799 23.4C37.0799 25.64 36.6319 27.848 35.7359 30.024C34.8612 32.1787 33.6879 33.9387 32.2159 35.304C30.7439 36.648 29.1759 37.32 27.5119 37.32C26.2105 37.32 25.1652 36.9253 24.3759 36.136C23.6079 35.3467 23.1812 34.28 23.0959 32.936C22.1785 34.6427 21.0479 35.976 19.7039 36.936C18.3599 37.8747 16.8772 38.344 15.2559 38.344ZM43.0784 37C41.265 37 39.889 36.4133 38.9504 35.24C38.0117 34.0453 37.5424 32.552 37.5424 30.76C37.5424 29.224 37.8837 27.6987 38.5664 26.184C39.249 24.6693 40.2304 23.432 41.5104 22.472C42.7904 21.4907 44.2624 21 45.9264 21C47.3344 21 48.401 21.384 49.1264 22.152C49.8517 22.92 50.2144 23.88 50.2144 25.032C50.2144 25.8213 49.9904 26.6 49.5424 27.368C49.1157 28.136 48.5077 28.7653 47.7184 29.256C46.9504 29.7467 46.065 29.992 45.0624 29.992C43.9957 29.992 43.1637 29.8213 42.5664 29.48C42.481 29.4373 42.417 29.416 42.3744 29.416C42.2677 29.416 42.1824 29.4587 42.1184 29.544C42.0544 29.608 42.0224 29.7147 42.0224 29.864C42.0224 30.3973 42.3317 30.8133 42.9504 31.112C43.5904 31.4107 44.3904 31.56 45.3504 31.56C46.5024 31.56 47.6544 31.272 48.8064 30.696C49.9584 30.12 50.8757 29.2987 51.5584 28.232C51.6864 28.04 51.857 27.944 52.0704 27.944C52.369 27.944 52.625 28.072 52.8384 28.328C53.073 28.584 53.1264 28.8187 52.9984 29.032C51.5904 31.656 50.0437 33.64 48.3584 34.984C46.6944 36.328 44.9344 37 43.0784 37ZM44.2304 27.592C44.8064 27.592 45.2757 27.4107 45.6384 27.048C46.0224 26.664 46.2144 26.248 46.2144 25.8C46.2144 25.416 46.0864 25.1067 45.8304 24.872C45.5744 24.616 45.2117 24.488 44.7424 24.488C44.145 24.488 43.6544 24.6693 43.2704 25.032C42.9077 25.3947 42.7264 25.8107 42.7264 26.28C42.7264 26.664 42.8544 26.984 43.1104 27.24C43.3664 27.4747 43.7397 27.592 44.2304 27.592ZM69.4364 28.744C69.4364 28.8507 69.4684 28.8507 69.5324 28.744L69.3724 29.032C68.6684 30.248 67.9644 31.368 67.2604 32.392C66.5777 33.3947 65.671 34.4187 64.5404 35.464C63.4097 36.488 62.2684 37 61.1164 37C60.1777 37 59.495 36.616 59.0684 35.848C58.663 35.08 58.439 33.9813 58.3964 32.552C57.8844 33.8107 57.223 34.8667 56.4124 35.72C55.623 36.5733 54.695 37 53.6284 37C52.903 37 52.3484 36.776 51.9644 36.328C51.6017 35.8587 51.4204 35.2827 51.4204 34.6C51.4204 33.96 51.5697 33.3307 51.8684 32.712C52.167 32.072 52.583 31.5493 53.1164 31.144C53.671 30.7173 54.3004 30.504 55.0044 30.504C55.8577 30.504 56.487 30.1947 56.8924 29.576C57.319 28.936 57.5324 28.2107 57.5324 27.4C57.5324 26.8453 57.415 26.3973 57.1804 26.056C56.967 25.6933 56.6364 25.512 56.1884 25.512C55.5484 25.512 55.0044 25.8107 54.5564 26.408C54.1084 27.0053 53.5857 27.88 52.9884 29.032L51.5484 28.232C51.847 27.8053 52.135 27.2827 52.4124 26.664C52.6897 26.024 52.8604 25.64 52.9244 25.512C53.5644 24.04 54.1617 22.92 54.7164 22.152C55.2924 21.384 56.0177 21 56.8924 21C57.7457 21 58.4177 21.3947 58.9084 22.184C59.4204 22.952 59.6977 23.912 59.7404 25.064C60.1884 23.8907 60.8284 22.92 61.6604 22.152C62.4924 21.384 63.4204 21 64.4444 21C65.2124 21 65.7884 21.224 66.1724 21.672C66.5564 22.0987 66.7484 22.664 66.7484 23.368C66.7484 24.0933 66.5777 24.7973 66.2364 25.48C65.9164 26.1413 65.5324 26.472 65.0844 26.472C64.9777 26.472 64.8497 26.3867 64.7004 26.216C64.5724 26.024 64.423 25.8747 64.2524 25.768C64.103 25.64 63.8897 25.576 63.6124 25.576C63.0577 25.576 62.599 25.8213 62.2364 26.312C61.8737 26.8027 61.6924 27.368 61.6924 28.008C61.6924 28.776 61.9697 29.384 62.5244 29.832C63.079 30.28 63.7404 30.504 64.5084 30.504C65.2764 30.504 65.927 30.3013 66.4604 29.896C66.9937 29.4693 67.4844 28.9147 67.9324 28.232C68.0817 28.0187 68.1884 27.8907 68.2524 27.848C68.3377 27.784 68.4017 27.7627 68.4444 27.784C68.5084 27.784 68.5617 27.784 68.6044 27.784C68.8177 27.784 69.0097 27.9013 69.1804 28.136C69.351 28.3707 69.4364 28.5733 69.4364 28.744ZM80.3394 28.232C80.4674 28.04 80.638 27.944 80.8514 27.944C81.1287 27.944 81.374 28.072 81.5874 28.328C81.822 28.584 81.886 28.8187 81.7794 29.032C81.1607 30.3333 80.5207 31.5067 79.8594 32.552C79.198 33.576 78.2167 34.568 76.9154 35.528C75.6354 36.488 74.0994 36.968 72.3074 36.968C70.5154 36.968 69.1714 36.4773 68.2754 35.496C67.4007 34.4933 66.9634 33.256 66.9634 31.784C66.9634 30.504 67.2834 29.32 67.9234 28.232L68.0514 28.04C68.35 27.6347 68.8834 26.8453 69.6514 25.672C70.4407 24.4773 71.102 23.5173 71.6354 22.792C72.19 22.0667 72.7767 21.4587 73.3954 20.968C74.0354 20.456 74.686 20.2 75.3474 20.2C76.286 20.2 77.0114 20.424 77.5234 20.872C78.0354 21.32 78.2807 21.8213 78.2594 22.376C78.2594 22.5893 78.1634 22.7707 77.9714 22.92C77.8007 23.0693 77.5447 23.24 77.2034 23.432C76.798 23.6453 76.4887 23.848 76.2754 24.04C76.062 24.232 75.9554 24.4773 75.9554 24.776C75.9554 24.968 76.1794 25.512 76.6274 26.408C77.374 27.8373 77.854 29.0107 78.0674 29.928C78.5154 29.9067 78.91 29.7573 79.2514 29.48C79.614 29.1813 79.9767 28.7653 80.3394 28.232ZM71.1554 30.376C71.838 30.376 72.3714 30.1627 72.7554 29.736C73.1607 29.288 73.3634 28.7227 73.3634 28.04C73.3634 27.3147 73.1287 26.504 72.6594 25.608C72.574 25.3947 72.4567 25.288 72.3074 25.288C72.1794 25.288 72.0407 25.3947 71.8914 25.608C71.166 26.6747 70.3234 27.816 69.3634 29.032C69.3634 29.416 69.5234 29.736 69.8434 29.992C70.1847 30.248 70.622 30.376 71.1554 30.376ZM85.1944 37C83.381 37 82.005 36.4133 81.0664 35.24C80.1277 34.0453 79.6584 32.552 79.6584 30.76C79.6584 29.224 79.989 27.6987 80.6504 26.184C81.333 24.6693 82.293 23.432 83.5304 22.472C84.7677 21.4907 86.1864 21 87.7864 21C89.237 21 90.3357 21.3733 91.0824 22.12C91.829 22.8667 92.2024 23.8053 92.2024 24.936C92.2024 25.7893 92.0317 26.504 91.6904 27.08C91.3704 27.656 90.9544 28.0827 90.4424 28.36C89.9517 28.6373 89.4504 28.776 88.9384 28.776C88.4264 28.776 88.021 28.6907 87.7224 28.52C87.4237 28.328 87.2744 28.1147 87.2744 27.88C87.2744 27.7307 87.349 27.56 87.4984 27.368C87.6477 27.176 87.765 26.9947 87.8504 26.824C87.957 26.6533 88.0104 26.3973 88.0104 26.056C88.0104 25.736 87.9037 25.4693 87.6904 25.256C87.477 25.0427 87.1464 24.936 86.6984 24.936C86.0157 24.936 85.461 25.2453 85.0344 25.864C84.629 26.4613 84.4264 27.1867 84.4264 28.04C84.4264 29.1067 84.7677 29.928 85.4504 30.504C86.1544 31.08 87.0397 31.368 88.1064 31.368C89.109 31.368 90.1224 31.1013 91.1464 30.568C92.1704 30.0347 93.0344 29.256 93.7384 28.232C93.8664 28.04 94.037 27.944 94.2504 27.944C94.549 27.944 94.805 28.072 95.0184 28.328C95.253 28.584 95.3064 28.8187 95.1784 29.032C93.7704 31.6347 92.2237 33.6187 90.5384 34.984C88.853 36.328 87.0717 37 85.1944 37ZM106.376 28.232C106.504 28.04 106.675 27.944 106.888 27.944C107.187 27.944 107.443 28.072 107.656 28.328C107.891 28.584 107.944 28.8187 107.816 29.032L107.208 30.216C106.611 31.4533 106.024 32.5307 105.448 33.448C104.893 34.3653 104.168 35.1867 103.272 35.912C102.397 36.6373 101.405 37 100.296 37C99.0799 37 98.1839 36.68 97.6079 36.04C97.0532 35.3787 96.7759 34.5787 96.7759 33.64C96.7759 32.872 96.8932 32.1147 97.1279 31.368C97.3839 30.6 97.7359 29.7147 98.1839 28.712C98.4825 28.0293 98.6959 27.496 98.8239 27.112C98.9519 26.728 99.0159 26.3973 99.0159 26.12C99.0159 25.9067 98.8772 25.64 98.5999 25.32C98.3225 25 97.8959 24.7333 97.3199 24.52C96.9359 25.352 96.2212 26.856 95.1759 29.032C95.0905 29.2453 94.9199 29.352 94.6639 29.352C94.4292 29.352 94.1945 29.2667 93.9599 29.096C93.7465 28.904 93.6399 28.7013 93.6399 28.488C93.6399 28.3813 93.6719 28.296 93.7359 28.232C94.3119 27.4213 94.9625 26.024 95.6879 24.04C95.3465 23.912 95.0799 23.72 94.8879 23.464C94.7172 23.1867 94.6319 22.7813 94.6319 22.248C94.6319 21.544 94.8985 20.8933 95.4319 20.296C95.9865 19.6773 96.6692 19.368 97.4799 19.368C98.4399 19.368 99.3892 19.56 100.328 19.944C101.288 20.328 102.067 20.8187 102.664 21.416C103.261 21.992 103.56 22.568 103.56 23.144C103.56 23.5493 103.496 23.9333 103.368 24.296C103.261 24.6587 103.101 25.096 102.888 25.608C102.653 26.1627 102.472 26.6427 102.344 27.048C102.237 27.432 102.184 27.848 102.184 28.296C102.184 28.7653 102.344 29.1493 102.664 29.448C102.984 29.7253 103.485 29.864 104.168 29.864C104.616 29.864 105 29.736 105.32 29.48C105.661 29.2027 106.013 28.7867 106.376 28.232ZM111.641 37C109.828 37 108.452 36.4133 107.513 35.24C106.574 34.0453 106.105 32.552 106.105 30.76C106.105 29.224 106.446 27.6987 107.129 26.184C107.812 24.6693 108.793 23.432 110.073 22.472C111.353 21.4907 112.825 21 114.489 21C115.897 21 116.964 21.384 117.689 22.152C118.414 22.92 118.777 23.88 118.777 25.032C118.777 25.8213 118.553 26.6 118.105 27.368C117.678 28.136 117.07 28.7653 116.281 29.256C115.513 29.7467 114.628 29.992 113.625 29.992C112.558 29.992 111.726 29.8213 111.129 29.48C111.044 29.4373 110.98 29.416 110.937 29.416C110.83 29.416 110.745 29.4587 110.681 29.544C110.617 29.608 110.585 29.7147 110.585 29.864C110.585 30.3973 110.894 30.8133 111.513 31.112C112.153 31.4107 112.953 31.56 113.913 31.56C115.065 31.56 116.217 31.272 117.369 30.696C118.521 30.12 119.438 29.2987 120.121 28.232C120.249 28.04 120.42 27.944 120.633 27.944C120.932 27.944 121.188 28.072 121.401 28.328C121.636 28.584 121.689 28.8187 121.561 29.032C120.153 31.656 118.606 33.64 116.921 34.984C115.257 36.328 113.497 37 111.641 37ZM112.793 27.592C113.369 27.592 113.838 27.4107 114.201 27.048C114.585 26.664 114.777 26.248 114.777 25.8C114.777 25.416 114.649 25.1067 114.393 24.872C114.137 24.616 113.774 24.488 113.305 24.488C112.708 24.488 112.217 24.6693 111.833 25.032C111.47 25.3947 111.289 25.8107 111.289 26.28C111.289 26.664 111.417 26.984 111.673 27.24C111.929 27.4747 112.302 27.592 112.793 27.592ZM125.391 37C123.578 37 122.202 36.4133 121.263 35.24C120.324 34.0453 119.855 32.552 119.855 30.76C119.855 29.224 120.196 27.6987 120.879 26.184C121.562 24.6693 122.543 23.432 123.823 22.472C125.103 21.4907 126.575 21 128.239 21C129.647 21 130.714 21.384 131.439 22.152C132.164 22.92 132.527 23.88 132.527 25.032C132.527 25.8213 132.303 26.6 131.855 27.368C131.428 28.136 130.82 28.7653 130.031 29.256C129.263 29.7467 128.378 29.992 127.375 29.992C126.308 29.992 125.476 29.8213 124.879 29.48C124.794 29.4373 124.73 29.416 124.687 29.416C124.58 29.416 124.495 29.4587 124.431 29.544C124.367 29.608 124.335 29.7147 124.335 29.864C124.335 30.3973 124.644 30.8133 125.263 31.112C125.903 31.4107 126.703 31.56 127.663 31.56C128.815 31.56 129.967 31.272 131.119 30.696C132.271 30.12 133.188 29.2987 133.871 28.232C133.999 28.04 134.17 27.944 134.383 27.944C134.682 27.944 134.938 28.072 135.151 28.328C135.386 28.584 135.439 28.8187 135.311 29.032C133.903 31.656 132.356 33.64 130.671 34.984C129.007 36.328 127.247 37 125.391 37ZM126.543 27.592C127.119 27.592 127.588 27.4107 127.951 27.048C128.335 26.664 128.527 26.248 128.527 25.8C128.527 25.416 128.399 25.1067 128.143 24.872C127.887 24.616 127.524 24.488 127.055 24.488C126.458 24.488 125.967 24.6693 125.583 25.032C125.22 25.3947 125.039 25.8107 125.039 26.28C125.039 26.664 125.167 26.984 125.423 27.24C125.679 27.4747 126.052 27.592 126.543 27.592ZM135.141 37C134.416 37 133.84 36.7867 133.413 36.36C133.008 35.912 132.805 35.3467 132.805 34.664C132.805 32.8933 133.157 30.7493 133.861 28.232C134.416 26.2267 135.056 24.52 135.781 23.112C136.506 21.704 137.146 21 137.701 21C138.405 21 138.757 21.4053 138.757 22.216C138.757 23.0053 138.97 23.4 139.397 23.4C139.696 23.4 140.037 23.208 140.421 22.824C141.68 21.608 142.97 21 144.293 21C145.232 21 145.946 21.2773 146.437 21.832C146.928 22.3867 147.173 23.0907 147.173 23.944C147.173 24.328 147.13 24.68 147.045 25C146.96 25.2987 146.832 25.6933 146.661 26.184C146.49 26.6107 146.362 26.9733 146.277 27.272C146.192 27.5707 146.149 27.9013 146.149 28.264C146.149 28.8187 146.266 29.224 146.501 29.48C146.757 29.736 147.152 29.864 147.685 29.864C148.133 29.864 148.517 29.736 148.837 29.48C149.178 29.2027 149.53 28.7867 149.893 28.232C150.021 28.04 150.192 27.944 150.405 27.944C150.704 27.944 150.96 28.072 151.173 28.328C151.408 28.584 151.461 28.8187 151.333 29.032L150.725 30.216C150.128 31.4533 149.541 32.5307 148.965 33.448C148.41 34.3653 147.685 35.1867 146.789 35.912C145.914 36.6373 144.922 37 143.813 37C142.874 37 142.181 36.6907 141.733 36.072C141.306 35.4533 141.093 34.6533 141.093 33.672C141.093 33.0533 141.168 32.456 141.317 31.88C141.466 31.2827 141.669 30.6107 141.925 29.864C141.968 29.736 142.064 29.4373 142.213 28.968C142.362 28.4773 142.437 28.0827 142.437 27.784C142.437 27.4213 142.33 27.144 142.117 26.952C141.904 26.76 141.605 26.664 141.221 26.664C140.624 26.664 140.058 26.9307 139.525 27.464C138.992 27.976 138.565 28.6587 138.245 29.512C137.925 30.344 137.765 31.2293 137.765 32.168V33.608C137.765 35.8693 136.89 37 135.141 37ZM155.172 37C153.359 37 151.983 36.4133 151.044 35.24C150.105 34.0453 149.636 32.552 149.636 30.76C149.636 29.224 149.977 27.6987 150.66 26.184C151.343 24.6693 152.324 23.432 153.604 22.472C154.884 21.4907 156.356 21 158.02 21C159.428 21 160.495 21.384 161.22 22.152C161.945 22.92 162.308 23.88 162.308 25.032C162.308 25.8213 162.084 26.6 161.636 27.368C161.209 28.136 160.601 28.7653 159.812 29.256C159.044 29.7467 158.159 29.992 157.156 29.992C156.089 29.992 155.257 29.8213 154.66 29.48C154.575 29.4373 154.511 29.416 154.468 29.416C154.361 29.416 154.276 29.4587 154.212 29.544C154.148 29.608 154.116 29.7147 154.116 29.864C154.116 30.3973 154.425 30.8133 155.044 31.112C155.684 31.4107 156.484 31.56 157.444 31.56C158.596 31.56 159.748 31.272 160.9 30.696C162.052 30.12 162.969 29.2987 163.652 28.232C163.78 28.04 163.951 27.944 164.164 27.944C164.463 27.944 164.719 28.072 164.932 28.328C165.167 28.584 165.22 28.8187 165.092 29.032C163.684 31.656 162.137 33.64 160.452 34.984C158.788 36.328 157.028 37 155.172 37ZM156.324 27.592C156.9 27.592 157.369 27.4107 157.732 27.048C158.116 26.664 158.308 26.248 158.308 25.8C158.308 25.416 158.18 25.1067 157.924 24.872C157.668 24.616 157.305 24.488 156.836 24.488C156.239 24.488 155.748 24.6693 155.364 25.032C155.001 25.3947 154.82 25.8107 154.82 26.28C154.82 26.664 154.948 26.984 155.204 27.24C155.46 27.4747 155.833 27.592 156.324 27.592ZM176.282 28.232C176.41 28.04 176.581 27.944 176.794 27.944C177.093 27.944 177.349 28.072 177.562 28.328C177.797 28.584 177.85 28.8187 177.722 29.032L177.114 30.216C176.517 31.4533 175.93 32.5307 175.354 33.448C174.799 34.3653 174.074 35.1867 173.178 35.912C172.303 36.6373 171.311 37 170.202 37C168.986 37 168.09 36.68 167.514 36.04C166.959 35.3787 166.682 34.5787 166.682 33.64C166.682 32.872 166.799 32.1147 167.034 31.368C167.29 30.6 167.642 29.7147 168.09 28.712C168.389 28.0293 168.602 27.496 168.73 27.112C168.858 26.728 168.922 26.3973 168.922 26.12C168.922 25.9067 168.783 25.64 168.506 25.32C168.229 25 167.802 24.7333 167.226 24.52C166.842 25.352 166.127 26.856 165.082 29.032C164.997 29.2453 164.826 29.352 164.57 29.352C164.335 29.352 164.101 29.2667 163.866 29.096C163.653 28.904 163.546 28.7013 163.546 28.488C163.546 28.3813 163.578 28.296 163.642 28.232C164.218 27.4213 164.869 26.024 165.594 24.04C165.253 23.912 164.986 23.72 164.794 23.464C164.623 23.1867 164.538 22.7813 164.538 22.248C164.538 21.544 164.805 20.8933 165.338 20.296C165.893 19.6773 166.575 19.368 167.386 19.368C168.346 19.368 169.295 19.56 170.234 19.944C171.194 20.328 171.973 20.8187 172.57 21.416C173.167 21.992 173.466 22.568 173.466 23.144C173.466 23.5493 173.402 23.9333 173.274 24.296C173.167 24.6587 173.007 25.096 172.794 25.608C172.559 26.1627 172.378 26.6427 172.25 27.048C172.143 27.432 172.09 27.848 172.09 28.296C172.09 28.7653 172.25 29.1493 172.57 29.448C172.89 29.7253 173.391 29.864 174.074 29.864C174.522 29.864 174.906 29.736 175.226 29.48C175.567 29.2027 175.919 28.7867 176.282 28.232Z" fill="white"/>
</svg>
