<svg width="36" height="42" viewBox="0 0 36 42" fill="none" xmlns="http://www.w3.org/2000/svg">
<g clip-path="url(#clip0_71_15)">
<path fill-rule="evenodd" clip-rule="evenodd" d="M13.3737 2.39693C10.9103 3.69885 8.89484 4.80053 8.89527 4.84533C8.89637 4.96098 14.8076 7.99819 15.0174 7.99078C15.1129 7.98754 15.8052 7.6642 16.5559 7.27235L17.921 6.56001L19.4119 7.33748L20.9027 8.11509L23.3442 7.00209C27.023 5.32497 27.4051 5.14119 27.3452 5.07944C27.2657 4.99752 25.9462 4.27836 22.3663 2.36626C20.6361 1.44212 18.9569 0.536028 18.6345 0.352681C18.3122 0.169334 18.0045 0.021844 17.9507 0.024699C17.897 0.0275539 15.8372 1.09507 13.3737 2.39693ZM2.56905 8.07329L0.00462652 9.41715V15.3151C0.00462652 18.559 0.0383 21.2131 0.0796048 21.2131C0.120766 21.2131 1.38247 20.6582 2.88332 19.98L5.61216 18.7469V12.5301L6.94565 13.2671C7.97321 13.8346 9.0014 14.4009 10.0302 14.966L11.7812 15.9279L12.5604 15.5704C13.049 15.3459 13.5367 15.1192 14.0234 14.8903C14.3995 14.7126 15.3227 14.2907 16.0749 13.9526C16.8271 13.6144 17.5234 13.2743 17.6222 13.1967C17.7533 13.0938 16.154 12.1971 11.7067 9.88014C8.35435 8.13363 5.50399 6.71021 5.37253 6.71703C5.24108 6.72385 3.97952 7.33409 2.56905 8.07329ZM27.8073 8.45067C26.0608 9.2506 24.6306 9.93705 24.629 9.97619C24.6274 10.0153 25.5794 10.5895 26.7445 11.2521C27.9095 11.9148 28.8628 12.4924 28.8628 12.5359C28.8628 12.5793 27.8318 13.0861 26.5719 13.6623C25.3118 14.2384 22.1269 15.6976 19.4942 16.9051L10.6726 20.9505C8.45351 21.9682 6.45328 22.8855 6.22763 22.9892C1.69507 25.0709 0.449249 25.6485 0.278164 25.7477C0.106124 25.8475 0.0671561 26.4274 0.0365352 29.3382L0 32.8098L2.29323 33.9953L4.58641 35.1807L7.76626 33.7247C9.51523 32.924 10.9461 32.2269 10.9461 32.1756C10.9461 32.1244 10.6229 31.9108 10.2281 31.7006C9.83307 31.4905 9.01766 31.0254 8.41588 30.6669C7.81415 30.3082 7.21413 29.9792 7.08239 29.9356C6.9507 29.8921 6.84487 29.816 6.84701 29.7663C6.84921 29.7168 8.24947 29.042 9.95851 28.2667C13.278 26.761 15.8184 25.6005 21.2721 23.0983C23.7109 21.9797 26.1499 20.8617 28.5892 19.7444C30.7331 18.7627 33.2257 17.6161 34.1284 17.1965L35.7696 16.4335L35.8061 12.9224L35.8428 9.41135L33.5169 8.20016C32.2375 7.53408 31.1441 6.99072 31.0867 6.9927C31.0295 6.99454 29.5537 7.65056 27.8073 8.45067ZM35.1464 21.1176C34.8037 21.2875 34.1267 21.6055 33.642 21.8243C33.1573 22.043 32.2375 22.4641 31.5981 22.7601L30.4356 23.298L30.4091 26.3805C30.3944 28.0758 30.3329 29.4554 30.2723 29.4464C30.1347 29.4257 27.9559 28.292 25.7657 27.1013C24.1849 26.2421 24.0856 26.2079 23.7141 26.3946C23.4994 26.5025 22.2158 27.0865 20.8618 27.6926C19.5078 28.2986 18.3558 28.834 18.3017 28.8825C18.2476 28.9308 20.9727 30.4293 24.3576 32.2126L30.5118 35.4548L33.1408 34.0751C34.5865 33.3163 35.8159 32.6242 35.8726 32.5372C36 32.3414 35.9891 20.782 35.8615 20.7976C35.811 20.8037 35.4892 20.9478 35.1464 21.1176ZM20.5883 34.6855C20.1323 34.8844 19.6764 35.0836 19.2206 35.2831C17.8443 35.8872 18.114 35.9072 16.4766 35.0803C15.386 34.5295 14.9159 34.3595 14.7119 34.442C14.5588 34.5039 13.2416 35.1051 11.7845 35.7781C10.3275 36.451 9.08482 37.0016 9.023 37.0016C8.41168 37.0016 9.42799 37.6176 13.3497 39.6246L17.9489 41.9781L19.8841 41.0089C20.9484 40.4758 23.0951 39.4083 24.6547 38.6367C26.2141 37.8649 27.4708 37.2134 27.4472 37.1888C27.4235 37.1643 26.1169 36.4836 24.5434 35.6761L21.6825 34.208L20.5883 34.6855Z" fill="black"/>
</g>
<defs>
<clipPath id="clip0_71_15">
<rect width="36" height="42" fill="white"/>
</clipPath>
</defs>
</svg>
