<svg width="190" height="59" viewBox="0 0 190 59" fill="none" xmlns="http://www.w3.org/2000/svg">
<rect x="0.534668" y="0.56543" width="189" height="58" rx="20" fill="#0068B6"/>
<path d="M15.3146 40.6824C14.0773 40.6824 13.0426 40.4264 12.2106 39.9144C11.3786 39.4024 10.7706 38.741 10.3866 37.9304C9.98126 37.1197 9.77859 36.245 9.77859 35.3064C9.77859 34.4317 9.95993 33.589 10.3226 32.7784C10.6853 31.9677 11.1866 31.317 11.8266 30.8264C12.4666 30.3357 13.2026 30.0904 14.0346 30.0904C14.1626 30.0904 14.2693 30.133 14.3546 30.2184C14.4613 30.2824 14.5146 30.3677 14.5146 30.4744C14.5146 31.1784 14.8133 31.7544 15.4106 32.2024C16.0079 32.629 16.7546 32.8424 17.6506 32.8424C18.7386 32.8424 19.8373 32.3837 20.9466 31.4664C22.0559 30.549 22.9626 29.1837 23.6666 27.3704L24.0186 26.4744C24.1679 26.069 24.3813 25.5037 24.6586 24.7784C24.9359 24.0317 25.1706 23.413 25.3626 22.9224C25.7466 21.8984 26.4399 21.3864 27.4426 21.3864C28.4239 21.3864 28.9146 21.7704 28.9146 22.5384C28.9146 22.8797 28.7973 23.3704 28.5626 24.0104C28.3493 24.629 28.0293 25.4824 27.6026 26.5704C27.0906 27.829 26.6959 28.853 26.4186 29.6424C26.1626 30.4317 26.0346 31.0717 26.0346 31.5624C26.0346 32.0104 26.1626 32.373 26.4186 32.6504C26.6746 32.9064 27.0586 33.0344 27.5706 33.0344C28.4666 33.0344 29.2773 32.629 30.0026 31.8184C30.7493 31.0077 31.3253 29.9837 31.7306 28.7464C32.1573 27.4877 32.3706 26.2184 32.3706 24.9384C32.3706 23.4024 31.9333 22.165 31.0586 21.2264C30.2053 20.2877 28.7546 19.8184 26.7066 19.8184C25.0426 19.8184 23.6239 20.2237 22.4506 21.0344C21.2986 21.8237 20.7226 22.9864 20.7226 24.5224C20.7226 24.9917 20.8399 25.3864 21.0746 25.7064C21.3093 26.005 21.5973 26.1544 21.9386 26.1544C22.0879 26.1757 22.1626 26.293 22.1626 26.5064C22.1626 26.869 21.9599 27.3597 21.5546 27.9784C21.1493 28.597 20.6053 29.141 19.9226 29.6104C19.2613 30.0797 18.5359 30.3144 17.7466 30.3144C16.4879 30.3144 15.5066 29.8664 14.8026 28.9704C14.0986 28.053 13.7466 26.9437 13.7466 25.6424C13.7466 23.829 14.2799 22.1544 15.3466 20.6184C16.4133 19.061 17.8959 17.8237 19.7946 16.9064C21.6933 15.989 23.8373 15.5304 26.2266 15.5304C30.0453 15.5304 32.8186 16.4797 34.5466 18.3784C36.2746 20.277 37.1386 22.7304 37.1386 25.7384C37.1386 27.9784 36.6906 30.1864 35.7946 32.3624C34.9199 34.517 33.7466 36.277 32.2746 37.6424C30.8026 38.9864 29.2346 39.6584 27.5706 39.6584C26.2693 39.6584 25.2239 39.2637 24.4346 38.4744C23.6666 37.685 23.2399 36.6184 23.1546 35.2744C22.2373 36.981 21.1066 38.3144 19.7626 39.2744C18.4186 40.213 16.9359 40.6824 15.3146 40.6824ZM43.1371 39.3384C41.3238 39.3384 39.9478 38.7517 39.0091 37.5784C38.0704 36.3837 37.6011 34.8904 37.6011 33.0984C37.6011 31.5624 37.9424 30.037 38.6251 28.5224C39.3078 27.0077 40.2891 25.7704 41.5691 24.8104C42.8491 23.829 44.3211 23.3384 45.9851 23.3384C47.3931 23.3384 48.4598 23.7224 49.1851 24.4904C49.9104 25.2584 50.2731 26.2184 50.2731 27.3704C50.2731 28.1597 50.0491 28.9384 49.6011 29.7064C49.1744 30.4744 48.5664 31.1037 47.7771 31.5944C47.0091 32.085 46.1238 32.3304 45.1211 32.3304C44.0544 32.3304 43.2224 32.1597 42.6251 31.8184C42.5398 31.7757 42.4758 31.7544 42.4331 31.7544C42.3264 31.7544 42.2411 31.797 42.1771 31.8824C42.1131 31.9464 42.0811 32.053 42.0811 32.2024C42.0811 32.7357 42.3904 33.1517 43.0091 33.4504C43.6491 33.749 44.4491 33.8984 45.4091 33.8984C46.5611 33.8984 47.7131 33.6104 48.8651 33.0344C50.0171 32.4584 50.9344 31.637 51.6171 30.5704C51.7451 30.3784 51.9158 30.2824 52.1291 30.2824C52.4278 30.2824 52.6838 30.4104 52.8971 30.6664C53.1318 30.9224 53.1851 31.157 53.0571 31.3704C51.6491 33.9944 50.1024 35.9784 48.4171 37.3224C46.7531 38.6664 44.9931 39.3384 43.1371 39.3384ZM44.2891 29.9304C44.8651 29.9304 45.3344 29.749 45.6971 29.3864C46.0811 29.0024 46.2731 28.5864 46.2731 28.1384C46.2731 27.7544 46.1451 27.445 45.8891 27.2104C45.6331 26.9544 45.2704 26.8264 44.8011 26.8264C44.2038 26.8264 43.7131 27.0077 43.3291 27.3704C42.9664 27.733 42.7851 28.149 42.7851 28.6184C42.7851 29.0024 42.9131 29.3224 43.1691 29.5784C43.4251 29.813 43.7984 29.9304 44.2891 29.9304ZM69.4951 31.0824C69.4951 31.189 69.5271 31.189 69.5911 31.0824L69.4311 31.3704C68.7271 32.5864 68.0231 33.7064 67.3191 34.7304C66.6364 35.733 65.7298 36.757 64.5991 37.8024C63.4684 38.8264 62.3271 39.3384 61.1751 39.3384C60.2364 39.3384 59.5538 38.9544 59.1271 38.1864C58.7218 37.4184 58.4978 36.3197 58.4551 34.8904C57.9431 36.149 57.2818 37.205 56.4711 38.0584C55.6818 38.9117 54.7538 39.3384 53.6871 39.3384C52.9618 39.3384 52.4071 39.1144 52.0231 38.6664C51.6604 38.197 51.4791 37.621 51.4791 36.9384C51.4791 36.2984 51.6284 35.669 51.9271 35.0504C52.2258 34.4104 52.6418 33.8877 53.1751 33.4824C53.7298 33.0557 54.3591 32.8424 55.0631 32.8424C55.9164 32.8424 56.5458 32.533 56.9511 31.9144C57.3778 31.2744 57.5911 30.549 57.5911 29.7384C57.5911 29.1837 57.4738 28.7357 57.2391 28.3944C57.0258 28.0317 56.6951 27.8504 56.2471 27.8504C55.6071 27.8504 55.0631 28.149 54.6151 28.7464C54.1671 29.3437 53.6444 30.2184 53.0471 31.3704L51.6071 30.5704C51.9058 30.1437 52.1938 29.621 52.4711 29.0024C52.7484 28.3624 52.9191 27.9784 52.9831 27.8504C53.6231 26.3784 54.2204 25.2584 54.7751 24.4904C55.3511 23.7224 56.0764 23.3384 56.9511 23.3384C57.8044 23.3384 58.4764 23.733 58.9671 24.5224C59.4791 25.2904 59.7564 26.2504 59.7991 27.4024C60.2471 26.229 60.8871 25.2584 61.7191 24.4904C62.5511 23.7224 63.4791 23.3384 64.5031 23.3384C65.2711 23.3384 65.8471 23.5624 66.2311 24.0104C66.6151 24.437 66.8071 25.0024 66.8071 25.7064C66.8071 26.4317 66.6364 27.1357 66.2951 27.8184C65.9751 28.4797 65.5911 28.8104 65.1431 28.8104C65.0364 28.8104 64.9084 28.725 64.7591 28.5544C64.6311 28.3624 64.4818 28.213 64.3111 28.1064C64.1618 27.9784 63.9484 27.9144 63.6711 27.9144C63.1164 27.9144 62.6578 28.1597 62.2951 28.6504C61.9324 29.141 61.7511 29.7064 61.7511 30.3464C61.7511 31.1144 62.0284 31.7224 62.5831 32.1704C63.1378 32.6184 63.7991 32.8424 64.5671 32.8424C65.3351 32.8424 65.9858 32.6397 66.5191 32.2344C67.0524 31.8077 67.5431 31.253 67.9911 30.5704C68.1404 30.357 68.2471 30.229 68.3111 30.1864C68.3964 30.1224 68.4604 30.101 68.5031 30.1224C68.5671 30.1224 68.6204 30.1224 68.6631 30.1224C68.8764 30.1224 69.0684 30.2397 69.2391 30.4744C69.4098 30.709 69.4951 30.9117 69.4951 31.0824ZM80.3981 30.5704C80.5261 30.3784 80.6968 30.2824 80.9101 30.2824C81.1874 30.2824 81.4328 30.4104 81.6461 30.6664C81.8808 30.9224 81.9448 31.157 81.8381 31.3704C81.2194 32.6717 80.5794 33.845 79.9181 34.8904C79.2568 35.9144 78.2754 36.9064 76.9741 37.8664C75.6941 38.8264 74.1581 39.3064 72.3661 39.3064C70.5741 39.3064 69.2301 38.8157 68.3341 37.8344C67.4594 36.8317 67.0221 35.5944 67.0221 34.1224C67.0221 32.8424 67.3421 31.6584 67.9821 30.5704L68.1101 30.3784C68.4088 29.973 68.9421 29.1837 69.7101 28.0104C70.4994 26.8157 71.1608 25.8557 71.6941 25.1304C72.2488 24.405 72.8354 23.797 73.4541 23.3064C74.0941 22.7944 74.7448 22.5384 75.4061 22.5384C76.3448 22.5384 77.0701 22.7624 77.5821 23.2104C78.0941 23.6584 78.3394 24.1597 78.3181 24.7144C78.3181 24.9277 78.2221 25.109 78.0301 25.2584C77.8594 25.4077 77.6034 25.5784 77.2621 25.7704C76.8568 25.9837 76.5474 26.1864 76.3341 26.3784C76.1208 26.5704 76.0141 26.8157 76.0141 27.1144C76.0141 27.3064 76.2381 27.8504 76.6861 28.7464C77.4328 30.1757 77.9128 31.349 78.1261 32.2664C78.5741 32.245 78.9688 32.0957 79.3101 31.8184C79.6728 31.5197 80.0354 31.1037 80.3981 30.5704ZM71.2141 32.7144C71.8968 32.7144 72.4301 32.501 72.8141 32.0744C73.2194 31.6264 73.4221 31.061 73.4221 30.3784C73.4221 29.653 73.1874 28.8424 72.7181 27.9464C72.6328 27.733 72.5154 27.6264 72.3661 27.6264C72.2381 27.6264 72.0994 27.733 71.9501 27.9464C71.2248 29.013 70.3821 30.1544 69.4221 31.3704C69.4221 31.7544 69.5821 32.0744 69.9021 32.3304C70.2434 32.5864 70.6808 32.7144 71.2141 32.7144ZM85.2531 39.3384C83.4398 39.3384 82.0638 38.7517 81.1251 37.5784C80.1864 36.3837 79.7171 34.8904 79.7171 33.0984C79.7171 31.5624 80.0478 30.037 80.7091 28.5224C81.3918 27.0077 82.3518 25.7704 83.5891 24.8104C84.8264 23.829 86.2451 23.3384 87.8451 23.3384C89.2958 23.3384 90.3944 23.7117 91.1411 24.4584C91.8878 25.205 92.2611 26.1437 92.2611 27.2744C92.2611 28.1277 92.0904 28.8424 91.7491 29.4184C91.4291 29.9944 91.0131 30.421 90.5011 30.6984C90.0104 30.9757 89.5091 31.1144 88.9971 31.1144C88.4851 31.1144 88.0798 31.029 87.7811 30.8584C87.4824 30.6664 87.3331 30.453 87.3331 30.2184C87.3331 30.069 87.4078 29.8984 87.5571 29.7064C87.7064 29.5144 87.8238 29.333 87.9091 29.1624C88.0158 28.9917 88.0691 28.7357 88.0691 28.3944C88.0691 28.0744 87.9624 27.8077 87.7491 27.5944C87.5358 27.381 87.2051 27.2744 86.7571 27.2744C86.0744 27.2744 85.5198 27.5837 85.0931 28.2024C84.6878 28.7997 84.4851 29.525 84.4851 30.3784C84.4851 31.445 84.8264 32.2664 85.5091 32.8424C86.2131 33.4184 87.0984 33.7064 88.1651 33.7064C89.1678 33.7064 90.1811 33.4397 91.2051 32.9064C92.2291 32.373 93.0931 31.5944 93.7971 30.5704C93.9251 30.3784 94.0958 30.2824 94.3091 30.2824C94.6078 30.2824 94.8638 30.4104 95.0771 30.6664C95.3118 30.9224 95.3651 31.157 95.2371 31.3704C93.8291 33.973 92.2824 35.957 90.5971 37.3224C88.9118 38.6664 87.1304 39.3384 85.2531 39.3384ZM106.435 30.5704C106.563 30.3784 106.733 30.2824 106.947 30.2824C107.245 30.2824 107.501 30.4104 107.715 30.6664C107.949 30.9224 108.003 31.157 107.875 31.3704L107.267 32.5544C106.669 33.7917 106.083 34.869 105.507 35.7864C104.952 36.7037 104.227 37.525 103.331 38.2504C102.456 38.9757 101.464 39.3384 100.355 39.3384C99.1386 39.3384 98.2426 39.0184 97.6666 38.3784C97.1119 37.717 96.8346 36.917 96.8346 35.9784C96.8346 35.2104 96.9519 34.453 97.1866 33.7064C97.4426 32.9384 97.7946 32.053 98.2426 31.0504C98.5413 30.3677 98.7546 29.8344 98.8826 29.4504C99.0106 29.0664 99.0746 28.7357 99.0746 28.4584C99.0746 28.245 98.9359 27.9784 98.6586 27.6584C98.3813 27.3384 97.9546 27.0717 97.3786 26.8584C96.9946 27.6904 96.2799 29.1944 95.2346 31.3704C95.1493 31.5837 94.9786 31.6904 94.7226 31.6904C94.4879 31.6904 94.2533 31.605 94.0186 31.4344C93.8053 31.2424 93.6986 31.0397 93.6986 30.8264C93.6986 30.7197 93.7306 30.6344 93.7946 30.5704C94.3706 29.7597 95.0213 28.3624 95.7466 26.3784C95.4053 26.2504 95.1386 26.0584 94.9466 25.8024C94.7759 25.525 94.6906 25.1197 94.6906 24.5864C94.6906 23.8824 94.9573 23.2317 95.4906 22.6344C96.0453 22.0157 96.7279 21.7064 97.5386 21.7064C98.4986 21.7064 99.4479 21.8984 100.387 22.2824C101.347 22.6664 102.125 23.157 102.723 23.7544C103.32 24.3304 103.619 24.9064 103.619 25.4824C103.619 25.8877 103.555 26.2717 103.427 26.6344C103.32 26.997 103.16 27.4344 102.947 27.9464C102.712 28.501 102.531 28.981 102.403 29.3864C102.296 29.7704 102.243 30.1864 102.243 30.6344C102.243 31.1037 102.403 31.4877 102.723 31.7864C103.043 32.0637 103.544 32.2024 104.227 32.2024C104.675 32.2024 105.059 32.0744 105.379 31.8184C105.72 31.541 106.072 31.125 106.435 30.5704ZM111.7 39.3384C109.886 39.3384 108.51 38.7517 107.572 37.5784C106.633 36.3837 106.164 34.8904 106.164 33.0984C106.164 31.5624 106.505 30.037 107.188 28.5224C107.87 27.0077 108.852 25.7704 110.132 24.8104C111.412 23.829 112.884 23.3384 114.548 23.3384C115.956 23.3384 117.022 23.7224 117.748 24.4904C118.473 25.2584 118.836 26.2184 118.836 27.3704C118.836 28.1597 118.612 28.9384 118.164 29.7064C117.737 30.4744 117.129 31.1037 116.34 31.5944C115.572 32.085 114.686 32.3304 113.684 32.3304C112.617 32.3304 111.785 32.1597 111.188 31.8184C111.102 31.7757 111.038 31.7544 110.996 31.7544C110.889 31.7544 110.804 31.797 110.74 31.8824C110.676 31.9464 110.644 32.053 110.644 32.2024C110.644 32.7357 110.953 33.1517 111.572 33.4504C112.212 33.749 113.012 33.8984 113.972 33.8984C115.124 33.8984 116.276 33.6104 117.428 33.0344C118.58 32.4584 119.497 31.637 120.18 30.5704C120.308 30.3784 120.478 30.2824 120.692 30.2824C120.99 30.2824 121.246 30.4104 121.46 30.6664C121.694 30.9224 121.748 31.157 121.62 31.3704C120.212 33.9944 118.665 35.9784 116.98 37.3224C115.316 38.6664 113.556 39.3384 111.7 39.3384ZM112.852 29.9304C113.428 29.9304 113.897 29.749 114.26 29.3864C114.644 29.0024 114.836 28.5864 114.836 28.1384C114.836 27.7544 114.708 27.445 114.452 27.2104C114.196 26.9544 113.833 26.8264 113.364 26.8264C112.766 26.8264 112.276 27.0077 111.892 27.3704C111.529 27.733 111.348 28.149 111.348 28.6184C111.348 29.0024 111.476 29.3224 111.732 29.5784C111.988 29.813 112.361 29.9304 112.852 29.9304ZM125.45 39.3384C123.636 39.3384 122.26 38.7517 121.322 37.5784C120.383 36.3837 119.914 34.8904 119.914 33.0984C119.914 31.5624 120.255 30.037 120.938 28.5224C121.62 27.0077 122.602 25.7704 123.882 24.8104C125.162 23.829 126.634 23.3384 128.298 23.3384C129.706 23.3384 130.772 23.7224 131.498 24.4904C132.223 25.2584 132.586 26.2184 132.586 27.3704C132.586 28.1597 132.362 28.9384 131.914 29.7064C131.487 30.4744 130.879 31.1037 130.09 31.5944C129.322 32.085 128.436 32.3304 127.434 32.3304C126.367 32.3304 125.535 32.1597 124.938 31.8184C124.852 31.7757 124.788 31.7544 124.746 31.7544C124.639 31.7544 124.554 31.797 124.49 31.8824C124.426 31.9464 124.394 32.053 124.394 32.2024C124.394 32.7357 124.703 33.1517 125.322 33.4504C125.962 33.749 126.762 33.8984 127.722 33.8984C128.874 33.8984 130.026 33.6104 131.178 33.0344C132.33 32.4584 133.247 31.637 133.93 30.5704C134.058 30.3784 134.228 30.2824 134.442 30.2824C134.74 30.2824 134.996 30.4104 135.21 30.6664C135.444 30.9224 135.498 31.157 135.37 31.3704C133.962 33.9944 132.415 35.9784 130.73 37.3224C129.066 38.6664 127.306 39.3384 125.45 39.3384ZM126.602 29.9304C127.178 29.9304 127.647 29.749 128.01 29.3864C128.394 29.0024 128.586 28.5864 128.586 28.1384C128.586 27.7544 128.458 27.445 128.202 27.2104C127.946 26.9544 127.583 26.8264 127.114 26.8264C126.516 26.8264 126.026 27.0077 125.642 27.3704C125.279 27.733 125.098 28.149 125.098 28.6184C125.098 29.0024 125.226 29.3224 125.482 29.5784C125.738 29.813 126.111 29.9304 126.602 29.9304ZM135.2 39.3384C134.474 39.3384 133.898 39.125 133.472 38.6984C133.066 38.2504 132.864 37.685 132.864 37.0024C132.864 35.2317 133.216 33.0877 133.92 30.5704C134.474 28.565 135.114 26.8584 135.84 25.4504C136.565 24.0424 137.205 23.3384 137.76 23.3384C138.464 23.3384 138.816 23.7437 138.816 24.5544C138.816 25.3437 139.029 25.7384 139.456 25.7384C139.754 25.7384 140.096 25.5464 140.48 25.1624C141.738 23.9464 143.029 23.3384 144.352 23.3384C145.29 23.3384 146.005 23.6157 146.496 24.1704C146.986 24.725 147.232 25.429 147.232 26.2824C147.232 26.6664 147.189 27.0184 147.104 27.3384C147.018 27.637 146.89 28.0317 146.72 28.5224C146.549 28.949 146.421 29.3117 146.336 29.6104C146.25 29.909 146.208 30.2397 146.208 30.6024C146.208 31.157 146.325 31.5624 146.56 31.8184C146.816 32.0744 147.21 32.2024 147.744 32.2024C148.192 32.2024 148.576 32.0744 148.896 31.8184C149.237 31.541 149.589 31.125 149.952 30.5704C150.08 30.3784 150.25 30.2824 150.464 30.2824C150.762 30.2824 151.018 30.4104 151.232 30.6664C151.466 30.9224 151.52 31.157 151.392 31.3704L150.784 32.5544C150.186 33.7917 149.6 34.869 149.024 35.7864C148.469 36.7037 147.744 37.525 146.848 38.2504C145.973 38.9757 144.981 39.3384 143.872 39.3384C142.933 39.3384 142.24 39.029 141.792 38.4104C141.365 37.7917 141.152 36.9917 141.152 36.0104C141.152 35.3917 141.226 34.7944 141.376 34.2184C141.525 33.621 141.728 32.949 141.984 32.2024C142.026 32.0744 142.122 31.7757 142.272 31.3064C142.421 30.8157 142.496 30.421 142.496 30.1224C142.496 29.7597 142.389 29.4824 142.176 29.2904C141.962 29.0984 141.664 29.0024 141.28 29.0024C140.682 29.0024 140.117 29.269 139.584 29.8024C139.05 30.3144 138.624 30.997 138.304 31.8504C137.984 32.6824 137.824 33.5677 137.824 34.5064V35.9464C137.824 38.2077 136.949 39.3384 135.2 39.3384ZM155.231 39.3384C153.418 39.3384 152.042 38.7517 151.103 37.5784C150.164 36.3837 149.695 34.8904 149.695 33.0984C149.695 31.5624 150.036 30.037 150.719 28.5224C151.402 27.0077 152.383 25.7704 153.663 24.8104C154.943 23.829 156.415 23.3384 158.079 23.3384C159.487 23.3384 160.554 23.7224 161.279 24.4904C162.004 25.2584 162.367 26.2184 162.367 27.3704C162.367 28.1597 162.143 28.9384 161.695 29.7064C161.268 30.4744 160.66 31.1037 159.871 31.5944C159.103 32.085 158.218 32.3304 157.215 32.3304C156.148 32.3304 155.316 32.1597 154.719 31.8184C154.634 31.7757 154.57 31.7544 154.527 31.7544C154.42 31.7544 154.335 31.797 154.271 31.8824C154.207 31.9464 154.175 32.053 154.175 32.2024C154.175 32.7357 154.484 33.1517 155.103 33.4504C155.743 33.749 156.543 33.8984 157.503 33.8984C158.655 33.8984 159.807 33.6104 160.959 33.0344C162.111 32.4584 163.028 31.637 163.711 30.5704C163.839 30.3784 164.01 30.2824 164.223 30.2824C164.522 30.2824 164.778 30.4104 164.991 30.6664C165.226 30.9224 165.279 31.157 165.151 31.3704C163.743 33.9944 162.196 35.9784 160.511 37.3224C158.847 38.6664 157.087 39.3384 155.231 39.3384ZM156.383 29.9304C156.959 29.9304 157.428 29.749 157.791 29.3864C158.175 29.0024 158.367 28.5864 158.367 28.1384C158.367 27.7544 158.239 27.445 157.983 27.2104C157.727 26.9544 157.364 26.8264 156.895 26.8264C156.298 26.8264 155.807 27.0077 155.423 27.3704C155.06 27.733 154.879 28.149 154.879 28.6184C154.879 29.0024 155.007 29.3224 155.263 29.5784C155.519 29.813 155.892 29.9304 156.383 29.9304ZM176.341 30.5704C176.469 30.3784 176.64 30.2824 176.853 30.2824C177.152 30.2824 177.408 30.4104 177.621 30.6664C177.856 30.9224 177.909 31.157 177.781 31.3704L177.173 32.5544C176.576 33.7917 175.989 34.869 175.413 35.7864C174.858 36.7037 174.133 37.525 173.237 38.2504C172.362 38.9757 171.37 39.3384 170.261 39.3384C169.045 39.3384 168.149 39.0184 167.573 38.3784C167.018 37.717 166.741 36.917 166.741 35.9784C166.741 35.2104 166.858 34.453 167.093 33.7064C167.349 32.9384 167.701 32.053 168.149 31.0504C168.448 30.3677 168.661 29.8344 168.789 29.4504C168.917 29.0664 168.981 28.7357 168.981 28.4584C168.981 28.245 168.842 27.9784 168.565 27.6584C168.288 27.3384 167.861 27.0717 167.285 26.8584C166.901 27.6904 166.186 29.1944 165.141 31.3704C165.056 31.5837 164.885 31.6904 164.629 31.6904C164.394 31.6904 164.16 31.605 163.925 31.4344C163.712 31.2424 163.605 31.0397 163.605 30.8264C163.605 30.7197 163.637 30.6344 163.701 30.5704C164.277 29.7597 164.928 28.3624 165.653 26.3784C165.312 26.2504 165.045 26.0584 164.853 25.8024C164.682 25.525 164.597 25.1197 164.597 24.5864C164.597 23.8824 164.864 23.2317 165.397 22.6344C165.952 22.0157 166.634 21.7064 167.445 21.7064C168.405 21.7064 169.354 21.8984 170.293 22.2824C171.253 22.6664 172.032 23.157 172.629 23.7544C173.226 24.3304 173.525 24.9064 173.525 25.4824C173.525 25.8877 173.461 26.2717 173.333 26.6344C173.226 26.997 173.066 27.4344 172.853 27.9464C172.618 28.501 172.437 28.981 172.309 29.3864C172.202 29.7704 172.149 30.1864 172.149 30.6344C172.149 31.1037 172.309 31.4877 172.629 31.7864C172.949 32.0637 173.45 32.2024 174.133 32.2024C174.581 32.2024 174.965 32.0744 175.285 31.8184C175.626 31.541 175.978 31.125 176.341 30.5704Z" fill="white"/>
</svg>
