<svg width="190" height="59" viewBox="0 0 190 59" fill="none" xmlns="http://www.w3.org/2000/svg">
<rect x="0.0380859" y="0.625488" width="189" height="58" rx="20" fill="#0068B6"/>
<path d="M42.6188 28.1092C41.3601 28.1092 40.3788 27.6826 39.6748 26.8292C38.9708 25.9546 38.6188 24.8986 38.6188 23.6612C38.6188 22.0826 39.1201 20.5786 40.1228 19.1492C41.1254 17.6986 42.6294 16.5252 44.6348 15.6292C46.6614 14.7332 49.1254 14.2852 52.0268 14.2852C53.6694 14.2852 55.1841 14.3386 56.5708 14.4452C56.9121 14.4666 57.3174 14.4879 57.7868 14.5092C58.2561 14.5306 58.8108 14.5412 59.4508 14.5412C60.5814 14.5412 61.6374 14.4559 62.6188 14.2852C62.7894 14.2639 62.9601 14.2426 63.1308 14.2212C63.3228 14.1999 63.5041 14.1892 63.6748 14.1892C64.1441 14.1892 64.4641 14.2959 64.6348 14.5092C64.8268 14.7226 64.9228 15.0532 64.9228 15.5012C64.9228 16.3546 64.7201 17.1439 64.3148 17.8692C63.9094 18.5732 63.3121 19.1492 62.5228 19.5972C61.7334 20.0239 60.7841 20.2372 59.6748 20.2372C59.0348 20.2372 58.4694 20.1839 57.9788 20.0772C57.4881 19.9492 56.9014 19.7572 56.2188 19.5012C55.4081 19.2026 54.6721 18.9786 54.0108 18.8292C53.3708 18.6586 52.5814 18.5732 51.6428 18.5732C50.4268 18.5732 49.3601 18.7546 48.4428 19.1172C47.5254 19.4586 46.8214 19.9279 46.3308 20.5252C45.8401 21.1226 45.5948 21.7626 45.5948 22.4452C45.5948 22.8719 45.7121 23.2346 45.9468 23.5332C46.1814 23.8106 46.4694 23.9492 46.8108 23.9492C46.8961 24.2052 46.9388 24.4079 46.9388 24.5572C46.9388 25.0692 46.7574 25.6026 46.3948 26.1572C46.0321 26.7119 45.5201 27.1812 44.8588 27.5652C44.2188 27.9279 43.4721 28.1092 42.6188 28.1092ZM41.6588 40.3972C40.2508 40.3972 39.0774 40.1412 38.1388 39.6292C37.2214 39.1172 36.5494 38.4559 36.1228 37.6452C35.6748 36.8346 35.4508 35.9599 35.4508 35.0212C35.4508 34.1466 35.6321 33.3039 35.9948 32.4932C36.3574 31.6826 36.8588 31.0319 37.4988 30.5412C38.1388 30.0506 38.8748 29.8052 39.7068 29.8052C39.8348 29.8052 39.9414 29.8479 40.0268 29.9332C40.1334 29.9972 40.1868 30.0826 40.1868 30.1892C40.1868 30.8932 40.4641 31.4692 41.0188 31.9172C41.5734 32.3439 42.3094 32.5572 43.2268 32.5572C44.3361 32.5572 45.4774 32.0986 46.6508 31.1812C47.8454 30.2639 48.7948 28.8986 49.4988 27.0852L49.8508 26.1892C50.0001 25.7839 50.2134 25.2186 50.4908 24.4932C50.7681 23.7466 51.0028 23.1279 51.1948 22.6372C51.5788 21.6132 52.2721 21.1012 53.2748 21.1012C54.3414 21.1012 54.8748 21.4639 54.8748 22.1892C54.8748 22.3172 54.8321 22.5306 54.7468 22.8292C53.4881 26.7759 52.4108 29.8052 51.5148 31.9172C50.3201 34.7759 48.8908 36.9092 47.2268 38.3172C45.5628 39.7039 43.7068 40.3972 41.6588 40.3972ZM59.848 39.0532C58.0347 39.0532 56.6587 38.4666 55.72 37.2932C54.7814 36.0986 54.312 34.6052 54.312 32.8132C54.312 31.2772 54.6534 29.7519 55.336 28.2372C56.0187 26.7226 57 25.4852 58.28 24.5252C59.56 23.5439 61.032 23.0532 62.696 23.0532C64.104 23.0532 65.1707 23.4372 65.896 24.2052C66.6214 24.9732 66.984 25.9332 66.984 27.0852C66.984 27.8746 66.76 28.6532 66.312 29.4212C65.8854 30.1892 65.2774 30.8186 64.488 31.3092C63.72 31.7999 62.8347 32.0452 61.832 32.0452C60.7654 32.0452 59.9334 31.8746 59.336 31.5332C59.2507 31.4906 59.1867 31.4692 59.144 31.4692C59.0374 31.4692 58.952 31.5119 58.888 31.5972C58.824 31.6612 58.792 31.7679 58.792 31.9172C58.792 32.4506 59.1014 32.8666 59.72 33.1652C60.36 33.4639 61.16 33.6132 62.12 33.6132C63.272 33.6132 64.424 33.3252 65.576 32.7492C66.728 32.1732 67.6454 31.3519 68.328 30.2852C68.456 30.0932 68.6267 29.9972 68.84 29.9972C69.1387 29.9972 69.3947 30.1252 69.608 30.3812C69.8427 30.6372 69.896 30.8719 69.768 31.0852C68.36 33.7092 66.8134 35.6932 65.128 37.0372C63.464 38.3812 61.704 39.0532 59.848 39.0532ZM61 29.6452C61.576 29.6452 62.0454 29.4639 62.408 29.1012C62.792 28.7172 62.984 28.3012 62.984 27.8532C62.984 27.4692 62.856 27.1599 62.6 26.9252C62.344 26.6692 61.9814 26.5412 61.512 26.5412C60.9147 26.5412 60.424 26.7226 60.04 27.0852C59.6774 27.4479 59.496 27.8639 59.496 28.3332C59.496 28.7172 59.624 29.0372 59.88 29.2932C60.136 29.5279 60.5094 29.6452 61 29.6452ZM70.302 39.0532C68.2754 39.0532 67.262 37.9546 67.262 35.7572C67.262 34.1786 67.6247 32.3546 68.35 30.2852L69.054 28.2372C70.1847 24.9519 71.0487 22.5412 71.646 21.0052C72.2647 19.4479 72.894 18.2319 73.534 17.3572C74.174 16.4826 74.878 16.0452 75.646 16.0452C76.5207 16.0452 76.958 16.4399 76.958 17.2292C76.958 17.7412 76.7767 18.3492 76.414 19.0532C74.5794 22.7439 73.3314 25.8052 72.67 28.2372C72.414 29.1119 72.286 29.8159 72.286 30.3492C72.286 30.8399 72.3927 31.2239 72.606 31.5012C72.8407 31.7786 73.2354 31.9172 73.79 31.9172C74.814 31.9172 75.678 31.3732 76.382 30.2852C76.51 30.0932 76.6807 29.9972 76.894 29.9972C77.1927 29.9972 77.4487 30.1252 77.662 30.3812C77.8967 30.6372 77.95 30.8719 77.822 31.0852L77.214 32.2692C76.6167 33.5066 76.03 34.5839 75.454 35.5012C74.8994 36.4186 74.174 37.2399 73.278 37.9652C72.4034 38.6906 71.4114 39.0532 70.302 39.0532ZM81.6605 39.0532C79.8472 39.0532 78.4712 38.4666 77.5325 37.2932C76.5939 36.0986 76.1245 34.6052 76.1245 32.8132C76.1245 31.2772 76.4659 29.7519 77.1485 28.2372C77.8312 26.7226 78.8125 25.4852 80.0925 24.5252C81.3725 23.5439 82.8445 23.0532 84.5085 23.0532C85.9165 23.0532 86.9832 23.4372 87.7085 24.2052C88.4339 24.9732 88.7965 25.9332 88.7965 27.0852C88.7965 27.8746 88.5725 28.6532 88.1245 29.4212C87.6979 30.1892 87.0899 30.8186 86.3005 31.3092C85.5325 31.7999 84.6472 32.0452 83.6445 32.0452C82.5779 32.0452 81.7459 31.8746 81.1485 31.5332C81.0632 31.4906 80.9992 31.4692 80.9565 31.4692C80.8499 31.4692 80.7645 31.5119 80.7005 31.5972C80.6365 31.6612 80.6045 31.7679 80.6045 31.9172C80.6045 32.4506 80.9139 32.8666 81.5325 33.1652C82.1725 33.4639 82.9725 33.6132 83.9325 33.6132C85.0845 33.6132 86.2365 33.3252 87.3885 32.7492C88.5405 32.1732 89.4579 31.3519 90.1405 30.2852C90.2685 30.0932 90.4392 29.9972 90.6525 29.9972C90.9512 29.9972 91.2072 30.1252 91.4205 30.3812C91.6552 30.6372 91.7085 30.8719 91.5805 31.0852C90.1725 33.7092 88.6259 35.6932 86.9405 37.0372C85.2765 38.3812 83.5165 39.0532 81.6605 39.0532ZM82.8125 29.6452C83.3885 29.6452 83.8579 29.4639 84.2205 29.1012C84.6045 28.7172 84.7965 28.3012 84.7965 27.8532C84.7965 27.4692 84.6685 27.1599 84.4125 26.9252C84.1565 26.6692 83.7939 26.5412 83.3245 26.5412C82.7272 26.5412 82.2365 26.7226 81.8525 27.0852C81.4899 27.4479 81.3085 27.8639 81.3085 28.3332C81.3085 28.7172 81.4365 29.0372 81.6925 29.2932C81.9485 29.5279 82.3219 29.6452 82.8125 29.6452ZM106.291 30.2852C106.376 30.1359 106.536 30.0612 106.771 30.0612C107.069 30.0612 107.336 30.1679 107.571 30.3812C107.805 30.5946 107.859 30.8292 107.731 31.0852L107.091 32.4292C106.408 33.9226 105.821 35.1066 105.331 35.9812C104.84 36.8559 104.253 37.5919 103.571 38.1892C102.909 38.7652 102.152 39.0532 101.299 39.0532C100.829 39.0532 100.456 38.8186 100.179 38.3492C99.1545 41.5919 98.0132 43.9066 96.7545 45.2932C95.4959 46.7012 93.9492 47.4052 92.1145 47.4052C90.4292 47.4052 89.1279 46.9679 88.2105 46.0932C87.2719 45.2186 86.8025 44.0026 86.8025 42.4452C86.8025 41.4639 86.9839 40.6212 87.3465 39.9172C87.6879 39.2346 88.0719 38.7546 88.4985 38.4772C88.9039 38.1786 89.1172 38.1572 89.1385 38.4132C89.2239 39.2239 89.5759 39.8639 90.1945 40.3332C90.8345 40.8239 91.6879 41.0799 92.7545 41.1012C93.6932 41.1012 94.5892 40.7919 95.4425 40.1732C96.3172 39.5759 97.0105 38.8186 97.5225 37.9012C98.0559 36.9626 98.3225 36.0239 98.3225 35.0852C98.3225 34.8292 98.2265 34.7012 98.0345 34.7012C97.8212 34.7012 97.6292 34.8612 97.4585 35.1812C97.0319 36.2692 96.4132 37.1439 95.6025 37.8052C94.7919 38.4452 93.9705 38.7652 93.1385 38.7652C92.0505 38.7652 91.1652 38.3599 90.4825 37.5492C89.8212 36.7386 89.4905 35.7252 89.4905 34.5092C89.4905 32.8239 89.8105 31.0959 90.4505 29.3252C91.0905 27.5332 92.0292 26.0399 93.2665 24.8452C94.5252 23.6506 96.0185 23.0532 97.7465 23.0532C98.4719 23.0532 99.0159 23.1386 99.3785 23.3092C99.7412 23.4586 100.051 23.6612 100.307 23.9172C100.584 24.1519 100.819 24.2692 101.011 24.2692C101.224 24.2692 101.405 24.2266 101.555 24.1412C101.725 24.0559 101.917 23.9279 102.131 23.7572C102.408 23.5226 102.664 23.3519 102.899 23.2452C103.133 23.1172 103.432 23.0532 103.795 23.0532C104.541 23.0532 104.915 23.4479 104.915 24.2372C104.915 24.5146 104.851 24.8239 104.723 25.1652C104.595 25.4852 104.381 25.9439 104.083 26.5412C103.357 28.0559 102.771 29.4746 102.323 30.7972C102.216 31.2666 102.163 31.6186 102.163 31.8532C102.163 32.2799 102.259 32.5892 102.451 32.7812C102.643 32.9732 102.888 33.0692 103.187 33.0692C103.976 33.0692 105.011 32.1412 106.291 30.2852ZM96.0505 32.4292C96.5625 32.4292 97.0212 32.2799 97.4265 31.9812C97.8532 31.6612 98.1839 31.2666 98.4185 30.7972C98.6532 30.3279 98.7705 29.8692 98.7705 29.4212C98.7705 28.9306 98.6212 28.5252 98.3225 28.2052C98.0452 27.8852 97.6079 27.7252 97.0105 27.7252C96.2639 27.7252 95.6345 28.0346 95.1225 28.6532C94.6319 29.2719 94.3865 29.9546 94.3865 30.7012C94.3865 31.2132 94.5145 31.6292 94.7705 31.9492C95.0479 32.2692 95.4745 32.4292 96.0505 32.4292ZM118.927 30.2852C119.055 30.0932 119.225 29.9972 119.439 29.9972C119.737 29.9972 119.993 30.1252 120.207 30.3812C120.441 30.6372 120.495 30.8719 120.367 31.0852L119.759 32.2692C119.161 33.5066 118.575 34.5839 117.999 35.5012C117.444 36.4186 116.719 37.2399 115.823 37.9652C114.948 38.6906 113.956 39.0532 112.847 39.0532C111.631 39.0532 110.735 38.7332 110.159 38.0932C109.604 37.4319 109.327 36.6319 109.327 35.6932C109.327 34.9252 109.444 34.1679 109.679 33.4212C109.935 32.6532 110.287 31.7679 110.735 30.7652C111.033 30.0826 111.247 29.5492 111.375 29.1652C111.503 28.7812 111.567 28.4506 111.567 28.1732C111.567 27.9599 111.428 27.6932 111.151 27.3732C110.873 27.0532 110.447 26.7866 109.871 26.5732C109.487 27.4052 108.772 28.9092 107.727 31.0852C107.641 31.2986 107.471 31.4052 107.215 31.4052C106.98 31.4052 106.745 31.3199 106.511 31.1492C106.297 30.9572 106.191 30.7546 106.191 30.5412C106.191 30.4346 106.223 30.3492 106.287 30.2852C106.863 29.4746 107.513 28.0772 108.239 26.0932C107.897 25.9652 107.631 25.7732 107.439 25.5172C107.268 25.2399 107.183 24.8346 107.183 24.3012C107.183 23.5972 107.449 22.9466 107.983 22.3492C108.537 21.7306 109.22 21.4212 110.031 21.4212C110.991 21.4212 111.94 21.6132 112.879 21.9972C113.839 22.3812 114.617 22.8719 115.215 23.4692C115.812 24.0452 116.111 24.6212 116.111 25.1972C116.111 25.6026 116.047 25.9866 115.919 26.3492C115.812 26.7119 115.652 27.1492 115.439 27.6612C115.204 28.2159 115.023 28.6959 114.895 29.1012C114.788 29.4852 114.735 29.9012 114.735 30.3492C114.735 30.8186 114.895 31.2026 115.215 31.5012C115.535 31.7786 116.036 31.9172 116.719 31.9172C117.167 31.9172 117.551 31.7892 117.871 31.5332C118.212 31.2559 118.564 30.8399 118.927 30.2852ZM121.568 39.0532C120.501 39.0532 119.68 38.6159 119.104 37.7412C118.549 36.8666 118.272 35.6932 118.272 34.2212C118.272 32.6212 118.592 30.9572 119.232 29.2292C119.872 27.4799 120.81 26.0186 122.048 24.8452C123.306 23.6506 124.8 23.0532 126.528 23.0532C127.253 23.0532 127.797 23.1386 128.16 23.3092C128.522 23.4586 128.832 23.6612 129.088 23.9172C129.365 24.1519 129.6 24.2692 129.792 24.2692C130.005 24.2692 130.186 24.2266 130.336 24.1412C130.506 24.0559 130.698 23.9279 130.912 23.7572C131.189 23.5226 131.445 23.3519 131.68 23.2452C131.914 23.1172 132.213 23.0532 132.576 23.0532C133.322 23.0532 133.696 23.4479 133.696 24.2372C133.696 24.5786 133.632 24.9199 133.504 25.2612C133.376 25.6026 133.184 26.0292 132.928 26.5412C132.864 26.7119 132.746 26.9786 132.576 27.3412C132.405 27.6826 132.266 28.0026 132.16 28.3012C131.733 29.1759 131.52 29.9332 131.52 30.5732C131.52 31.4692 131.957 31.9172 132.832 31.9172C133.834 31.9172 134.677 31.3732 135.36 30.2852C135.488 30.0932 135.658 29.9972 135.872 29.9972C136.149 29.9972 136.394 30.1252 136.608 30.3812C136.842 30.6372 136.906 30.8719 136.8 31.0852L136.032 32.6212C135.37 33.9866 134.784 35.0959 134.272 35.9492C133.76 36.7812 133.141 37.5066 132.416 38.1252C131.69 38.7439 130.858 39.0532 129.92 39.0532C129.002 39.0532 128.298 38.7332 127.808 38.0932C127.317 37.4319 127.072 36.5679 127.072 35.5012C127.072 35.1386 127.104 34.7652 127.168 34.3812H127.04C126.357 35.7679 125.536 36.8986 124.576 37.7732C123.637 38.6266 122.634 39.0532 121.568 39.0532ZM124.768 32.4292C125.301 32.4292 125.781 32.2799 126.208 31.9812C126.634 31.6612 126.965 31.2666 127.2 30.7972C127.434 30.3279 127.552 29.8692 127.552 29.4212C127.552 28.8879 127.402 28.4719 127.104 28.1732C126.805 27.8746 126.4 27.7252 125.888 27.7252C125.098 27.7252 124.448 28.0346 123.936 28.6532C123.424 29.2719 123.168 29.9546 123.168 30.7012C123.168 31.2346 123.306 31.6612 123.584 31.9812C123.882 32.2799 124.277 32.4292 124.768 32.4292ZM136.629 39.0532C135.904 39.0532 135.328 38.8399 134.901 38.4132C134.496 37.9652 134.293 37.3999 134.293 36.7172C134.293 34.4986 134.645 32.3546 135.349 30.2852C136.117 27.9812 136.811 26.1999 137.429 24.9412C138.069 23.6826 138.677 23.0532 139.253 23.0532C139.595 23.0532 139.84 23.1706 139.989 23.4052C140.16 23.6186 140.245 23.9066 140.245 24.2692C140.245 24.6106 140.309 24.8879 140.437 25.1012C140.587 25.3146 140.768 25.4212 140.981 25.4212C141.28 25.4212 141.611 25.2399 141.973 24.8772C143.232 23.6612 144.523 23.0532 145.845 23.0532C146.592 23.0532 147.2 23.2346 147.669 23.5972C148.139 23.9599 148.459 24.4506 148.629 25.0692C148.693 25.3039 148.789 25.4212 148.917 25.4212C149.045 25.4212 149.216 25.3039 149.429 25.0692C150.688 23.6826 152.064 22.9892 153.557 22.9892C154.731 22.9892 155.595 23.2666 156.149 23.8212C156.704 24.3546 156.981 25.0586 156.981 25.9332C156.981 26.3172 156.939 26.6692 156.853 26.9892C156.768 27.2879 156.64 27.6826 156.469 28.1732C156.299 28.5999 156.171 28.9626 156.085 29.2612C156 29.5599 155.957 29.8906 155.957 30.2532C155.957 30.8079 156.085 31.2239 156.341 31.5012C156.597 31.7786 156.992 31.9172 157.525 31.9172C157.973 31.9172 158.357 31.7786 158.677 31.5012C159.019 31.2239 159.371 30.8186 159.733 30.2852C159.861 30.0932 160.032 29.9972 160.245 29.9972C160.544 29.9972 160.8 30.1252 161.013 30.3812C161.248 30.6372 161.301 30.8719 161.173 31.0852L160.565 32.2692C159.968 33.5066 159.381 34.5839 158.805 35.5012C158.251 36.4186 157.525 37.2399 156.629 37.9652C155.755 38.6906 154.763 39.0532 153.653 39.0532C152.693 39.0532 151.989 38.7439 151.541 38.1252C151.115 37.4852 150.901 36.6639 150.901 35.6612C150.901 35.0426 150.976 34.4452 151.125 33.8692C151.275 33.2719 151.477 32.5999 151.733 31.8532C151.776 31.7252 151.872 31.4266 152.021 30.9572C152.171 30.4666 152.245 30.0719 152.245 29.7732C152.245 29.4106 152.139 29.1332 151.925 28.9412C151.712 28.7492 151.413 28.6532 151.029 28.6532C150.432 28.6532 149.867 28.9092 149.333 29.4212C148.8 29.9119 148.373 30.5519 148.053 31.3412C147.733 32.1306 147.573 32.9199 147.573 33.7092C147.573 34.0079 147.616 34.3706 147.701 34.7972C147.701 34.8826 147.712 35.0319 147.733 35.2452C147.776 35.4372 147.797 35.6506 147.797 35.8852C147.797 36.7386 147.584 37.4746 147.157 38.0932C146.752 38.6906 146.016 38.9892 144.949 38.9892C143.243 38.9892 142.389 38.0612 142.389 36.2052C142.389 35.6079 142.464 35.0319 142.613 34.4772C142.784 33.9012 143.019 33.2292 143.317 32.4612C143.552 31.8426 143.723 31.3519 143.829 30.9892C143.936 30.6266 143.989 30.2852 143.989 29.9652C143.989 29.1332 143.584 28.7172 142.773 28.7172C142.176 28.7172 141.611 28.9839 141.077 29.5172C140.544 30.0292 140.117 30.7119 139.797 31.5652C139.477 32.3972 139.317 33.2826 139.317 34.2212V35.6612C139.317 36.6639 139.125 37.4852 138.741 38.1252C138.357 38.7439 137.653 39.0532 136.629 39.0532Z" fill="white"/>
</svg>
