<svg width="999" height="394" viewBox="0 0 999 394" fill="none" xmlns="http://www.w3.org/2000/svg">
<path d="M68.8835 199.289C53.3518 197.775 41.351 191.635 32.8811 180.869C24.4247 169.965 21.1701 154.529 23.1172 134.559C24.7263 118.057 29.9918 102.821 38.9135 88.8516C47.974 74.8956 59.1706 64.1579 72.5032 56.6383C85.9881 48.9935 99.7337 45.8539 113.74 47.2196C126.637 48.4772 136.15 52.1346 142.279 58.192C148.56 64.1242 151.255 71.6667 150.362 80.8193C149.618 88.4464 146.918 95.3228 142.261 101.448C137.742 107.588 132.388 112.245 126.199 115.422C120.01 118.598 114.28 119.929 109.01 119.415C106.792 119.199 104.973 118.462 103.556 117.204C102.278 115.959 101.713 114.574 101.861 113.049C101.916 112.494 102.288 111.55 102.977 110.218C107.743 102.983 110.362 96.9382 110.835 92.0845C111.173 88.6176 110.314 85.944 108.258 84.0635C106.353 82.0579 103.598 80.8793 99.9926 80.5277C93.8909 79.9328 88.0852 81.3266 82.5756 84.7092C77.0795 87.9532 72.5644 92.6227 69.0302 98.7178C65.5096 104.674 63.4179 111.05 62.7554 117.845C61.7953 127.691 64.4644 136.211 70.7627 143.405C77.2132 150.474 87.0255 154.65 100.2 155.935C107.549 156.651 114.515 156.281 121.097 154.823C127.818 153.378 133.01 150.384 136.672 145.842C137.626 144.675 138.796 144.159 140.183 144.294C141.986 144.47 143.5 145.457 144.724 147.257C146.087 149.07 146.354 150.636 145.526 151.955C134.741 169.242 123.153 181.832 110.764 189.724C98.5142 197.629 84.5538 200.817 68.8835 199.289ZM150.787 213.575C139.554 212.48 131.426 208.257 126.403 200.908C121.518 193.572 119.549 185.05 120.496 175.343C121.05 169.657 122.763 164.295 125.634 159.255C128.506 154.215 132.177 150.303 136.648 147.519C141.119 144.735 146.059 143.607 151.468 144.134C152.3 144.216 152.966 144.56 153.467 145.169C154.119 145.653 154.412 146.241 154.344 146.935C153.898 151.511 155.197 155.418 158.242 158.654C161.299 161.752 165.324 163.545 170.317 164.032C184.046 165.37 197.474 154.71 210.603 132.051L213.459 126.45C214.687 123.91 216.432 120.37 218.695 115.831C220.971 111.153 222.888 107.28 224.447 104.212C227.593 97.7993 232.424 94.9105 238.942 95.546C245.46 96.1816 248.489 98.8568 248.029 103.572C247.907 104.82 247.564 106.186 246.999 107.671C242.379 117.72 239.583 124.867 238.609 129.112C238.24 131.456 238.646 133.036 239.827 133.851C241.007 134.666 243.053 135.215 245.966 135.499C250.265 135.918 254.394 135.201 258.355 133.347C262.329 131.355 265.615 128.526 268.212 124.859C270.962 121.067 272.573 116.745 273.047 111.891C273.831 103.848 271.071 97.6988 264.766 93.4442C258.613 89.0645 249.851 86.3202 238.48 85.2114C229.743 84.3595 222.057 84.94 215.421 86.9529C208.785 88.9657 203.6 91.89 199.866 95.7257C196.132 99.5615 194.042 103.768 193.596 108.344C193.325 111.117 193.858 113.549 195.194 115.639C196.544 117.591 198.328 118.675 200.547 118.891C200.939 120.609 201.088 121.954 200.994 122.925C200.669 126.253 199.152 129.605 196.443 132.98C193.734 136.356 190.109 139.082 185.566 141.159C181.176 143.111 176.208 143.817 170.661 143.276C162.479 142.478 156.37 139.083 152.335 133.089C148.313 126.957 146.694 119.87 147.478 111.827C148.465 101.703 153.176 92.1532 161.611 83.1761C170.185 74.2125 181.71 67.2865 196.186 62.3983C210.801 57.5236 227.052 55.9584 244.942 57.7027C267.268 59.8797 283.6 65.392 293.937 74.2395C304.413 83.1006 308.947 94.7423 307.541 109.165C306.405 120.813 302.464 130.369 295.716 137.83C289.121 145.167 280.611 149.167 270.187 149.831C267.373 149.976 265.384 150.272 264.221 150.719C263.21 151.04 262.663 151.617 262.582 152.449C262.501 153.281 262.912 154.091 263.815 154.879C264.718 155.667 265.671 156.67 266.672 157.887C267.825 158.98 268.918 160.696 269.949 163.037C271.441 166.402 273.146 169.018 275.064 170.885C277.121 172.766 280.021 173.888 283.765 174.253C288.064 174.673 291.778 173.915 294.906 171.98C298.187 169.92 301.652 166.688 305.301 162.284C306.255 161.117 307.425 160.601 308.812 160.736C310.615 160.912 312.129 161.9 313.353 163.699C314.591 165.36 314.858 166.926 314.155 168.397C306.826 181.822 297.877 193.199 287.308 202.528C276.739 211.857 266.392 216.028 256.269 215.041C250.029 214.432 245.107 211.782 241.505 207.091C238.055 202.275 236.422 195.326 236.608 186.245L236.8 179.964C237.169 171.88 236.945 165.558 236.13 160.999C235.314 156.44 233.034 153.978 229.29 153.612C227.765 153.464 226.545 153.765 225.632 154.516C224.871 155.142 224.132 156.259 223.415 157.869C214.67 175.776 203.911 189.916 191.14 200.291C178.521 210.54 165.07 214.968 150.787 213.575ZM482.851 179.596C483.804 178.429 484.975 177.913 486.361 178.048C488.303 178.238 489.886 179.232 491.11 181.031C492.474 182.844 492.671 184.403 491.704 185.709L487.002 193.02C482.334 200.685 477.838 207.316 473.512 212.914C469.325 218.526 464.09 223.405 457.806 227.552C451.66 231.712 444.982 233.441 437.771 232.738C430.837 232.062 425.983 228.719 423.209 222.709C420.574 216.712 419.71 209.068 420.615 199.777C421.075 195.062 422.198 189.291 423.983 182.466C415.426 181.211 407.082 179.208 398.95 176.455L390.144 189.246C380.9 202.204 370.785 212.627 359.796 220.515C348.946 228.417 338.251 231.854 327.712 230.826C318.698 229.947 311.372 227.553 305.733 223.643C300.095 219.734 296.145 215.009 293.886 209.469C291.487 203.915 290.586 198.088 291.181 191.986C291.735 186.3 293.448 180.937 296.319 175.898C299.19 170.858 302.862 166.946 307.333 164.162C311.804 161.378 316.744 160.25 322.152 160.777C322.985 160.858 323.651 161.203 324.151 161.812C324.804 162.296 325.097 162.884 325.029 163.578C324.583 168.154 326.159 172.087 329.758 175.378C333.371 178.53 338.089 180.39 343.914 180.958C355.84 182.121 367.509 177.309 378.92 166.522C368.644 159.921 360.805 152.017 355.403 142.81C350.14 133.617 348.008 123.89 349.009 113.628C349.698 106.555 351.819 100.602 355.37 95.769C358.921 90.9354 363.391 87.4514 368.779 85.3169C374.167 83.1823 379.842 82.4058 385.805 82.9872C393.294 83.7174 398.783 86.2826 402.274 90.6828C405.778 94.9443 407.267 99.7792 406.739 105.188C406.591 106.713 406.06 107.851 405.147 108.602C404.233 109.353 403.09 109.592 401.717 109.318C397.056 108.303 392.85 109.083 389.099 111.657C385.348 114.231 383.135 118.985 382.459 125.919C381.418 136.597 384.462 145.574 391.593 152.849L398.142 143.828C415.424 118.774 431.319 101.494 445.825 91.9894C460.47 82.4978 474.171 78.374 486.929 79.618C493.863 80.2941 498.944 82.7494 502.17 86.9838C505.55 91.0932 506.949 96.1294 506.367 102.092C505.579 108.735 503.423 114.335 499.899 118.891C496.389 123.309 492.484 125.308 488.185 124.889C487.353 124.807 486.139 124.339 484.542 123.483C482.959 122.489 481.676 122.014 480.691 122.058C478.473 121.842 475.926 123.553 473.051 127.193C470.176 130.832 467.099 136.552 463.818 144.352C461.573 150.152 459.755 155.155 458.365 159.359C456.975 163.564 456.111 167.399 455.773 170.866C454.827 180.573 457.89 185.772 464.962 186.461C468.29 186.786 471.547 186.404 474.733 185.314C478.058 184.239 480.764 182.332 482.851 179.596ZM428.483 168.625C432.368 158.924 437.21 148.757 443.006 138.123C445.215 134.138 446.691 131.202 447.435 129.315C448.318 127.441 448.847 125.603 449.023 123.8C449.212 121.858 448.475 120.807 446.811 120.644C445.424 120.509 443.838 120.984 442.052 122.07C440.418 123.031 437.983 125.033 434.746 128.078C427.874 135.387 418.891 147.111 407.798 163.248C413.308 165.606 420.203 167.398 428.483 168.625ZM497.142 247.347C489.515 246.603 483.09 244.297 477.867 240.428C472.784 236.572 469.181 231.881 467.06 226.354C464.814 220.676 463.982 214.855 464.563 208.892C465.118 203.206 466.83 197.843 469.702 192.803C472.573 187.764 476.244 183.852 480.716 181.068C485.187 178.284 490.127 177.156 495.535 177.683C496.367 177.764 497.033 178.109 497.534 178.718C498.187 179.202 498.479 179.79 498.412 180.483C497.979 184.921 499.701 188.799 503.577 192.117C507.454 195.434 512.165 197.364 517.712 197.905C525.339 198.648 533.188 196.404 541.258 191.171C549.328 185.938 556.226 177.651 561.951 166.31L564.807 160.708C566.035 158.168 567.78 154.629 570.042 150.089C572.319 145.412 574.236 141.539 575.795 138.471C578.94 132.058 583.772 129.169 590.29 129.805C596.807 130.44 599.836 133.115 599.377 137.83C599.255 139.078 598.912 140.445 598.347 141.93C596.568 145.816 595.55 149.077 595.293 151.712C594.861 156.149 596.724 158.571 600.885 158.976C605.6 159.436 609.936 158.039 613.893 154.785C617.989 151.545 620.334 146.873 620.929 140.772C621.524 134.67 619.12 129.886 613.719 126.419C608.469 122.828 601.407 120.599 592.532 119.734C579.496 118.463 568.512 119.841 559.58 123.87C550.661 127.76 545.741 134.42 544.822 143.85C544.524 146.901 545.037 149.541 546.36 151.77C547.696 153.86 549.473 155.013 551.692 155.23C552.084 156.948 552.233 158.292 552.139 159.263C551.814 162.591 550.297 165.943 547.588 169.319C544.879 172.695 541.254 175.421 536.711 177.498C532.321 179.45 527.353 180.155 521.806 179.615C513.624 178.817 507.501 175.56 503.439 169.844C499.377 164.128 497.71 157.526 498.441 150.037C499.63 137.834 504.463 127.036 512.939 117.643C521.428 108.111 532.828 101.033 547.138 96.4082C561.6 91.6587 577.984 90.1763 596.289 91.9612C610.85 93.381 622.878 96.3736 632.373 100.939C642.006 105.518 648.945 111.165 653.19 117.878C657.587 124.467 659.414 131.575 658.67 139.202C657.873 147.384 654.59 154.483 648.824 160.501C643.196 166.532 636.432 169.862 628.531 170.492C626.687 170.732 625.698 171.545 625.563 172.932C625.495 173.626 625.712 174.277 626.212 174.885C632.22 182.191 634.703 191.183 633.662 201.861C632.675 211.984 629.577 220.782 624.368 228.253C619.174 235.587 612.761 241.051 605.131 244.647C597.5 248.243 589.594 249.642 581.412 248.844C572.399 247.965 565.438 244.696 560.53 239.038C555.621 233.38 553.316 226.155 553.613 217.365C544.864 228.131 535.691 236.056 526.096 241.14C516.639 246.238 506.988 248.307 497.142 247.347ZM587.686 203.888C592.401 204.347 596.404 202.778 599.695 199.179C602.999 195.441 604.908 190.937 605.422 185.668C605.719 182.617 604.86 179.943 602.844 177.647C600.842 175.212 597.691 173.784 593.392 173.365C588.954 172.933 585.263 174.182 582.317 177.115C579.371 180.048 577.682 183.733 577.249 188.17C576.843 192.331 577.476 195.892 579.147 198.855C580.957 201.831 583.803 203.509 587.686 203.888ZM662.496 263.47C654.869 262.726 648.444 260.42 643.222 256.551C638.138 252.695 634.536 248.004 632.415 242.477C630.169 236.799 629.336 230.978 629.918 225.015C630.472 219.329 632.185 213.966 635.056 208.926C637.927 203.887 641.599 199.975 646.07 197.191C650.541 194.407 655.481 193.279 660.889 193.806C661.721 193.887 662.388 194.232 662.888 194.841C663.541 195.325 663.834 195.913 663.766 196.606C663.334 201.044 665.055 204.922 668.932 208.24C672.808 211.557 677.52 213.487 683.067 214.028C690.694 214.771 698.542 212.527 706.612 207.294C714.682 202.061 721.58 193.774 727.306 182.433L730.162 176.831C731.389 174.291 733.134 170.752 735.397 166.212C737.673 161.535 739.591 157.662 741.15 154.594C744.295 148.181 749.126 145.292 755.644 145.928C762.162 146.563 765.191 149.238 764.731 153.953C764.609 155.201 764.266 156.568 763.701 158.053C761.923 161.939 760.905 165.2 760.648 167.835C760.215 172.272 762.079 174.694 766.239 175.099C770.954 175.559 775.29 174.162 779.247 170.908C783.343 167.668 785.688 162.996 786.283 156.895C786.878 150.793 784.475 146.009 779.073 142.542C773.824 138.951 766.761 136.722 757.886 135.857C744.851 134.586 733.867 135.964 724.934 139.993C716.015 143.883 711.096 150.543 710.176 159.973C709.879 163.024 710.391 165.664 711.714 167.893C713.05 169.983 714.828 171.137 717.046 171.353C717.439 173.071 717.588 174.416 717.493 175.386C717.169 178.714 715.652 182.066 712.943 185.442C710.234 188.818 706.608 191.544 702.066 193.621C697.676 195.573 692.707 196.278 687.16 195.738C678.978 194.94 672.856 191.683 668.793 185.967C664.731 180.251 663.065 173.649 663.795 166.161C664.985 153.957 669.818 143.159 678.293 133.766C686.782 124.234 698.182 117.156 712.492 112.531C726.955 107.782 743.339 106.299 761.644 108.084C776.205 109.504 788.233 112.497 797.727 117.062C807.36 121.641 814.299 127.288 818.544 134.001C822.942 140.59 824.769 147.698 824.025 155.325C823.227 163.507 819.945 170.607 814.178 176.624C808.551 182.655 801.786 185.985 793.885 186.615C792.042 186.855 791.052 187.668 790.917 189.055C790.85 189.749 791.066 190.4 791.567 191.008C797.574 198.314 800.057 207.306 799.016 217.984C798.029 228.107 794.931 236.905 789.723 244.376C784.528 251.71 778.116 257.174 770.485 260.77C762.855 264.366 754.949 265.765 746.767 264.967C737.753 264.088 730.792 260.819 725.884 255.161C720.976 249.503 718.67 242.278 718.968 233.488C710.218 244.254 701.046 252.179 691.45 257.263C681.994 262.361 672.342 264.43 662.496 263.47ZM753.04 220.011C757.755 220.47 761.758 218.901 765.049 215.302C768.353 211.564 770.262 207.06 770.776 201.791C771.074 198.74 770.214 196.066 768.198 193.77C766.196 191.335 763.045 189.907 758.746 189.488C754.309 189.056 750.617 190.306 747.671 193.238C744.725 196.171 743.036 199.856 742.603 204.294C742.198 208.454 742.83 212.015 744.501 214.978C746.311 217.954 749.157 219.632 753.04 220.011ZM865.113 319.555C853.048 318.378 843.204 315.248 835.58 310.165C828.094 305.095 822.811 298.981 819.729 291.82C816.647 284.66 815.485 277.197 816.242 269.431C816.878 262.914 818.721 256.934 821.771 251.491C824.974 245.924 829.102 241.636 834.155 238.629C839.222 235.483 844.806 234.208 850.907 234.803C853.265 235.033 854.902 235.472 855.819 236.122C856.874 236.785 857.437 237.47 857.508 238.176C857.579 238.883 857.534 240.069 857.371 241.733C856.898 246.587 857.631 251.278 859.569 255.807C861.507 260.335 864.837 264.23 869.559 267.49C874.42 270.764 880.525 272.759 887.875 273.476C899.801 274.639 909.528 272.508 917.057 267.082C924.738 261.531 930.261 255.14 933.626 247.908C937.143 240.552 939.145 234.377 939.632 229.385C939.794 227.721 939.251 226.828 938.003 226.706C936.894 226.598 935.911 227.342 935.056 228.939C930.784 239.722 924.739 247.882 916.919 253.419C909.113 258.818 900.911 261.098 892.313 260.259C883.3 259.38 876.607 255.508 872.237 248.642C867.88 241.638 866.209 232.935 867.223 222.534C868.048 214.075 871.2 204.723 876.678 194.478C882.171 184.094 888.886 174.809 896.824 166.623C904.775 158.299 912.601 152.692 920.303 149.803C902.897 147.406 888.979 148.009 878.548 151.612C868.117 155.214 862.463 161.523 861.584 170.537C861.286 173.588 861.799 176.227 863.121 178.456C864.457 180.547 866.235 181.7 868.454 181.916C868.846 183.634 868.995 184.979 868.9 185.95C868.576 189.278 867.059 192.63 864.35 196.005C861.641 199.381 858.015 202.107 853.473 204.184C849.083 206.136 844.114 206.842 838.567 206.301C830.385 205.503 824.263 202.246 820.201 196.53C816.138 190.814 814.472 184.212 815.202 176.724C816.311 165.352 821.145 155.254 829.706 146.429C838.404 137.618 850.173 131.066 865.011 126.773C879.849 122.48 896.559 121.239 915.142 123.051C925.542 124.065 933.575 126.388 939.241 130.021C945.059 133.528 947.677 138.263 947.096 144.226C946.866 146.584 946.047 149.234 944.64 152.176C938.447 153.952 932.336 157.766 926.306 163.618C920.427 169.345 915.452 175.859 911.38 183.162C907.447 190.478 905.19 197.118 904.608 203.081C903.689 212.511 906.627 217.557 913.422 218.219C921.326 218.99 928.091 215.66 933.715 208.229C939.492 200.672 945.791 188.477 952.612 171.643C958.77 155.864 964.318 145.625 969.256 140.927C974.194 136.229 978.951 134.103 983.528 134.549C987.965 134.982 991.234 136.63 993.335 139.495C995.588 142.235 996.484 145.962 996.024 150.677C995.686 154.144 994.503 157.668 992.474 161.25C990.583 164.846 987.759 169.4 984.002 174.913C980.728 179.774 977.924 184.12 975.591 187.953C973.409 191.66 971.485 195.602 969.818 199.779C969.28 200.987 968.018 203.874 966.033 208.44C964.2 212.881 962.389 217.814 960.6 223.24C958.825 228.526 957.141 234.312 955.548 240.596C948.697 267.787 937.739 288.278 922.675 302.068C907.598 315.997 888.41 321.826 865.113 319.555Z" fill="#0068B6"/>
</svg>
