<svg width="989" height="429" viewBox="0 0 989 429" fill="none" xmlns="http://www.w3.org/2000/svg">
<path d="M73.4116 313.887C57.9487 315.99 44.8564 312.779 34.1347 304.254C23.3943 295.591 16.6718 281.319 13.9673 261.438C11.7323 245.008 13.3471 228.969 18.8116 213.321C24.4141 197.653 32.8366 184.625 44.0789 174.237C55.4405 163.692 68.0934 157.471 82.0377 155.574C94.8774 153.827 104.977 155.196 112.336 159.678C119.815 164.005 124.174 170.724 125.414 179.836C126.447 187.429 125.403 194.743 122.282 201.776C119.299 208.791 115.161 214.556 109.87 219.073C104.578 223.589 99.3096 226.205 94.0632 226.918C91.8542 227.219 89.9153 226.92 88.2464 226.022C86.7155 225.105 85.8468 223.888 85.6402 222.369C85.565 221.817 85.7097 220.813 86.0741 219.357C89.0449 211.219 90.2017 204.734 89.5443 199.902C89.0748 196.45 87.6228 194.046 85.1885 192.69C82.8734 191.177 79.921 190.665 76.3314 191.153C70.2567 191.979 64.9282 194.673 60.3458 199.234C55.7446 203.656 52.4263 209.24 50.391 215.985C48.3368 222.592 47.7699 229.279 48.6902 236.044C50.0237 245.846 54.5833 253.522 62.3691 259.072C70.2742 264.465 80.7847 266.269 93.9005 264.485C101.218 263.49 107.911 261.524 113.98 258.59C120.187 255.636 124.55 251.527 127.068 246.263C127.727 244.908 128.747 244.136 130.128 243.948C131.923 243.704 133.623 244.317 135.229 245.785C136.973 247.236 137.594 248.698 137.091 250.172C130.578 269.479 122.202 284.399 111.963 294.932C101.863 305.446 89.0126 311.764 73.4116 313.887ZM156.403 308.925C145.22 310.446 136.338 308.209 129.757 302.214C123.314 296.2 119.436 288.361 118.121 278.697C117.351 273.036 117.783 267.423 119.416 261.858C121.049 256.292 123.721 251.64 127.431 247.901C131.141 244.162 135.688 241.926 141.072 241.194C141.901 241.081 142.629 241.263 143.256 241.741C144.003 242.061 144.423 242.566 144.517 243.256C145.137 247.813 147.3 251.315 151.008 253.763C154.697 256.074 159.027 256.891 163.997 256.215C177.665 254.356 188.278 240.889 195.835 215.816L197.324 209.707C197.934 206.952 198.817 203.106 199.973 198.168C201.111 193.091 202.085 188.881 202.895 185.537C204.479 178.572 208.515 174.648 215.004 173.765C221.493 172.882 225.057 174.788 225.695 179.482C225.864 180.725 225.845 182.133 225.637 183.708C223.456 194.551 222.381 202.15 222.411 206.505C222.592 208.871 223.351 210.315 224.687 210.836C226.024 211.357 228.142 211.421 231.041 211.026C235.321 210.444 239.174 208.795 242.602 206.079C246.01 203.225 248.556 199.715 250.239 195.548C252.041 191.225 252.614 186.648 251.956 181.815C250.867 173.808 246.765 168.46 239.65 165.772C232.654 162.927 223.495 162.275 212.174 163.815C203.476 164.998 196.13 167.333 190.136 170.82C184.142 174.307 179.77 178.347 177.02 182.94C174.27 187.532 173.205 192.107 173.825 196.663C174.2 199.424 175.279 201.668 177.061 203.394C178.823 204.982 180.809 205.626 183.018 205.326C183.796 206.907 184.25 208.181 184.382 209.148C184.833 212.461 184.129 216.072 182.27 219.981C180.411 223.89 177.511 227.378 173.569 230.445C169.747 233.356 165.074 235.187 159.552 235.938C151.406 237.046 144.679 235.149 139.372 230.246C134.046 225.205 130.838 218.681 129.749 210.674C128.378 200.595 130.763 190.217 136.903 179.538C143.182 168.841 152.802 159.447 165.763 151.356C178.862 143.246 194.317 137.98 212.127 135.557C234.354 132.533 251.517 134.136 263.613 140.365C275.848 146.575 282.942 156.859 284.896 171.218C286.473 182.815 284.838 193.021 279.991 201.836C275.263 210.495 267.903 216.347 257.912 219.394C255.207 220.183 253.34 220.93 252.311 221.632C251.401 222.178 251.002 222.865 251.115 223.693C251.227 224.522 251.814 225.215 252.874 225.774C253.934 226.333 255.092 227.089 256.347 228.044C257.721 228.841 259.179 230.26 260.722 232.3C262.949 235.231 265.211 237.384 267.507 238.759C269.941 240.115 273.022 240.54 276.75 240.033C281.03 239.451 284.469 237.858 287.068 235.254C289.786 232.494 292.414 228.551 294.951 223.425C295.61 222.07 296.63 221.298 298.01 221.11C299.805 220.866 301.506 221.478 303.112 222.947C304.699 224.278 305.32 225.741 304.974 227.334C300.934 242.086 294.846 255.218 286.71 266.731C278.573 278.243 269.466 284.685 259.387 286.056C253.175 286.901 247.775 285.456 243.189 281.721C238.722 277.829 235.533 271.443 233.622 262.563L232.363 256.406C230.86 248.455 229.186 242.355 227.342 238.106C225.499 233.857 222.713 231.986 218.986 232.493C217.467 232.7 216.35 233.274 215.634 234.215C215.038 234.999 214.576 236.257 214.249 237.989C209.863 257.428 202.65 273.666 192.612 286.703C182.693 299.583 170.623 306.99 156.403 308.925ZM471.714 199.379C472.373 198.023 473.393 197.252 474.774 197.064C476.707 196.801 478.476 197.404 480.082 198.873C481.826 200.323 482.378 201.795 481.737 203.288L478.845 211.486C476.068 220.019 473.22 227.508 470.3 233.952C467.518 240.377 463.547 246.331 458.387 251.814C453.365 257.278 447.264 260.498 440.085 261.475C433.182 262.414 427.689 260.278 423.605 255.069C419.66 249.84 417.058 242.601 415.8 233.351C415.161 228.657 414.925 222.783 415.09 215.729C406.474 216.48 397.892 216.452 389.346 215.646L383.722 230.121C377.711 244.86 370.268 257.333 361.392 267.54C352.653 277.728 343.038 283.536 332.545 284.963C323.571 286.184 315.89 285.541 309.503 283.035C303.115 280.529 298.184 276.841 294.709 271.97C291.096 267.118 288.877 261.655 288.05 255.58C287.28 249.92 287.712 244.307 289.345 238.741C290.979 233.176 293.65 228.523 297.36 224.784C301.07 221.046 305.617 218.81 311.001 218.077C311.83 217.965 312.558 218.147 313.185 218.624C313.932 218.944 314.352 219.45 314.446 220.14C315.066 224.696 317.506 228.161 321.766 230.534C326.007 232.77 331.027 233.493 336.826 232.704C348.699 231.089 358.946 223.719 367.566 210.594C356.046 206.536 346.597 200.65 339.22 192.935C331.981 185.202 327.666 176.227 326.277 166.01C325.319 158.969 326.011 152.688 328.353 147.166C330.696 141.645 334.243 137.225 338.994 133.907C343.746 130.589 349.09 128.526 355.026 127.718C362.482 126.704 368.415 127.936 372.825 131.414C377.217 134.754 379.779 139.116 380.511 144.5C380.718 146.019 380.463 147.249 379.747 148.19C379.032 149.131 377.974 149.627 376.575 149.676C371.806 149.763 367.892 151.49 364.835 154.859C361.778 158.228 360.719 163.364 361.658 170.267C363.104 180.898 368.135 188.932 376.749 194.369L381.044 184.082C392.092 155.721 403.579 135.246 415.506 122.655C427.571 110.046 439.954 102.877 452.656 101.149C459.559 100.21 465.068 101.429 469.184 104.807C473.419 108.027 475.94 112.606 476.747 118.542C477.511 125.188 476.703 131.134 474.323 136.379C471.924 141.486 468.584 144.331 464.304 144.913C463.476 145.026 462.187 144.85 460.436 144.385C458.667 143.782 457.308 143.615 456.36 143.885C454.151 144.185 452.067 146.437 450.108 150.641C448.149 154.845 446.471 161.12 445.075 169.465C444.226 175.627 443.61 180.914 443.225 185.325C442.841 189.737 442.884 193.668 443.353 197.12C444.668 206.784 448.846 211.137 455.887 210.18C459.201 209.729 462.282 208.607 465.132 206.813C468.119 205 470.313 202.522 471.714 199.379ZM416.281 201.225C417.828 190.89 420.197 179.881 423.389 168.197C424.62 163.811 425.38 160.614 425.67 158.606C426.097 156.579 426.189 154.669 425.944 152.874C425.681 150.941 424.722 150.087 423.065 150.312C421.684 150.5 420.25 151.328 418.762 152.796C417.394 154.107 415.485 156.617 413.037 160.325C408.033 169.02 401.992 182.498 394.914 200.757C400.818 201.781 407.941 201.937 416.281 201.225ZM501.225 262.016C493.632 263.049 486.848 262.285 480.875 259.722C475.04 257.141 470.454 253.406 467.117 248.517C463.623 243.508 461.473 238.035 460.665 232.099C459.895 226.438 460.327 220.825 461.96 215.259C463.593 209.694 466.265 205.041 469.975 201.303C473.685 197.564 478.232 195.328 483.616 194.596C484.445 194.483 485.173 194.665 485.8 195.142C486.547 195.463 486.967 195.968 487.061 196.658C487.662 201.076 490.23 204.453 494.767 206.789C499.303 209.125 504.332 209.917 509.855 209.166C517.448 208.133 524.569 204.141 531.217 197.19C537.864 190.239 542.668 180.586 545.628 168.231L547.117 162.123C547.726 159.368 548.609 155.522 549.765 150.583C550.903 145.507 551.877 141.297 552.688 137.952C554.271 130.987 558.307 127.063 564.796 126.181C571.285 125.298 574.849 127.204 575.487 131.898C575.657 133.14 575.637 134.549 575.43 136.124C574.594 140.316 574.354 143.723 574.711 146.346C575.312 150.764 577.683 152.691 581.825 152.128C586.519 151.489 590.417 149.131 593.518 145.053C596.758 140.957 597.964 135.871 597.138 129.796C596.311 123.721 592.871 119.619 586.816 117.49C580.88 115.204 573.494 114.662 564.658 115.864C551.681 117.63 541.31 121.501 533.545 127.479C525.762 133.319 522.509 140.933 523.786 150.321C524.199 153.358 525.306 155.809 527.106 157.673C528.888 159.4 530.883 160.113 533.092 159.812C533.87 161.394 534.324 162.668 534.456 163.634C534.907 166.948 534.203 170.559 532.344 174.468C530.485 178.377 527.585 181.865 523.643 184.932C519.821 187.843 515.148 189.673 509.626 190.425C501.48 191.533 494.772 189.774 489.502 185.147C484.233 180.52 481.091 174.479 480.077 167.024C478.424 154.875 480.64 143.254 486.724 132.161C492.789 120.93 502.252 111.417 515.113 103.621C528.093 95.6679 543.695 90.4519 561.919 87.9728C576.415 86.0007 588.809 86.1428 599.1 88.3989C609.528 90.6363 617.581 94.5326 623.259 100.088C629.055 105.487 632.47 111.983 633.503 119.576C634.611 127.722 633.052 135.386 628.827 142.57C624.739 149.735 618.924 154.534 611.38 156.966C609.642 157.625 608.866 158.644 609.054 160.025C609.148 160.715 609.509 161.299 610.136 161.776C617.665 167.501 622.152 175.679 623.598 186.31C624.969 196.389 623.981 205.663 620.633 214.134C617.267 222.466 612.286 229.261 605.689 234.517C599.092 239.774 591.72 242.956 583.575 244.064C574.601 245.285 567.074 243.708 560.995 239.332C554.915 234.956 551.008 228.457 549.273 219.834C543.238 232.326 536.138 242.151 527.971 249.308C519.943 256.447 511.027 260.683 501.225 262.016ZM579.325 198.872C584.019 198.233 587.553 195.784 589.927 191.524C592.281 187.125 593.102 182.303 592.388 177.057C591.975 174.019 590.523 171.615 588.032 169.845C585.523 167.937 582.128 167.273 577.848 167.856C573.43 168.457 570.125 170.523 567.934 174.056C565.743 177.588 564.948 181.563 565.549 185.981C566.112 190.123 567.548 193.443 569.857 195.941C572.303 198.421 575.46 199.397 579.325 198.872ZM665.847 239.622C658.254 240.655 651.471 239.89 645.498 237.328C639.662 234.747 635.076 231.012 631.739 226.122C628.246 221.113 626.095 215.641 625.288 209.704C624.517 204.043 624.949 198.43 626.582 192.865C628.216 187.299 630.887 182.647 634.597 178.908C638.307 175.169 642.854 172.934 648.239 172.201C649.067 172.088 649.795 172.271 650.422 172.748C651.169 173.068 651.589 173.573 651.683 174.264C652.284 178.682 654.853 182.058 659.389 184.394C663.925 186.73 668.955 187.522 674.477 186.771C682.071 185.738 689.191 181.746 695.839 174.795C702.487 167.845 707.29 158.192 710.25 145.837L711.739 139.728C712.349 136.974 713.232 133.127 714.388 128.189C715.525 123.113 716.499 118.902 717.31 115.558C718.894 108.593 722.93 104.669 729.419 103.786C735.908 102.903 739.471 104.809 740.11 109.503C740.279 110.746 740.26 112.154 740.052 113.729C739.216 117.921 738.977 121.328 739.333 123.952C739.934 128.37 742.306 130.297 746.448 129.733C751.142 129.095 755.039 126.737 758.141 122.659C761.38 118.562 762.587 113.476 761.76 107.402C760.934 101.327 757.493 97.2249 751.438 95.0956C745.503 92.8095 738.117 92.2675 729.281 93.4695C716.303 95.2349 705.932 99.1066 698.167 105.084C690.384 110.924 687.131 118.538 688.408 127.926C688.822 130.964 689.928 133.415 691.729 135.279C693.51 137.005 695.506 137.718 697.715 137.418C698.492 138.999 698.947 140.273 699.078 141.24C699.529 144.553 698.825 148.164 696.966 152.073C695.108 155.982 692.207 159.47 688.265 162.537C684.443 165.448 679.77 167.279 674.248 168.03C666.102 169.138 659.395 167.379 654.125 162.752C648.855 158.126 645.713 152.085 644.699 144.63C643.046 132.48 645.262 120.859 651.346 109.766C657.412 98.5356 666.875 89.0222 679.735 81.2262C692.715 73.2733 708.317 68.0573 726.541 65.5782C741.038 63.6062 753.431 63.7482 763.722 66.0043C774.151 68.2417 782.204 72.1381 787.881 77.6935C793.678 83.0921 797.093 89.5881 798.125 97.1815C799.234 105.327 797.675 112.992 793.449 120.176C789.362 127.341 783.546 132.139 776.003 134.572C774.264 135.23 773.489 136.25 773.677 137.63C773.771 138.32 774.131 138.904 774.759 139.381C782.287 145.107 786.774 153.285 788.22 163.916C789.592 173.994 788.603 183.269 785.256 191.739C781.89 200.072 776.908 206.866 770.311 212.123C763.714 217.379 756.343 220.562 748.197 221.67C739.223 222.89 731.696 221.313 725.617 216.937C719.538 212.561 715.63 206.062 713.895 197.439C707.86 209.931 700.76 219.756 692.594 226.914C684.565 234.052 675.65 238.288 665.847 239.622ZM743.948 176.477C748.642 175.838 752.175 173.389 754.549 169.129C756.904 164.731 757.724 159.909 757.01 154.662C756.597 151.625 755.145 149.221 752.654 147.45C750.145 145.542 746.75 144.879 742.47 145.461C738.052 146.062 734.748 148.129 732.557 151.661C730.365 155.193 729.57 159.168 730.171 163.586C730.735 167.728 732.171 171.048 734.479 173.547C736.926 176.026 740.082 177.003 743.948 176.477ZM875.934 247.533C863.922 249.166 853.622 248.388 845.032 245.198C836.58 241.988 830.03 237.255 825.382 230.997C820.735 224.739 817.885 217.744 816.833 210.013C815.95 203.524 816.366 197.28 818.081 191.281C819.916 185.126 822.945 180.003 827.17 175.913C831.376 171.685 836.516 169.158 842.591 168.331C844.938 168.012 846.632 168.063 847.673 168.483C848.853 168.885 849.559 169.422 849.791 170.094C850.023 170.765 850.251 171.929 850.477 173.586C851.134 178.418 852.928 182.815 855.857 186.775C858.786 190.736 862.924 193.759 868.269 195.844C873.753 197.91 880.154 198.446 887.471 197.45C899.345 195.835 908.32 191.521 914.396 184.507C920.592 177.336 924.495 169.845 926.104 162.033C927.832 154.064 928.358 147.594 927.682 142.624C927.457 140.967 926.723 140.223 925.48 140.392C924.376 140.542 923.591 141.493 923.126 143.243C921.453 154.72 917.449 164.054 911.115 171.243C904.763 178.294 897.306 182.402 888.746 183.567C879.772 184.787 872.368 182.56 866.534 176.886C860.681 171.073 857.05 162.989 855.642 152.635C854.496 144.213 855.409 134.386 858.381 123.154C861.334 111.785 865.73 101.203 871.569 91.409C877.39 81.4771 883.714 74.2187 890.543 69.6336C873.054 71.3098 859.648 75.102 850.328 81.0103C841.007 86.9186 836.957 94.3597 838.178 103.334C838.591 106.371 839.698 108.822 841.498 110.686C843.28 112.413 845.275 113.125 847.484 112.825C848.262 114.407 848.716 115.681 848.848 116.647C849.299 119.96 848.595 123.572 846.736 127.481C844.877 131.389 841.977 134.878 838.035 137.945C834.213 140.855 829.54 142.686 824.018 143.438C815.872 144.546 809.164 142.786 803.894 138.16C798.625 133.533 795.483 127.492 794.469 120.037C792.929 108.716 795.307 97.7758 801.605 87.2165C808.04 76.6385 817.983 67.552 831.433 59.957C844.884 52.362 860.859 47.3061 879.359 44.7894C889.714 43.3808 898.066 43.7914 904.416 46.0212C910.885 48.0941 914.524 52.0989 915.331 58.0355C915.65 60.3826 915.464 63.1499 914.773 66.3375C909.156 69.4922 904.087 74.6111 899.566 81.6944C895.165 88.6209 891.824 96.1062 889.544 104.15C887.401 112.176 886.734 119.157 887.542 125.093C888.819 134.482 892.84 138.716 899.605 137.795C907.474 136.725 913.29 131.926 917.052 123.399C920.932 114.715 924.253 101.397 927.014 83.4447C929.372 66.6717 932.413 55.4305 936.136 49.7212C939.859 44.0119 943.999 40.8474 948.555 40.2276C952.973 39.6266 956.534 40.4781 959.238 42.7819C962.061 44.929 963.792 48.3496 964.43 53.0437C964.9 56.4952 964.56 60.1975 963.41 64.1505C962.399 68.0848 960.7 73.1672 958.313 79.3978C956.247 84.8817 954.519 89.757 953.131 94.0237C951.862 98.1336 950.898 102.413 950.237 106.862C949.992 108.161 949.429 111.261 948.549 116.161C947.789 120.905 947.162 126.123 946.671 131.814C946.161 137.368 945.855 143.386 945.752 149.868C945.348 177.906 939.404 200.369 927.921 217.259C916.457 234.286 899.128 244.377 875.934 247.533Z" fill="#FFF1E8"/>
</svg>
