<svg width="633" height="381" viewBox="0 0 633 381" fill="none" xmlns="http://www.w3.org/2000/svg">
<path d="M73.4116 265.887C57.9487 267.99 44.8564 264.779 34.1347 256.254C23.3943 247.591 16.6718 233.319 13.9673 213.438C11.7323 197.008 13.3471 180.969 18.8116 165.321C24.4141 149.653 32.8366 136.625 44.0789 126.237C55.4405 115.692 68.0934 109.471 82.0377 107.574C94.8774 105.827 104.977 107.196 112.336 111.678C119.815 116.005 124.174 122.724 125.414 131.836C126.447 139.429 125.403 146.743 122.282 153.776C119.299 160.791 115.161 166.556 109.87 171.073C104.578 175.589 99.3096 178.205 94.0632 178.918C91.8542 179.219 89.9153 178.92 88.2464 178.022C86.7155 177.105 85.8468 175.888 85.6402 174.369C85.565 173.817 85.7097 172.813 86.0741 171.357C89.0449 163.219 90.2017 156.734 89.5443 151.902C89.0748 148.45 87.6228 146.046 85.1885 144.69C82.8734 143.177 79.921 142.665 76.3314 143.153C70.2567 143.979 64.9282 146.673 60.3458 151.234C55.7446 155.656 52.4263 161.24 50.391 167.985C48.3368 174.592 47.7699 181.279 48.6902 188.044C50.0237 197.846 54.5833 205.522 62.3691 211.072C70.2742 216.465 80.7847 218.269 93.9005 216.485C101.218 215.49 107.911 213.524 113.98 210.59C120.187 207.636 124.55 203.527 127.068 198.263C127.727 196.908 128.747 196.136 130.128 195.948C131.923 195.704 133.623 196.317 135.229 197.785C136.973 199.236 137.594 200.698 137.091 202.172C130.578 221.479 122.202 236.399 111.963 246.932C101.863 257.446 89.0126 263.764 73.4116 265.887ZM208.8 187.144C209.459 185.789 210.479 185.018 211.86 184.83C213.793 184.567 215.562 185.17 217.168 186.639C218.912 188.089 219.464 189.561 218.823 191.054L215.931 199.252C213.155 207.785 210.306 215.274 207.386 221.718C204.604 228.142 200.633 234.096 195.473 239.579C190.451 245.043 184.351 248.264 177.172 249.24C169.302 250.311 163.222 249.029 158.931 245.394C154.759 241.603 152.26 236.669 151.433 230.595C150.757 225.624 150.85 220.62 151.711 215.581C152.692 210.386 154.19 204.346 156.207 197.463C157.539 192.782 158.45 189.143 158.94 186.545C159.43 183.947 159.554 181.751 159.309 179.956C159.122 178.575 157.989 176.972 155.913 175.145C153.836 173.318 150.84 171.968 146.925 171.094C145.172 176.817 141.871 187.179 137.022 202.182C136.657 203.638 135.647 204.478 133.99 204.704C132.471 204.91 130.878 204.565 129.209 203.667C127.659 202.612 126.79 201.394 126.603 200.014C126.509 199.323 126.641 198.743 126.998 198.272C130.012 192.519 132.993 182.903 135.941 169.425C133.619 168.897 131.724 167.889 130.256 166.401C128.907 164.757 127.998 162.209 127.529 158.757C126.909 154.201 128.062 149.756 130.988 145.42C134.033 140.928 138.178 138.325 143.425 137.612C149.637 136.766 155.95 137.173 162.363 138.832C168.914 140.472 174.385 142.962 178.777 146.302C183.149 149.503 185.589 152.968 186.096 156.696C186.453 159.319 186.377 161.86 185.868 164.32C185.497 166.761 184.847 169.732 183.917 173.234C182.886 177.03 182.135 180.296 181.664 183.032C181.312 185.611 181.333 188.35 181.727 191.249C182.14 194.287 183.514 196.631 185.848 198.282C188.163 199.795 191.529 200.251 195.947 199.65C198.847 199.256 201.219 198.089 203.065 196.151C205.029 194.055 206.941 191.053 208.8 187.144ZM233.611 241.563C226.708 242.502 221.007 240.395 216.51 235.241C212.15 230.069 209.322 222.72 208.026 213.193C206.618 202.839 207.224 191.788 209.844 180.042C212.446 168.157 217.234 157.874 224.209 149.191C231.303 140.351 240.441 135.171 251.624 133.65C256.318 133.011 259.914 133.085 262.411 133.87C264.89 134.517 267.07 135.556 268.952 136.987C270.954 138.262 272.575 138.815 273.818 138.646C275.199 138.458 276.335 138.022 277.226 137.338C278.255 136.636 279.385 135.639 280.616 134.346C282.204 132.583 283.71 131.254 285.135 130.357C286.541 129.322 288.418 128.645 290.765 128.325C295.597 127.668 298.36 129.893 299.055 135.002C299.356 137.211 299.242 139.476 298.714 141.798C298.186 144.119 297.319 147.05 296.113 150.588C295.849 151.749 295.325 153.578 294.54 156.076C293.736 158.435 293.12 160.628 292.693 162.655C290.701 168.691 289.988 173.78 290.551 177.922C291.34 183.72 294.564 186.235 300.225 185.465C306.714 184.582 311.688 180.319 315.148 172.677C315.808 171.322 316.828 170.55 318.208 170.363C320.003 170.118 321.704 170.731 323.31 172.2C325.054 173.65 325.674 175.112 325.172 176.587L321.554 187.203C318.476 196.622 315.656 204.317 313.094 210.29C310.513 216.126 307.148 221.364 302.998 226.007C298.849 230.649 293.737 233.383 287.662 234.21C281.725 235.017 276.887 233.566 273.149 229.856C269.391 226.008 267.043 220.633 266.104 213.73C265.784 211.383 265.663 208.939 265.739 206.397L264.91 206.51C261.713 216.085 257.393 224.125 251.951 230.631C246.627 236.98 240.514 240.624 233.611 241.563ZM248.488 195.877C251.94 195.408 254.915 194.019 257.413 191.71C259.893 189.264 261.685 186.418 262.791 183.175C263.896 179.931 264.252 176.859 263.857 173.96C263.388 170.508 262.055 167.947 259.859 166.277C257.663 164.608 254.909 163.998 251.595 164.449C246.487 165.144 242.548 167.718 239.78 172.173C237.011 176.627 235.955 181.271 236.612 186.103C237.082 189.554 238.355 192.194 240.432 194.02C242.627 195.69 245.313 196.309 248.488 195.877ZM409.515 159.84C409.936 158.798 410.905 158.174 412.424 157.968C414.357 157.705 416.176 158.16 417.883 159.334C419.589 160.508 420.141 161.98 419.538 163.75C416.862 171.988 413.06 179.185 408.132 185.339C403.185 191.355 396.332 195.241 387.571 196.995C383.301 204.888 378.134 211.356 372.071 216.399C366.007 221.443 359.662 224.415 353.035 225.317C343.095 226.669 334.489 224.395 327.218 218.493C319.947 212.592 315.579 204.257 314.114 193.489C313.25 187.138 313.572 180.204 315.081 172.686C315.445 171.231 315.854 169.066 316.306 166.192L324.706 125.606C328.628 107.918 332.369 95.1047 335.929 87.1677C339.49 79.2306 344.101 74.877 349.761 74.107C355.284 73.3558 358.383 75.4652 359.059 80.4355C359.491 83.6109 358.931 87.7649 357.379 92.8976C356.531 95.9659 356.016 97.864 355.834 98.5919C351.864 111.787 349.523 121.457 348.812 127.6L348.718 128.457C348.793 129.009 349.066 129.464 349.536 129.822C350.007 130.18 350.587 130.312 351.277 130.218C352.52 130.049 353.618 129.337 354.573 128.082C356.958 124.945 359.507 122.489 362.218 120.714C365.068 118.92 367.804 117.845 370.427 117.488C385.476 115.441 394.334 124.22 397.001 143.825C398.222 152.799 398.002 162.039 396.342 171.545C402.028 169.928 406.419 166.026 409.515 159.84ZM342.99 171.632C343.441 174.945 344.635 177.525 346.574 179.37C348.65 181.197 351.553 181.857 355.28 181.35C358.594 180.899 361.431 179.529 363.791 177.239C366.27 174.793 368.063 171.947 369.168 168.703C370.274 165.459 370.629 162.388 370.235 159.488C369.803 156.313 368.48 153.821 366.265 152.013C364.189 150.187 361.217 149.536 357.352 150.062C352.52 150.719 348.719 153.275 345.95 157.73C343.319 162.166 342.333 166.8 342.99 171.632ZM503.96 146.992C504.381 145.95 505.351 145.326 506.869 145.12C508.802 144.857 510.622 145.312 512.329 146.486C514.035 147.66 514.587 149.132 513.984 150.902C511.308 159.14 507.506 166.337 502.578 172.491C497.631 178.507 490.777 182.393 482.016 184.147C477.747 192.04 472.58 198.508 466.516 203.551C460.453 208.595 454.108 211.567 447.481 212.469C437.54 213.821 428.935 211.547 421.663 205.645C414.392 199.744 410.024 191.409 408.559 180.641C407.695 174.29 408.018 167.356 409.526 159.838C409.891 158.383 410.299 156.218 410.752 153.344L419.152 112.758C423.073 95.0696 426.814 82.2567 430.375 74.3197C433.936 66.3826 438.546 62.029 444.207 61.259C449.729 60.5078 452.828 62.6172 453.505 67.5875C453.936 70.7629 453.377 74.9169 451.825 80.0496C450.977 83.1179 450.462 85.016 450.279 85.7439C446.309 98.9395 443.969 108.609 443.258 114.752L443.163 115.609C443.238 116.161 443.511 116.616 443.982 116.974C444.452 117.332 445.033 117.464 445.723 117.37C446.965 117.201 448.064 116.489 449.018 115.234C451.404 112.097 453.952 109.641 456.664 107.866C459.513 106.072 462.25 104.997 464.873 104.64C479.922 102.593 488.779 111.372 491.446 130.977C492.667 139.951 492.448 149.191 490.788 158.697C496.474 157.08 500.865 153.178 503.96 146.992ZM437.436 158.784C437.886 162.097 439.081 164.677 441.019 166.522C443.096 168.349 445.998 169.009 449.726 168.502C453.039 168.051 455.876 166.681 458.236 164.391C460.716 161.945 462.508 159.099 463.614 155.855C464.719 152.611 465.075 149.54 464.68 146.64C464.248 143.465 462.925 140.973 460.711 139.165C458.634 137.339 455.663 136.688 451.797 137.214C446.965 137.871 443.165 140.427 440.396 144.882C437.765 149.318 436.778 153.952 437.436 158.784ZM606.897 132.989C607.317 131.947 608.287 131.323 609.806 131.117C611.739 130.854 613.558 131.309 615.265 132.483C616.971 133.657 617.523 135.129 616.92 136.899L613.961 146.16C610.858 156.425 608.104 164.604 605.698 170.697C603.293 176.789 600.144 182.069 596.252 186.535C592.479 190.845 587.832 193.376 582.309 194.127C579.272 194.54 576.649 193.35 574.441 190.557C571.977 205.517 568.901 217.536 565.214 226.615C561.547 235.832 557.008 242.777 551.597 247.451C546.186 252.124 539.615 254.987 531.883 256.038C520.977 257.522 512.17 255.837 505.463 250.984C498.618 246.15 494.51 238.694 493.139 228.616C492.275 222.265 492.707 216.652 494.434 211.776C496.042 207.058 498.105 203.613 500.622 201.443C502.982 199.153 504.344 198.827 504.707 200.465C505.973 205.637 508.617 209.566 512.639 212.253C516.798 214.921 521.916 215.842 527.99 215.016C534.065 214.189 539.491 211.694 544.268 207.528C549.201 203.482 553.009 198.394 555.69 192.264C558.372 186.134 559.598 179.64 559.368 172.781L559.283 172.159C559.152 171.193 558.841 170.462 558.352 169.966C557.844 169.332 557.245 169.062 556.554 169.156C555.174 169.344 554.16 170.677 553.513 173.155C551.571 180.591 548.388 186.649 543.962 191.329C539.518 195.87 533.982 198.592 527.355 199.494C521.419 200.301 516.254 199.035 511.863 195.695C507.471 192.355 504.768 186.958 503.754 179.502C502.195 168.043 502.268 157.206 503.972 146.99C506.82 130.713 510.134 118.38 513.914 109.992C517.814 101.446 522.594 96.7881 528.254 96.0181C532.534 95.4358 535.05 97.906 535.801 103.428C536.214 106.466 536.204 109.49 535.77 112.502C535.474 115.496 534.836 119.59 533.855 124.786C532.837 129.705 532.161 133.523 531.828 136.24C531.494 138.958 531.506 141.628 531.863 144.251C532.295 147.426 533.235 149.689 534.685 151.038C536.134 152.388 538.515 152.838 541.829 152.387C546.246 151.786 549.667 150.055 552.09 147.194C554.495 144.195 556.247 140.02 557.347 134.667C559.849 119.984 562.84 108.89 566.318 101.386C569.797 93.8821 574.091 89.7826 579.199 89.0877C582.237 88.6745 584.618 89.124 586.343 90.4361C588.188 91.5913 589.326 93.7566 589.758 96.9321C590.096 99.4172 589.97 102.106 589.379 104.999C588.907 107.735 587.943 112.014 586.485 117.837C586.039 119.726 585.329 122.775 584.355 126.986C583.362 131.058 582.498 135.043 581.762 138.939C581.328 141.951 581.252 144.493 581.534 146.564C581.91 149.325 582.813 151.311 584.243 152.523C585.655 153.596 587.327 154.002 589.26 153.739C594.368 153.044 600.247 146.127 606.897 132.989Z" fill="#FFF1E8"/>
</svg>
