<svg width="639" height="359" viewBox="0 0 639 359" fill="none" xmlns="http://www.w3.org/2000/svg">
<path d="M68.8835 199.289C53.3518 197.775 41.351 191.635 32.8811 180.869C24.4247 169.965 21.1701 154.529 23.1172 134.559C24.7263 118.057 29.9918 102.821 38.9135 88.8516C47.974 74.8956 59.1706 64.1579 72.5032 56.6383C85.9881 48.9935 99.7337 45.8539 113.74 47.2196C126.637 48.4772 136.15 52.1346 142.279 58.192C148.56 64.1242 151.255 71.6667 150.362 80.8193C149.618 88.4464 146.918 95.3228 142.261 101.448C137.742 107.588 132.388 112.245 126.199 115.422C120.01 118.598 114.28 119.929 109.01 119.415C106.792 119.199 104.973 118.462 103.556 117.204C102.278 115.959 101.713 114.574 101.861 113.049C101.916 112.494 102.288 111.55 102.977 110.218C107.743 102.983 110.362 96.9382 110.835 92.0845C111.173 88.6176 110.314 85.944 108.258 84.0635C106.353 82.0579 103.598 80.8793 99.9926 80.5277C93.8909 79.9328 88.0852 81.3266 82.5756 84.7092C77.0795 87.9532 72.5644 92.6227 69.0302 98.7178C65.5096 104.674 63.4179 111.05 62.7554 117.845C61.7953 127.691 64.4644 136.211 70.7627 143.405C77.2132 150.474 87.0255 154.65 100.2 155.935C107.549 156.651 114.515 156.281 121.097 154.823C127.818 153.378 133.01 150.384 136.672 145.842C137.626 144.675 138.796 144.159 140.183 144.294C141.986 144.47 143.5 145.457 144.724 147.257C146.087 149.07 146.354 150.636 145.526 151.955C134.741 169.242 123.153 181.832 110.764 189.724C98.5142 197.629 84.5538 200.817 68.8835 199.289ZM218.768 153.846C219.722 152.679 220.892 152.164 222.279 152.299C224.22 152.488 225.803 153.482 227.027 155.282C228.391 157.095 228.589 158.654 227.621 159.959L222.919 167.271C218.251 174.935 213.755 181.566 209.429 187.164C205.242 192.776 200.007 197.655 193.723 201.802C187.577 205.963 180.899 207.692 173.688 206.988C165.783 206.218 160.162 203.57 156.823 199.044C153.637 194.394 152.341 189.018 152.936 182.916C153.423 177.924 154.665 173.075 156.664 168.37C158.815 163.54 161.664 158.008 165.212 151.774C167.586 147.526 169.311 144.194 170.386 141.779C171.462 139.364 172.088 137.255 172.263 135.453C172.399 134.066 171.666 132.244 170.066 129.989C168.466 127.733 165.862 125.729 162.253 123.977C159.229 129.142 153.63 138.466 145.456 151.948C144.766 153.281 143.589 153.866 141.925 153.703C140.4 153.555 138.928 152.851 137.511 151.593C136.246 150.21 135.681 148.825 135.816 147.438C135.884 146.745 136.146 146.21 136.602 145.835C140.861 140.93 145.976 132.259 151.948 119.822C149.811 118.774 148.199 117.357 147.113 115.571C146.179 113.66 145.882 110.971 146.22 107.504C146.666 102.928 148.812 98.8673 152.657 95.3224C156.655 91.6524 161.289 90.0743 166.558 90.5881C172.799 91.1966 178.848 93.0464 184.706 96.1375C190.703 99.2422 195.454 102.925 198.958 107.187C202.476 111.31 204.053 115.243 203.688 118.987C203.431 121.622 202.771 124.078 201.709 126.354C200.786 128.644 199.469 131.386 197.757 134.579C195.88 138.035 194.398 141.041 193.309 143.594C192.372 146.023 191.761 148.693 191.477 151.605C191.18 154.656 191.977 157.254 193.867 159.398C195.772 161.404 198.943 162.623 203.38 163.056C206.293 163.34 208.87 162.751 211.112 161.29C213.507 159.703 216.059 157.222 218.768 153.846ZM230.378 212.516C223.444 211.84 218.382 208.477 215.193 202.426C212.141 196.388 211.082 188.586 212.015 179.017C213.029 168.616 216.164 158.002 221.42 147.175C226.689 136.21 233.717 127.305 242.504 120.462C251.443 113.494 261.529 110.558 272.761 111.653C277.476 112.113 280.958 113.012 283.208 114.352C285.471 115.552 287.353 117.066 288.855 118.892C290.509 120.593 291.96 121.505 293.208 121.626C294.595 121.762 295.801 121.599 296.825 121.139C297.989 120.693 299.318 119.982 300.813 119.008C302.765 117.658 304.537 116.711 306.13 116.167C307.736 115.483 309.718 115.257 312.076 115.487C316.93 115.96 319.106 118.762 318.606 123.893C318.39 126.112 317.757 128.29 316.709 130.428C315.66 132.565 314.142 135.217 312.153 138.383C311.629 139.452 310.697 141.111 309.358 143.36C308.032 145.471 306.928 147.463 306.045 149.337C302.717 154.752 300.851 159.54 300.445 163.7C299.877 169.525 302.436 172.714 308.122 173.269C314.639 173.904 320.462 170.902 325.589 164.262C326.543 163.095 327.713 162.579 329.1 162.715C330.903 162.89 332.416 163.878 333.641 165.677C335.004 167.49 335.271 169.056 334.443 170.375L328.477 179.873C323.313 188.329 318.796 195.168 314.927 200.391C311.071 205.475 306.59 209.798 301.483 213.359C296.376 216.921 290.771 218.405 284.67 217.81C278.706 217.228 274.333 214.702 271.549 210.231C268.779 205.621 267.732 199.849 268.408 192.915C268.638 190.558 269.082 188.151 269.742 185.696L268.91 185.614C263.593 194.196 257.537 201.025 250.743 206.102C244.1 211.054 237.312 213.192 230.378 212.516ZM255.378 171.486C258.845 171.824 262.06 171.157 265.022 169.486C267.999 167.676 270.398 165.32 272.221 162.418C274.044 159.516 275.098 156.609 275.382 153.697C275.72 150.23 275.013 147.431 273.26 145.3C271.508 143.17 268.968 141.942 265.64 141.617C260.509 141.117 256.083 142.716 252.363 146.413C248.642 150.11 246.546 154.385 246.072 159.239C245.734 162.706 246.365 165.567 247.965 167.823C249.717 169.954 252.188 171.175 255.378 171.486ZM420.375 173.504C421.024 172.588 422.112 172.204 423.637 172.352C425.579 172.542 427.245 173.404 428.635 174.94C430.025 176.475 430.223 178.034 429.229 179.617C424.727 187.018 419.37 193.145 413.157 197.999C406.957 202.715 399.393 204.917 390.464 204.606C384.491 211.304 377.973 216.408 370.911 219.919C363.849 223.43 356.99 224.861 350.334 224.212C340.349 223.239 332.498 219.044 326.782 211.626C321.065 204.209 318.734 195.092 319.789 184.276C320.411 177.897 322.322 171.223 325.521 164.255C326.211 162.923 327.107 160.91 328.21 158.218L345.731 120.658C353.621 104.348 360.213 92.7413 365.506 85.8377C370.799 78.9341 376.288 75.7595 381.974 76.3139C387.521 76.8548 390.051 79.6214 389.564 84.6137C389.253 87.8032 387.752 91.7167 385.06 96.354C383.527 99.1444 382.589 100.873 382.244 101.539C375.341 113.466 370.837 122.336 368.73 128.15L368.441 128.962C368.387 129.517 368.547 130.022 368.923 130.479C369.298 130.936 369.833 131.198 370.526 131.265C371.774 131.387 373.007 130.947 374.224 129.946C377.268 127.443 380.314 125.64 383.361 124.537C386.548 123.448 389.458 123.032 392.093 123.289C407.208 124.763 413.806 135.345 411.886 155.037C411.007 164.051 408.666 172.993 404.861 181.861C410.766 181.597 415.938 178.811 420.375 173.504ZM352.923 169.657C352.599 172.985 353.167 175.771 354.628 178.013C356.228 180.269 358.9 181.58 362.645 181.945C365.973 182.269 369.049 181.589 371.873 179.905C374.849 178.095 377.249 175.739 379.072 172.837C380.895 169.935 381.948 167.028 382.232 164.115C382.543 160.926 381.829 158.196 380.091 155.927C378.491 153.671 375.749 152.354 371.866 151.975C367.013 151.502 362.726 153.114 359.005 156.811C355.424 160.521 353.396 164.804 352.923 169.657ZM515.241 182.754C515.89 181.838 516.977 181.454 518.503 181.602C520.444 181.792 522.11 182.654 523.5 184.19C524.891 185.725 525.089 187.284 524.094 188.867C519.593 196.268 514.235 202.395 508.022 207.249C501.823 211.965 494.258 214.167 485.329 213.856C479.356 220.554 472.839 225.658 465.777 229.169C458.715 232.68 451.855 234.111 445.199 233.462C435.214 232.489 427.364 228.294 421.647 220.876C415.931 213.459 413.6 204.342 414.655 193.526C415.277 187.147 417.187 180.473 420.386 173.505C421.076 172.173 421.973 170.16 423.075 167.468L440.597 129.908C448.487 113.598 455.078 101.991 460.371 95.0877C465.664 88.1841 471.154 85.0095 476.839 85.5638C482.386 86.1047 484.916 88.8713 484.43 93.8636C484.119 97.0532 482.617 100.967 479.925 105.604C478.393 108.394 477.455 110.123 477.11 110.789C470.207 122.716 465.702 131.586 463.595 137.4L463.306 138.212C463.252 138.767 463.413 139.272 463.788 139.729C464.164 140.186 464.698 140.448 465.391 140.515C466.64 140.637 467.872 140.197 469.09 139.196C472.134 136.693 475.18 134.89 478.227 133.787C481.413 132.698 484.324 132.282 486.958 132.539C502.074 134.012 508.672 144.595 506.752 164.287C505.873 173.301 503.531 182.243 499.726 191.111C505.632 190.847 510.803 188.061 515.241 182.754ZM447.789 178.907C447.464 182.235 448.032 185.021 449.494 187.263C451.094 189.519 453.766 190.83 457.51 191.195C460.838 191.519 463.914 190.839 466.739 189.155C469.715 187.345 472.115 184.989 473.937 182.087C475.76 179.185 476.814 176.278 477.098 173.365C477.409 170.176 476.695 167.446 474.956 165.177C473.356 162.921 470.615 161.604 466.732 161.225C461.878 160.752 457.591 162.364 453.871 166.061C450.289 169.771 448.262 174.054 447.789 178.907ZM618.635 192.836C619.284 191.919 620.371 191.535 621.897 191.684C623.838 191.873 625.504 192.736 626.894 194.271C628.285 195.807 628.483 197.366 627.488 198.949L622.476 207.28C617.092 216.554 612.528 223.879 608.784 229.254C605.04 234.628 600.76 239.041 595.944 242.491C591.28 245.816 586.174 247.208 580.627 246.667C577.576 246.37 575.298 244.608 573.793 241.381C567.949 255.371 562.188 266.359 556.509 274.345C550.817 282.469 544.801 288.182 538.459 291.484C532.117 294.785 525.064 296.057 517.298 295.3C506.342 294.232 498.16 290.564 492.752 284.297C487.204 278.016 484.924 269.814 485.911 259.691C486.533 253.312 488.246 247.949 491.05 243.603C493.701 239.382 496.502 236.505 499.451 234.972C502.275 233.288 503.675 233.284 503.652 234.962C503.693 240.286 505.36 244.718 508.655 248.259C512.088 251.814 516.856 253.889 522.957 254.484C529.059 255.079 534.914 253.9 540.522 250.947C546.255 248.146 551.132 244.071 555.153 238.724C559.174 233.376 561.863 227.339 563.219 220.611L563.28 219.987C563.374 219.016 563.241 218.233 562.879 217.638C562.53 216.904 562.009 216.503 561.316 216.436C559.929 216.3 558.635 217.364 557.435 219.627C553.833 226.416 549.34 231.577 543.956 235.112C538.585 238.508 532.571 239.882 525.914 239.233C519.951 238.651 515.218 236.23 511.713 231.968C508.209 227.707 506.822 221.832 507.552 214.343C508.675 202.833 511.241 192.304 515.252 182.755C521.772 167.572 527.838 156.334 533.449 149.041C539.212 141.623 544.936 138.192 550.622 138.746C554.921 139.165 556.8 142.148 556.259 147.695C555.962 150.746 555.255 153.687 554.139 156.518C553.161 159.363 551.597 163.2 549.446 168.03C547.323 172.583 545.786 176.143 544.835 178.71C543.885 181.277 543.281 183.878 543.024 186.513C542.713 189.703 543.108 192.121 544.207 193.768C545.306 195.415 547.52 196.401 550.848 196.726C555.286 197.158 559.013 196.262 562.03 194.036C565.06 191.672 567.727 188.012 570.03 183.057C575.847 169.345 581.312 159.238 586.426 152.737C591.54 146.236 596.662 143.235 601.793 143.736C604.844 144.033 607.058 145.019 608.435 146.693C609.963 148.242 610.572 150.611 610.261 153.801C610.018 156.297 609.276 158.885 608.035 161.564C606.946 164.117 605.021 168.059 602.262 173.39C601.392 175.125 599.999 177.929 598.081 181.802C596.177 185.536 594.419 189.215 592.806 192.837C591.69 195.668 591.03 198.124 590.827 200.204C590.557 202.978 590.978 205.119 592.091 206.627C593.217 207.997 594.751 208.776 596.693 208.966C601.824 209.466 609.138 204.089 618.635 192.836Z" fill="#0068B6"/>
</svg>
