<svg width="602" height="274" viewBox="0 0 602 274" fill="none" xmlns="http://www.w3.org/2000/svg">
<path d="M39.6389 182.58C27.0389 182.58 17.2739 179.367 10.3439 172.941C3.53989 166.389 0.137891 158.01 0.137891 147.804C0.137891 142.764 1.14589 137.976 3.16189 133.44C5.05189 128.904 7.76089 125.25 11.2889 122.478C14.8169 119.58 18.8489 118.131 23.3849 118.131C24.1409 118.131 24.7709 118.383 25.2749 118.887C25.9049 119.265 26.2199 119.769 26.2199 120.399C26.2199 125.061 28.1729 128.904 32.0789 131.928C36.1109 134.826 41.0249 136.275 46.8209 136.275C53.6249 136.275 60.4919 133.566 67.4219 128.148C74.4779 122.73 80.0219 114.666 84.0539 103.956C90.1019 87.9536 95.4569 74.7236 100.119 64.2656C97.5989 63.7616 94.8269 63.5096 91.8029 63.5096C84.4949 63.5096 78.4469 65.4626 73.6589 69.3686C68.9969 73.1486 66.6659 78.4406 66.6659 85.2446C66.6659 88.0166 67.3589 90.3476 68.7449 92.2376C70.1309 94.0016 71.8319 94.8836 73.8479 94.8836C74.3519 96.3956 74.6039 97.5926 74.6039 98.4746C74.6039 101.499 73.5329 104.649 71.3909 107.925C69.2489 111.201 66.2249 113.973 62.3189 116.241C58.5389 118.383 54.1289 119.454 49.0889 119.454C41.6549 119.454 35.8589 117.06 31.7009 112.272C27.5429 107.484 25.4639 101.688 25.4639 94.8836C25.4639 83.9216 28.4249 73.7786 34.3469 64.4546C40.2689 55.1306 48.5849 47.7596 59.2949 42.3416C70.0049 36.7976 82.2269 34.0256 95.9609 34.0256C113.979 34.0256 122.988 40.0736 122.988 52.1696C122.988 56.5796 121.98 61.4306 119.964 66.7226C118.704 70.6286 114.924 81.6536 108.624 99.7976L100.119 124.746C93.3149 145.032 85.0619 159.774 75.3599 168.972C65.6579 178.044 53.7509 182.58 39.6389 182.58ZM201.906 122.856C202.41 121.974 203.355 121.533 204.741 121.533C206.505 121.533 208.08 122.163 209.466 123.423C210.852 124.683 211.167 126.069 210.411 127.581C206.883 135.015 202.536 141.189 197.37 146.103C192.204 151.017 185.526 153.474 177.336 153.474H175.068C170.28 160.026 164.61 165.192 158.058 168.972C151.632 172.752 144.954 174.642 138.024 174.642C129.33 174.642 122.274 171.807 116.856 166.137C111.438 160.341 108.729 152.592 108.729 142.89C108.729 133.314 110.997 123.675 115.533 113.973C120.195 104.145 126.495 96.0806 134.433 89.7806C142.371 83.3546 151.128 80.1416 160.704 80.1416C169.02 80.1416 175.698 82.7876 180.738 88.0796C185.778 93.2456 188.298 101.436 188.298 112.65C188.298 119.328 187.353 125.817 185.463 132.117H186.786C192.582 132.117 197.622 129.03 201.906 122.856ZM148.797 135.519C151.821 135.519 154.53 134.637 156.924 132.873C159.444 130.983 161.397 128.652 162.783 125.88C164.169 123.108 164.862 120.399 164.862 117.753C164.862 114.855 163.98 112.461 162.216 110.571C160.578 108.681 157.995 107.736 154.467 107.736C150.057 107.736 146.34 109.563 143.316 113.217C140.418 116.871 138.969 120.903 138.969 125.313C138.969 128.337 139.725 130.794 141.237 132.684C142.875 134.574 145.395 135.519 148.797 135.519ZM235.469 72.3926C230.429 72.3926 226.397 71.3216 223.373 69.1796C220.349 67.0376 218.837 63.6356 218.837 58.9736C218.837 47.3816 225.137 41.5856 237.737 41.5856C249.581 41.5856 255.062 46.6886 254.18 56.8946C253.172 67.2266 246.935 72.3926 235.469 72.3926ZM214.49 174.642C208.442 174.642 204.032 172.5 201.26 168.216C198.488 163.932 197.102 158.199 197.102 151.017C197.102 142.323 198.677 132.936 201.827 122.856C206.489 108.24 210.899 97.4666 215.057 90.5366C219.215 83.6066 223.877 80.1416 229.043 80.1416C233.327 80.1416 235.469 82.9766 235.469 88.6466C235.469 91.2926 235.091 94.0016 234.335 96.7736C233.579 99.5456 232.445 102.885 230.933 106.791C230.681 107.421 230.177 108.933 229.421 111.327C228.665 113.721 228.035 115.863 227.531 117.753C227.153 119.643 226.964 121.344 226.964 122.856C226.964 125.88 227.72 128.211 229.232 129.849C230.744 131.487 232.823 132.306 235.469 132.306C238.115 132.306 240.383 131.55 242.273 130.038C244.289 128.4 246.368 126.006 248.51 122.856C249.266 121.722 250.274 121.155 251.534 121.155C253.172 121.155 254.621 121.911 255.881 123.423C257.267 124.809 257.645 126.132 257.015 127.392C255.881 129.282 254.558 131.928 253.046 135.33C249.518 142.638 246.179 148.938 243.029 154.23C239.879 159.522 235.847 164.247 230.933 168.405C226.019 172.563 220.538 174.642 214.49 174.642ZM255.899 174.642C251.615 174.642 248.213 173.382 245.693 170.862C243.299 168.216 242.102 164.877 242.102 160.845C242.102 150.387 244.181 137.724 248.339 122.856C251.615 111.012 255.395 100.932 259.679 92.6156C263.963 84.2996 267.743 80.1416 271.019 80.1416C275.177 80.1416 277.256 82.5356 277.256 87.3236C277.256 91.9856 278.516 94.3166 281.036 94.3166C282.8 94.3166 284.816 93.1826 287.084 90.9146C294.518 83.7326 302.141 80.1416 309.953 80.1416C315.497 80.1416 319.718 81.7796 322.616 85.0556C325.514 88.3316 326.963 92.4896 326.963 97.5296C326.963 99.7976 326.711 101.877 326.207 103.767C325.703 105.531 324.947 107.862 323.939 110.76C322.931 113.28 322.175 115.422 321.671 117.186C321.167 118.95 320.915 120.903 320.915 123.045C320.915 126.321 321.608 128.715 322.994 130.227C324.506 131.739 326.837 132.495 329.987 132.495C332.633 132.495 334.901 131.739 336.791 130.227C338.807 128.589 340.886 126.132 343.028 122.856C343.784 121.722 344.792 121.155 346.052 121.155C347.816 121.155 349.328 121.911 350.588 123.423C351.974 124.935 352.289 126.321 351.533 127.581L347.942 134.574C344.414 141.882 340.949 148.245 337.547 153.663C334.271 159.081 329.987 163.932 324.695 168.216C319.529 172.5 313.67 174.642 307.118 174.642C301.574 174.642 297.479 172.815 294.833 169.161C292.313 165.507 291.053 160.782 291.053 154.986C291.053 151.332 291.494 147.804 292.376 144.402C293.258 140.874 294.455 136.905 295.967 132.495C296.219 131.739 296.786 129.975 297.668 127.203C298.55 124.305 298.991 121.974 298.991 120.21C298.991 118.068 298.361 116.43 297.101 115.296C295.841 114.162 294.077 113.595 291.809 113.595C288.281 113.595 284.942 115.17 281.792 118.32C278.642 121.344 276.122 125.376 274.232 130.416C272.342 135.33 271.397 140.559 271.397 146.103V154.608C271.397 167.964 266.231 174.642 255.899 174.642ZM433.81 174.831C426.124 174.831 420.202 171.933 416.044 166.137C411.886 160.215 409.807 152.529 409.807 143.079C409.807 133.629 412.075 122.982 416.611 111.138C421.147 99.2936 427.006 88.4576 434.188 78.6296C441.37 68.6756 448.678 61.6826 456.112 57.6506C440.236 57.0206 427.762 58.7846 418.69 62.9426C409.618 67.1006 405.082 73.2746 405.082 81.4646C405.082 84.2366 405.775 86.5676 407.161 88.4576C408.547 90.2216 410.248 91.1036 412.264 91.1036C412.768 92.6156 413.02 93.8126 413.02 94.6946C413.02 97.7186 411.949 100.869 409.807 104.145C407.665 107.421 404.704 110.193 400.924 112.461C397.018 114.603 392.545 115.674 387.505 115.674C380.071 115.674 374.275 113.28 370.117 108.492C365.959 103.704 363.88 97.9076 363.88 91.1036C363.88 80.7716 367.408 71.2586 374.464 62.5646C381.394 53.8706 391.348 46.9406 404.326 41.7746C417.304 36.6086 432.235 34.0256 449.119 34.0256C458.569 34.0256 466.003 35.3486 471.421 37.9946C476.965 40.6406 479.737 44.5466 479.737 49.7126C479.737 51.6026 479.233 53.9336 478.225 56.7056C472.303 59.4776 466.57 64.3916 461.026 71.4476C455.608 78.5036 451.261 86.3156 447.985 94.8836C444.709 103.452 443.071 111.075 443.071 117.753C443.071 126.321 446.158 130.605 452.332 130.605C457.75 130.605 462.727 127.833 467.263 122.289C471.799 116.619 475.831 109.122 479.359 99.7976C484.777 84.2996 489.187 72.4556 492.589 64.2656C495.991 56.0756 499.456 49.7756 502.984 45.3656C506.512 40.9556 510.355 38.7506 514.513 38.7506C519.679 38.7506 522.262 41.0816 522.262 45.7436C522.262 48.7676 521.191 52.3586 519.049 56.5166C508.591 77.5586 501.22 95.6396 496.936 110.76C495.424 115.926 494.668 120.084 494.668 123.234C494.668 126.132 495.298 128.4 496.558 130.038C497.944 131.676 500.275 132.495 503.551 132.495C509.599 132.495 514.702 129.282 518.86 122.856C519.616 121.722 520.624 121.155 521.884 121.155C523.648 121.155 525.16 121.911 526.42 123.423C527.806 124.935 528.121 126.321 527.365 127.581L523.774 134.574C520.246 141.882 516.781 148.245 513.379 153.663C510.103 159.081 505.819 163.932 500.527 168.216C495.361 172.5 489.502 174.642 482.95 174.642C470.98 174.642 464.995 168.153 464.995 155.175C464.995 153.789 465.121 151.458 465.373 148.182C455.671 165.948 445.15 174.831 433.81 174.831ZM592.251 122.856C593.007 121.722 594.015 121.155 595.275 121.155C596.913 121.155 598.362 121.911 599.622 123.423C601.008 124.935 601.386 126.321 600.756 127.581C597.102 135.267 593.322 142.197 589.416 148.371C585.51 154.419 579.714 160.278 572.028 165.948C564.468 171.618 555.396 174.453 544.812 174.453C534.228 174.453 526.29 171.555 520.998 165.759C515.832 159.837 513.249 152.529 513.249 143.835C513.249 136.275 515.139 129.282 518.919 122.856L519.675 121.722C521.439 119.328 524.589 114.666 529.125 107.736C533.787 100.68 537.693 95.0096 540.843 90.7256C544.119 86.4416 547.584 82.8506 551.238 79.9526C555.018 76.9286 558.861 75.4166 562.767 75.4166C568.311 75.4166 572.595 76.7396 575.619 79.3856C578.643 82.0316 580.092 84.9926 579.966 88.2686C579.966 89.5286 579.399 90.5996 578.265 91.4816C577.257 92.3636 575.745 93.3716 573.729 94.5056C571.335 95.7656 569.508 96.9626 568.248 98.0966C566.988 99.2306 566.358 100.68 566.358 102.444C566.358 103.578 567.681 106.791 570.327 112.083C574.737 120.525 577.572 127.455 578.832 132.873C581.478 132.747 583.809 131.865 585.825 130.227C587.967 128.463 590.109 126.006 592.251 122.856ZM538.008 135.519C542.04 135.519 545.19 134.259 547.458 131.739C549.852 129.093 551.049 125.754 551.049 121.722C551.049 117.438 549.663 112.65 546.891 107.358C546.387 106.098 545.694 105.468 544.812 105.468C544.056 105.468 543.237 106.098 542.355 107.358C538.071 113.658 533.094 120.399 527.424 127.581C527.424 129.849 528.369 131.739 530.259 133.251C532.275 134.763 534.858 135.519 538.008 135.519Z" fill="#0068B6"/>
</svg>
