<svg width="603" height="296" viewBox="0 0 603 296" fill="none" xmlns="http://www.w3.org/2000/svg">
<mask id="path-1-outside-1_106_17" maskUnits="userSpaceOnUse" x="-1" y="55" width="604" height="151" fill="black">
<rect fill="white" x="-1" y="55" width="604" height="151"/>
<path d="M40.051 204.938C27.451 204.938 17.686 201.725 10.756 195.299C3.952 188.747 0.55 180.368 0.55 170.162C0.55 165.122 1.558 160.334 3.574 155.798C5.464 151.262 8.173 147.608 11.701 144.836C15.229 141.938 19.261 140.489 23.797 140.489C24.553 140.489 25.183 140.741 25.687 141.245C26.317 141.623 26.632 142.127 26.632 142.757C26.632 147.419 28.585 151.262 32.491 154.286C36.523 157.184 41.437 158.633 47.233 158.633C54.037 158.633 60.904 155.924 67.834 150.506C74.89 145.088 80.434 137.024 84.466 126.314C90.514 110.312 95.869 97.082 100.531 86.624C98.011 86.12 95.239 85.868 92.215 85.868C84.907 85.868 78.859 87.821 74.071 91.727C69.409 95.507 67.078 100.799 67.078 107.603C67.078 110.375 67.771 112.706 69.157 114.596C70.543 116.36 72.244 117.242 74.26 117.242C74.764 118.754 75.016 119.951 75.016 120.833C75.016 123.857 73.945 127.007 71.803 130.283C69.661 133.559 66.637 136.331 62.731 138.599C58.951 140.741 54.541 141.812 49.501 141.812C42.067 141.812 36.271 139.418 32.113 134.63C27.955 129.842 25.876 124.046 25.876 117.242C25.876 106.28 28.837 96.137 34.759 86.813C40.681 77.489 48.997 70.118 59.707 64.7C70.417 59.156 82.639 56.384 96.373 56.384C114.391 56.384 123.4 62.432 123.4 74.528C123.4 78.938 122.392 83.789 120.376 89.081C119.116 92.987 115.336 104.012 109.036 122.156L100.531 147.104C93.727 167.39 85.474 182.132 75.772 191.33C66.07 200.402 54.163 204.938 40.051 204.938ZM202.318 145.214C202.822 144.332 203.767 143.891 205.153 143.891C206.917 143.891 208.492 144.521 209.878 145.781C211.264 147.041 211.579 148.427 210.823 149.939C207.295 157.373 202.948 163.547 197.782 168.461C192.616 173.375 185.938 175.832 177.748 175.832H175.48C170.692 182.384 165.022 187.55 158.47 191.33C152.044 195.11 145.366 197 138.436 197C129.742 197 122.686 194.165 117.268 188.495C111.85 182.699 109.141 174.95 109.141 165.248C109.141 155.672 111.409 146.033 115.945 136.331C120.607 126.503 126.907 118.439 134.845 112.139C142.783 105.713 151.54 102.5 161.116 102.5C169.432 102.5 176.11 105.146 181.15 110.438C186.19 115.604 188.71 123.794 188.71 135.008C188.71 141.686 187.765 148.175 185.875 154.475H187.198C192.994 154.475 198.034 151.388 202.318 145.214ZM149.209 157.877C152.233 157.877 154.942 156.995 157.336 155.231C159.856 153.341 161.809 151.01 163.195 148.238C164.581 145.466 165.274 142.757 165.274 140.111C165.274 137.213 164.392 134.819 162.628 132.929C160.99 131.039 158.407 130.094 154.879 130.094C150.469 130.094 146.752 131.921 143.728 135.575C140.83 139.229 139.381 143.261 139.381 147.671C139.381 150.695 140.137 153.152 141.649 155.042C143.287 156.932 145.807 157.877 149.209 157.877ZM235.882 94.751C230.842 94.751 226.81 93.68 223.786 91.538C220.762 89.396 219.25 85.994 219.25 81.332C219.25 69.74 225.55 63.944 238.15 63.944C249.994 63.944 255.475 69.047 254.593 79.253C253.585 89.585 247.348 94.751 235.882 94.751ZM214.903 197C208.855 197 204.445 194.858 201.673 190.574C198.901 186.29 197.515 180.557 197.515 173.375C197.515 164.681 199.09 155.294 202.24 145.214C206.902 130.598 211.312 119.825 215.47 112.895C219.628 105.965 224.29 102.5 229.456 102.5C233.74 102.5 235.882 105.335 235.882 111.005C235.882 113.651 235.504 116.36 234.748 119.132C233.992 121.904 232.858 125.243 231.346 129.149C231.094 129.779 230.59 131.291 229.834 133.685C229.078 136.079 228.448 138.221 227.944 140.111C227.566 142.001 227.377 143.702 227.377 145.214C227.377 148.238 228.133 150.569 229.645 152.207C231.157 153.845 233.236 154.664 235.882 154.664C238.528 154.664 240.796 153.908 242.686 152.396C244.702 150.758 246.781 148.364 248.923 145.214C249.679 144.08 250.687 143.513 251.947 143.513C253.585 143.513 255.034 144.269 256.294 145.781C257.68 147.167 258.058 148.49 257.428 149.75C256.294 151.64 254.971 154.286 253.459 157.688C249.931 164.996 246.592 171.296 243.442 176.588C240.292 181.88 236.26 186.605 231.346 190.763C226.432 194.921 220.951 197 214.903 197ZM256.311 197C252.027 197 248.625 195.74 246.105 193.22C243.711 190.574 242.514 187.235 242.514 183.203C242.514 172.745 244.593 160.082 248.751 145.214C252.027 133.37 255.807 123.29 260.091 114.974C264.375 106.658 268.155 102.5 271.431 102.5C275.589 102.5 277.668 104.894 277.668 109.682C277.668 114.344 278.928 116.675 281.448 116.675C283.212 116.675 285.228 115.541 287.496 113.273C294.93 106.091 302.553 102.5 310.365 102.5C315.909 102.5 320.13 104.138 323.028 107.414C325.926 110.69 327.375 114.848 327.375 119.888C327.375 122.156 327.123 124.235 326.619 126.125C326.115 127.889 325.359 130.22 324.351 133.118C323.343 135.638 322.587 137.78 322.083 139.544C321.579 141.308 321.327 143.261 321.327 145.403C321.327 148.679 322.02 151.073 323.406 152.585C324.918 154.097 327.249 154.853 330.399 154.853C333.045 154.853 335.313 154.097 337.203 152.585C339.219 150.947 341.298 148.49 343.44 145.214C344.196 144.08 345.204 143.513 346.464 143.513C348.228 143.513 349.74 144.269 351 145.781C352.386 147.293 352.701 148.679 351.945 149.939L348.354 156.932C344.826 164.24 341.361 170.603 337.959 176.021C334.683 181.439 330.399 186.29 325.107 190.574C319.941 194.858 314.082 197 307.53 197C301.986 197 297.891 195.173 295.245 191.519C292.725 187.865 291.465 183.14 291.465 177.344C291.465 173.69 291.906 170.162 292.788 166.76C293.67 163.232 294.867 159.263 296.379 154.853C296.631 154.097 297.198 152.333 298.08 149.561C298.962 146.663 299.403 144.332 299.403 142.568C299.403 140.426 298.773 138.788 297.513 137.654C296.253 136.52 294.489 135.953 292.221 135.953C288.693 135.953 285.354 137.528 282.204 140.678C279.054 143.702 276.534 147.734 274.644 152.774C272.754 157.688 271.809 162.917 271.809 168.461V176.966C271.809 190.322 266.643 197 256.311 197ZM434.222 197.189C426.536 197.189 420.614 194.291 416.456 188.495C412.298 182.573 410.219 174.887 410.219 165.437C410.219 155.987 412.487 145.34 417.023 133.496C421.559 121.652 427.418 110.816 434.6 100.988C441.782 91.034 449.09 84.041 456.524 80.009C440.648 79.379 428.174 81.143 419.102 85.301C410.03 89.459 405.494 95.633 405.494 103.823C405.494 106.595 406.187 108.926 407.573 110.816C408.959 112.58 410.66 113.462 412.676 113.462C413.18 114.974 413.432 116.171 413.432 117.053C413.432 120.077 412.361 123.227 410.219 126.503C408.077 129.779 405.116 132.551 401.336 134.819C397.43 136.961 392.957 138.032 387.917 138.032C380.483 138.032 374.687 135.638 370.529 130.85C366.371 126.062 364.292 120.266 364.292 113.462C364.292 103.13 367.82 93.617 374.876 84.923C381.806 76.229 391.76 69.299 404.738 64.133C417.716 58.967 432.647 56.384 449.531 56.384C458.981 56.384 466.415 57.707 471.833 60.353C477.377 62.999 480.149 66.905 480.149 72.071C480.149 73.961 479.645 76.292 478.637 79.064C472.715 81.836 466.982 86.75 461.438 93.806C456.02 100.862 451.673 108.674 448.397 117.242C445.121 125.81 443.483 133.433 443.483 140.111C443.483 148.679 446.57 152.963 452.744 152.963C458.162 152.963 463.139 150.191 467.675 144.647C472.211 138.977 476.243 131.48 479.771 122.156C485.189 106.658 489.599 94.814 493.001 86.624C496.403 78.434 499.868 72.134 503.396 67.724C506.924 63.314 510.767 61.109 514.925 61.109C520.091 61.109 522.674 63.44 522.674 68.102C522.674 71.126 521.603 74.717 519.461 78.875C509.003 99.917 501.632 117.998 497.348 133.118C495.836 138.284 495.08 142.442 495.08 145.592C495.08 148.49 495.71 150.758 496.97 152.396C498.356 154.034 500.687 154.853 503.963 154.853C510.011 154.853 515.114 151.64 519.272 145.214C520.028 144.08 521.036 143.513 522.296 143.513C524.06 143.513 525.572 144.269 526.832 145.781C528.218 147.293 528.533 148.679 527.777 149.939L524.186 156.932C520.658 164.24 517.193 170.603 513.791 176.021C510.515 181.439 506.231 186.29 500.939 190.574C495.773 194.858 489.914 197 483.362 197C471.392 197 465.407 190.511 465.407 177.533C465.407 176.147 465.533 173.816 465.785 170.54C456.083 188.306 445.562 197.189 434.222 197.189ZM592.663 145.214C593.419 144.08 594.427 143.513 595.687 143.513C597.325 143.513 598.774 144.269 600.034 145.781C601.42 147.293 601.798 148.679 601.168 149.939C597.514 157.625 593.734 164.555 589.828 170.729C585.922 176.777 580.126 182.636 572.44 188.306C564.88 193.976 555.808 196.811 545.224 196.811C534.64 196.811 526.702 193.913 521.41 188.117C516.244 182.195 513.661 174.887 513.661 166.193C513.661 158.633 515.551 151.64 519.331 145.214L520.087 144.08C521.851 141.686 525.001 137.024 529.537 130.094C534.199 123.038 538.105 117.368 541.255 113.084C544.531 108.8 547.996 105.209 551.65 102.311C555.43 99.287 559.273 97.775 563.179 97.775C568.723 97.775 573.007 99.098 576.031 101.744C579.055 104.39 580.504 107.351 580.378 110.627C580.378 111.887 579.811 112.958 578.677 113.84C577.669 114.722 576.157 115.73 574.141 116.864C571.747 118.124 569.92 119.321 568.66 120.455C567.4 121.589 566.77 123.038 566.77 124.802C566.77 125.936 568.093 129.149 570.739 134.441C575.149 142.883 577.984 149.813 579.244 155.231C581.89 155.105 584.221 154.223 586.237 152.585C588.379 150.821 590.521 148.364 592.663 145.214ZM538.42 157.877C542.452 157.877 545.602 156.617 547.87 154.097C550.264 151.451 551.461 148.112 551.461 144.08C551.461 139.796 550.075 135.008 547.303 129.716C546.799 128.456 546.106 127.826 545.224 127.826C544.468 127.826 543.649 128.456 542.767 129.716C538.483 136.016 533.506 142.757 527.836 149.939C527.836 152.207 528.781 154.097 530.671 155.609C532.687 157.121 535.27 157.877 538.42 157.877Z"/>
</mask>
<path d="M40.051 204.938C27.451 204.938 17.686 201.725 10.756 195.299C3.952 188.747 0.55 180.368 0.55 170.162C0.55 165.122 1.558 160.334 3.574 155.798C5.464 151.262 8.173 147.608 11.701 144.836C15.229 141.938 19.261 140.489 23.797 140.489C24.553 140.489 25.183 140.741 25.687 141.245C26.317 141.623 26.632 142.127 26.632 142.757C26.632 147.419 28.585 151.262 32.491 154.286C36.523 157.184 41.437 158.633 47.233 158.633C54.037 158.633 60.904 155.924 67.834 150.506C74.89 145.088 80.434 137.024 84.466 126.314C90.514 110.312 95.869 97.082 100.531 86.624C98.011 86.12 95.239 85.868 92.215 85.868C84.907 85.868 78.859 87.821 74.071 91.727C69.409 95.507 67.078 100.799 67.078 107.603C67.078 110.375 67.771 112.706 69.157 114.596C70.543 116.36 72.244 117.242 74.26 117.242C74.764 118.754 75.016 119.951 75.016 120.833C75.016 123.857 73.945 127.007 71.803 130.283C69.661 133.559 66.637 136.331 62.731 138.599C58.951 140.741 54.541 141.812 49.501 141.812C42.067 141.812 36.271 139.418 32.113 134.63C27.955 129.842 25.876 124.046 25.876 117.242C25.876 106.28 28.837 96.137 34.759 86.813C40.681 77.489 48.997 70.118 59.707 64.7C70.417 59.156 82.639 56.384 96.373 56.384C114.391 56.384 123.4 62.432 123.4 74.528C123.4 78.938 122.392 83.789 120.376 89.081C119.116 92.987 115.336 104.012 109.036 122.156L100.531 147.104C93.727 167.39 85.474 182.132 75.772 191.33C66.07 200.402 54.163 204.938 40.051 204.938ZM202.318 145.214C202.822 144.332 203.767 143.891 205.153 143.891C206.917 143.891 208.492 144.521 209.878 145.781C211.264 147.041 211.579 148.427 210.823 149.939C207.295 157.373 202.948 163.547 197.782 168.461C192.616 173.375 185.938 175.832 177.748 175.832H175.48C170.692 182.384 165.022 187.55 158.47 191.33C152.044 195.11 145.366 197 138.436 197C129.742 197 122.686 194.165 117.268 188.495C111.85 182.699 109.141 174.95 109.141 165.248C109.141 155.672 111.409 146.033 115.945 136.331C120.607 126.503 126.907 118.439 134.845 112.139C142.783 105.713 151.54 102.5 161.116 102.5C169.432 102.5 176.11 105.146 181.15 110.438C186.19 115.604 188.71 123.794 188.71 135.008C188.71 141.686 187.765 148.175 185.875 154.475H187.198C192.994 154.475 198.034 151.388 202.318 145.214ZM149.209 157.877C152.233 157.877 154.942 156.995 157.336 155.231C159.856 153.341 161.809 151.01 163.195 148.238C164.581 145.466 165.274 142.757 165.274 140.111C165.274 137.213 164.392 134.819 162.628 132.929C160.99 131.039 158.407 130.094 154.879 130.094C150.469 130.094 146.752 131.921 143.728 135.575C140.83 139.229 139.381 143.261 139.381 147.671C139.381 150.695 140.137 153.152 141.649 155.042C143.287 156.932 145.807 157.877 149.209 157.877ZM235.882 94.751C230.842 94.751 226.81 93.68 223.786 91.538C220.762 89.396 219.25 85.994 219.25 81.332C219.25 69.74 225.55 63.944 238.15 63.944C249.994 63.944 255.475 69.047 254.593 79.253C253.585 89.585 247.348 94.751 235.882 94.751ZM214.903 197C208.855 197 204.445 194.858 201.673 190.574C198.901 186.29 197.515 180.557 197.515 173.375C197.515 164.681 199.09 155.294 202.24 145.214C206.902 130.598 211.312 119.825 215.47 112.895C219.628 105.965 224.29 102.5 229.456 102.5C233.74 102.5 235.882 105.335 235.882 111.005C235.882 113.651 235.504 116.36 234.748 119.132C233.992 121.904 232.858 125.243 231.346 129.149C231.094 129.779 230.59 131.291 229.834 133.685C229.078 136.079 228.448 138.221 227.944 140.111C227.566 142.001 227.377 143.702 227.377 145.214C227.377 148.238 228.133 150.569 229.645 152.207C231.157 153.845 233.236 154.664 235.882 154.664C238.528 154.664 240.796 153.908 242.686 152.396C244.702 150.758 246.781 148.364 248.923 145.214C249.679 144.08 250.687 143.513 251.947 143.513C253.585 143.513 255.034 144.269 256.294 145.781C257.68 147.167 258.058 148.49 257.428 149.75C256.294 151.64 254.971 154.286 253.459 157.688C249.931 164.996 246.592 171.296 243.442 176.588C240.292 181.88 236.26 186.605 231.346 190.763C226.432 194.921 220.951 197 214.903 197ZM256.311 197C252.027 197 248.625 195.74 246.105 193.22C243.711 190.574 242.514 187.235 242.514 183.203C242.514 172.745 244.593 160.082 248.751 145.214C252.027 133.37 255.807 123.29 260.091 114.974C264.375 106.658 268.155 102.5 271.431 102.5C275.589 102.5 277.668 104.894 277.668 109.682C277.668 114.344 278.928 116.675 281.448 116.675C283.212 116.675 285.228 115.541 287.496 113.273C294.93 106.091 302.553 102.5 310.365 102.5C315.909 102.5 320.13 104.138 323.028 107.414C325.926 110.69 327.375 114.848 327.375 119.888C327.375 122.156 327.123 124.235 326.619 126.125C326.115 127.889 325.359 130.22 324.351 133.118C323.343 135.638 322.587 137.78 322.083 139.544C321.579 141.308 321.327 143.261 321.327 145.403C321.327 148.679 322.02 151.073 323.406 152.585C324.918 154.097 327.249 154.853 330.399 154.853C333.045 154.853 335.313 154.097 337.203 152.585C339.219 150.947 341.298 148.49 343.44 145.214C344.196 144.08 345.204 143.513 346.464 143.513C348.228 143.513 349.74 144.269 351 145.781C352.386 147.293 352.701 148.679 351.945 149.939L348.354 156.932C344.826 164.24 341.361 170.603 337.959 176.021C334.683 181.439 330.399 186.29 325.107 190.574C319.941 194.858 314.082 197 307.53 197C301.986 197 297.891 195.173 295.245 191.519C292.725 187.865 291.465 183.14 291.465 177.344C291.465 173.69 291.906 170.162 292.788 166.76C293.67 163.232 294.867 159.263 296.379 154.853C296.631 154.097 297.198 152.333 298.08 149.561C298.962 146.663 299.403 144.332 299.403 142.568C299.403 140.426 298.773 138.788 297.513 137.654C296.253 136.52 294.489 135.953 292.221 135.953C288.693 135.953 285.354 137.528 282.204 140.678C279.054 143.702 276.534 147.734 274.644 152.774C272.754 157.688 271.809 162.917 271.809 168.461V176.966C271.809 190.322 266.643 197 256.311 197ZM434.222 197.189C426.536 197.189 420.614 194.291 416.456 188.495C412.298 182.573 410.219 174.887 410.219 165.437C410.219 155.987 412.487 145.34 417.023 133.496C421.559 121.652 427.418 110.816 434.6 100.988C441.782 91.034 449.09 84.041 456.524 80.009C440.648 79.379 428.174 81.143 419.102 85.301C410.03 89.459 405.494 95.633 405.494 103.823C405.494 106.595 406.187 108.926 407.573 110.816C408.959 112.58 410.66 113.462 412.676 113.462C413.18 114.974 413.432 116.171 413.432 117.053C413.432 120.077 412.361 123.227 410.219 126.503C408.077 129.779 405.116 132.551 401.336 134.819C397.43 136.961 392.957 138.032 387.917 138.032C380.483 138.032 374.687 135.638 370.529 130.85C366.371 126.062 364.292 120.266 364.292 113.462C364.292 103.13 367.82 93.617 374.876 84.923C381.806 76.229 391.76 69.299 404.738 64.133C417.716 58.967 432.647 56.384 449.531 56.384C458.981 56.384 466.415 57.707 471.833 60.353C477.377 62.999 480.149 66.905 480.149 72.071C480.149 73.961 479.645 76.292 478.637 79.064C472.715 81.836 466.982 86.75 461.438 93.806C456.02 100.862 451.673 108.674 448.397 117.242C445.121 125.81 443.483 133.433 443.483 140.111C443.483 148.679 446.57 152.963 452.744 152.963C458.162 152.963 463.139 150.191 467.675 144.647C472.211 138.977 476.243 131.48 479.771 122.156C485.189 106.658 489.599 94.814 493.001 86.624C496.403 78.434 499.868 72.134 503.396 67.724C506.924 63.314 510.767 61.109 514.925 61.109C520.091 61.109 522.674 63.44 522.674 68.102C522.674 71.126 521.603 74.717 519.461 78.875C509.003 99.917 501.632 117.998 497.348 133.118C495.836 138.284 495.08 142.442 495.08 145.592C495.08 148.49 495.71 150.758 496.97 152.396C498.356 154.034 500.687 154.853 503.963 154.853C510.011 154.853 515.114 151.64 519.272 145.214C520.028 144.08 521.036 143.513 522.296 143.513C524.06 143.513 525.572 144.269 526.832 145.781C528.218 147.293 528.533 148.679 527.777 149.939L524.186 156.932C520.658 164.24 517.193 170.603 513.791 176.021C510.515 181.439 506.231 186.29 500.939 190.574C495.773 194.858 489.914 197 483.362 197C471.392 197 465.407 190.511 465.407 177.533C465.407 176.147 465.533 173.816 465.785 170.54C456.083 188.306 445.562 197.189 434.222 197.189ZM592.663 145.214C593.419 144.08 594.427 143.513 595.687 143.513C597.325 143.513 598.774 144.269 600.034 145.781C601.42 147.293 601.798 148.679 601.168 149.939C597.514 157.625 593.734 164.555 589.828 170.729C585.922 176.777 580.126 182.636 572.44 188.306C564.88 193.976 555.808 196.811 545.224 196.811C534.64 196.811 526.702 193.913 521.41 188.117C516.244 182.195 513.661 174.887 513.661 166.193C513.661 158.633 515.551 151.64 519.331 145.214L520.087 144.08C521.851 141.686 525.001 137.024 529.537 130.094C534.199 123.038 538.105 117.368 541.255 113.084C544.531 108.8 547.996 105.209 551.65 102.311C555.43 99.287 559.273 97.775 563.179 97.775C568.723 97.775 573.007 99.098 576.031 101.744C579.055 104.39 580.504 107.351 580.378 110.627C580.378 111.887 579.811 112.958 578.677 113.84C577.669 114.722 576.157 115.73 574.141 116.864C571.747 118.124 569.92 119.321 568.66 120.455C567.4 121.589 566.77 123.038 566.77 124.802C566.77 125.936 568.093 129.149 570.739 134.441C575.149 142.883 577.984 149.813 579.244 155.231C581.89 155.105 584.221 154.223 586.237 152.585C588.379 150.821 590.521 148.364 592.663 145.214ZM538.42 157.877C542.452 157.877 545.602 156.617 547.87 154.097C550.264 151.451 551.461 148.112 551.461 144.08C551.461 139.796 550.075 135.008 547.303 129.716C546.799 128.456 546.106 127.826 545.224 127.826C544.468 127.826 543.649 128.456 542.767 129.716C538.483 136.016 533.506 142.757 527.836 149.939C527.836 152.207 528.781 154.097 530.671 155.609C532.687 157.121 535.27 157.877 538.42 157.877Z" fill="white" fill-opacity="0.9"/>
<path d="M10.756 195.299L10.0624 196.019L10.0691 196.026L10.0761 196.032L10.756 195.299ZM3.574 155.798L4.48781 156.204L4.49257 156.193L4.49708 156.183L3.574 155.798ZM11.701 144.836L12.3188 145.622L12.3274 145.616L12.3357 145.609L11.701 144.836ZM25.687 141.245L24.9799 141.952L25.0669 142.039L25.1725 142.102L25.687 141.245ZM32.491 154.286L31.8788 155.077L31.8929 155.088L31.9074 155.098L32.491 154.286ZM67.834 150.506L67.225 149.713L67.2181 149.718L67.834 150.506ZM84.466 126.314L83.5306 125.96L83.5301 125.962L84.466 126.314ZM100.531 86.624L101.444 87.0311L101.954 85.8887L100.727 85.6434L100.531 86.624ZM74.071 91.727L74.7008 92.5038L74.7031 92.5019L74.071 91.727ZM69.157 114.596L68.3506 115.187L68.3604 115.201L68.3707 115.214L69.157 114.596ZM74.26 117.242L75.2087 116.926L74.9808 116.242H74.26V117.242ZM71.803 130.283L72.64 130.83L72.64 130.83L71.803 130.283ZM62.731 138.599L63.224 139.469L63.2331 139.464L62.731 138.599ZM32.113 134.63L31.358 135.286L31.358 135.286L32.113 134.63ZM34.759 86.813L35.6031 87.3491L35.6031 87.3491L34.759 86.813ZM59.707 64.7L60.1584 65.5923L60.1667 65.5881L59.707 64.7ZM120.376 89.081L119.442 88.725L119.432 88.7493L119.424 88.774L120.376 89.081ZM109.036 122.156L108.091 121.828L108.089 121.833L109.036 122.156ZM100.531 147.104L99.5845 146.781L99.5829 146.786L100.531 147.104ZM75.772 191.33L76.455 192.06L76.46 192.056L75.772 191.33ZM40.051 203.938C27.6173 203.938 18.1265 200.77 11.4359 194.566L10.0761 196.032C17.2455 202.68 27.2847 205.938 40.051 205.938V203.938ZM11.4496 194.579C4.85823 188.231 1.55 180.121 1.55 170.162H-0.45C-0.45 180.615 3.04577 189.263 10.0624 196.019L11.4496 194.579ZM1.55 170.162C1.55 165.26 2.52953 160.61 4.48781 156.204L2.66019 155.392C0.586471 160.058 -0.45 164.984 -0.45 170.162H1.55ZM4.49708 156.183C6.32775 151.789 8.93778 148.279 12.3188 145.622L11.0832 144.05C7.40822 146.937 4.60025 150.735 2.65092 155.413L4.49708 156.183ZM12.3357 145.609C15.6861 142.857 19.4942 141.489 23.797 141.489V139.489C19.0278 139.489 14.7719 141.019 11.0663 144.063L12.3357 145.609ZM23.797 141.489C24.3056 141.489 24.6757 141.648 24.9799 141.952L26.3941 140.538C25.6903 139.834 24.8004 139.489 23.797 139.489V141.489ZM25.1725 142.102C25.5605 142.335 25.632 142.542 25.632 142.757H27.632C27.632 141.712 27.0735 140.911 26.2015 140.388L25.1725 142.102ZM25.632 142.757C25.632 147.749 27.7451 151.876 31.8788 155.077L33.1032 153.495C29.4249 150.648 27.632 147.089 27.632 142.757H25.632ZM31.9074 155.098C36.1366 158.138 41.2637 159.633 47.233 159.633V157.633C41.6103 157.633 36.9094 156.23 33.0746 153.474L31.9074 155.098ZM47.233 159.633C54.3183 159.633 61.396 156.809 68.4499 151.294L67.2181 149.718C60.412 155.039 53.7557 157.633 47.233 157.633V159.633ZM68.443 151.299C75.6838 145.739 81.3227 137.502 85.4019 126.666L83.5301 125.962C79.5453 136.546 74.0962 144.437 67.225 149.713L68.443 151.299ZM85.4014 126.668C91.4456 110.676 96.793 97.4652 101.444 87.0311L99.6176 86.2168C94.945 96.6988 89.5824 109.948 83.5306 125.96L85.4014 126.668ZM100.727 85.6434C98.1324 85.1245 95.2936 84.868 92.215 84.868V86.868C95.1844 86.868 97.8896 87.1155 100.335 87.6046L100.727 85.6434ZM92.215 84.868C84.7206 84.868 78.4367 86.875 73.4389 90.9521L74.7031 92.5019C79.2813 88.767 85.0934 86.868 92.215 86.868V84.868ZM73.4412 90.9502C68.5119 94.947 66.078 100.543 66.078 107.603H68.078C68.078 101.055 70.3061 96.067 74.7008 92.5037L73.4412 90.9502ZM66.078 107.603C66.078 110.548 66.817 113.096 68.3506 115.187L69.9634 114.005C68.725 112.316 68.078 110.202 68.078 107.603H66.078ZM68.3707 115.214C69.9219 117.188 71.8997 118.242 74.26 118.242V116.242C72.5883 116.242 71.1641 115.532 69.9433 113.978L68.3707 115.214ZM73.3113 117.558C73.8041 119.037 74.016 120.112 74.016 120.833H76.016C76.016 119.79 75.7239 118.471 75.2087 116.926L73.3113 117.558ZM74.016 120.833C74.016 123.613 73.0326 126.575 70.966 129.736L72.64 130.83C74.8574 127.439 76.016 124.101 76.016 120.833H74.016ZM70.966 129.736C68.9216 132.863 66.0208 135.532 62.2289 137.734L63.2331 139.464C67.2532 137.13 70.4004 134.255 72.64 130.83L70.966 129.736ZM62.238 137.729C58.6309 139.773 54.3961 140.812 49.501 140.812V142.812C54.6859 142.812 59.2711 141.709 63.224 139.469L62.238 137.729ZM49.501 140.812C42.3016 140.812 36.8028 138.505 32.868 133.974L31.358 135.286C35.7393 140.331 41.8324 142.812 49.501 142.812V140.812ZM32.868 133.974C28.8801 129.382 26.876 123.824 26.876 117.242H24.876C24.876 124.268 27.0299 130.302 31.358 135.286L32.868 133.974ZM26.876 117.242C26.876 106.471 29.7821 96.5141 35.6031 87.3491L33.9149 86.2769C27.8919 95.7599 24.876 106.089 24.876 117.242H26.876ZM35.6031 87.3491C41.4204 78.1901 49.5946 70.9364 60.1584 65.5923L59.2556 63.8077C48.3994 69.2996 39.9416 76.7879 33.9149 86.2769L35.6031 87.3491ZM60.1667 65.5881C70.716 60.1273 82.7766 57.384 96.373 57.384V55.384C82.5014 55.384 70.118 58.1847 59.2473 63.8119L60.1667 65.5881ZM96.373 57.384C105.302 57.384 111.823 58.8882 116.086 61.7503C120.278 64.5648 122.4 68.7683 122.4 74.528H124.4C124.4 68.1917 122.017 63.3232 117.201 60.0897C112.455 56.9038 105.462 55.384 96.373 55.384V57.384ZM122.4 74.528C122.4 78.7872 121.426 83.5159 119.442 88.725L121.31 89.437C123.358 84.0621 124.4 79.0888 124.4 74.528H122.4ZM119.424 88.774C118.169 92.6668 114.393 103.679 108.091 121.828L109.981 122.484C116.279 104.345 120.063 93.3072 121.328 89.388L119.424 88.774ZM108.089 121.833L99.5845 146.781L101.478 147.427L109.983 122.479L108.089 121.833ZM99.5829 146.786C92.8029 167 84.6166 181.567 75.084 190.604L76.46 192.056C86.3314 182.697 94.6511 167.78 101.479 147.422L99.5829 146.786ZM75.089 190.6C65.5846 199.487 53.9268 203.938 40.051 203.938V205.938C54.3992 205.938 66.5554 201.317 76.455 192.06L75.089 190.6ZM202.318 145.214L203.139 145.784L203.164 145.748L203.186 145.71L202.318 145.214ZM209.878 145.781L210.551 145.041L210.551 145.041L209.878 145.781ZM210.823 149.939L209.928 149.492L209.924 149.501L209.919 149.51L210.823 149.939ZM175.48 175.832V174.832H174.972L174.672 175.242L175.48 175.832ZM158.47 191.33L157.97 190.464L157.963 190.468L158.47 191.33ZM117.268 188.495L116.537 189.178L116.545 189.186L117.268 188.495ZM115.945 136.331L115.041 135.902L115.039 135.907L115.945 136.331ZM134.845 112.139L135.467 112.922L135.474 112.916L134.845 112.139ZM181.15 110.438L180.426 111.128L180.434 111.136L181.15 110.438ZM185.875 154.475L184.917 154.188L184.531 155.475H185.875V154.475ZM157.336 155.231L157.929 156.036L157.936 156.031L157.336 155.231ZM163.195 148.238L164.089 148.685L164.089 148.685L163.195 148.238ZM162.628 132.929L161.872 133.584L161.884 133.598L161.897 133.611L162.628 132.929ZM143.728 135.575L142.957 134.937L142.951 134.945L142.944 134.954L143.728 135.575ZM141.649 155.042L140.868 155.667L140.88 155.682L140.893 155.697L141.649 155.042ZM203.186 145.71C203.449 145.25 203.978 144.891 205.153 144.891V142.891C203.556 142.891 202.195 143.414 201.45 144.718L203.186 145.71ZM205.153 144.891C206.652 144.891 207.991 145.417 209.205 146.521L210.551 145.041C208.993 143.625 207.182 142.891 205.153 142.891V144.891ZM209.205 146.521C209.794 147.056 210.079 147.548 210.178 147.987C210.275 148.414 210.223 148.902 209.928 149.492L211.717 150.386C212.178 149.464 212.347 148.503 212.129 147.544C211.913 146.597 211.347 145.765 210.551 145.041L209.205 146.521ZM209.919 149.51C206.436 156.85 202.157 162.919 197.093 167.736L198.471 169.186C203.739 164.175 208.154 157.896 211.726 150.368L209.919 149.51ZM197.093 167.736C192.14 172.447 185.722 174.832 177.748 174.832V176.832C186.153 176.832 193.091 174.303 198.471 169.186L197.093 167.736ZM177.748 174.832H175.48V176.832H177.748V174.832ZM174.672 175.242C169.961 181.69 164.393 186.758 157.97 190.464L158.97 192.196C165.651 188.342 171.423 183.078 176.287 176.422L174.672 175.242ZM157.963 190.468C151.678 194.165 145.174 196 138.436 196V198C145.558 198 152.409 196.055 158.977 192.192L157.963 190.468ZM138.436 196C129.982 196 123.199 193.254 117.991 187.804L116.545 189.186C122.173 195.076 129.501 198 138.436 198V196ZM117.998 187.812C112.79 182.241 110.141 174.756 110.141 165.248H108.141C108.141 175.144 110.909 183.157 116.537 189.178L117.998 187.812ZM110.141 165.248C110.141 155.835 112.369 146.34 116.851 136.755L115.039 135.907C110.448 145.726 108.141 155.509 108.141 165.248H110.141ZM116.848 136.76C121.45 127.059 127.657 119.12 135.466 112.922L134.223 111.356C126.157 117.758 119.764 125.947 115.041 135.902L116.848 136.76ZM135.474 112.916C143.247 106.624 151.785 103.5 161.116 103.5V101.5C151.295 101.5 142.319 104.802 134.216 111.362L135.474 112.916ZM161.116 103.5C169.2 103.5 175.601 106.062 180.426 111.128L181.874 109.748C176.618 104.23 169.664 101.5 161.116 101.5V103.5ZM180.434 111.136C185.213 116.035 187.71 123.915 187.71 135.008H189.71C189.71 123.673 187.167 115.173 181.866 109.74L180.434 111.136ZM187.71 135.008C187.71 141.59 186.779 147.982 184.917 154.188L186.833 154.762C188.751 148.368 189.71 141.782 189.71 135.008H187.71ZM185.875 155.475H187.198V153.475H185.875V155.475ZM187.198 155.475C193.417 155.475 198.73 152.139 203.139 145.784L201.496 144.644C197.338 150.637 192.571 153.475 187.198 153.475V155.475ZM149.209 158.877C152.442 158.877 155.36 157.929 157.929 156.036L156.743 154.426C154.524 156.061 152.023 156.877 149.209 156.877V158.877ZM157.936 156.031C160.578 154.049 162.633 151.598 164.089 148.685L162.3 147.791C160.985 150.422 159.134 152.633 156.736 154.431L157.936 156.031ZM164.089 148.685C165.533 145.798 166.274 142.937 166.274 140.111H164.274C164.274 142.577 163.629 145.134 162.3 147.791L164.089 148.685ZM166.274 140.111C166.274 136.993 165.317 134.345 163.359 132.247L161.897 133.611C163.467 135.293 164.274 137.433 164.274 140.111H166.274ZM163.384 132.274C161.487 130.086 158.574 129.094 154.879 129.094V131.094C158.24 131.094 160.492 131.992 161.872 133.584L163.384 132.274ZM154.879 129.094C150.146 129.094 146.155 131.074 142.957 134.937L144.498 136.213C147.349 132.768 150.792 131.094 154.879 131.094V129.094ZM142.944 134.954C139.915 138.773 138.381 143.022 138.381 147.671H140.381C140.381 143.5 141.745 139.685 144.511 136.196L142.944 134.954ZM138.381 147.671C138.381 150.864 139.182 153.559 140.868 155.667L142.43 154.417C141.092 152.745 140.381 150.526 140.381 147.671H138.381ZM140.893 155.697C142.783 157.877 145.626 158.877 149.209 158.877V156.877C145.987 156.877 143.791 155.987 142.405 154.387L140.893 155.697ZM254.593 79.253L255.588 79.3501L255.589 79.3391L254.593 79.253ZM201.673 190.574L200.833 191.117L201.673 190.574ZM202.24 145.214L201.287 144.91L201.285 144.916L202.24 145.214ZM215.47 112.895L214.612 112.38L214.612 112.381L215.47 112.895ZM234.748 119.132L233.783 118.869L233.783 118.869L234.748 119.132ZM231.346 129.149L232.274 129.52L232.278 129.51L231.346 129.149ZM229.834 133.685L230.787 133.986L230.787 133.986L229.834 133.685ZM227.944 140.111L226.977 139.853L226.969 139.884L226.963 139.915L227.944 140.111ZM229.645 152.207L230.379 151.529L230.379 151.529L229.645 152.207ZM242.686 152.396L243.31 153.177L243.316 153.172L242.686 152.396ZM248.923 145.214L249.75 145.776L249.755 145.769L248.923 145.214ZM256.294 145.781L255.525 146.421L255.554 146.456L255.586 146.488L256.294 145.781ZM257.428 149.75L258.285 150.264L258.305 150.232L258.322 150.197L257.428 149.75ZM253.459 157.688L254.359 158.123L254.366 158.109L254.372 158.094L253.459 157.688ZM243.442 176.588L244.301 177.099L244.301 177.099L243.442 176.588ZM231.346 190.763L230.7 190L230.7 190L231.346 190.763ZM235.882 93.751C230.976 93.751 227.167 92.708 224.364 90.722L223.208 92.354C226.452 94.6519 230.708 95.751 235.882 95.751V93.751ZM224.364 90.722C221.672 88.8157 220.25 85.7632 220.25 81.332H218.25C218.25 86.2247 219.851 89.9763 223.208 92.354L224.364 90.722ZM220.25 81.332C220.25 75.7126 221.773 71.6755 224.652 69.0269C227.546 66.3638 231.984 64.944 238.15 64.944V62.944C231.715 62.944 226.703 64.4222 223.298 67.5551C219.876 70.7025 218.25 75.3594 218.25 81.332H220.25ZM238.15 64.944C243.959 64.944 247.989 66.2005 250.462 68.5031C252.902 70.7745 254.021 74.2502 253.596 79.1669L255.589 79.3391C256.046 74.0498 254.866 69.871 251.825 67.0393C248.817 64.239 244.184 62.944 238.15 62.944V64.944ZM253.597 79.1559C253.111 84.1366 251.383 87.7356 248.521 90.1064C245.644 92.4896 241.477 93.751 235.882 93.751V95.751C241.752 95.751 246.437 94.4294 249.797 91.6466C253.171 88.8514 255.066 84.7014 255.588 79.3501L253.597 79.1559ZM214.903 196C209.121 196 205.063 193.974 202.512 190.031L200.833 191.117C203.826 195.742 208.588 198 214.903 198V196ZM202.512 190.031C199.879 185.962 198.515 180.44 198.515 173.375H196.515C196.515 180.674 197.922 186.618 200.833 191.117L202.512 190.031ZM198.515 173.375C198.515 164.801 200.068 155.516 203.194 145.512L201.285 144.916C198.111 155.072 196.515 164.561 196.515 173.375H198.515ZM203.192 145.518C207.848 130.922 212.23 120.238 216.327 113.409L214.612 112.381C210.393 119.412 205.955 130.274 201.287 144.91L203.192 145.518ZM216.327 113.409C220.413 106.6 224.81 103.5 229.456 103.5V101.5C223.77 101.5 218.843 105.33 214.612 112.38L216.327 113.409ZM229.456 103.5C231.356 103.5 232.635 104.114 233.477 105.229C234.359 106.397 234.882 108.267 234.882 111.005H236.882C236.882 108.073 236.333 105.691 235.073 104.023C233.773 102.303 231.839 101.5 229.456 101.5V103.5ZM234.882 111.005C234.882 113.555 234.517 116.175 233.783 118.869L235.712 119.395C236.49 116.545 236.882 113.747 236.882 111.005H234.882ZM233.783 118.869C233.039 121.596 231.918 124.901 230.413 128.788L232.278 129.51C233.797 125.585 234.944 122.211 235.712 119.395L233.783 118.869ZM230.417 128.778C230.148 129.45 229.632 131.001 228.88 133.384L230.787 133.986C231.547 131.581 232.039 130.108 232.274 129.52L230.417 128.778ZM228.88 133.384C228.121 135.788 227.486 137.945 226.977 139.853L228.91 140.369C229.409 138.497 230.035 136.37 230.787 133.986L228.88 133.384ZM226.963 139.915C226.575 141.853 226.377 143.621 226.377 145.214H228.377C228.377 143.783 228.556 142.149 228.924 140.307L226.963 139.915ZM226.377 145.214C226.377 148.398 227.174 151.005 228.91 152.885L230.379 151.529C229.091 150.133 228.377 148.078 228.377 145.214H226.377ZM228.91 152.885C230.646 154.767 233.013 155.664 235.882 155.664V153.664C233.458 153.664 231.667 152.923 230.379 151.529L228.91 152.885ZM235.882 155.664C238.732 155.664 241.226 154.844 243.31 153.177L242.061 151.615C240.365 152.972 238.323 153.664 235.882 153.664V155.664ZM243.316 153.172C245.434 151.451 247.576 148.973 249.75 145.776L248.096 144.652C245.985 147.755 243.969 150.065 242.055 151.62L243.316 153.172ZM249.755 145.769C250.343 144.886 251.052 144.513 251.947 144.513V142.513C250.321 142.513 249.014 143.274 248.091 144.659L249.755 145.769ZM251.947 144.513C253.228 144.513 254.413 145.086 255.525 146.421L257.062 145.141C255.654 143.451 253.942 142.513 251.947 142.513V144.513ZM255.586 146.488C256.207 147.109 256.528 147.644 256.655 148.087C256.774 148.502 256.739 148.891 256.533 149.303L258.322 150.197C258.746 149.349 258.838 148.446 258.578 147.538C258.327 146.658 257.766 145.839 257.001 145.074L255.586 146.488ZM256.57 149.236C255.406 151.176 254.064 153.864 252.545 157.282L254.372 158.094C255.877 154.708 257.181 152.104 258.285 150.264L256.57 149.236ZM252.558 157.253C249.039 164.543 245.714 170.816 242.582 176.077L244.301 177.099C247.47 171.776 250.822 165.449 254.359 158.123L252.558 157.253ZM242.582 176.077C239.491 181.269 235.533 185.91 230.7 190L231.992 191.526C236.986 187.3 241.092 182.491 244.301 177.099L242.582 176.077ZM230.7 190C225.954 194.015 220.698 196 214.903 196V198C221.203 198 226.91 195.827 231.992 191.526L230.7 190ZM246.105 193.22L245.364 193.891L245.381 193.909L245.398 193.927L246.105 193.22ZM248.751 145.214L249.714 145.483L249.715 145.481L248.751 145.214ZM287.496 113.273L286.801 112.554L286.795 112.56L286.789 112.566L287.496 113.273ZM323.028 107.414L323.777 106.751L323.777 106.751L323.028 107.414ZM326.619 126.125L327.581 126.4L327.583 126.391L327.586 126.383L326.619 126.125ZM324.351 133.118L325.28 133.489L325.288 133.468L325.296 133.447L324.351 133.118ZM323.406 152.585L322.669 153.261L322.684 153.277L322.699 153.292L323.406 152.585ZM337.203 152.585L337.828 153.366L337.834 153.361L337.203 152.585ZM343.44 145.214L342.608 144.659L342.603 144.667L343.44 145.214ZM351 145.781L350.232 146.421L350.247 146.439L350.263 146.457L351 145.781ZM351.945 149.939L351.088 149.424L351.071 149.453L351.056 149.482L351.945 149.939ZM348.354 156.932L347.465 156.475L347.459 156.486L347.454 156.497L348.354 156.932ZM337.959 176.021L337.112 175.489L337.108 175.496L337.104 175.504L337.959 176.021ZM325.107 190.574L324.478 189.797L324.469 189.804L325.107 190.574ZM295.245 191.519L294.422 192.087L294.429 192.096L294.435 192.106L295.245 191.519ZM292.788 166.76L293.756 167.011L293.758 167.003L292.788 166.76ZM296.379 154.853L297.325 155.177L297.328 155.169L296.379 154.853ZM298.08 149.561L299.033 149.864L299.037 149.852L298.08 149.561ZM282.204 140.678L282.897 141.399L282.904 141.392L282.911 141.385L282.204 140.678ZM274.644 152.774L275.578 153.133L275.581 153.125L274.644 152.774ZM256.311 196C252.235 196 249.108 194.808 246.812 192.513L245.398 193.927C248.143 196.672 251.819 198 256.311 198V196ZM246.847 192.549C244.641 190.111 243.514 187.022 243.514 183.203H241.514C241.514 187.448 242.782 191.037 245.364 193.891L246.847 192.549ZM243.514 183.203C243.514 172.868 245.57 160.301 249.714 145.483L247.788 144.945C243.616 159.863 241.514 172.622 241.514 183.203H243.514ZM249.715 145.481C252.978 133.683 256.736 123.671 260.98 115.432L259.202 114.516C254.879 122.909 251.076 133.057 247.787 144.947L249.715 145.481ZM260.98 115.432C263.105 111.308 265.074 108.277 266.879 106.291C268.708 104.279 270.222 103.5 271.431 103.5V101.5C269.365 101.5 267.35 102.8 265.399 104.946C263.424 107.118 261.362 110.324 259.202 114.516L260.98 115.432ZM271.431 103.5C273.317 103.5 274.559 104.036 275.354 104.951C276.172 105.893 276.668 107.41 276.668 109.682H278.668C278.668 107.166 278.125 105.092 276.864 103.64C275.58 102.161 273.704 101.5 271.431 101.5V103.5ZM276.668 109.682C276.668 112.07 276.985 114.018 277.734 115.402C278.116 116.109 278.622 116.689 279.27 117.089C279.92 117.49 280.659 117.675 281.448 117.675V115.675C280.978 115.675 280.614 115.568 280.319 115.387C280.023 115.204 279.741 114.91 279.493 114.451C278.981 113.504 278.668 111.956 278.668 109.682H276.668ZM281.448 117.675C283.625 117.675 285.887 116.296 288.203 113.98L286.789 112.566C284.569 114.786 282.8 115.675 281.448 115.675V117.675ZM288.191 113.992C295.501 106.93 302.888 103.5 310.365 103.5V101.5C302.219 101.5 294.36 105.252 286.801 112.554L288.191 113.992ZM310.365 103.5C315.705 103.5 319.62 105.07 322.279 108.077L323.777 106.751C320.641 103.206 316.114 101.5 310.365 101.5V103.5ZM322.279 108.077C324.991 111.142 326.375 115.053 326.375 119.888H328.375C328.375 114.643 326.861 110.238 323.777 106.751L322.279 108.077ZM326.375 119.888C326.375 122.083 326.131 124.073 325.653 125.867L327.586 126.383C328.115 124.396 328.375 122.229 328.375 119.888H326.375ZM325.658 125.85C325.161 127.588 324.412 129.899 323.407 132.789L325.296 133.447C326.306 130.541 327.069 128.19 327.581 126.4L325.658 125.85ZM323.423 132.747C322.408 135.285 321.638 137.461 321.122 139.269L323.045 139.819C323.536 138.099 324.279 135.991 325.28 133.489L323.423 132.747ZM321.122 139.269C320.588 141.136 320.327 143.183 320.327 145.403H322.327C322.327 143.339 322.57 141.48 323.045 139.819L321.122 139.269ZM320.327 145.403C320.327 148.787 321.038 151.481 322.669 153.261L324.143 151.909C323.003 150.665 322.327 148.571 322.327 145.403H320.327ZM322.699 153.292C324.472 155.065 327.109 155.853 330.399 155.853V153.853C327.39 153.853 325.365 153.129 324.113 151.878L322.699 153.292ZM330.399 155.853C333.25 155.853 335.744 155.033 337.828 153.366L336.579 151.804C334.883 153.161 332.841 153.853 330.399 153.853V155.853ZM337.834 153.361C339.96 151.634 342.104 149.085 344.277 145.761L342.603 144.667C340.492 147.895 338.479 150.26 336.573 151.809L337.834 153.361ZM344.272 145.769C344.861 144.886 345.57 144.513 346.464 144.513V142.513C344.839 142.513 343.532 143.274 342.608 144.659L344.272 145.769ZM346.464 144.513C347.895 144.513 349.137 145.107 350.232 146.421L351.769 145.141C350.343 143.431 348.562 142.513 346.464 142.513V144.513ZM350.263 146.457C350.888 147.138 351.195 147.711 351.301 148.176C351.399 148.608 351.338 149.007 351.088 149.424L352.803 150.453C353.308 149.611 353.468 148.687 353.251 147.733C353.042 146.812 352.499 145.936 351.737 145.105L350.263 146.457ZM351.056 149.482L347.465 156.475L349.244 157.389L352.835 150.396L351.056 149.482ZM347.454 156.497C343.938 163.78 340.49 170.11 337.112 175.489L338.806 176.553C342.232 171.096 345.715 164.7 349.255 157.367L347.454 156.497ZM337.104 175.504C333.892 180.815 329.687 185.58 324.478 189.797L325.736 191.351C331.112 187 335.475 182.063 338.815 176.538L337.104 175.504ZM324.469 189.804C319.478 193.943 313.843 196 307.53 196V198C314.322 198 320.405 195.773 325.746 191.344L324.469 189.804ZM307.53 196C302.225 196 298.47 194.267 296.055 190.932L294.435 192.106C297.313 196.079 301.748 198 307.53 198V196ZM296.069 190.951C293.694 187.508 292.465 182.999 292.465 177.344H290.465C290.465 183.281 291.756 188.222 294.422 192.087L296.069 190.951ZM292.465 177.344C292.465 173.771 292.896 170.328 293.756 167.011L291.82 166.509C290.916 169.996 290.465 173.609 290.465 177.344H292.465ZM293.758 167.003C294.632 163.509 295.82 159.567 297.325 155.177L295.433 154.529C293.915 158.959 292.709 162.955 291.818 166.517L293.758 167.003ZM297.328 155.169C297.583 154.405 298.152 152.634 299.033 149.864L297.127 149.258C296.245 152.032 295.68 153.789 295.431 154.537L297.328 155.169ZM299.037 149.852C299.93 146.917 300.403 144.477 300.403 142.568H298.403C298.403 144.187 297.994 146.409 297.124 149.27L299.037 149.852ZM300.403 142.568C300.403 140.223 299.706 138.282 298.182 136.911L296.844 138.397C297.841 139.294 298.403 140.629 298.403 142.568H300.403ZM298.182 136.911C296.684 135.562 294.652 134.953 292.221 134.953V136.953C294.327 136.953 295.823 137.478 296.844 138.397L298.182 136.911ZM292.221 134.953C288.363 134.953 284.783 136.685 281.497 139.971L282.911 141.385C285.926 138.371 289.024 136.953 292.221 136.953V134.953ZM281.512 139.957C278.232 143.105 275.639 147.275 273.708 152.423L275.581 153.125C277.43 148.193 279.877 144.298 282.897 141.399L281.512 139.957ZM273.711 152.415C271.775 157.45 270.809 162.801 270.809 168.461H272.809C272.809 163.033 273.734 157.926 275.578 153.133L273.711 152.415ZM270.809 168.461V176.966H272.809V168.461H270.809ZM270.809 176.966C270.809 183.543 269.533 188.292 267.144 191.38C264.793 194.419 261.245 196 256.311 196V198C261.71 198 265.911 196.242 268.726 192.603C271.503 189.013 272.809 183.745 272.809 176.966H270.809ZM416.456 188.495L415.638 189.07L415.644 189.078L416.456 188.495ZM417.023 133.496L416.089 133.138L416.089 133.138L417.023 133.496ZM434.6 100.988L435.408 101.578L435.411 101.573L434.6 100.988ZM456.524 80.009L457.001 80.888L460.198 79.154L456.564 79.0098L456.524 80.009ZM419.102 85.301L418.686 84.3919L419.102 85.301ZM407.573 110.816L406.767 111.407L406.777 111.421L406.787 111.434L407.573 110.816ZM412.676 113.462L413.625 113.146L413.397 112.462H412.676V113.462ZM410.219 126.503L409.382 125.956L409.382 125.956L410.219 126.503ZM401.336 134.819L401.817 135.696L401.834 135.686L401.851 135.676L401.336 134.819ZM370.529 130.85L371.284 130.194L371.284 130.194L370.529 130.85ZM374.876 84.923L375.653 85.5532L375.658 85.5463L374.876 84.923ZM404.738 64.133L405.108 65.0621L405.108 65.0621L404.738 64.133ZM471.833 60.353L471.394 61.2516L471.403 61.2555L471.833 60.353ZM478.637 79.064L479.061 79.9697L479.436 79.7944L479.577 79.4057L478.637 79.064ZM461.438 93.806L460.652 93.1881L460.645 93.197L461.438 93.806ZM448.397 117.242L447.463 116.885L447.463 116.885L448.397 117.242ZM467.675 144.647L468.449 145.28L468.456 145.272L467.675 144.647ZM479.771 122.156L480.707 122.51L480.711 122.498L480.715 122.486L479.771 122.156ZM503.396 67.724L504.177 68.3487L504.177 68.3487L503.396 67.724ZM519.461 78.875L518.572 78.417L518.569 78.4235L518.566 78.4299L519.461 78.875ZM497.348 133.118L498.308 133.399L498.31 133.391L497.348 133.118ZM496.97 152.396L496.178 153.006L496.192 153.024L496.207 153.042L496.97 152.396ZM519.272 145.214L518.44 144.659L518.433 144.671L519.272 145.214ZM526.832 145.781L526.064 146.421L526.079 146.439L526.095 146.457L526.832 145.781ZM527.777 149.939L526.92 149.424L526.903 149.453L526.888 149.482L527.777 149.939ZM524.186 156.932L523.297 156.475L523.291 156.486L523.286 156.497L524.186 156.932ZM513.791 176.021L512.944 175.489L512.94 175.496L512.936 175.504L513.791 176.021ZM500.939 190.574L500.31 189.797L500.301 189.804L500.939 190.574ZM465.785 170.54L466.782 170.617L464.908 170.061L465.785 170.54ZM434.222 196.189C426.829 196.189 421.223 193.423 417.269 187.912L415.644 189.078C420.006 195.159 426.243 198.189 434.222 198.189V196.189ZM417.275 187.92C413.266 182.211 411.219 174.744 411.219 165.437H409.219C409.219 175.03 411.33 182.935 415.638 189.07L417.275 187.92ZM411.219 165.437C411.219 156.143 413.451 145.62 417.957 133.854L416.089 133.138C411.524 145.06 409.219 155.831 409.219 165.437H411.219ZM417.957 133.854C422.463 122.089 428.28 111.332 435.408 101.578L433.793 100.398C426.557 110.3 420.656 121.215 416.089 133.138L417.957 133.854ZM435.411 101.573C442.542 91.6901 449.745 84.8235 457.001 80.888L456.048 79.13C448.436 83.2585 441.023 90.3779 433.789 100.403L435.411 101.573ZM456.564 79.0098C440.614 78.3769 427.961 80.1408 418.686 84.3919L419.519 86.2101C428.388 82.1452 440.682 80.3811 456.485 81.0082L456.564 79.0098ZM418.686 84.3919C414.041 86.521 410.485 89.1986 408.09 92.4579C405.687 95.7287 404.494 99.5306 404.494 103.823H406.494C406.494 99.9254 407.569 96.5453 409.702 93.6421C411.844 90.7274 415.092 88.239 419.519 86.2101L418.686 84.3919ZM404.494 103.823C404.494 106.768 405.233 109.316 406.767 111.407L408.38 110.225C407.141 108.536 406.494 106.422 406.494 103.823H404.494ZM406.787 111.434C408.338 113.408 410.316 114.462 412.676 114.462V112.462C411.005 112.462 409.58 111.752 408.36 110.198L406.787 111.434ZM411.728 113.778C412.22 115.257 412.432 116.332 412.432 117.053H414.432C414.432 116.01 414.14 114.691 413.625 113.146L411.728 113.778ZM412.432 117.053C412.432 119.833 411.449 122.795 409.382 125.956L411.056 127.05C413.274 123.659 414.432 120.321 414.432 117.053H412.432ZM409.382 125.956C407.333 129.09 404.489 131.761 400.822 133.962L401.851 135.676C405.744 133.341 408.822 130.468 411.056 127.05L409.382 125.956ZM400.855 133.942C397.115 135.993 392.812 137.032 387.917 137.032V139.032C393.103 139.032 397.745 137.929 401.817 135.696L400.855 133.942ZM387.917 137.032C380.718 137.032 375.219 134.725 371.284 130.194L369.774 131.506C374.156 136.551 380.249 139.032 387.917 139.032V137.032ZM371.284 130.194C367.296 125.602 365.292 120.044 365.292 113.462H363.292C363.292 120.488 365.446 126.522 369.774 131.506L371.284 130.194ZM365.292 113.462C365.292 103.379 368.728 94.0849 375.653 85.5532L374.1 84.2928C366.912 93.149 363.292 102.881 363.292 113.462H365.292ZM375.658 85.5463C382.455 77.019 392.251 70.18 405.108 65.0621L404.368 63.2039C391.27 68.418 381.157 75.439 374.094 84.2997L375.658 85.5463ZM405.108 65.0621C417.947 59.9516 432.748 57.384 449.531 57.384V55.384C432.546 55.384 417.486 57.9824 404.368 63.2039L405.108 65.0621ZM449.531 57.384C458.907 57.384 466.169 58.6996 471.394 61.2516L472.272 59.4544C466.662 56.7144 459.056 55.384 449.531 55.384V57.384ZM471.403 61.2555C474.063 62.5253 475.991 64.0655 477.255 65.8457C478.511 67.6161 479.149 69.6782 479.149 72.071H481.149C481.149 69.2978 480.401 66.8239 478.886 64.6882C477.377 62.5624 475.147 60.8266 472.264 59.4505L471.403 61.2555ZM479.149 72.071C479.149 73.798 478.685 76.0054 477.698 78.7223L479.577 79.4057C480.605 76.5786 481.149 74.124 481.149 72.071H479.149ZM478.213 78.1583C472.107 81.0166 466.259 86.0526 460.652 93.1882L462.225 94.4238C467.706 87.4474 473.324 82.6554 479.061 79.9697L478.213 78.1583ZM460.645 93.197C455.166 100.332 450.773 108.229 447.463 116.885L449.331 117.599C452.574 109.119 456.874 101.392 462.231 94.415L460.645 93.197ZM447.463 116.885C444.159 125.527 442.483 133.275 442.483 140.111H444.483C444.483 133.591 446.084 126.093 449.331 117.599L447.463 116.885ZM442.483 140.111C442.483 144.485 443.266 147.946 444.987 150.335C446.752 152.784 449.398 153.963 452.744 153.963V151.963C449.917 151.963 447.932 151 446.61 149.165C445.244 147.27 444.483 144.305 444.483 140.111H442.483ZM452.744 153.963C458.552 153.963 463.789 150.976 468.449 145.28L466.901 144.014C462.49 149.406 457.772 151.963 452.744 151.963V153.963ZM468.456 145.272C473.077 139.496 477.154 131.898 480.707 122.51L478.836 121.802C475.332 131.062 471.346 138.458 466.894 144.022L468.456 145.272ZM480.715 122.486C486.131 106.994 490.534 95.171 493.925 87.0076L492.078 86.2404C488.665 94.457 484.247 106.322 478.827 121.826L480.715 122.486ZM493.925 87.0076C497.309 78.8609 500.731 72.6561 504.177 68.3487L502.615 67.0993C499.005 71.6119 495.498 78.0071 492.078 86.2404L493.925 87.0076ZM504.177 68.3487C507.588 64.0854 511.171 62.109 514.925 62.109V60.109C510.364 60.109 506.261 62.5426 502.615 67.0993L504.177 68.3487ZM514.925 62.109C517.378 62.109 519.031 62.6646 520.067 63.5996C521.084 64.5171 521.674 65.9531 521.674 68.102H523.674C523.674 65.5888 522.973 63.5284 521.407 62.1148C519.86 60.7189 517.639 60.109 514.925 60.109V62.109ZM521.674 68.102C521.674 70.903 520.678 74.3305 518.572 78.417L520.35 79.333C522.529 75.1035 523.674 71.349 523.674 68.102H521.674ZM518.566 78.4299C508.092 99.503 500.693 117.645 496.386 132.845L498.31 133.391C502.572 118.351 509.914 100.331 520.357 79.3201L518.566 78.4299ZM496.389 132.837C494.866 138.04 494.08 142.303 494.08 145.592H496.08C496.08 142.581 496.807 138.528 498.308 133.399L496.389 132.837ZM494.08 145.592C494.08 148.624 494.738 151.135 496.178 153.006L497.763 151.786C496.682 150.381 496.08 148.356 496.08 145.592H494.08ZM496.207 153.042C497.865 155.001 500.549 155.853 503.963 155.853V153.853C500.825 153.853 498.848 153.067 497.734 151.75L496.207 153.042ZM503.963 155.853C510.441 155.853 515.825 152.382 520.112 145.757L518.433 144.671C514.403 150.898 509.581 153.853 503.963 153.853V155.853ZM520.104 145.769C520.693 144.886 521.402 144.513 522.296 144.513V142.513C520.671 142.513 519.364 143.274 518.44 144.659L520.104 145.769ZM522.296 144.513C523.727 144.513 524.969 145.107 526.064 146.421L527.601 145.141C526.175 143.431 524.394 142.513 522.296 142.513V144.513ZM526.095 146.457C526.72 147.138 527.027 147.711 527.133 148.176C527.231 148.608 527.17 149.007 526.92 149.424L528.635 150.453C529.14 149.611 529.3 148.687 529.083 147.733C528.874 146.812 528.331 145.936 527.569 145.105L526.095 146.457ZM526.888 149.482L523.297 156.475L525.076 157.389L528.667 150.396L526.888 149.482ZM523.286 156.497C519.77 163.78 516.322 170.11 512.944 175.489L514.638 176.553C518.064 171.096 521.547 164.7 525.087 157.367L523.286 156.497ZM512.936 175.504C509.724 180.815 505.519 185.58 500.31 189.797L501.569 191.351C506.944 187 511.307 182.063 514.647 176.538L512.936 175.504ZM500.301 189.804C495.31 193.943 489.675 196 483.362 196V198C490.154 198 496.237 195.773 501.578 191.344L500.301 189.804ZM483.362 196C477.553 196 473.374 194.429 470.631 191.455C467.874 188.466 466.407 183.887 466.407 177.533H464.407C464.407 184.157 465.933 189.311 469.161 192.811C472.403 196.326 477.201 198 483.362 198V196ZM466.407 177.533C466.407 176.189 466.53 173.892 466.782 170.617L464.788 170.463C464.536 173.74 464.407 176.105 464.407 177.533H466.407ZM464.908 170.061C455.241 187.762 444.977 196.189 434.222 196.189V198.189C446.148 198.189 456.925 188.85 466.663 171.019L464.908 170.061ZM592.663 145.214L593.49 145.776L593.495 145.769L592.663 145.214ZM600.034 145.781L599.266 146.421L599.281 146.439L599.297 146.457L600.034 145.781ZM601.168 149.939L600.274 149.492L600.27 149.501L600.265 149.51L601.168 149.939ZM589.828 170.729L590.668 171.272L590.673 171.264L589.828 170.729ZM572.44 188.306L571.847 187.501L571.84 187.506L572.44 188.306ZM521.41 188.117L520.657 188.774L520.664 188.783L520.672 188.791L521.41 188.117ZM519.331 145.214L518.499 144.659L518.484 144.683L518.469 144.707L519.331 145.214ZM520.087 144.08L519.282 143.487L519.268 143.506L519.255 143.525L520.087 144.08ZM529.537 130.094L528.703 129.543L528.701 129.546L529.537 130.094ZM541.255 113.084L540.461 112.477L540.455 112.484L540.45 112.492L541.255 113.084ZM551.65 102.311L552.272 103.094L552.275 103.092L551.65 102.311ZM576.031 101.744L575.373 102.497L575.373 102.497L576.031 101.744ZM580.378 110.627L579.379 110.589L579.378 110.608V110.627H580.378ZM578.677 113.84L578.063 113.051L578.041 113.068L578.019 113.087L578.677 113.84ZM574.141 116.864L574.607 117.749L574.619 117.742L574.632 117.736L574.141 116.864ZM570.739 134.441L569.845 134.888L569.849 134.896L569.853 134.904L570.739 134.441ZM579.244 155.231L578.27 155.458L578.459 156.27L579.292 156.23L579.244 155.231ZM586.237 152.585L586.868 153.361L586.873 153.357L586.237 152.585ZM547.87 154.097L547.129 153.426L547.127 153.428L547.87 154.097ZM547.303 129.716L546.375 130.087L546.394 130.135L546.418 130.18L547.303 129.716ZM542.767 129.716L541.948 129.142L541.94 129.154L542.767 129.716ZM527.836 149.939L527.051 149.319L526.836 149.592V149.939H527.836ZM530.671 155.609L530.047 156.39L530.059 156.4L530.071 156.409L530.671 155.609ZM593.495 145.769C594.084 144.886 594.793 144.513 595.687 144.513V142.513C594.062 142.513 592.755 143.274 591.831 144.659L593.495 145.769ZM595.687 144.513C596.968 144.513 598.154 145.086 599.266 146.421L600.803 145.141C599.395 143.451 597.682 142.513 595.687 142.513V144.513ZM599.297 146.457C600.555 147.828 600.635 148.769 600.274 149.492L602.063 150.386C602.961 148.589 602.286 146.758 600.772 145.105L599.297 146.457ZM600.265 149.51C596.626 157.165 592.865 164.059 588.983 170.194L590.673 171.264C594.604 165.051 598.403 158.085 602.072 150.368L600.265 149.51ZM588.988 170.186C585.165 176.106 579.465 181.881 571.847 187.501L573.034 189.111C580.787 183.391 586.679 177.448 590.668 171.272L588.988 170.186ZM571.84 187.506C564.474 193.031 555.619 195.811 545.224 195.811V197.811C555.997 197.811 565.287 194.921 573.04 189.106L571.84 187.506ZM545.224 195.811C534.819 195.811 527.192 192.966 522.149 187.443L520.672 188.791C526.213 194.86 534.462 197.811 545.224 197.811V195.811ZM522.164 187.46C517.174 181.74 514.661 174.673 514.661 166.193H512.661C512.661 175.101 515.315 182.65 520.657 188.774L522.164 187.46ZM514.661 166.193C514.661 158.809 516.505 151.991 520.193 145.721L518.469 144.707C514.598 151.289 512.661 158.457 512.661 166.193H514.661ZM520.163 145.769L520.919 144.635L519.255 143.525L518.499 144.659L520.163 145.769ZM520.892 144.673C522.675 142.254 525.84 137.569 530.374 130.642L528.701 129.546C524.163 136.479 521.027 141.118 519.282 143.487L520.892 144.673ZM530.372 130.645C535.029 123.596 538.925 117.941 542.061 113.676L540.45 112.492C537.286 116.795 533.37 122.48 528.703 129.543L530.372 130.645ZM542.05 113.691C545.283 109.463 548.692 105.934 552.272 103.094L551.029 101.527C547.301 104.484 543.78 108.137 540.461 112.477L542.05 113.691ZM552.275 103.092C555.921 100.175 559.551 98.775 563.179 98.775V96.775C558.996 96.775 554.939 98.3991 551.026 101.53L552.275 103.092ZM563.179 98.775C568.573 98.775 572.59 100.062 575.373 102.497L576.69 100.991C573.425 98.1343 568.874 96.775 563.179 96.775V98.775ZM575.373 102.497C578.226 104.993 579.491 107.682 579.379 110.589L581.378 110.665C581.518 107.02 579.885 103.787 576.69 100.991L575.373 102.497ZM579.378 110.627C579.378 111.532 578.993 112.328 578.063 113.051L579.291 114.629C580.63 113.588 581.378 112.242 581.378 110.627H579.378ZM578.019 113.087C577.087 113.903 575.644 114.872 573.651 115.992L574.632 117.736C576.671 116.588 578.252 115.541 579.336 114.593L578.019 113.087ZM573.676 115.979C571.246 117.258 569.338 118.499 567.991 119.712L569.329 121.198C570.502 120.143 572.249 118.99 574.607 117.749L573.676 115.979ZM567.991 119.712C566.511 121.044 565.77 122.768 565.77 124.802H567.77C567.77 123.308 568.29 122.134 569.329 121.198L567.991 119.712ZM565.77 124.802C565.77 125.24 565.89 125.77 566.062 126.333C566.24 126.919 566.501 127.624 566.838 128.443C567.513 130.082 568.517 132.233 569.845 134.888L571.634 133.994C570.315 131.357 569.335 129.255 568.687 127.681C568.363 126.894 568.128 126.253 567.975 125.751C567.816 125.227 567.77 124.931 567.77 124.802H565.77ZM569.853 134.904C574.247 143.316 577.038 150.16 578.27 155.458L580.218 155.004C578.93 149.466 576.051 142.45 571.626 133.978L569.853 134.904ZM579.292 156.23C582.147 156.094 584.683 155.136 586.868 153.361L585.607 151.809C583.76 153.309 581.634 154.116 579.197 154.232L579.292 156.23ZM586.873 153.357C589.11 151.515 591.313 148.978 593.49 145.776L591.836 144.652C589.73 147.75 587.649 150.127 585.602 151.813L586.873 153.357ZM538.42 158.877C542.677 158.877 546.12 157.537 548.614 154.766L547.127 153.428C545.085 155.697 542.227 156.877 538.42 156.877V158.877ZM548.612 154.768C551.194 151.914 552.461 148.325 552.461 144.08H550.461C550.461 147.899 549.335 150.988 547.129 153.426L548.612 154.768ZM552.461 144.08C552.461 139.583 551.008 134.634 548.189 129.252L546.418 130.18C549.142 135.382 550.461 140.009 550.461 144.08H552.461ZM548.232 129.345C547.67 127.94 546.72 126.826 545.224 126.826V128.826C545.493 128.826 545.929 128.972 546.375 130.087L548.232 129.345ZM545.224 126.826C544.557 126.826 543.954 127.105 543.433 127.506C542.914 127.905 542.422 128.466 541.948 129.143L543.587 130.289C543.995 129.706 544.353 129.322 544.653 129.091C544.951 128.862 545.135 128.826 545.224 128.826V126.826ZM541.94 129.154C537.672 135.431 532.71 142.152 527.051 149.319L528.621 150.559C534.303 143.362 539.295 136.601 543.594 130.278L541.94 129.154ZM526.836 149.939C526.836 152.534 527.938 154.703 530.047 156.39L531.296 154.828C529.625 153.491 528.836 151.88 528.836 149.939H526.836ZM530.071 156.409C532.3 158.08 535.109 158.877 538.42 158.877V156.877C535.432 156.877 533.075 156.162 531.271 154.809L530.071 156.409Z" fill="black" mask="url(#path-1-outside-1_106_17)"/>
<path d="M40.051 181.938C27.451 181.938 17.686 178.725 10.756 172.299C3.952 165.747 0.55 157.368 0.55 147.162C0.55 142.122 1.558 137.334 3.574 132.798C5.464 128.262 8.173 124.608 11.701 121.836C15.229 118.938 19.261 117.489 23.797 117.489C24.553 117.489 25.183 117.741 25.687 118.245C26.317 118.623 26.632 119.127 26.632 119.757C26.632 124.419 28.585 128.262 32.491 131.286C36.523 134.184 41.437 135.633 47.233 135.633C54.037 135.633 60.904 132.924 67.834 127.506C74.89 122.088 80.434 114.024 84.466 103.314C90.514 87.312 95.869 74.082 100.531 63.624C98.011 63.12 95.239 62.868 92.215 62.868C84.907 62.868 78.859 64.821 74.071 68.727C69.409 72.507 67.078 77.799 67.078 84.603C67.078 87.375 67.771 89.706 69.157 91.596C70.543 93.36 72.244 94.242 74.26 94.242C74.764 95.754 75.016 96.951 75.016 97.833C75.016 100.857 73.945 104.007 71.803 107.283C69.661 110.559 66.637 113.331 62.731 115.599C58.951 117.741 54.541 118.812 49.501 118.812C42.067 118.812 36.271 116.418 32.113 111.63C27.955 106.842 25.876 101.046 25.876 94.242C25.876 83.28 28.837 73.137 34.759 63.813C40.681 54.489 48.997 47.118 59.707 41.7C70.417 36.156 82.639 33.384 96.373 33.384C114.391 33.384 123.4 39.432 123.4 51.528C123.4 55.938 122.392 60.789 120.376 66.081C119.116 69.987 115.336 81.012 109.036 99.156L100.531 124.104C93.727 144.39 85.474 159.132 75.772 168.33C66.07 177.402 54.163 181.938 40.051 181.938ZM202.318 122.214C202.822 121.332 203.767 120.891 205.153 120.891C206.917 120.891 208.492 121.521 209.878 122.781C211.264 124.041 211.579 125.427 210.823 126.939C207.295 134.373 202.948 140.547 197.782 145.461C192.616 150.375 185.938 152.832 177.748 152.832H175.48C170.692 159.384 165.022 164.55 158.47 168.33C152.044 172.11 145.366 174 138.436 174C129.742 174 122.686 171.165 117.268 165.495C111.85 159.699 109.141 151.95 109.141 142.248C109.141 132.672 111.409 123.033 115.945 113.331C120.607 103.503 126.907 95.439 134.845 89.139C142.783 82.713 151.54 79.5 161.116 79.5C169.432 79.5 176.11 82.146 181.15 87.438C186.19 92.604 188.71 100.794 188.71 112.008C188.71 118.686 187.765 125.175 185.875 131.475H187.198C192.994 131.475 198.034 128.388 202.318 122.214ZM149.209 134.877C152.233 134.877 154.942 133.995 157.336 132.231C159.856 130.341 161.809 128.01 163.195 125.238C164.581 122.466 165.274 119.757 165.274 117.111C165.274 114.213 164.392 111.819 162.628 109.929C160.99 108.039 158.407 107.094 154.879 107.094C150.469 107.094 146.752 108.921 143.728 112.575C140.83 116.229 139.381 120.261 139.381 124.671C139.381 127.695 140.137 130.152 141.649 132.042C143.287 133.932 145.807 134.877 149.209 134.877ZM235.882 71.751C230.842 71.751 226.81 70.68 223.786 68.538C220.762 66.396 219.25 62.994 219.25 58.332C219.25 46.74 225.55 40.944 238.15 40.944C249.994 40.944 255.475 46.047 254.593 56.253C253.585 66.585 247.348 71.751 235.882 71.751ZM214.903 174C208.855 174 204.445 171.858 201.673 167.574C198.901 163.29 197.515 157.557 197.515 150.375C197.515 141.681 199.09 132.294 202.24 122.214C206.902 107.598 211.312 96.825 215.47 89.895C219.628 82.965 224.29 79.5 229.456 79.5C233.74 79.5 235.882 82.335 235.882 88.005C235.882 90.651 235.504 93.36 234.748 96.132C233.992 98.904 232.858 102.243 231.346 106.149C231.094 106.779 230.59 108.291 229.834 110.685C229.078 113.079 228.448 115.221 227.944 117.111C227.566 119.001 227.377 120.702 227.377 122.214C227.377 125.238 228.133 127.569 229.645 129.207C231.157 130.845 233.236 131.664 235.882 131.664C238.528 131.664 240.796 130.908 242.686 129.396C244.702 127.758 246.781 125.364 248.923 122.214C249.679 121.08 250.687 120.513 251.947 120.513C253.585 120.513 255.034 121.269 256.294 122.781C257.68 124.167 258.058 125.49 257.428 126.75C256.294 128.64 254.971 131.286 253.459 134.688C249.931 141.996 246.592 148.296 243.442 153.588C240.292 158.88 236.26 163.605 231.346 167.763C226.432 171.921 220.951 174 214.903 174ZM256.311 174C252.027 174 248.625 172.74 246.105 170.22C243.711 167.574 242.514 164.235 242.514 160.203C242.514 149.745 244.593 137.082 248.751 122.214C252.027 110.37 255.807 100.29 260.091 91.974C264.375 83.658 268.155 79.5 271.431 79.5C275.589 79.5 277.668 81.894 277.668 86.682C277.668 91.344 278.928 93.675 281.448 93.675C283.212 93.675 285.228 92.541 287.496 90.273C294.93 83.091 302.553 79.5 310.365 79.5C315.909 79.5 320.13 81.138 323.028 84.414C325.926 87.69 327.375 91.848 327.375 96.888C327.375 99.156 327.123 101.235 326.619 103.125C326.115 104.889 325.359 107.22 324.351 110.118C323.343 112.638 322.587 114.78 322.083 116.544C321.579 118.308 321.327 120.261 321.327 122.403C321.327 125.679 322.02 128.073 323.406 129.585C324.918 131.097 327.249 131.853 330.399 131.853C333.045 131.853 335.313 131.097 337.203 129.585C339.219 127.947 341.298 125.49 343.44 122.214C344.196 121.08 345.204 120.513 346.464 120.513C348.228 120.513 349.74 121.269 351 122.781C352.386 124.293 352.701 125.679 351.945 126.939L348.354 133.932C344.826 141.24 341.361 147.603 337.959 153.021C334.683 158.439 330.399 163.29 325.107 167.574C319.941 171.858 314.082 174 307.53 174C301.986 174 297.891 172.173 295.245 168.519C292.725 164.865 291.465 160.14 291.465 154.344C291.465 150.69 291.906 147.162 292.788 143.76C293.67 140.232 294.867 136.263 296.379 131.853C296.631 131.097 297.198 129.333 298.08 126.561C298.962 123.663 299.403 121.332 299.403 119.568C299.403 117.426 298.773 115.788 297.513 114.654C296.253 113.52 294.489 112.953 292.221 112.953C288.693 112.953 285.354 114.528 282.204 117.678C279.054 120.702 276.534 124.734 274.644 129.774C272.754 134.688 271.809 139.917 271.809 145.461V153.966C271.809 167.322 266.643 174 256.311 174ZM434.222 174.189C426.536 174.189 420.614 171.291 416.456 165.495C412.298 159.573 410.219 151.887 410.219 142.437C410.219 132.987 412.487 122.34 417.023 110.496C421.559 98.652 427.418 87.816 434.6 77.988C441.782 68.034 449.09 61.041 456.524 57.009C440.648 56.379 428.174 58.143 419.102 62.301C410.03 66.459 405.494 72.633 405.494 80.823C405.494 83.595 406.187 85.926 407.573 87.816C408.959 89.58 410.66 90.462 412.676 90.462C413.18 91.974 413.432 93.171 413.432 94.053C413.432 97.077 412.361 100.227 410.219 103.503C408.077 106.779 405.116 109.551 401.336 111.819C397.43 113.961 392.957 115.032 387.917 115.032C380.483 115.032 374.687 112.638 370.529 107.85C366.371 103.062 364.292 97.266 364.292 90.462C364.292 80.13 367.82 70.617 374.876 61.923C381.806 53.229 391.76 46.299 404.738 41.133C417.716 35.967 432.647 33.384 449.531 33.384C458.981 33.384 466.415 34.707 471.833 37.353C477.377 39.999 480.149 43.905 480.149 49.071C480.149 50.961 479.645 53.292 478.637 56.064C472.715 58.836 466.982 63.75 461.438 70.806C456.02 77.862 451.673 85.674 448.397 94.242C445.121 102.81 443.483 110.433 443.483 117.111C443.483 125.679 446.57 129.963 452.744 129.963C458.162 129.963 463.139 127.191 467.675 121.647C472.211 115.977 476.243 108.48 479.771 99.156C485.189 83.658 489.599 71.814 493.001 63.624C496.403 55.434 499.868 49.134 503.396 44.724C506.924 40.314 510.767 38.109 514.925 38.109C520.091 38.109 522.674 40.44 522.674 45.102C522.674 48.126 521.603 51.717 519.461 55.875C509.003 76.917 501.632 94.998 497.348 110.118C495.836 115.284 495.08 119.442 495.08 122.592C495.08 125.49 495.71 127.758 496.97 129.396C498.356 131.034 500.687 131.853 503.963 131.853C510.011 131.853 515.114 128.64 519.272 122.214C520.028 121.08 521.036 120.513 522.296 120.513C524.06 120.513 525.572 121.269 526.832 122.781C528.218 124.293 528.533 125.679 527.777 126.939L524.186 133.932C520.658 141.24 517.193 147.603 513.791 153.021C510.515 158.439 506.231 163.29 500.939 167.574C495.773 171.858 489.914 174 483.362 174C471.392 174 465.407 167.511 465.407 154.533C465.407 153.147 465.533 150.816 465.785 147.54C456.083 165.306 445.562 174.189 434.222 174.189ZM592.663 122.214C593.419 121.08 594.427 120.513 595.687 120.513C597.325 120.513 598.774 121.269 600.034 122.781C601.42 124.293 601.798 125.679 601.168 126.939C597.514 134.625 593.734 141.555 589.828 147.729C585.922 153.777 580.126 159.636 572.44 165.306C564.88 170.976 555.808 173.811 545.224 173.811C534.64 173.811 526.702 170.913 521.41 165.117C516.244 159.195 513.661 151.887 513.661 143.193C513.661 135.633 515.551 128.64 519.331 122.214L520.087 121.08C521.851 118.686 525.001 114.024 529.537 107.094C534.199 100.038 538.105 94.368 541.255 90.084C544.531 85.8 547.996 82.209 551.65 79.311C555.43 76.287 559.273 74.775 563.179 74.775C568.723 74.775 573.007 76.098 576.031 78.744C579.055 81.39 580.504 84.351 580.378 87.627C580.378 88.887 579.811 89.958 578.677 90.84C577.669 91.722 576.157 92.73 574.141 93.864C571.747 95.124 569.92 96.321 568.66 97.455C567.4 98.589 566.77 100.038 566.77 101.802C566.77 102.936 568.093 106.149 570.739 111.441C575.149 119.883 577.984 126.813 579.244 132.231C581.89 132.105 584.221 131.223 586.237 129.585C588.379 127.821 590.521 125.364 592.663 122.214ZM538.42 134.877C542.452 134.877 545.602 133.617 547.87 131.097C550.264 128.451 551.461 125.112 551.461 121.08C551.461 116.796 550.075 112.008 547.303 106.716C546.799 105.456 546.106 104.826 545.224 104.826C544.468 104.826 543.649 105.456 542.767 106.716C538.483 113.016 533.506 119.757 527.836 126.939C527.836 129.207 528.781 131.097 530.671 132.609C532.687 134.121 535.27 134.877 538.42 134.877Z" fill="#0068B6" fill-opacity="0.9"/>
</svg>
