<svg width="796" height="274" viewBox="0 0 796 274" fill="none" xmlns="http://www.w3.org/2000/svg">
<path d="M39.5398 182.58C26.9398 182.58 17.1748 179.367 10.2448 172.941C3.44077 166.389 0.0387699 158.01 0.0387699 147.804C0.0387699 142.764 1.04677 137.976 3.06277 133.44C4.95277 128.904 7.66177 125.25 11.1898 122.478C14.7178 119.58 18.7498 118.131 23.2858 118.131C24.0418 118.131 24.6718 118.383 25.1758 118.887C25.8058 119.265 26.1208 119.769 26.1208 120.399C26.1208 125.061 28.0738 128.904 31.9798 131.928C36.0118 134.826 40.9258 136.275 46.7218 136.275C53.5258 136.275 60.3928 133.566 67.3228 128.148C74.3788 122.73 79.9228 114.666 83.9548 103.956C90.0028 87.9536 95.3578 74.7236 100.02 64.2656C97.4998 63.7616 94.7278 63.5096 91.7038 63.5096C84.3958 63.5096 78.3478 65.4626 73.5598 69.3686C68.8978 73.1486 66.5668 78.4406 66.5668 85.2446C66.5668 88.0166 67.2598 90.3476 68.6458 92.2376C70.0318 94.0016 71.7328 94.8836 73.7488 94.8836C74.2528 96.3956 74.5048 97.5926 74.5048 98.4746C74.5048 101.499 73.4338 104.649 71.2918 107.925C69.1498 111.201 66.1258 113.973 62.2198 116.241C58.4398 118.383 54.0298 119.454 48.9898 119.454C41.5558 119.454 35.7598 117.06 31.6018 112.272C27.4438 107.484 25.3648 101.688 25.3648 94.8836C25.3648 83.9216 28.3258 73.7786 34.2478 64.4546C40.1698 55.1306 48.4858 47.7596 59.1958 42.3416C69.9058 36.7976 82.1278 34.0256 95.8618 34.0256C113.88 34.0256 122.889 40.0736 122.889 52.1696C122.889 56.5796 121.881 61.4306 119.865 66.7226C118.605 70.6286 114.825 81.6536 108.525 99.7976L100.02 124.746C93.2158 145.032 84.9628 159.774 75.2608 168.972C65.5588 178.044 53.6518 182.58 39.5398 182.58ZM180.639 33.8366C191.223 33.8366 199.287 37.3016 204.831 44.2316C210.375 51.0356 213.147 60.6116 213.147 72.9596C213.147 87.1976 210.06 102.381 203.886 118.509C197.838 134.511 189.648 147.93 179.316 158.766C169.11 169.602 158.085 175.02 146.241 175.02C139.941 175.02 133.956 173.319 128.286 169.917C122.616 166.389 118.017 161.034 114.489 153.852C110.961 146.544 109.197 137.598 109.197 127.014C109.197 117.06 110.709 106.791 113.733 96.2066C116.883 85.4966 120.663 76.6766 125.073 69.7466C129.987 62.1866 135.405 58.4066 141.327 58.4066C143.469 58.4066 145.233 58.9106 146.619 59.9186C149.139 52.2326 153.234 45.9956 158.904 41.2076C164.7 36.2936 171.945 33.8366 180.639 33.8366ZM155.313 132.117C161.235 132.117 166.716 129.912 171.756 125.502C176.922 121.092 181.017 115.422 184.041 108.492C187.065 101.436 188.577 94.3166 188.577 87.1346C188.577 79.5746 187.191 73.9046 184.419 70.1246C181.773 66.2186 178.056 64.2656 173.268 64.2656C170.118 64.2656 167.598 65.1476 165.708 66.9116C163.944 68.5496 163.062 70.6916 163.062 73.3376C163.062 75.7316 163.755 77.6846 165.141 79.1966C166.527 80.7086 168.354 81.4646 170.622 81.4646C172.89 81.4646 174.591 82.2206 175.725 83.7326C176.985 85.1186 177.615 86.9456 177.615 89.2136C177.615 92.7416 176.355 95.8916 173.835 98.6636C171.315 101.436 167.787 102.822 163.251 102.822C158.463 102.822 154.494 100.995 151.344 97.3406C148.194 93.5606 146.052 88.7096 144.918 82.7876C143.028 87.3236 141.579 91.6076 140.571 95.6396C139.563 99.5456 139.059 104.019 139.059 109.059C139.059 124.431 144.477 132.117 155.313 132.117ZM241.359 176.91C235.059 176.91 229.956 175.272 226.05 171.996C222.144 168.594 220.191 164.184 220.191 158.766C220.191 154.734 221.262 151.143 223.404 147.993C225.672 144.717 229.326 140.559 234.366 135.519C238.398 131.487 241.485 128.274 243.627 125.88C250.557 118.068 256.227 109.878 260.637 101.31C265.047 92.7416 270.528 80.3936 277.08 64.2656C274.434 63.6356 271.347 63.3206 267.819 63.3206C261.393 63.3206 256.101 64.7696 251.943 67.6676C247.911 70.5656 245.895 74.5346 245.895 79.5746C245.895 82.3466 246.588 84.6776 247.974 86.5676C249.36 88.3316 251.061 89.2136 253.077 89.2136C253.581 90.7256 253.833 91.9226 253.833 92.8046C253.833 95.8286 252.762 98.9786 250.62 102.255C248.478 105.531 245.454 108.303 241.548 110.571C237.768 112.713 233.358 113.784 228.318 113.784C220.884 113.784 215.088 111.39 210.93 106.602C206.772 101.814 204.693 96.0176 204.693 89.2136C204.693 79.1336 207.465 69.9356 213.009 61.6196C218.679 53.1776 226.68 46.4996 237.012 41.5856C247.47 36.5456 259.503 34.0256 273.111 34.0256C282.939 34.0256 289.932 35.4746 294.09 38.3726C298.248 41.2706 300.327 45.6176 300.327 51.4136C300.327 54.9416 299.634 59.2886 298.248 64.4546C295.476 75.7946 291.633 89.9066 286.719 106.791C281.931 123.549 277.71 137.346 274.056 148.182C271.032 157.506 266.685 164.625 261.015 169.539C255.345 174.453 248.793 176.91 241.359 176.91ZM311.252 182.58C304.322 182.58 298.337 181.068 293.297 178.044C288.383 175.02 284.729 171.114 282.335 166.326C279.815 161.412 278.555 156.246 278.555 150.828C278.555 145.662 279.626 140.685 281.768 135.897C283.91 131.109 286.871 127.266 290.651 124.368C294.431 121.47 298.778 120.021 303.692 120.021C304.448 120.021 305.078 120.273 305.582 120.777C306.212 121.155 306.527 121.659 306.527 122.289C306.527 126.447 308.291 129.849 311.819 132.495C315.473 135.015 320.072 136.275 325.616 136.275C333.932 136.275 341.555 133.125 348.485 126.825C355.541 120.525 361.148 112.902 365.306 103.956C369.464 94.8836 371.543 86.8196 371.543 79.7636C371.543 74.7236 370.409 70.8806 368.141 68.2346C365.999 65.4626 362.912 64.0766 358.88 64.0766C354.974 64.0766 351.635 65.3366 348.863 67.8566C346.217 70.2506 344.894 73.4636 344.894 77.4956C344.894 80.7716 345.776 83.5436 347.54 85.8116C349.43 88.0796 351.761 89.2136 354.533 89.2136C355.037 90.2216 355.289 91.4186 355.289 92.8046C355.289 95.5766 354.344 98.4746 352.454 101.499C350.564 104.523 347.792 107.043 344.138 109.059C340.61 110.949 336.578 111.894 332.042 111.894C324.482 111.894 318.245 109.185 313.331 103.767C308.543 98.2226 306.149 90.9146 306.149 81.8426C306.149 73.4006 308.354 65.5256 312.764 58.2176C317.3 50.9096 323.852 45.0506 332.42 40.6406C340.988 36.2306 351.131 34.0256 362.849 34.0256C378.347 34.0256 390.128 39.6326 398.192 50.8466C406.382 62.0606 410.477 80.3936 410.477 105.846C410.477 108.492 411.296 109.815 412.934 109.815C413.69 109.815 414.383 109.437 415.013 108.681C415.769 107.925 416.21 106.98 416.336 105.846C417.722 93.1196 420.62 81.3386 425.03 70.5026C429.566 59.6666 435.803 50.8466 443.741 44.0426C451.679 37.2386 461.255 33.8366 472.469 33.8366C481.289 33.8366 487.904 35.7896 492.314 39.6956C496.85 43.4756 499.118 48.0746 499.118 53.4926C499.118 59.4146 497.417 64.0766 494.015 67.4786C490.739 70.8806 485.762 72.5816 479.084 72.5816C476.816 72.5816 474.863 71.8886 473.225 70.5026C471.839 69.3686 470.327 68.8016 468.689 68.8016C458.735 68.8016 449.978 76.4246 442.418 91.6706C434.858 106.791 428.621 127.518 423.707 153.852C422.321 160.908 419.927 166.137 416.525 169.539C413.123 172.941 409.091 174.642 404.429 174.642C398.003 174.642 393.404 171.933 390.632 166.515C387.86 161.097 386.474 153.033 386.474 142.323C386.474 128.463 387.23 114.288 388.742 99.7976C388.868 98.5376 388.679 97.5926 388.175 96.9626C387.797 96.2066 387.167 95.8286 386.285 95.8286C385.529 95.8286 384.836 96.1436 384.206 96.7736C383.576 97.4036 383.198 98.2226 383.072 99.2306C377.276 127.959 368.078 149.064 355.478 162.546C342.878 175.902 328.136 182.58 311.252 182.58ZM605.177 174.831C597.491 174.831 591.569 171.933 587.411 166.137C583.253 160.215 581.174 152.529 581.174 143.079C581.174 133.629 583.442 122.982 587.978 111.138C592.514 99.2936 598.373 88.4576 605.555 78.6296C612.737 68.6756 620.045 61.6826 627.479 57.6506C611.603 57.0206 599.129 58.7846 590.057 62.9426C580.985 67.1006 576.449 73.2746 576.449 81.4646C576.449 84.2366 577.142 86.5676 578.528 88.4576C579.914 90.2216 581.615 91.1036 583.631 91.1036C584.135 92.6156 584.387 93.8126 584.387 94.6946C584.387 97.7186 583.316 100.869 581.174 104.145C579.032 107.421 576.071 110.193 572.291 112.461C568.385 114.603 563.912 115.674 558.872 115.674C551.438 115.674 545.642 113.28 541.484 108.492C537.326 103.704 535.247 97.9076 535.247 91.1036C535.247 80.7716 538.775 71.2586 545.831 62.5646C552.761 53.8706 562.715 46.9406 575.693 41.7746C588.671 36.6086 603.602 34.0256 620.486 34.0256C629.936 34.0256 637.37 35.3486 642.788 37.9946C648.332 40.6406 651.104 44.5466 651.104 49.7126C651.104 51.6026 650.6 53.9336 649.592 56.7056C643.67 59.4776 637.937 64.3916 632.393 71.4476C626.975 78.5036 622.628 86.3156 619.352 94.8836C616.076 103.452 614.438 111.075 614.438 117.753C614.438 126.321 617.525 130.605 623.699 130.605C629.117 130.605 634.094 127.833 638.63 122.289C643.166 116.619 647.198 109.122 650.726 99.7976C656.144 84.2996 660.554 72.4556 663.956 64.2656C667.358 56.0756 670.823 49.7756 674.351 45.3656C677.879 40.9556 681.722 38.7506 685.88 38.7506C691.046 38.7506 693.629 41.0816 693.629 45.7436C693.629 48.7676 692.558 52.3586 690.416 56.5166C679.958 77.5586 672.587 95.6396 668.303 110.76C666.791 115.926 666.035 120.084 666.035 123.234C666.035 126.132 666.665 128.4 667.925 130.038C669.311 131.676 671.642 132.495 674.918 132.495C680.966 132.495 686.069 129.282 690.227 122.856C690.983 121.722 691.991 121.155 693.251 121.155C695.015 121.155 696.527 121.911 697.787 123.423C699.173 124.935 699.488 126.321 698.732 127.581L695.141 134.574C691.613 141.882 688.148 148.245 684.746 153.663C681.47 159.081 677.186 163.932 671.894 168.216C666.728 172.5 660.869 174.642 654.317 174.642C642.347 174.642 636.362 168.153 636.362 155.175C636.362 153.789 636.488 151.458 636.74 148.182C627.038 165.948 616.517 174.831 605.177 174.831ZM728.842 182.58C720.526 182.58 713.029 180.879 706.351 177.477C699.799 174.075 694.633 169.035 690.853 162.357C687.073 155.679 685.183 147.615 685.183 138.165C685.183 128.967 686.821 121.407 690.097 115.485C693.373 109.563 697.279 105.279 701.815 102.633C706.477 99.9866 710.95 98.6636 715.234 98.6636C717.628 98.6636 719.518 99.1046 720.904 99.9866C722.29 100.869 722.983 102.003 722.983 103.389C722.983 104.649 722.227 106.035 720.715 107.547C719.329 109.059 718.258 110.571 717.502 112.083C716.746 113.595 716.368 115.737 716.368 118.509C716.368 123.675 717.754 127.77 720.526 130.794C723.298 133.692 727.141 135.141 732.055 135.141C736.591 135.141 740.308 133.692 743.206 130.794C746.104 127.896 747.553 124.116 747.553 119.454C747.553 116.556 746.86 113.658 745.474 110.76C744.214 107.862 742.261 104.145 739.615 99.6086C736.087 93.5606 733.315 88.2056 731.299 83.5436C729.409 78.8816 728.464 73.7156 728.464 68.0456C728.464 61.9976 729.787 56.3906 732.433 51.2246C735.079 46.0586 739.111 41.9006 744.529 38.7506C750.073 35.6006 756.877 34.0256 764.941 34.0256C775.273 34.0256 782.959 36.6086 787.999 41.7746C793.039 46.9406 795.559 53.3036 795.559 60.8636C795.559 66.5336 794.047 71.8256 791.023 76.7396C787.999 81.6536 783.904 85.4336 778.738 88.0796C778.36 88.7096 777.73 89.0246 776.848 89.0246C775.462 89.0246 774.013 88.3946 772.501 87.1346C770.989 85.7486 770.233 84.4256 770.233 83.1656C770.233 82.5356 770.422 82.0316 770.8 81.6536C772.438 79.6376 773.257 76.8026 773.257 73.1486C773.257 70.5026 772.564 68.2976 771.178 66.5336C769.918 64.6436 767.776 63.6986 764.752 63.6986C761.35 63.6986 758.515 64.8326 756.247 67.1006C754.105 69.3686 753.034 72.8336 753.034 77.4956C753.034 80.8976 753.853 84.2996 755.491 87.7016C757.129 90.9776 759.712 95.3876 763.24 100.932C767.524 107.61 770.8 113.406 773.068 118.32C775.336 123.234 776.47 128.526 776.47 134.196C776.47 143.52 774.391 151.836 770.233 159.144C766.201 166.452 760.594 172.185 753.412 176.343C746.23 180.501 738.04 182.58 728.842 182.58Z" fill="#0068B6"/>
</svg>
