<svg width="1304" height="92" viewBox="0 0 1304 92" fill="none" xmlns="http://www.w3.org/2000/svg">
<rect width="1304" height="81" fill="white"/>
<path d="M132.344 17.272C133.795 17.7413 134.861 18.552 135.544 19.704C136.269 20.8133 136.632 22.0507 136.632 23.416C136.632 24.696 136.205 25.9547 135.352 27.192C134.499 28.4293 133.517 29.4107 132.408 30.136C132.152 30.3067 131.811 30.328 131.384 30.2C131 30.0293 130.701 29.7947 130.488 29.496C130.275 29.1547 130.275 28.8347 130.488 28.536C130.915 28.024 131.128 27.3413 131.128 26.488C131.128 25.8053 130.936 25.2507 130.552 24.824C130.211 24.3547 129.677 24.12 128.952 24.12C128.099 24.12 127.395 24.4187 126.84 25.016C126.328 25.5707 126.072 26.4453 126.072 27.64C126.072 28.4507 126.285 29.2827 126.712 30.136C127.139 30.9893 127.779 32.0773 128.632 33.4C129.699 35.0213 130.509 36.4507 131.064 37.688C131.619 38.8827 131.896 40.184 131.896 41.592C131.896 43.896 131.384 45.9653 130.36 47.8C129.379 49.6347 127.971 51.064 126.136 52.088C124.344 53.112 122.317 53.624 120.056 53.624C119.16 53.624 118.179 53.5173 117.112 53.304C116.685 55.7787 116.088 57.6773 115.32 59C114.595 60.3227 113.848 60.984 113.08 60.984C111.8 60.984 111.032 60.408 110.776 59.256C110.648 58.744 110.904 57.848 111.544 56.568C112.227 55.288 113.251 53.9013 114.616 52.408C112.909 51.5973 111.565 50.36 110.584 48.696C109.645 46.9893 109.176 44.9627 109.176 42.616C109.176 40.3547 109.581 38.4773 110.392 36.984C111.203 35.4907 112.184 34.424 113.336 33.784C114.488 33.1013 115.597 32.76 116.664 32.76C117.261 32.76 117.731 32.8667 118.072 33.08C118.456 33.2933 118.648 33.592 118.648 33.976C118.648 34.232 118.477 34.552 118.136 34.936C117.795 35.2773 117.517 35.64 117.304 36.024C117.091 36.408 116.984 36.9627 116.984 37.688C116.984 38.968 117.325 39.9707 118.008 40.696C118.691 41.4213 119.651 41.784 120.888 41.784C121.997 41.784 122.915 41.4427 123.64 40.76C124.365 40.0347 124.728 39.096 124.728 37.944C124.728 37.2187 124.557 36.5147 124.216 35.832C123.917 35.1493 123.427 34.1893 122.744 32.952C121.848 31.416 121.165 30.0933 120.696 28.984C120.227 27.832 119.992 26.5733 119.992 25.208C119.992 22.8187 120.76 20.8133 122.296 19.192C123.832 17.5707 126.072 16.76 129.016 16.76H129.336C129.763 14.3707 130.339 12.536 131.064 11.256C131.832 9.976 132.6 9.336 133.368 9.336C134.691 9.336 135.459 9.89066 135.672 11C135.8 11.4693 135.565 12.3013 134.968 13.496C134.413 14.648 133.539 15.9067 132.344 17.272ZM149.922 59.768C145.143 59.768 141.303 58.2533 138.402 55.224C135.5 52.152 134.049 47.544 134.049 41.4C134.049 36.3227 135.202 31.5227 137.506 27C139.852 22.4773 142.946 18.872 146.786 16.184C150.668 13.4533 154.764 12.088 159.074 12.088C163.042 12.088 166.05 12.92 168.097 14.584C170.188 16.2053 171.234 18.424 171.234 21.24C171.234 23.5867 170.615 25.7627 169.378 27.768C168.183 29.7733 166.69 31.352 164.898 32.504C163.106 33.656 161.399 34.232 159.778 34.232C159.095 34.232 158.519 34.0613 158.05 33.72C157.623 33.3787 157.41 32.9733 157.41 32.504C157.41 32.3333 157.495 32.0347 157.666 31.608C158.903 29.2613 159.522 27.3413 159.522 25.848C159.522 24.7813 159.18 23.992 158.498 23.48C157.858 22.9253 156.983 22.648 155.874 22.648C153.996 22.648 152.268 23.2453 150.69 24.44C149.111 25.592 147.874 27.1493 146.978 29.112C146.082 31.032 145.634 33.0373 145.634 35.128C145.634 38.1573 146.7 40.6747 148.833 42.68C151.01 44.6427 154.124 45.624 158.178 45.624C160.439 45.624 162.551 45.304 164.514 44.664C166.519 44.024 168.012 42.9573 168.994 41.464C169.25 41.08 169.591 40.888 170.018 40.888C170.572 40.888 171.063 41.144 171.49 41.656C171.959 42.168 172.087 42.6373 171.874 43.064C169.1 48.6533 165.943 52.8347 162.402 55.608C158.903 58.3813 154.743 59.768 149.922 59.768ZM175.308 61.688C171.852 61.688 169.249 60.6427 167.5 58.552C165.793 56.4613 164.94 53.9227 164.94 50.936C164.94 49.1867 165.303 47.5013 166.028 45.88C166.753 44.2587 167.756 42.9573 169.036 41.976C170.316 40.9947 171.788 40.504 173.452 40.504C173.708 40.504 173.921 40.5893 174.092 40.76C174.305 40.888 174.412 41.0587 174.412 41.272C174.412 42.68 174.924 43.832 175.948 44.728C176.972 45.5813 178.252 46.008 179.788 46.008C184.012 46.008 187.788 42.36 191.116 35.064L191.82 33.272C192.119 32.4613 192.545 31.3307 193.1 29.88C193.655 28.3867 194.124 27.1493 194.508 26.168C195.276 24.12 196.663 23.096 198.668 23.096C200.673 23.096 201.676 23.8213 201.676 25.272C201.676 25.656 201.612 26.0827 201.484 26.552C200.375 29.752 199.735 32.0133 199.564 33.336C199.521 34.0613 199.692 34.5307 200.076 34.744C200.46 34.9573 201.1 35.064 201.996 35.064C203.319 35.064 204.556 34.7227 205.708 34.04C206.86 33.3147 207.777 32.3547 208.46 31.16C209.185 29.9227 209.548 28.5573 209.548 27.064C209.548 24.5893 208.524 22.7973 206.476 21.688C204.471 20.536 201.719 19.96 198.22 19.96C195.532 19.96 193.207 20.3653 191.244 21.176C189.281 21.9867 187.788 23.032 186.764 24.312C185.74 25.592 185.228 26.936 185.228 28.344C185.228 29.1973 185.463 29.9227 185.932 30.52C186.401 31.0747 186.977 31.352 187.66 31.352C187.831 31.864 187.916 32.2693 187.916 32.568C187.916 33.592 187.553 34.6587 186.828 35.768C186.103 36.8773 185.079 37.816 183.756 38.584C182.476 39.3093 180.983 39.672 179.276 39.672C176.759 39.672 174.796 38.8187 173.388 37.112C171.98 35.3627 171.276 33.2507 171.276 30.776C171.276 27.6613 172.428 24.6107 174.732 21.624C177.079 18.6373 180.385 16.184 184.652 14.264C188.961 12.344 193.868 11.384 199.372 11.384C206.241 11.384 211.383 12.5787 214.796 14.968C218.252 17.3573 219.98 20.7707 219.98 25.208C219.98 28.792 219.063 31.8213 217.228 34.296C215.436 36.728 212.961 38.2 209.804 38.712C208.951 38.84 208.353 38.9893 208.012 39.16C207.713 39.288 207.564 39.48 207.564 39.736C207.564 39.992 207.713 40.2267 208.012 40.44C208.311 40.6533 208.631 40.9307 208.972 41.272C209.356 41.5707 209.74 42.0613 210.124 42.744C210.679 43.7253 211.276 44.472 211.916 44.984C212.599 45.496 213.516 45.752 214.668 45.752C215.991 45.752 217.1 45.4107 217.996 44.728C218.935 44.0027 219.895 42.9147 220.876 41.464C221.132 41.08 221.473 40.888 221.9 40.888C222.455 40.888 222.945 41.144 223.372 41.656C223.799 42.1253 223.927 42.5947 223.756 43.064C221.921 47.3733 219.532 51.1067 216.588 54.264C213.644 57.4213 210.615 59 207.5 59C205.58 59 204.001 58.3387 202.764 57.016C201.569 55.6507 200.865 53.5813 200.652 50.808L200.524 48.888C200.396 46.4133 200.14 44.4933 199.756 43.128C199.372 41.7627 198.604 41.08 197.452 41.08C196.983 41.08 196.62 41.208 196.364 41.464C196.151 41.6773 195.959 42.04 195.788 42.552C193.655 48.2693 190.796 52.8987 187.212 56.44C183.671 59.9387 179.703 61.688 175.308 61.688ZM275.503 41.464C275.759 41.08 276.1 40.888 276.527 40.888C277.124 40.888 277.636 41.144 278.063 41.656C278.532 42.168 278.639 42.6373 278.383 43.064L277.167 45.432C275.972 47.9067 274.799 50.0613 273.647 51.896C272.538 53.7307 271.087 55.3733 269.295 56.824C267.546 58.2747 265.562 59 263.343 59C261.21 59 259.631 58.1253 258.607 56.376C257.626 54.6267 257.135 52.3227 257.135 49.464C257.135 48.0133 257.306 46.2213 257.647 44.088C255.002 43.96 252.399 43.5973 249.839 43L247.535 47.16C245.103 51.384 242.33 54.8613 239.215 57.592C236.143 60.3227 232.986 61.688 229.743 61.688C226.97 61.688 224.666 61.176 222.831 60.152C220.996 59.128 219.652 57.8053 218.799 56.184C217.903 54.5627 217.455 52.8133 217.455 50.936C217.455 49.1867 217.818 47.5013 218.543 45.88C219.268 44.2587 220.271 42.9573 221.551 41.976C222.831 40.9947 224.303 40.504 225.967 40.504C226.223 40.504 226.436 40.5893 226.607 40.76C226.82 40.888 226.927 41.0587 226.927 41.272C226.927 42.68 227.524 43.832 228.719 44.728C229.914 45.5813 231.407 46.008 233.199 46.008C236.868 46.008 240.282 44.1947 243.439 40.568C240.111 38.8613 237.487 36.6853 235.567 34.04C233.69 31.3947 232.751 28.4933 232.751 25.336C232.751 23.16 233.22 21.2827 234.159 19.704C235.098 18.1253 236.356 16.9307 237.935 16.12C239.514 15.3093 241.22 14.904 243.055 14.904C245.359 14.904 247.108 15.5227 248.303 16.76C249.498 17.9547 250.095 19.384 250.095 21.048C250.095 21.5173 249.967 21.88 249.711 22.136C249.455 22.392 249.114 22.4987 248.687 22.456C247.236 22.2853 245.978 22.648 244.911 23.544C243.844 24.44 243.311 25.9547 243.311 28.088C243.311 31.3733 244.506 34.0187 246.895 36.024L248.623 33.08C253.146 24.9307 257.476 19.192 261.615 15.864C265.796 12.536 269.85 10.872 273.775 10.872C275.908 10.872 277.53 11.4693 278.639 12.664C279.791 13.816 280.367 15.3093 280.367 17.144C280.324 19.192 279.834 20.9627 278.895 22.456C277.956 23.9067 276.826 24.632 275.503 24.632C275.247 24.632 274.863 24.5253 274.351 24.312C273.839 24.056 273.434 23.9493 273.135 23.992C272.452 23.992 271.727 24.5893 270.959 25.784C270.191 26.9787 269.423 28.8133 268.655 31.288C268.143 33.1227 267.738 34.7013 267.439 36.024C267.14 37.3467 266.991 38.5413 266.991 39.608C266.991 42.5947 268.079 44.088 270.255 44.088C271.279 44.088 272.26 43.8747 273.199 43.448C274.18 43.0213 274.948 42.36 275.503 41.464ZM258.607 39.736C259.503 36.664 260.676 33.4213 262.127 30.008C262.682 28.728 263.044 27.7893 263.215 27.192C263.428 26.5947 263.535 26.0187 263.535 25.464C263.535 24.8667 263.279 24.568 262.767 24.568C262.34 24.568 261.871 24.76 261.359 25.144C260.89 25.4853 260.207 26.168 259.311 27.192C257.434 29.624 255.044 33.464 252.143 38.712C253.892 39.2667 256.047 39.608 258.607 39.736ZM281.872 61.688C279.525 61.688 277.499 61.176 275.792 60.152C274.128 59.128 272.891 57.8053 272.08 56.184C271.227 54.52 270.8 52.7707 270.8 50.936C270.8 49.1867 271.163 47.5013 271.888 45.88C272.613 44.2587 273.616 42.9573 274.896 41.976C276.176 40.9947 277.648 40.504 279.312 40.504C279.568 40.504 279.781 40.5893 279.952 40.76C280.165 40.888 280.272 41.0587 280.272 41.272C280.272 42.6373 280.912 43.768 282.192 44.664C283.472 45.56 284.965 46.008 286.672 46.008C289.019 46.008 291.344 45.0907 293.648 43.256C295.952 41.4213 297.808 38.6907 299.216 35.064L299.92 33.272C300.219 32.4613 300.645 31.3307 301.2 29.88C301.755 28.3867 302.224 27.1493 302.608 26.168C303.376 24.12 304.763 23.096 306.768 23.096C308.773 23.096 309.776 23.8213 309.776 25.272C309.776 25.656 309.712 26.0827 309.584 26.552C309.157 27.7893 308.944 28.8133 308.944 29.624C308.944 30.9893 309.584 31.672 310.864 31.672C312.315 31.672 313.595 31.1173 314.704 30.008C315.856 28.8987 316.432 27.4053 316.432 25.528C316.432 23.6507 315.557 22.264 313.808 21.368C312.101 20.4293 309.883 19.96 307.152 19.96C303.141 19.96 299.835 20.7067 297.232 22.2C294.629 23.6507 293.328 25.8267 293.328 28.728C293.328 29.6667 293.563 30.456 294.032 31.096C294.501 31.6933 295.077 31.992 295.76 31.992C295.931 32.504 296.016 32.9093 296.016 33.208C296.016 34.232 295.653 35.2987 294.928 36.408C294.203 37.5173 293.179 38.456 291.856 39.224C290.576 39.9493 289.083 40.312 287.376 40.312C284.859 40.312 282.896 39.5013 281.488 37.88C280.08 36.2587 279.376 34.296 279.376 31.992C279.376 28.2373 280.528 24.8027 282.832 21.688C285.136 18.5307 288.4 16.0347 292.624 14.2C296.891 12.3227 301.84 11.384 307.472 11.384C311.952 11.384 315.707 11.9387 318.736 13.048C321.808 14.1573 324.091 15.672 325.584 17.592C327.12 19.4693 327.888 21.5813 327.888 23.928C327.888 26.4453 327.099 28.7067 325.52 30.712C323.984 32.7173 322.021 33.9333 319.632 34.36C319.077 34.488 318.8 34.7653 318.8 35.192C318.8 35.4053 318.885 35.5973 319.056 35.768C321.104 37.816 322.128 40.4827 322.128 43.768C322.128 46.8827 321.445 49.656 320.08 52.088C318.715 54.4773 316.923 56.3333 314.704 57.656C312.485 58.9787 310.117 59.64 307.6 59.64C304.827 59.64 302.608 58.8507 300.944 57.272C299.28 55.6933 298.363 53.56 298.192 50.872C295.845 54.4133 293.285 57.1013 290.512 58.936C287.781 60.7707 284.901 61.688 281.872 61.688ZM308.176 45.752C309.627 45.752 310.8 45.1547 311.696 43.96C312.592 42.7227 313.04 41.2933 313.04 39.672C313.04 38.7333 312.699 37.944 312.016 37.304C311.333 36.6213 310.331 36.28 309.008 36.28C307.643 36.28 306.555 36.7707 305.744 37.752C304.933 38.7333 304.528 39.9067 304.528 41.272C304.528 42.552 304.827 43.6187 305.424 44.472C306.064 45.3253 306.981 45.752 308.176 45.752ZM332.747 61.688C330.4 61.688 328.374 61.176 326.667 60.152C325.003 59.128 323.766 57.8053 322.955 56.184C322.102 54.52 321.675 52.7707 321.675 50.936C321.675 49.1867 322.038 47.5013 322.763 45.88C323.488 44.2587 324.491 42.9573 325.771 41.976C327.051 40.9947 328.523 40.504 330.187 40.504C330.443 40.504 330.656 40.5893 330.827 40.76C331.04 40.888 331.147 41.0587 331.147 41.272C331.147 42.6373 331.787 43.768 333.067 44.664C334.347 45.56 335.84 46.008 337.547 46.008C339.894 46.008 342.219 45.0907 344.523 43.256C346.827 41.4213 348.683 38.6907 350.091 35.064L350.795 33.272C351.094 32.4613 351.52 31.3307 352.075 29.88C352.63 28.3867 353.099 27.1493 353.483 26.168C354.251 24.12 355.638 23.096 357.643 23.096C359.648 23.096 360.651 23.8213 360.651 25.272C360.651 25.656 360.587 26.0827 360.459 26.552C360.032 27.7893 359.819 28.8133 359.819 29.624C359.819 30.9893 360.459 31.672 361.739 31.672C363.19 31.672 364.47 31.1173 365.579 30.008C366.731 28.8987 367.307 27.4053 367.307 25.528C367.307 23.6507 366.432 22.264 364.683 21.368C362.976 20.4293 360.758 19.96 358.027 19.96C354.016 19.96 350.71 20.7067 348.107 22.2C345.504 23.6507 344.203 25.8267 344.203 28.728C344.203 29.6667 344.438 30.456 344.907 31.096C345.376 31.6933 345.952 31.992 346.635 31.992C346.806 32.504 346.891 32.9093 346.891 33.208C346.891 34.232 346.528 35.2987 345.803 36.408C345.078 37.5173 344.054 38.456 342.731 39.224C341.451 39.9493 339.958 40.312 338.251 40.312C335.734 40.312 333.771 39.5013 332.363 37.88C330.955 36.2587 330.251 34.296 330.251 31.992C330.251 28.2373 331.403 24.8027 333.707 21.688C336.011 18.5307 339.275 16.0347 343.499 14.2C347.766 12.3227 352.715 11.384 358.347 11.384C362.827 11.384 366.582 11.9387 369.611 13.048C372.683 14.1573 374.966 15.672 376.459 17.592C377.995 19.4693 378.763 21.5813 378.763 23.928C378.763 26.4453 377.974 28.7067 376.395 30.712C374.859 32.7173 372.896 33.9333 370.507 34.36C369.952 34.488 369.675 34.7653 369.675 35.192C369.675 35.4053 369.76 35.5973 369.931 35.768C371.979 37.816 373.003 40.4827 373.003 43.768C373.003 46.8827 372.32 49.656 370.955 52.088C369.59 54.4773 367.798 56.3333 365.579 57.656C363.36 58.9787 360.992 59.64 358.475 59.64C355.702 59.64 353.483 58.8507 351.819 57.272C350.155 55.6933 349.238 53.56 349.067 50.872C346.72 54.4133 344.16 57.1013 341.387 58.936C338.656 60.7707 335.776 61.688 332.747 61.688ZM359.051 45.752C360.502 45.752 361.675 45.1547 362.571 43.96C363.467 42.7227 363.915 41.2933 363.915 39.672C363.915 38.7333 363.574 37.944 362.891 37.304C362.208 36.6213 361.206 36.28 359.883 36.28C358.518 36.28 357.43 36.7707 356.619 37.752C355.808 38.7333 355.403 39.9067 355.403 41.272C355.403 42.552 355.702 43.6187 356.299 44.472C356.939 45.3253 357.856 45.752 359.051 45.752ZM396.166 72.76C392.454 72.76 389.361 72.0987 386.886 70.776C384.454 69.4533 382.662 67.7467 381.51 65.656C380.358 63.5653 379.782 61.3253 379.782 58.936C379.782 56.9307 380.166 55.0533 380.934 53.304C381.745 51.512 382.875 50.0827 384.326 49.016C385.777 47.9067 387.441 47.352 389.318 47.352C390.043 47.352 390.555 47.4373 390.854 47.608C391.195 47.7787 391.387 47.9707 391.43 48.184C391.473 48.3973 391.494 48.76 391.494 49.272C391.494 50.7653 391.857 52.1733 392.582 53.496C393.307 54.8187 394.438 55.9067 395.974 56.76C397.553 57.6133 399.473 58.04 401.734 58.04C405.403 58.04 408.305 57.1013 410.438 55.224C412.614 53.304 414.107 51.192 414.918 48.888C415.771 46.5413 416.198 44.6 416.198 43.064C416.198 42.552 416.006 42.296 415.622 42.296C415.281 42.296 415.003 42.552 414.79 43.064C413.809 46.4773 412.209 49.144 409.99 51.064C407.771 52.9413 405.339 53.88 402.694 53.88C399.921 53.88 397.766 52.8987 396.23 50.936C394.694 48.9307 393.926 46.328 393.926 43.128C393.926 40.5253 394.609 37.5813 395.974 34.296C397.339 30.968 399.11 27.9387 401.286 25.208C403.462 22.4347 405.681 20.4933 407.942 19.384C402.566 19.1707 398.342 19.768 395.27 21.176C392.198 22.584 390.662 24.6747 390.662 27.448C390.662 28.3867 390.897 29.176 391.366 29.816C391.835 30.4133 392.411 30.712 393.094 30.712C393.265 31.224 393.35 31.6293 393.35 31.928C393.35 32.952 392.987 34.0187 392.262 35.128C391.537 36.2373 390.513 37.176 389.19 37.944C387.91 38.6693 386.417 39.032 384.71 39.032C382.193 39.032 380.23 38.2213 378.822 36.6C377.414 34.9787 376.71 33.016 376.71 30.712C376.71 27.2133 377.883 23.992 380.23 21.048C382.619 18.104 386.011 15.7573 390.406 14.008C394.801 12.2587 399.857 11.384 405.574 11.384C408.774 11.384 411.291 11.8533 413.126 12.792C415.003 13.688 415.942 15.0533 415.942 16.888C415.942 17.6133 415.771 18.4453 415.43 19.384C413.595 20.1093 411.846 21.4533 410.182 23.416C408.561 25.336 407.238 27.4693 406.214 29.816C405.233 32.1627 404.742 34.2533 404.742 36.088C404.742 38.9893 405.787 40.44 407.878 40.44C410.31 40.44 412.273 39.224 413.766 36.792C415.302 34.3173 416.859 30.4133 418.438 25.08C419.846 20.088 421.233 16.8027 422.598 15.224C423.963 13.6453 425.35 12.856 426.758 12.856C428.123 12.856 429.169 13.2613 429.894 14.072C430.662 14.84 431.046 15.9493 431.046 17.4C431.046 18.4667 430.79 19.576 430.278 20.728C429.809 21.88 429.083 23.352 428.102 25.144C427.249 26.7227 426.523 28.1307 425.926 29.368C425.371 30.5627 424.902 31.8213 424.518 33.144C424.39 33.528 424.091 34.4453 423.622 35.896C423.195 37.304 422.79 38.8613 422.406 40.568C422.022 42.232 421.681 44.0453 421.382 46.008C420.102 54.4987 417.371 61.0693 413.19 65.72C409.009 70.4133 403.334 72.76 396.166 72.76ZM518.907 17.272C520.357 17.7413 521.424 18.552 522.107 19.704C522.832 20.8133 523.195 22.0507 523.195 23.416C523.195 24.696 522.768 25.9547 521.915 27.192C521.061 28.4293 520.08 29.4107 518.971 30.136C518.715 30.3067 518.373 30.328 517.947 30.2C517.563 30.0293 517.264 29.7947 517.051 29.496C516.837 29.1547 516.837 28.8347 517.051 28.536C517.477 28.024 517.691 27.3413 517.691 26.488C517.691 25.8053 517.499 25.2507 517.115 24.824C516.773 24.3547 516.24 24.12 515.515 24.12C514.661 24.12 513.957 24.4187 513.403 25.016C512.891 25.5707 512.635 26.4453 512.635 27.64C512.635 28.4507 512.848 29.2827 513.275 30.136C513.701 30.9893 514.341 32.0773 515.195 33.4C516.261 35.0213 517.072 36.4507 517.627 37.688C518.181 38.8827 518.459 40.184 518.459 41.592C518.459 43.896 517.947 45.9653 516.923 47.8C515.941 49.6347 514.533 51.064 512.699 52.088C510.907 53.112 508.88 53.624 506.619 53.624C505.723 53.624 504.741 53.5173 503.675 53.304C503.248 55.7787 502.651 57.6773 501.883 59C501.157 60.3227 500.411 60.984 499.643 60.984C498.363 60.984 497.595 60.408 497.339 59.256C497.211 58.744 497.467 57.848 498.107 56.568C498.789 55.288 499.813 53.9013 501.179 52.408C499.472 51.5973 498.128 50.36 497.147 48.696C496.208 46.9893 495.739 44.9627 495.739 42.616C495.739 40.3547 496.144 38.4773 496.955 36.984C497.765 35.4907 498.747 34.424 499.899 33.784C501.051 33.1013 502.16 32.76 503.227 32.76C503.824 32.76 504.293 32.8667 504.635 33.08C505.019 33.2933 505.211 33.592 505.211 33.976C505.211 34.232 505.04 34.552 504.699 34.936C504.357 35.2773 504.08 35.64 503.867 36.024C503.653 36.408 503.547 36.9627 503.547 37.688C503.547 38.968 503.888 39.9707 504.571 40.696C505.253 41.4213 506.213 41.784 507.451 41.784C508.56 41.784 509.477 41.4427 510.203 40.76C510.928 40.0347 511.291 39.096 511.291 37.944C511.291 37.2187 511.12 36.5147 510.779 35.832C510.48 35.1493 509.989 34.1893 509.307 32.952C508.411 31.416 507.728 30.0933 507.259 28.984C506.789 27.832 506.555 26.5733 506.555 25.208C506.555 22.8187 507.323 20.8133 508.859 19.192C510.395 17.5707 512.635 16.76 515.579 16.76H515.899C516.325 14.3707 516.901 12.536 517.627 11.256C518.395 9.976 519.163 9.336 519.931 9.336C521.253 9.336 522.021 9.89066 522.235 11C522.363 11.4693 522.128 12.3013 521.531 13.496C520.976 14.648 520.101 15.9067 518.907 17.272ZM536.484 59.768C531.705 59.768 527.865 58.2533 524.964 55.224C522.063 52.152 520.612 47.544 520.612 41.4C520.612 36.3227 521.764 31.5227 524.068 27C526.415 22.4773 529.508 18.872 533.348 16.184C537.231 13.4533 541.327 12.088 545.636 12.088C549.604 12.088 552.612 12.92 554.66 14.584C556.751 16.2053 557.796 18.424 557.796 21.24C557.796 23.5867 557.177 25.7627 555.94 27.768C554.745 29.7733 553.252 31.352 551.46 32.504C549.668 33.656 547.961 34.232 546.34 34.232C545.657 34.232 545.081 34.0613 544.612 33.72C544.185 33.3787 543.972 32.9733 543.972 32.504C543.972 32.3333 544.057 32.0347 544.228 31.608C545.465 29.2613 546.084 27.3413 546.084 25.848C546.084 24.7813 545.743 23.992 545.06 23.48C544.42 22.9253 543.545 22.648 542.436 22.648C540.559 22.648 538.831 23.2453 537.252 24.44C535.673 25.592 534.436 27.1493 533.54 29.112C532.644 31.032 532.196 33.0373 532.196 35.128C532.196 38.1573 533.263 40.6747 535.396 42.68C537.572 44.6427 540.687 45.624 544.74 45.624C547.001 45.624 549.113 45.304 551.076 44.664C553.081 44.024 554.575 42.9573 555.556 41.464C555.812 41.08 556.153 40.888 556.58 40.888C557.135 40.888 557.625 41.144 558.052 41.656C558.521 42.168 558.649 42.6373 558.436 43.064C555.663 48.6533 552.505 52.8347 548.964 55.608C545.465 58.3813 541.305 59.768 536.484 59.768ZM561.871 61.688C558.415 61.688 555.812 60.6427 554.062 58.552C552.356 56.4613 551.502 53.9227 551.502 50.936C551.502 49.1867 551.865 47.5013 552.59 45.88C553.316 44.2587 554.319 42.9573 555.599 41.976C556.879 40.9947 558.351 40.504 560.015 40.504C560.271 40.504 560.484 40.5893 560.655 40.76C560.868 40.888 560.975 41.0587 560.975 41.272C560.975 42.68 561.487 43.832 562.51 44.728C563.535 45.5813 564.815 46.008 566.351 46.008C570.575 46.008 574.351 42.36 577.679 35.064L578.383 33.272C578.681 32.4613 579.108 31.3307 579.663 29.88C580.217 28.3867 580.687 27.1493 581.071 26.168C581.839 24.12 583.225 23.096 585.231 23.096C587.236 23.096 588.239 23.8213 588.239 25.272C588.239 25.656 588.175 26.0827 588.047 26.552C586.937 29.752 586.297 32.0133 586.127 33.336C586.084 34.0613 586.255 34.5307 586.639 34.744C587.023 34.9573 587.663 35.064 588.559 35.064C589.881 35.064 591.119 34.7227 592.271 34.04C593.423 33.3147 594.34 32.3547 595.023 31.16C595.748 29.9227 596.111 28.5573 596.111 27.064C596.111 24.5893 595.087 22.7973 593.039 21.688C591.033 20.536 588.281 19.96 584.783 19.96C582.095 19.96 579.769 20.3653 577.807 21.176C575.844 21.9867 574.351 23.032 573.327 24.312C572.303 25.592 571.791 26.936 571.791 28.344C571.791 29.1973 572.025 29.9227 572.495 30.52C572.964 31.0747 573.54 31.352 574.223 31.352C574.393 31.864 574.479 32.2693 574.479 32.568C574.479 33.592 574.116 34.6587 573.391 35.768C572.665 36.8773 571.641 37.816 570.319 38.584C569.039 39.3093 567.545 39.672 565.839 39.672C563.321 39.672 561.359 38.8187 559.951 37.112C558.543 35.3627 557.839 33.2507 557.839 30.776C557.839 27.6613 558.991 24.6107 561.295 21.624C563.641 18.6373 566.948 16.184 571.215 14.264C575.524 12.344 580.431 11.384 585.935 11.384C592.804 11.384 597.945 12.5787 601.359 14.968C604.815 17.3573 606.543 20.7707 606.543 25.208C606.543 28.792 605.625 31.8213 603.791 34.296C601.999 36.728 599.524 38.2 596.367 38.712C595.513 38.84 594.916 38.9893 594.575 39.16C594.276 39.288 594.127 39.48 594.127 39.736C594.127 39.992 594.276 40.2267 594.575 40.44C594.873 40.6533 595.193 40.9307 595.535 41.272C595.919 41.5707 596.303 42.0613 596.687 42.744C597.241 43.7253 597.839 44.472 598.479 44.984C599.161 45.496 600.079 45.752 601.231 45.752C602.553 45.752 603.663 45.4107 604.559 44.728C605.497 44.0027 606.457 42.9147 607.439 41.464C607.695 41.08 608.036 40.888 608.463 40.888C609.017 40.888 609.508 41.144 609.935 41.656C610.361 42.1253 610.489 42.5947 610.319 43.064C608.484 47.3733 606.095 51.1067 603.151 54.264C600.207 57.4213 597.177 59 594.062 59C592.143 59 590.564 58.3387 589.326 57.016C588.132 55.6507 587.428 53.5813 587.215 50.808L587.087 48.888C586.959 46.4133 586.703 44.4933 586.319 43.128C585.935 41.7627 585.167 41.08 584.015 41.08C583.545 41.08 583.183 41.208 582.927 41.464C582.713 41.6773 582.521 42.04 582.351 42.552C580.217 48.2693 577.359 52.8987 573.775 56.44C570.233 59.9387 566.265 61.688 561.871 61.688ZM662.066 41.464C662.322 41.08 662.663 40.888 663.09 40.888C663.687 40.888 664.199 41.144 664.626 41.656C665.095 42.168 665.202 42.6373 664.946 43.064L663.73 45.432C662.535 47.9067 661.362 50.0613 660.21 51.896C659.1 53.7307 657.65 55.3733 655.858 56.824C654.108 58.2747 652.124 59 649.906 59C647.772 59 646.194 58.1253 645.17 56.376C644.188 54.6267 643.698 52.3227 643.698 49.464C643.698 48.0133 643.868 46.2213 644.21 44.088C641.564 43.96 638.962 43.5973 636.402 43L634.098 47.16C631.666 51.384 628.892 54.8613 625.778 57.592C622.706 60.3227 619.548 61.688 616.306 61.688C613.532 61.688 611.228 61.176 609.394 60.152C607.559 59.128 606.215 57.8053 605.361 56.184C604.465 54.5627 604.017 52.8133 604.017 50.936C604.017 49.1867 604.38 47.5013 605.105 45.88C605.831 44.2587 606.834 42.9573 608.114 41.976C609.394 40.9947 610.866 40.504 612.53 40.504C612.786 40.504 612.999 40.5893 613.17 40.76C613.383 40.888 613.49 41.0587 613.49 41.272C613.49 42.68 614.087 43.832 615.282 44.728C616.476 45.5813 617.97 46.008 619.762 46.008C623.431 46.008 626.844 44.1947 630.002 40.568C626.674 38.8613 624.05 36.6853 622.13 34.04C620.252 31.3947 619.314 28.4933 619.314 25.336C619.314 23.16 619.783 21.2827 620.722 19.704C621.66 18.1253 622.919 16.9307 624.498 16.12C626.076 15.3093 627.783 14.904 629.618 14.904C631.922 14.904 633.671 15.5227 634.866 16.76C636.06 17.9547 636.658 19.384 636.658 21.048C636.658 21.5173 636.53 21.88 636.274 22.136C636.018 22.392 635.676 22.4987 635.25 22.456C633.799 22.2853 632.54 22.648 631.474 23.544C630.407 24.44 629.874 25.9547 629.874 28.088C629.874 31.3733 631.068 34.0187 633.458 36.024L635.186 33.08C639.708 24.9307 644.039 19.192 648.178 15.864C652.359 12.536 656.412 10.872 660.338 10.872C662.471 10.872 664.092 11.4693 665.202 12.664C666.354 13.816 666.93 15.3093 666.93 17.144C666.887 19.192 666.396 20.9627 665.458 22.456C664.519 23.9067 663.388 24.632 662.066 24.632C661.81 24.632 661.426 24.5253 660.914 24.312C660.402 24.056 659.996 23.9493 659.698 23.992C659.015 23.992 658.29 24.5893 657.522 25.784C656.754 26.9787 655.986 28.8133 655.218 31.288C654.706 33.1227 654.3 34.7013 654.002 36.024C653.703 37.3467 653.554 38.5413 653.554 39.608C653.554 42.5947 654.642 44.088 656.818 44.088C657.842 44.088 658.823 43.8747 659.762 43.448C660.743 43.0213 661.511 42.36 662.066 41.464ZM645.17 39.736C646.066 36.664 647.239 33.4213 648.69 30.008C649.244 28.728 649.607 27.7893 649.778 27.192C649.991 26.5947 650.098 26.0187 650.098 25.464C650.098 24.8667 649.842 24.568 649.33 24.568C648.903 24.568 648.434 24.76 647.922 25.144C647.452 25.4853 646.77 26.168 645.874 27.192C643.996 29.624 641.607 33.464 638.706 38.712C640.455 39.2667 642.61 39.608 645.17 39.736ZM668.435 61.688C666.088 61.688 664.061 61.176 662.355 60.152C660.69 59.128 659.453 57.8053 658.642 56.184C657.789 54.52 657.362 52.7707 657.362 50.936C657.362 49.1867 657.725 47.5013 658.451 45.88C659.176 44.2587 660.178 42.9573 661.459 41.976C662.739 40.9947 664.211 40.504 665.875 40.504C666.131 40.504 666.344 40.5893 666.515 40.76C666.728 40.888 666.835 41.0587 666.835 41.272C666.835 42.6373 667.475 43.768 668.755 44.664C670.035 45.56 671.528 46.008 673.235 46.008C675.581 46.008 677.907 45.0907 680.211 43.256C682.515 41.4213 684.371 38.6907 685.779 35.064L686.483 33.272C686.781 32.4613 687.208 31.3307 687.763 29.88C688.317 28.3867 688.787 27.1493 689.171 26.168C689.939 24.12 691.325 23.096 693.331 23.096C695.336 23.096 696.339 23.8213 696.339 25.272C696.339 25.656 696.275 26.0827 696.147 26.552C695.72 27.7893 695.507 28.8133 695.507 29.624C695.507 30.9893 696.147 31.672 697.427 31.672C698.877 31.672 700.157 31.1173 701.267 30.008C702.419 28.8987 702.995 27.4053 702.995 25.528C702.995 23.6507 702.12 22.264 700.371 21.368C698.664 20.4293 696.445 19.96 693.715 19.96C689.704 19.96 686.397 20.7067 683.795 22.2C681.192 23.6507 679.891 25.8267 679.891 28.728C679.891 29.6667 680.125 30.456 680.595 31.096C681.064 31.6933 681.64 31.992 682.323 31.992C682.493 32.504 682.579 32.9093 682.579 33.208C682.579 34.232 682.216 35.2987 681.491 36.408C680.765 37.5173 679.741 38.456 678.419 39.224C677.139 39.9493 675.645 40.312 673.939 40.312C671.421 40.312 669.459 39.5013 668.051 37.88C666.643 36.2587 665.939 34.296 665.939 31.992C665.939 28.2373 667.091 24.8027 669.395 21.688C671.699 18.5307 674.963 16.0347 679.187 14.2C683.453 12.3227 688.403 11.384 694.035 11.384C698.515 11.384 702.269 11.9387 705.299 13.048C708.371 14.1573 710.653 15.672 712.147 17.592C713.683 19.4693 714.451 21.5813 714.451 23.928C714.451 26.4453 713.661 28.7067 712.083 30.712C710.547 32.7173 708.584 33.9333 706.195 34.36C705.64 34.488 705.363 34.7653 705.363 35.192C705.363 35.4053 705.448 35.5973 705.619 35.768C707.667 37.816 708.691 40.4827 708.691 43.768C708.691 46.8827 708.008 49.656 706.643 52.088C705.277 54.4773 703.485 56.3333 701.267 57.656C699.048 58.9787 696.68 59.64 694.163 59.64C691.389 59.64 689.171 58.8507 687.507 57.272C685.843 55.6933 684.925 53.56 684.755 50.872C682.408 54.4133 679.848 57.1013 677.075 58.936C674.344 60.7707 671.464 61.688 668.435 61.688ZM694.739 45.752C696.189 45.752 697.363 45.1547 698.259 43.96C699.155 42.7227 699.603 41.2933 699.603 39.672C699.603 38.7333 699.261 37.944 698.579 37.304C697.896 36.6213 696.893 36.28 695.571 36.28C694.205 36.28 693.117 36.7707 692.307 37.752C691.496 38.7333 691.091 39.9067 691.091 41.272C691.091 42.552 691.389 43.6187 691.987 44.472C692.627 45.3253 693.544 45.752 694.739 45.752ZM719.31 61.688C716.963 61.688 714.936 61.176 713.23 60.152C711.565 59.128 710.328 57.8053 709.517 56.184C708.664 54.52 708.237 52.7707 708.237 50.936C708.237 49.1867 708.6 47.5013 709.326 45.88C710.051 44.2587 711.053 42.9573 712.334 41.976C713.614 40.9947 715.086 40.504 716.75 40.504C717.006 40.504 717.219 40.5893 717.39 40.76C717.603 40.888 717.71 41.0587 717.71 41.272C717.71 42.6373 718.35 43.768 719.63 44.664C720.91 45.56 722.403 46.008 724.11 46.008C726.456 46.008 728.782 45.0907 731.086 43.256C733.39 41.4213 735.246 38.6907 736.654 35.064L737.358 33.272C737.656 32.4613 738.083 31.3307 738.638 29.88C739.192 28.3867 739.662 27.1493 740.046 26.168C740.814 24.12 742.2 23.096 744.206 23.096C746.211 23.096 747.214 23.8213 747.214 25.272C747.214 25.656 747.15 26.0827 747.022 26.552C746.595 27.7893 746.382 28.8133 746.382 29.624C746.382 30.9893 747.022 31.672 748.302 31.672C749.752 31.672 751.032 31.1173 752.142 30.008C753.294 28.8987 753.87 27.4053 753.87 25.528C753.87 23.6507 752.995 22.264 751.246 21.368C749.539 20.4293 747.32 19.96 744.59 19.96C740.579 19.96 737.272 20.7067 734.67 22.2C732.067 23.6507 730.766 25.8267 730.766 28.728C730.766 29.6667 731 30.456 731.47 31.096C731.939 31.6933 732.515 31.992 733.198 31.992C733.368 32.504 733.454 32.9093 733.454 33.208C733.454 34.232 733.091 35.2987 732.366 36.408C731.64 37.5173 730.616 38.456 729.294 39.224C728.014 39.9493 726.52 40.312 724.814 40.312C722.296 40.312 720.334 39.5013 718.926 37.88C717.518 36.2587 716.814 34.296 716.814 31.992C716.814 28.2373 717.966 24.8027 720.27 21.688C722.574 18.5307 725.838 16.0347 730.062 14.2C734.328 12.3227 739.278 11.384 744.91 11.384C749.39 11.384 753.144 11.9387 756.174 13.048C759.246 14.1573 761.528 15.672 763.022 17.592C764.558 19.4693 765.326 21.5813 765.326 23.928C765.326 26.4453 764.536 28.7067 762.958 30.712C761.422 32.7173 759.459 33.9333 757.07 34.36C756.515 34.488 756.238 34.7653 756.238 35.192C756.238 35.4053 756.323 35.5973 756.494 35.768C758.542 37.816 759.566 40.4827 759.566 43.768C759.566 46.8827 758.883 49.656 757.518 52.088C756.152 54.4773 754.36 56.3333 752.142 57.656C749.923 58.9787 747.555 59.64 745.038 59.64C742.264 59.64 740.046 58.8507 738.382 57.272C736.718 55.6933 735.8 53.56 735.63 50.872C733.283 54.4133 730.723 57.1013 727.95 58.936C725.219 60.7707 722.339 61.688 719.31 61.688ZM745.614 45.752C747.064 45.752 748.238 45.1547 749.134 43.96C750.03 42.7227 750.478 41.2933 750.478 39.672C750.478 38.7333 750.136 37.944 749.454 37.304C748.771 36.6213 747.768 36.28 746.446 36.28C745.08 36.28 743.992 36.7707 743.182 37.752C742.371 38.7333 741.966 39.9067 741.966 41.272C741.966 42.552 742.264 43.6187 742.862 44.472C743.502 45.3253 744.419 45.752 745.614 45.752ZM782.729 72.76C779.017 72.76 775.923 72.0987 773.449 70.776C771.017 69.4533 769.225 67.7467 768.073 65.656C766.921 63.5653 766.345 61.3253 766.345 58.936C766.345 56.9307 766.729 55.0533 767.497 53.304C768.307 51.512 769.438 50.0827 770.889 49.016C772.339 47.9067 774.003 47.352 775.881 47.352C776.606 47.352 777.118 47.4373 777.417 47.608C777.758 47.7787 777.95 47.9707 777.993 48.184C778.035 48.3973 778.057 48.76 778.057 49.272C778.057 50.7653 778.419 52.1733 779.145 53.496C779.87 54.8187 781.001 55.9067 782.537 56.76C784.115 57.6133 786.035 58.04 788.297 58.04C791.966 58.04 794.867 57.1013 797.001 55.224C799.177 53.304 800.67 51.192 801.481 48.888C802.334 46.5413 802.761 44.6 802.761 43.064C802.761 42.552 802.569 42.296 802.185 42.296C801.843 42.296 801.566 42.552 801.353 43.064C800.371 46.4773 798.771 49.144 796.553 51.064C794.334 52.9413 791.902 53.88 789.257 53.88C786.483 53.88 784.329 52.8987 782.793 50.936C781.257 48.9307 780.489 46.328 780.489 43.128C780.489 40.5253 781.171 37.5813 782.537 34.296C783.902 30.968 785.673 27.9387 787.849 25.208C790.025 22.4347 792.243 20.4933 794.505 19.384C789.129 19.1707 784.905 19.768 781.833 21.176C778.761 22.584 777.225 24.6747 777.225 27.448C777.225 28.3867 777.459 29.176 777.929 29.816C778.398 30.4133 778.974 30.712 779.657 30.712C779.827 31.224 779.913 31.6293 779.913 31.928C779.913 32.952 779.55 34.0187 778.825 35.128C778.099 36.2373 777.075 37.176 775.753 37.944C774.473 38.6693 772.979 39.032 771.273 39.032C768.755 39.032 766.793 38.2213 765.385 36.6C763.977 34.9787 763.273 33.016 763.273 30.712C763.273 27.2133 764.446 23.992 766.793 21.048C769.182 18.104 772.574 15.7573 776.969 14.008C781.363 12.2587 786.419 11.384 792.137 11.384C795.337 11.384 797.854 11.8533 799.689 12.792C801.566 13.688 802.505 15.0533 802.505 16.888C802.505 17.6133 802.334 18.4453 801.993 19.384C800.158 20.1093 798.409 21.4533 796.745 23.416C795.123 25.336 793.801 27.4693 792.777 29.816C791.795 32.1627 791.305 34.2533 791.305 36.088C791.305 38.9893 792.35 40.44 794.441 40.44C796.873 40.44 798.835 39.224 800.329 36.792C801.865 34.3173 803.422 30.4133 805.001 25.08C806.409 20.088 807.795 16.8027 809.161 15.224C810.526 13.6453 811.913 12.856 813.321 12.856C814.686 12.856 815.731 13.2613 816.457 14.072C817.225 14.84 817.609 15.9493 817.609 17.4C817.609 18.4667 817.353 19.576 816.841 20.728C816.371 21.88 815.646 23.352 814.665 25.144C813.811 26.7227 813.086 28.1307 812.489 29.368C811.934 30.5627 811.465 31.8213 811.081 33.144C810.953 33.528 810.654 34.4453 810.185 35.896C809.758 37.304 809.353 38.8613 808.969 40.568C808.585 42.232 808.243 44.0453 807.945 46.008C806.665 54.4987 803.934 61.0693 799.753 65.72C795.571 70.4133 789.897 72.76 782.729 72.76ZM905.469 17.272C906.92 17.7413 907.986 18.552 908.669 19.704C909.394 20.8133 909.757 22.0507 909.757 23.416C909.757 24.696 909.33 25.9547 908.477 27.192C907.624 28.4293 906.642 29.4107 905.533 30.136C905.277 30.3067 904.936 30.328 904.509 30.2C904.125 30.0293 903.826 29.7947 903.613 29.496C903.4 29.1547 903.4 28.8347 903.613 28.536C904.04 28.024 904.253 27.3413 904.253 26.488C904.253 25.8053 904.061 25.2507 903.677 24.824C903.336 24.3547 902.802 24.12 902.077 24.12C901.224 24.12 900.52 24.4187 899.965 25.016C899.453 25.5707 899.197 26.4453 899.197 27.64C899.197 28.4507 899.41 29.2827 899.837 30.136C900.264 30.9893 900.904 32.0773 901.757 33.4C902.824 35.0213 903.634 36.4507 904.189 37.688C904.744 38.8827 905.021 40.184 905.021 41.592C905.021 43.896 904.509 45.9653 903.485 47.8C902.504 49.6347 901.096 51.064 899.261 52.088C897.469 53.112 895.442 53.624 893.181 53.624C892.285 53.624 891.304 53.5173 890.237 53.304C889.81 55.7787 889.213 57.6773 888.445 59C887.72 60.3227 886.973 60.984 886.205 60.984C884.925 60.984 884.157 60.408 883.901 59.256C883.773 58.744 884.029 57.848 884.669 56.568C885.352 55.288 886.376 53.9013 887.741 52.408C886.034 51.5973 884.69 50.36 883.709 48.696C882.77 46.9893 882.301 44.9627 882.301 42.616C882.301 40.3547 882.706 38.4773 883.517 36.984C884.328 35.4907 885.309 34.424 886.461 33.784C887.613 33.1013 888.722 32.76 889.789 32.76C890.386 32.76 890.856 32.8667 891.197 33.08C891.581 33.2933 891.773 33.592 891.773 33.976C891.773 34.232 891.602 34.552 891.261 34.936C890.92 35.2773 890.642 35.64 890.429 36.024C890.216 36.408 890.109 36.9627 890.109 37.688C890.109 38.968 890.45 39.9707 891.133 40.696C891.816 41.4213 892.776 41.784 894.013 41.784C895.122 41.784 896.04 41.4427 896.765 40.76C897.49 40.0347 897.853 39.096 897.853 37.944C897.853 37.2187 897.682 36.5147 897.341 35.832C897.042 35.1493 896.552 34.1893 895.869 32.952C894.973 31.416 894.29 30.0933 893.821 28.984C893.352 27.832 893.117 26.5733 893.117 25.208C893.117 22.8187 893.885 20.8133 895.421 19.192C896.957 17.5707 899.197 16.76 902.141 16.76H902.461C902.888 14.3707 903.464 12.536 904.189 11.256C904.957 9.976 905.725 9.336 906.493 9.336C907.816 9.336 908.584 9.89066 908.797 11C908.925 11.4693 908.69 12.3013 908.093 13.496C907.538 14.648 906.664 15.9067 905.469 17.272ZM923.047 59.768C918.268 59.768 914.428 58.2533 911.527 55.224C908.625 52.152 907.174 47.544 907.174 41.4C907.174 36.3227 908.327 31.5227 910.631 27C912.977 22.4773 916.071 18.872 919.911 16.184C923.793 13.4533 927.889 12.088 932.199 12.088C936.167 12.088 939.175 12.92 941.222 14.584C943.313 16.2053 944.359 18.424 944.359 21.24C944.359 23.5867 943.74 25.7627 942.503 27.768C941.308 29.7733 939.815 31.352 938.023 32.504C936.231 33.656 934.524 34.232 932.903 34.232C932.22 34.232 931.644 34.0613 931.175 33.72C930.748 33.3787 930.535 32.9733 930.535 32.504C930.535 32.3333 930.62 32.0347 930.791 31.608C932.028 29.2613 932.647 27.3413 932.647 25.848C932.647 24.7813 932.305 23.992 931.623 23.48C930.983 22.9253 930.108 22.648 928.999 22.648C927.121 22.648 925.393 23.2453 923.815 24.44C922.236 25.592 920.999 27.1493 920.103 29.112C919.207 31.032 918.759 33.0373 918.759 35.128C918.759 38.1573 919.825 40.6747 921.958 42.68C924.135 44.6427 927.249 45.624 931.303 45.624C933.564 45.624 935.676 45.304 937.639 44.664C939.644 44.024 941.137 42.9573 942.119 41.464C942.375 41.08 942.716 40.888 943.143 40.888C943.697 40.888 944.188 41.144 944.615 41.656C945.084 42.168 945.212 42.6373 944.999 43.064C942.225 48.6533 939.068 52.8347 935.527 55.608C932.028 58.3813 927.868 59.768 923.047 59.768ZM948.433 61.688C944.977 61.688 942.374 60.6427 940.625 58.552C938.918 56.4613 938.065 53.9227 938.065 50.936C938.065 49.1867 938.428 47.5013 939.153 45.88C939.878 44.2587 940.881 42.9573 942.161 41.976C943.441 40.9947 944.913 40.504 946.577 40.504C946.833 40.504 947.046 40.5893 947.217 40.76C947.43 40.888 947.537 41.0587 947.537 41.272C947.537 42.68 948.049 43.832 949.073 44.728C950.097 45.5813 951.377 46.008 952.913 46.008C957.137 46.008 960.913 42.36 964.241 35.064L964.945 33.272C965.244 32.4613 965.67 31.3307 966.225 29.88C966.78 28.3867 967.249 27.1493 967.633 26.168C968.401 24.12 969.788 23.096 971.793 23.096C973.798 23.096 974.801 23.8213 974.801 25.272C974.801 25.656 974.737 26.0827 974.609 26.552C973.5 29.752 972.86 32.0133 972.689 33.336C972.646 34.0613 972.817 34.5307 973.201 34.744C973.585 34.9573 974.225 35.064 975.121 35.064C976.444 35.064 977.681 34.7227 978.833 34.04C979.985 33.3147 980.902 32.3547 981.585 31.16C982.31 29.9227 982.673 28.5573 982.673 27.064C982.673 24.5893 981.649 22.7973 979.601 21.688C977.596 20.536 974.844 19.96 971.345 19.96C968.657 19.96 966.332 20.3653 964.369 21.176C962.406 21.9867 960.913 23.032 959.889 24.312C958.865 25.592 958.353 26.936 958.353 28.344C958.353 29.1973 958.588 29.9227 959.057 30.52C959.526 31.0747 960.102 31.352 960.785 31.352C960.956 31.864 961.041 32.2693 961.041 32.568C961.041 33.592 960.678 34.6587 959.953 35.768C959.228 36.8773 958.204 37.816 956.881 38.584C955.601 39.3093 954.108 39.672 952.401 39.672C949.884 39.672 947.921 38.8187 946.513 37.112C945.105 35.3627 944.401 33.2507 944.401 30.776C944.401 27.6613 945.553 24.6107 947.857 21.624C950.204 18.6373 953.51 16.184 957.777 14.264C962.086 12.344 966.993 11.384 972.497 11.384C979.366 11.384 984.508 12.5787 987.921 14.968C991.377 17.3573 993.105 20.7707 993.105 25.208C993.105 28.792 992.188 31.8213 990.353 34.296C988.561 36.728 986.086 38.2 982.929 38.712C982.076 38.84 981.478 38.9893 981.137 39.16C980.838 39.288 980.689 39.48 980.689 39.736C980.689 39.992 980.838 40.2267 981.137 40.44C981.436 40.6533 981.756 40.9307 982.097 41.272C982.481 41.5707 982.865 42.0613 983.249 42.744C983.804 43.7253 984.401 44.472 985.041 44.984C985.724 45.496 986.641 45.752 987.793 45.752C989.116 45.752 990.225 45.4107 991.121 44.728C992.06 44.0027 993.02 42.9147 994.001 41.464C994.257 41.08 994.598 40.888 995.025 40.888C995.58 40.888 996.07 41.144 996.497 41.656C996.924 42.1253 997.052 42.5947 996.881 43.064C995.046 47.3733 992.657 51.1067 989.713 54.264C986.769 57.4213 983.74 59 980.625 59C978.705 59 977.126 58.3387 975.889 57.016C974.694 55.6507 973.99 53.5813 973.777 50.808L973.649 48.888C973.521 46.4133 973.265 44.4933 972.881 43.128C972.497 41.7627 971.729 41.08 970.577 41.08C970.108 41.08 969.745 41.208 969.489 41.464C969.276 41.6773 969.084 42.04 968.913 42.552C966.78 48.2693 963.921 52.8987 960.337 56.44C956.796 59.9387 952.828 61.688 948.433 61.688ZM1048.63 41.464C1048.88 41.08 1049.23 40.888 1049.65 40.888C1050.25 40.888 1050.76 41.144 1051.19 41.656C1051.66 42.168 1051.76 42.6373 1051.51 43.064L1050.29 45.432C1049.1 47.9067 1047.92 50.0613 1046.77 51.896C1045.66 53.7307 1044.21 55.3733 1042.42 56.824C1040.67 58.2747 1038.69 59 1036.47 59C1034.33 59 1032.76 58.1253 1031.73 56.376C1030.75 54.6267 1030.26 52.3227 1030.26 49.464C1030.26 48.0133 1030.43 46.2213 1030.77 44.088C1028.13 43.96 1025.52 43.5973 1022.96 43L1020.66 47.16C1018.23 51.384 1015.45 54.8613 1012.34 57.592C1009.27 60.3227 1006.11 61.688 1002.87 61.688C1000.09 61.688 997.791 61.176 995.956 60.152C994.121 59.128 992.777 57.8053 991.924 56.184C991.028 54.5627 990.58 52.8133 990.58 50.936C990.58 49.1867 990.943 47.5013 991.668 45.88C992.393 44.2587 993.396 42.9573 994.676 41.976C995.956 40.9947 997.428 40.504 999.092 40.504C999.348 40.504 999.561 40.5893 999.732 40.76C999.945 40.888 1000.05 41.0587 1000.05 41.272C1000.05 42.68 1000.65 43.832 1001.84 44.728C1003.04 45.5813 1004.53 46.008 1006.32 46.008C1009.99 46.008 1013.41 44.1947 1016.56 40.568C1013.24 38.8613 1010.61 36.6853 1008.69 34.04C1006.81 31.3947 1005.88 28.4933 1005.88 25.336C1005.88 23.16 1006.35 21.2827 1007.28 19.704C1008.22 18.1253 1009.48 16.9307 1011.06 16.12C1012.64 15.3093 1014.35 14.904 1016.18 14.904C1018.48 14.904 1020.23 15.5227 1021.43 16.76C1022.62 17.9547 1023.22 19.384 1023.22 21.048C1023.22 21.5173 1023.09 21.88 1022.84 22.136C1022.58 22.392 1022.24 22.4987 1021.81 22.456C1020.36 22.2853 1019.1 22.648 1018.04 23.544C1016.97 24.44 1016.44 25.9547 1016.44 28.088C1016.44 31.3733 1017.63 34.0187 1020.02 36.024L1021.75 33.08C1026.27 24.9307 1030.6 19.192 1034.74 15.864C1038.92 12.536 1042.97 10.872 1046.9 10.872C1049.03 10.872 1050.65 11.4693 1051.76 12.664C1052.92 13.816 1053.49 15.3093 1053.49 17.144C1053.45 19.192 1052.96 20.9627 1052.02 22.456C1051.08 23.9067 1049.95 24.632 1048.63 24.632C1048.37 24.632 1047.99 24.5253 1047.48 24.312C1046.96 24.056 1046.56 23.9493 1046.26 23.992C1045.58 23.992 1044.85 24.5893 1044.08 25.784C1043.32 26.9787 1042.55 28.8133 1041.78 31.288C1041.27 33.1227 1040.86 34.7013 1040.56 36.024C1040.27 37.3467 1040.12 38.5413 1040.12 39.608C1040.12 42.5947 1041.2 44.088 1043.38 44.088C1044.4 44.088 1045.39 43.8747 1046.32 43.448C1047.31 43.0213 1048.07 42.36 1048.63 41.464ZM1031.73 39.736C1032.63 36.664 1033.8 33.4213 1035.25 30.008C1035.81 28.728 1036.17 27.7893 1036.34 27.192C1036.55 26.5947 1036.66 26.0187 1036.66 25.464C1036.66 24.8667 1036.4 24.568 1035.89 24.568C1035.47 24.568 1035 24.76 1034.48 25.144C1034.01 25.4853 1033.33 26.168 1032.44 27.192C1030.56 29.624 1028.17 33.464 1025.27 38.712C1027.02 39.2667 1029.17 39.608 1031.73 39.736ZM1055 61.688C1052.65 61.688 1050.62 61.176 1048.92 60.152C1047.25 59.128 1046.02 57.8053 1045.2 56.184C1044.35 54.52 1043.92 52.7707 1043.92 50.936C1043.92 49.1867 1044.29 47.5013 1045.01 45.88C1045.74 44.2587 1046.74 42.9573 1048.02 41.976C1049.3 40.9947 1050.77 40.504 1052.44 40.504C1052.69 40.504 1052.91 40.5893 1053.08 40.76C1053.29 40.888 1053.4 41.0587 1053.4 41.272C1053.4 42.6373 1054.04 43.768 1055.32 44.664C1056.6 45.56 1058.09 46.008 1059.8 46.008C1062.14 46.008 1064.47 45.0907 1066.77 43.256C1069.08 41.4213 1070.93 38.6907 1072.34 35.064L1073.05 33.272C1073.34 32.4613 1073.77 31.3307 1074.33 29.88C1074.88 28.3867 1075.35 27.1493 1075.73 26.168C1076.5 24.12 1077.89 23.096 1079.89 23.096C1081.9 23.096 1082.9 23.8213 1082.9 25.272C1082.9 25.656 1082.84 26.0827 1082.71 26.552C1082.28 27.7893 1082.07 28.8133 1082.07 29.624C1082.07 30.9893 1082.71 31.672 1083.99 31.672C1085.44 31.672 1086.72 31.1173 1087.83 30.008C1088.98 28.8987 1089.56 27.4053 1089.56 25.528C1089.56 23.6507 1088.68 22.264 1086.93 21.368C1085.23 20.4293 1083.01 19.96 1080.28 19.96C1076.27 19.96 1072.96 20.7067 1070.36 22.2C1067.75 23.6507 1066.45 25.8267 1066.45 28.728C1066.45 29.6667 1066.69 30.456 1067.16 31.096C1067.63 31.6933 1068.2 31.992 1068.89 31.992C1069.06 32.504 1069.14 32.9093 1069.14 33.208C1069.14 34.232 1068.78 35.2987 1068.05 36.408C1067.33 37.5173 1066.3 38.456 1064.98 39.224C1063.7 39.9493 1062.21 40.312 1060.5 40.312C1057.98 40.312 1056.02 39.5013 1054.61 37.88C1053.21 36.2587 1052.5 34.296 1052.5 31.992C1052.5 28.2373 1053.65 24.8027 1055.96 21.688C1058.26 18.5307 1061.53 16.0347 1065.75 14.2C1070.02 12.3227 1074.97 11.384 1080.6 11.384C1085.08 11.384 1088.83 11.9387 1091.86 13.048C1094.93 14.1573 1097.22 15.672 1098.71 17.592C1100.25 19.4693 1101.01 21.5813 1101.01 23.928C1101.01 26.4453 1100.22 28.7067 1098.65 30.712C1097.11 32.7173 1095.15 33.9333 1092.76 34.36C1092.2 34.488 1091.93 34.7653 1091.93 35.192C1091.93 35.4053 1092.01 35.5973 1092.18 35.768C1094.23 37.816 1095.25 40.4827 1095.25 43.768C1095.25 46.8827 1094.57 49.656 1093.21 52.088C1091.84 54.4773 1090.05 56.3333 1087.83 57.656C1085.61 58.9787 1083.24 59.64 1080.73 59.64C1077.95 59.64 1075.73 58.8507 1074.07 57.272C1072.41 55.6933 1071.49 53.56 1071.32 50.872C1068.97 54.4133 1066.41 57.1013 1063.64 58.936C1060.91 60.7707 1058.03 61.688 1055 61.688ZM1081.3 45.752C1082.75 45.752 1083.93 45.1547 1084.82 43.96C1085.72 42.7227 1086.17 41.2933 1086.17 39.672C1086.17 38.7333 1085.82 37.944 1085.14 37.304C1084.46 36.6213 1083.46 36.28 1082.13 36.28C1080.77 36.28 1079.68 36.7707 1078.87 37.752C1078.06 38.7333 1077.65 39.9067 1077.65 41.272C1077.65 42.552 1077.95 43.6187 1078.55 44.472C1079.19 45.3253 1080.11 45.752 1081.3 45.752ZM1105.87 61.688C1103.53 61.688 1101.5 61.176 1099.79 60.152C1098.13 59.128 1096.89 57.8053 1096.08 56.184C1095.23 54.52 1094.8 52.7707 1094.8 50.936C1094.8 49.1867 1095.16 47.5013 1095.89 45.88C1096.61 44.2587 1097.62 42.9573 1098.9 41.976C1100.18 40.9947 1101.65 40.504 1103.31 40.504C1103.57 40.504 1103.78 40.5893 1103.95 40.76C1104.17 40.888 1104.27 41.0587 1104.27 41.272C1104.27 42.6373 1104.91 43.768 1106.19 44.664C1107.47 45.56 1108.97 46.008 1110.67 46.008C1113.02 46.008 1115.34 45.0907 1117.65 43.256C1119.95 41.4213 1121.81 38.6907 1123.22 35.064L1123.92 33.272C1124.22 32.4613 1124.65 31.3307 1125.2 29.88C1125.75 28.3867 1126.22 27.1493 1126.61 26.168C1127.38 24.12 1128.76 23.096 1130.77 23.096C1132.77 23.096 1133.78 23.8213 1133.78 25.272C1133.78 25.656 1133.71 26.0827 1133.58 26.552C1133.16 27.7893 1132.94 28.8133 1132.94 29.624C1132.94 30.9893 1133.58 31.672 1134.86 31.672C1136.31 31.672 1137.59 31.1173 1138.7 30.008C1139.86 28.8987 1140.43 27.4053 1140.43 25.528C1140.43 23.6507 1139.56 22.264 1137.81 21.368C1136.1 20.4293 1133.88 19.96 1131.15 19.96C1127.14 19.96 1123.83 20.7067 1121.23 22.2C1118.63 23.6507 1117.33 25.8267 1117.33 28.728C1117.33 29.6667 1117.56 30.456 1118.03 31.096C1118.5 31.6933 1119.08 31.992 1119.76 31.992C1119.93 32.504 1120.02 32.9093 1120.02 33.208C1120.02 34.232 1119.65 35.2987 1118.93 36.408C1118.2 37.5173 1117.18 38.456 1115.86 39.224C1114.58 39.9493 1113.08 40.312 1111.38 40.312C1108.86 40.312 1106.9 39.5013 1105.49 37.88C1104.08 36.2587 1103.38 34.296 1103.38 31.992C1103.38 28.2373 1104.53 24.8027 1106.83 21.688C1109.14 18.5307 1112.4 16.0347 1116.62 14.2C1120.89 12.3227 1125.84 11.384 1131.47 11.384C1135.95 11.384 1139.71 11.9387 1142.74 13.048C1145.81 14.1573 1148.09 15.672 1149.58 17.592C1151.12 19.4693 1151.89 21.5813 1151.89 23.928C1151.89 26.4453 1151.1 28.7067 1149.52 30.712C1147.98 32.7173 1146.02 33.9333 1143.63 34.36C1143.08 34.488 1142.8 34.7653 1142.8 35.192C1142.8 35.4053 1142.89 35.5973 1143.06 35.768C1145.1 37.816 1146.13 40.4827 1146.13 43.768C1146.13 46.8827 1145.45 49.656 1144.08 52.088C1142.71 54.4773 1140.92 56.3333 1138.7 57.656C1136.49 58.9787 1134.12 59.64 1131.6 59.64C1128.83 59.64 1126.61 58.8507 1124.94 57.272C1123.28 55.6933 1122.36 53.56 1122.19 50.872C1119.85 54.4133 1117.29 57.1013 1114.51 58.936C1111.78 60.7707 1108.9 61.688 1105.87 61.688ZM1132.18 45.752C1133.63 45.752 1134.8 45.1547 1135.7 43.96C1136.59 42.7227 1137.04 41.2933 1137.04 39.672C1137.04 38.7333 1136.7 37.944 1136.02 37.304C1135.33 36.6213 1134.33 36.28 1133.01 36.28C1131.64 36.28 1130.55 36.7707 1129.74 37.752C1128.93 38.7333 1128.53 39.9067 1128.53 41.272C1128.53 42.552 1128.83 43.6187 1129.42 44.472C1130.06 45.3253 1130.98 45.752 1132.18 45.752ZM1169.29 72.76C1165.58 72.76 1162.49 72.0987 1160.01 70.776C1157.58 69.4533 1155.79 67.7467 1154.64 65.656C1153.48 63.5653 1152.91 61.3253 1152.91 58.936C1152.91 56.9307 1153.29 55.0533 1154.06 53.304C1154.87 51.512 1156 50.0827 1157.45 49.016C1158.9 47.9067 1160.57 47.352 1162.44 47.352C1163.17 47.352 1163.68 47.4373 1163.98 47.608C1164.32 47.7787 1164.51 47.9707 1164.56 48.184C1164.6 48.3973 1164.62 48.76 1164.62 49.272C1164.62 50.7653 1164.98 52.1733 1165.71 53.496C1166.43 54.8187 1167.56 55.9067 1169.1 56.76C1170.68 57.6133 1172.6 58.04 1174.86 58.04C1178.53 58.04 1181.43 57.1013 1183.56 55.224C1185.74 53.304 1187.23 51.192 1188.04 48.888C1188.9 46.5413 1189.32 44.6 1189.32 43.064C1189.32 42.552 1189.13 42.296 1188.75 42.296C1188.41 42.296 1188.13 42.552 1187.92 43.064C1186.93 46.4773 1185.33 49.144 1183.12 51.064C1180.9 52.9413 1178.46 53.88 1175.82 53.88C1173.05 53.88 1170.89 52.8987 1169.36 50.936C1167.82 48.9307 1167.05 46.328 1167.05 43.128C1167.05 40.5253 1167.73 37.5813 1169.1 34.296C1170.46 30.968 1172.24 27.9387 1174.41 25.208C1176.59 22.4347 1178.81 20.4933 1181.07 19.384C1175.69 19.1707 1171.47 19.768 1168.4 21.176C1165.32 22.584 1163.79 24.6747 1163.79 27.448C1163.79 28.3867 1164.02 29.176 1164.49 29.816C1164.96 30.4133 1165.54 30.712 1166.22 30.712C1166.39 31.224 1166.48 31.6293 1166.48 31.928C1166.48 32.952 1166.11 34.0187 1165.39 35.128C1164.66 36.2373 1163.64 37.176 1162.32 37.944C1161.04 38.6693 1159.54 39.032 1157.84 39.032C1155.32 39.032 1153.36 38.2213 1151.95 36.6C1150.54 34.9787 1149.84 33.016 1149.84 30.712C1149.84 27.2133 1151.01 23.992 1153.36 21.048C1155.74 18.104 1159.14 15.7573 1163.53 14.008C1167.93 12.2587 1172.98 11.384 1178.7 11.384C1181.9 11.384 1184.42 11.8533 1186.25 12.792C1188.13 13.688 1189.07 15.0533 1189.07 16.888C1189.07 17.6133 1188.9 18.4453 1188.56 19.384C1186.72 20.1093 1184.97 21.4533 1183.31 23.416C1181.69 25.336 1180.36 27.4693 1179.34 29.816C1178.36 32.1627 1177.87 34.2533 1177.87 36.088C1177.87 38.9893 1178.91 40.44 1181 40.44C1183.44 40.44 1185.4 39.224 1186.89 36.792C1188.43 34.3173 1189.98 30.4133 1191.56 25.08C1192.97 20.088 1194.36 16.8027 1195.72 15.224C1197.09 13.6453 1198.48 12.856 1199.88 12.856C1201.25 12.856 1202.29 13.2613 1203.02 14.072C1203.79 14.84 1204.17 15.9493 1204.17 17.4C1204.17 18.4667 1203.92 19.576 1203.4 20.728C1202.93 21.88 1202.21 23.352 1201.23 25.144C1200.37 26.7227 1199.65 28.1307 1199.05 29.368C1198.5 30.5627 1198.03 31.8213 1197.64 33.144C1197.52 33.528 1197.22 34.4453 1196.75 35.896C1196.32 37.304 1195.92 38.8613 1195.53 40.568C1195.15 42.232 1194.81 44.0453 1194.51 46.008C1193.23 54.4987 1190.5 61.0693 1186.32 65.72C1182.13 70.4133 1176.46 72.76 1169.29 72.76Z" fill="#0068B6"/>
</svg>
