<svg width="1304" height="92" viewBox="0 0 1304 92" fill="none" xmlns="http://www.w3.org/2000/svg">
<rect width="1304" height="81" fill="white"/>
<path d="M86.344 17.272C87.7947 17.7413 88.8613 18.552 89.544 19.704C90.2693 20.8133 90.632 22.0507 90.632 23.416C90.632 24.696 90.2053 25.9547 89.352 27.192C88.4987 28.4293 87.5173 29.4107 86.408 30.136C86.152 30.3067 85.8107 30.328 85.384 30.2C85 30.0293 84.7013 29.7947 84.488 29.496C84.2747 29.1547 84.2747 28.8347 84.488 28.536C84.9147 28.024 85.128 27.3413 85.128 26.488C85.128 25.8053 84.936 25.2507 84.552 24.824C84.2107 24.3547 83.6773 24.12 82.952 24.12C82.0987 24.12 81.3947 24.4187 80.84 25.016C80.328 25.5707 80.072 26.4453 80.072 27.64C80.072 28.4507 80.2853 29.2827 80.712 30.136C81.1387 30.9893 81.7787 32.0773 82.632 33.4C83.6987 35.0213 84.5093 36.4507 85.064 37.688C85.6187 38.8827 85.896 40.184 85.896 41.592C85.896 43.896 85.384 45.9653 84.36 47.8C83.3787 49.6347 81.9707 51.064 80.136 52.088C78.344 53.112 76.3173 53.624 74.056 53.624C73.16 53.624 72.1787 53.5173 71.112 53.304C70.6853 55.7787 70.088 57.6773 69.32 59C68.5947 60.3227 67.848 60.984 67.08 60.984C65.8 60.984 65.032 60.408 64.776 59.256C64.648 58.744 64.904 57.848 65.544 56.568C66.2267 55.288 67.2507 53.9013 68.616 52.408C66.9093 51.5973 65.5653 50.36 64.584 48.696C63.6453 46.9893 63.176 44.9627 63.176 42.616C63.176 40.3547 63.5813 38.4773 64.392 36.984C65.2027 35.4907 66.184 34.424 67.336 33.784C68.488 33.1013 69.5973 32.76 70.664 32.76C71.2613 32.76 71.7307 32.8667 72.072 33.08C72.456 33.2933 72.648 33.592 72.648 33.976C72.648 34.232 72.4773 34.552 72.136 34.936C71.7947 35.2773 71.5173 35.64 71.304 36.024C71.0907 36.408 70.984 36.9627 70.984 37.688C70.984 38.968 71.3253 39.9707 72.008 40.696C72.6907 41.4213 73.6507 41.784 74.888 41.784C75.9973 41.784 76.9147 41.4427 77.64 40.76C78.3653 40.0347 78.728 39.096 78.728 37.944C78.728 37.2187 78.5573 36.5147 78.216 35.832C77.9173 35.1493 77.4267 34.1893 76.744 32.952C75.848 31.416 75.1653 30.0933 74.696 28.984C74.2267 27.832 73.992 26.5733 73.992 25.208C73.992 22.8187 74.76 20.8133 76.296 19.192C77.832 17.5707 80.072 16.76 83.016 16.76H83.336C83.7627 14.3707 84.3387 12.536 85.064 11.256C85.832 9.976 86.6 9.336 87.368 9.336C88.6907 9.336 89.4587 9.89066 89.672 11C89.8 11.4693 89.5653 12.3013 88.968 13.496C88.4133 14.648 87.5387 15.9067 86.344 17.272ZM103.922 59.768C99.1428 59.768 95.3028 58.2533 92.4015 55.224C89.5002 52.152 88.0495 47.544 88.0495 41.4C88.0495 36.3227 89.2015 31.5227 91.5055 27C93.8522 22.4773 96.9455 18.872 100.786 16.184C104.668 13.4533 108.764 12.088 113.074 12.088C117.042 12.088 120.05 12.92 122.097 14.584C124.188 16.2053 125.234 18.424 125.234 21.24C125.234 23.5867 124.615 25.7627 123.378 27.768C122.183 29.7733 120.69 31.352 118.898 32.504C117.106 33.656 115.399 34.232 113.778 34.232C113.095 34.232 112.519 34.0613 112.05 33.72C111.623 33.3787 111.41 32.9733 111.41 32.504C111.41 32.3333 111.495 32.0347 111.666 31.608C112.903 29.2613 113.522 27.3413 113.522 25.848C113.522 24.7813 113.18 23.992 112.498 23.48C111.858 22.9253 110.983 22.648 109.874 22.648C107.996 22.648 106.268 23.2453 104.69 24.44C103.111 25.592 101.874 27.1493 100.978 29.112C100.082 31.032 99.6335 33.0373 99.6335 35.128C99.6335 38.1573 100.7 40.6747 102.833 42.68C105.01 44.6427 108.124 45.624 112.178 45.624C114.439 45.624 116.551 45.304 118.514 44.664C120.519 44.024 122.012 42.9573 122.994 41.464C123.25 41.08 123.591 40.888 124.018 40.888C124.572 40.888 125.063 41.144 125.49 41.656C125.959 42.168 126.087 42.6373 125.874 43.064C123.1 48.6533 119.943 52.8347 116.402 55.608C112.903 58.3813 108.743 59.768 103.922 59.768ZM129.308 61.688C125.852 61.688 123.249 60.6427 121.5 58.552C119.793 56.4613 118.94 53.9227 118.94 50.936C118.94 49.1867 119.303 47.5013 120.028 45.88C120.753 44.2587 121.756 42.9573 123.036 41.976C124.316 40.9947 125.788 40.504 127.452 40.504C127.708 40.504 127.921 40.5893 128.092 40.76C128.305 40.888 128.412 41.0587 128.412 41.272C128.412 42.68 128.924 43.832 129.948 44.728C130.972 45.5813 132.252 46.008 133.788 46.008C138.012 46.008 141.788 42.36 145.116 35.064L145.82 33.272C146.119 32.4613 146.545 31.3307 147.1 29.88C147.655 28.3867 148.124 27.1493 148.508 26.168C149.276 24.12 150.663 23.096 152.668 23.096C154.673 23.096 155.676 23.8213 155.676 25.272C155.676 25.656 155.612 26.0827 155.484 26.552C154.375 29.752 153.735 32.0133 153.564 33.336C153.521 34.0613 153.692 34.5307 154.076 34.744C154.46 34.9573 155.1 35.064 155.996 35.064C157.319 35.064 158.556 34.7227 159.708 34.04C160.86 33.3147 161.777 32.3547 162.46 31.16C163.185 29.9227 163.548 28.5573 163.548 27.064C163.548 24.5893 162.524 22.7973 160.476 21.688C158.471 20.536 155.719 19.96 152.22 19.96C149.532 19.96 147.207 20.3653 145.244 21.176C143.281 21.9867 141.788 23.032 140.764 24.312C139.74 25.592 139.228 26.936 139.228 28.344C139.228 29.1973 139.463 29.9227 139.932 30.52C140.401 31.0747 140.977 31.352 141.66 31.352C141.831 31.864 141.916 32.2693 141.916 32.568C141.916 33.592 141.553 34.6587 140.828 35.768C140.103 36.8773 139.079 37.816 137.756 38.584C136.476 39.3093 134.983 39.672 133.276 39.672C130.759 39.672 128.796 38.8187 127.388 37.112C125.98 35.3627 125.276 33.2507 125.276 30.776C125.276 27.6613 126.428 24.6107 128.732 21.624C131.079 18.6373 134.385 16.184 138.652 14.264C142.961 12.344 147.868 11.384 153.372 11.384C160.241 11.384 165.383 12.5787 168.796 14.968C172.252 17.3573 173.98 20.7707 173.98 25.208C173.98 28.792 173.063 31.8213 171.228 34.296C169.436 36.728 166.961 38.2 163.804 38.712C162.951 38.84 162.353 38.9893 162.012 39.16C161.713 39.288 161.564 39.48 161.564 39.736C161.564 39.992 161.713 40.2267 162.012 40.44C162.311 40.6533 162.631 40.9307 162.972 41.272C163.356 41.5707 163.74 42.0613 164.124 42.744C164.679 43.7253 165.276 44.472 165.916 44.984C166.599 45.496 167.516 45.752 168.668 45.752C169.991 45.752 171.1 45.4107 171.996 44.728C172.935 44.0027 173.895 42.9147 174.876 41.464C175.132 41.08 175.473 40.888 175.9 40.888C176.455 40.888 176.945 41.144 177.372 41.656C177.799 42.1253 177.927 42.5947 177.756 43.064C175.921 47.3733 173.532 51.1067 170.588 54.264C167.644 57.4213 164.615 59 161.5 59C159.58 59 158.001 58.3387 156.764 57.016C155.569 55.6507 154.865 53.5813 154.652 50.808L154.524 48.888C154.396 46.4133 154.14 44.4933 153.756 43.128C153.372 41.7627 152.604 41.08 151.452 41.08C150.983 41.08 150.62 41.208 150.364 41.464C150.151 41.6773 149.959 42.04 149.788 42.552C147.655 48.2693 144.796 52.8987 141.212 56.44C137.671 59.9387 133.703 61.688 129.308 61.688ZM229.503 41.464C229.759 41.08 230.1 40.888 230.527 40.888C231.124 40.888 231.636 41.144 232.063 41.656C232.532 42.168 232.639 42.6373 232.383 43.064L231.167 45.432C229.972 47.9067 228.799 50.0613 227.647 51.896C226.538 53.7307 225.087 55.3733 223.295 56.824C221.546 58.2747 219.562 59 217.343 59C215.21 59 213.631 58.1253 212.607 56.376C211.626 54.6267 211.135 52.3227 211.135 49.464C211.135 48.0133 211.306 46.2213 211.647 44.088C209.002 43.96 206.399 43.5973 203.839 43L201.535 47.16C199.103 51.384 196.33 54.8613 193.215 57.592C190.143 60.3227 186.986 61.688 183.743 61.688C180.97 61.688 178.666 61.176 176.831 60.152C174.996 59.128 173.652 57.8053 172.799 56.184C171.903 54.5627 171.455 52.8133 171.455 50.936C171.455 49.1867 171.818 47.5013 172.543 45.88C173.268 44.2587 174.271 42.9573 175.551 41.976C176.831 40.9947 178.303 40.504 179.967 40.504C180.223 40.504 180.436 40.5893 180.607 40.76C180.82 40.888 180.927 41.0587 180.927 41.272C180.927 42.68 181.524 43.832 182.719 44.728C183.914 45.5813 185.407 46.008 187.199 46.008C190.868 46.008 194.282 44.1947 197.439 40.568C194.111 38.8613 191.487 36.6853 189.567 34.04C187.69 31.3947 186.751 28.4933 186.751 25.336C186.751 23.16 187.22 21.2827 188.159 19.704C189.098 18.1253 190.356 16.9307 191.935 16.12C193.514 15.3093 195.22 14.904 197.055 14.904C199.359 14.904 201.108 15.5227 202.303 16.76C203.498 17.9547 204.095 19.384 204.095 21.048C204.095 21.5173 203.967 21.88 203.711 22.136C203.455 22.392 203.114 22.4987 202.687 22.456C201.236 22.2853 199.978 22.648 198.911 23.544C197.844 24.44 197.311 25.9547 197.311 28.088C197.311 31.3733 198.506 34.0187 200.895 36.024L202.623 33.08C207.146 24.9307 211.476 19.192 215.615 15.864C219.796 12.536 223.85 10.872 227.775 10.872C229.908 10.872 231.53 11.4693 232.639 12.664C233.791 13.816 234.367 15.3093 234.367 17.144C234.324 19.192 233.834 20.9627 232.895 22.456C231.956 23.9067 230.826 24.632 229.503 24.632C229.247 24.632 228.863 24.5253 228.351 24.312C227.839 24.056 227.434 23.9493 227.135 23.992C226.452 23.992 225.727 24.5893 224.959 25.784C224.191 26.9787 223.423 28.8133 222.655 31.288C222.143 33.1227 221.738 34.7013 221.439 36.024C221.14 37.3467 220.991 38.5413 220.991 39.608C220.991 42.5947 222.079 44.088 224.255 44.088C225.279 44.088 226.26 43.8747 227.199 43.448C228.18 43.0213 228.948 42.36 229.503 41.464ZM212.607 39.736C213.503 36.664 214.676 33.4213 216.127 30.008C216.682 28.728 217.044 27.7893 217.215 27.192C217.428 26.5947 217.535 26.0187 217.535 25.464C217.535 24.8667 217.279 24.568 216.767 24.568C216.34 24.568 215.871 24.76 215.359 25.144C214.89 25.4853 214.207 26.168 213.311 27.192C211.434 29.624 209.044 33.464 206.143 38.712C207.892 39.2667 210.047 39.608 212.607 39.736ZM235.872 61.688C233.525 61.688 231.499 61.176 229.792 60.152C228.128 59.128 226.891 57.8053 226.08 56.184C225.227 54.52 224.8 52.7707 224.8 50.936C224.8 49.1867 225.163 47.5013 225.888 45.88C226.613 44.2587 227.616 42.9573 228.896 41.976C230.176 40.9947 231.648 40.504 233.312 40.504C233.568 40.504 233.781 40.5893 233.952 40.76C234.165 40.888 234.272 41.0587 234.272 41.272C234.272 42.6373 234.912 43.768 236.192 44.664C237.472 45.56 238.965 46.008 240.672 46.008C243.019 46.008 245.344 45.0907 247.648 43.256C249.952 41.4213 251.808 38.6907 253.216 35.064L253.92 33.272C254.219 32.4613 254.645 31.3307 255.2 29.88C255.755 28.3867 256.224 27.1493 256.608 26.168C257.376 24.12 258.763 23.096 260.768 23.096C262.773 23.096 263.776 23.8213 263.776 25.272C263.776 25.656 263.712 26.0827 263.584 26.552C263.157 27.7893 262.944 28.8133 262.944 29.624C262.944 30.9893 263.584 31.672 264.864 31.672C266.315 31.672 267.595 31.1173 268.704 30.008C269.856 28.8987 270.432 27.4053 270.432 25.528C270.432 23.6507 269.557 22.264 267.808 21.368C266.101 20.4293 263.883 19.96 261.152 19.96C257.141 19.96 253.835 20.7067 251.232 22.2C248.629 23.6507 247.328 25.8267 247.328 28.728C247.328 29.6667 247.563 30.456 248.032 31.096C248.501 31.6933 249.077 31.992 249.76 31.992C249.931 32.504 250.016 32.9093 250.016 33.208C250.016 34.232 249.653 35.2987 248.928 36.408C248.203 37.5173 247.179 38.456 245.856 39.224C244.576 39.9493 243.083 40.312 241.376 40.312C238.859 40.312 236.896 39.5013 235.488 37.88C234.08 36.2587 233.376 34.296 233.376 31.992C233.376 28.2373 234.528 24.8027 236.832 21.688C239.136 18.5307 242.4 16.0347 246.624 14.2C250.891 12.3227 255.84 11.384 261.472 11.384C265.952 11.384 269.707 11.9387 272.736 13.048C275.808 14.1573 278.091 15.672 279.584 17.592C281.12 19.4693 281.888 21.5813 281.888 23.928C281.888 26.4453 281.099 28.7067 279.52 30.712C277.984 32.7173 276.021 33.9333 273.632 34.36C273.077 34.488 272.8 34.7653 272.8 35.192C272.8 35.4053 272.885 35.5973 273.056 35.768C275.104 37.816 276.128 40.4827 276.128 43.768C276.128 46.8827 275.445 49.656 274.08 52.088C272.715 54.4773 270.923 56.3333 268.704 57.656C266.485 58.9787 264.117 59.64 261.6 59.64C258.827 59.64 256.608 58.8507 254.944 57.272C253.28 55.6933 252.363 53.56 252.192 50.872C249.845 54.4133 247.285 57.1013 244.512 58.936C241.781 60.7707 238.901 61.688 235.872 61.688ZM262.176 45.752C263.627 45.752 264.8 45.1547 265.696 43.96C266.592 42.7227 267.04 41.2933 267.04 39.672C267.04 38.7333 266.699 37.944 266.016 37.304C265.333 36.6213 264.331 36.28 263.008 36.28C261.643 36.28 260.555 36.7707 259.744 37.752C258.933 38.7333 258.528 39.9067 258.528 41.272C258.528 42.552 258.827 43.6187 259.424 44.472C260.064 45.3253 260.981 45.752 262.176 45.752ZM327.282 17.272C328.732 17.7413 329.799 18.552 330.482 19.704C331.207 20.8133 331.57 22.0507 331.57 23.416C331.57 24.696 331.143 25.9547 330.29 27.192C329.436 28.4293 328.455 29.4107 327.346 30.136C327.09 30.3067 326.748 30.328 326.322 30.2C325.938 30.0293 325.639 29.7947 325.426 29.496C325.212 29.1547 325.212 28.8347 325.426 28.536C325.852 28.024 326.066 27.3413 326.066 26.488C326.066 25.8053 325.874 25.2507 325.49 24.824C325.148 24.3547 324.615 24.12 323.89 24.12C323.036 24.12 322.332 24.4187 321.778 25.016C321.266 25.5707 321.01 26.4453 321.01 27.64C321.01 28.4507 321.223 29.2827 321.65 30.136C322.076 30.9893 322.716 32.0773 323.57 33.4C324.636 35.0213 325.447 36.4507 326.002 37.688C326.556 38.8827 326.834 40.184 326.834 41.592C326.834 43.896 326.322 45.9653 325.298 47.8C324.316 49.6347 322.908 51.064 321.074 52.088C319.282 53.112 317.255 53.624 314.994 53.624C314.098 53.624 313.116 53.5173 312.05 53.304C311.623 55.7787 311.026 57.6773 310.258 59C309.532 60.3227 308.786 60.984 308.018 60.984C306.738 60.984 305.97 60.408 305.714 59.256C305.586 58.744 305.842 57.848 306.482 56.568C307.164 55.288 308.188 53.9013 309.554 52.408C307.847 51.5973 306.503 50.36 305.522 48.696C304.583 46.9893 304.114 44.9627 304.114 42.616C304.114 40.3547 304.519 38.4773 305.33 36.984C306.14 35.4907 307.122 34.424 308.274 33.784C309.426 33.1013 310.535 32.76 311.602 32.76C312.199 32.76 312.668 32.8667 313.01 33.08C313.394 33.2933 313.586 33.592 313.586 33.976C313.586 34.232 313.415 34.552 313.074 34.936C312.732 35.2773 312.455 35.64 312.242 36.024C312.028 36.408 311.922 36.9627 311.922 37.688C311.922 38.968 312.263 39.9707 312.946 40.696C313.628 41.4213 314.588 41.784 315.826 41.784C316.935 41.784 317.852 41.4427 318.578 40.76C319.303 40.0347 319.666 39.096 319.666 37.944C319.666 37.2187 319.495 36.5147 319.154 35.832C318.855 35.1493 318.364 34.1893 317.682 32.952C316.786 31.416 316.103 30.0933 315.634 28.984C315.164 27.832 314.93 26.5733 314.93 25.208C314.93 22.8187 315.698 20.8133 317.234 19.192C318.77 17.5707 321.01 16.76 323.954 16.76H324.274C324.7 14.3707 325.276 12.536 326.002 11.256C326.77 9.976 327.538 9.336 328.306 9.336C329.628 9.336 330.396 9.89066 330.61 11C330.738 11.4693 330.503 12.3013 329.906 13.496C329.351 14.648 328.476 15.9067 327.282 17.272ZM344.859 59.768C340.08 59.768 336.24 58.2533 333.339 55.224C330.438 52.152 328.987 47.544 328.987 41.4C328.987 36.3227 330.139 31.5227 332.443 27C334.79 22.4773 337.883 18.872 341.723 16.184C345.606 13.4533 349.702 12.088 354.011 12.088C357.979 12.088 360.987 12.92 363.035 14.584C365.126 16.2053 366.171 18.424 366.171 21.24C366.171 23.5867 365.552 25.7627 364.315 27.768C363.12 29.7733 361.627 31.352 359.835 32.504C358.043 33.656 356.336 34.232 354.715 34.232C354.032 34.232 353.456 34.0613 352.987 33.72C352.56 33.3787 352.347 32.9733 352.347 32.504C352.347 32.3333 352.432 32.0347 352.603 31.608C353.84 29.2613 354.459 27.3413 354.459 25.848C354.459 24.7813 354.118 23.992 353.435 23.48C352.795 22.9253 351.92 22.648 350.811 22.648C348.934 22.648 347.206 23.2453 345.627 24.44C344.048 25.592 342.811 27.1493 341.915 29.112C341.019 31.032 340.571 33.0373 340.571 35.128C340.571 38.1573 341.638 40.6747 343.771 42.68C345.947 44.6427 349.062 45.624 353.115 45.624C355.376 45.624 357.488 45.304 359.451 44.664C361.456 44.024 362.95 42.9573 363.931 41.464C364.187 41.08 364.528 40.888 364.955 40.888C365.51 40.888 366 41.144 366.427 41.656C366.896 42.168 367.024 42.6373 366.811 43.064C364.038 48.6533 360.88 52.8347 357.339 55.608C353.84 58.3813 349.68 59.768 344.859 59.768ZM370.246 61.688C366.79 61.688 364.187 60.6427 362.438 58.552C360.731 56.4613 359.877 53.9227 359.877 50.936C359.877 49.1867 360.24 47.5013 360.965 45.88C361.691 44.2587 362.694 42.9573 363.974 41.976C365.254 40.9947 366.726 40.504 368.39 40.504C368.646 40.504 368.859 40.5893 369.03 40.76C369.243 40.888 369.35 41.0587 369.35 41.272C369.35 42.68 369.862 43.832 370.885 44.728C371.91 45.5813 373.19 46.008 374.726 46.008C378.95 46.008 382.726 42.36 386.054 35.064L386.758 33.272C387.056 32.4613 387.483 31.3307 388.038 29.88C388.592 28.3867 389.062 27.1493 389.446 26.168C390.214 24.12 391.6 23.096 393.606 23.096C395.611 23.096 396.614 23.8213 396.614 25.272C396.614 25.656 396.55 26.0827 396.422 26.552C395.312 29.752 394.672 32.0133 394.502 33.336C394.459 34.0613 394.63 34.5307 395.014 34.744C395.398 34.9573 396.038 35.064 396.934 35.064C398.256 35.064 399.494 34.7227 400.646 34.04C401.798 33.3147 402.715 32.3547 403.398 31.16C404.123 29.9227 404.486 28.5573 404.486 27.064C404.486 24.5893 403.462 22.7973 401.414 21.688C399.408 20.536 396.656 19.96 393.158 19.96C390.47 19.96 388.144 20.3653 386.182 21.176C384.219 21.9867 382.726 23.032 381.702 24.312C380.678 25.592 380.166 26.936 380.166 28.344C380.166 29.1973 380.4 29.9227 380.87 30.52C381.339 31.0747 381.915 31.352 382.598 31.352C382.768 31.864 382.854 32.2693 382.854 32.568C382.854 33.592 382.491 34.6587 381.766 35.768C381.04 36.8773 380.016 37.816 378.694 38.584C377.414 39.3093 375.92 39.672 374.214 39.672C371.696 39.672 369.734 38.8187 368.326 37.112C366.918 35.3627 366.214 33.2507 366.214 30.776C366.214 27.6613 367.366 24.6107 369.67 21.624C372.016 18.6373 375.323 16.184 379.59 14.264C383.899 12.344 388.806 11.384 394.31 11.384C401.179 11.384 406.32 12.5787 409.734 14.968C413.19 17.3573 414.918 20.7707 414.918 25.208C414.918 28.792 414 31.8213 412.166 34.296C410.374 36.728 407.899 38.2 404.742 38.712C403.888 38.84 403.291 38.9893 402.95 39.16C402.651 39.288 402.502 39.48 402.502 39.736C402.502 39.992 402.651 40.2267 402.95 40.44C403.248 40.6533 403.568 40.9307 403.91 41.272C404.294 41.5707 404.678 42.0613 405.062 42.744C405.616 43.7253 406.214 44.472 406.854 44.984C407.536 45.496 408.454 45.752 409.606 45.752C410.928 45.752 412.038 45.4107 412.934 44.728C413.872 44.0027 414.832 42.9147 415.814 41.464C416.07 41.08 416.411 40.888 416.838 40.888C417.392 40.888 417.883 41.144 418.31 41.656C418.736 42.1253 418.864 42.5947 418.694 43.064C416.859 47.3733 414.47 51.1067 411.526 54.264C408.582 57.4213 405.552 59 402.438 59C400.518 59 398.939 58.3387 397.701 57.016C396.507 55.6507 395.803 53.5813 395.59 50.808L395.462 48.888C395.334 46.4133 395.078 44.4933 394.694 43.128C394.31 41.7627 393.542 41.08 392.39 41.08C391.92 41.08 391.558 41.208 391.302 41.464C391.088 41.6773 390.896 42.04 390.726 42.552C388.592 48.2693 385.734 52.8987 382.15 56.44C378.608 59.9387 374.64 61.688 370.246 61.688ZM470.441 41.464C470.697 41.08 471.038 40.888 471.465 40.888C472.062 40.888 472.574 41.144 473.001 41.656C473.47 42.168 473.577 42.6373 473.321 43.064L472.105 45.432C470.91 47.9067 469.737 50.0613 468.585 51.896C467.475 53.7307 466.025 55.3733 464.233 56.824C462.483 58.2747 460.499 59 458.281 59C456.147 59 454.569 58.1253 453.545 56.376C452.563 54.6267 452.073 52.3227 452.073 49.464C452.073 48.0133 452.243 46.2213 452.585 44.088C449.939 43.96 447.337 43.5973 444.777 43L442.473 47.16C440.041 51.384 437.267 54.8613 434.153 57.592C431.081 60.3227 427.923 61.688 424.681 61.688C421.907 61.688 419.603 61.176 417.769 60.152C415.934 59.128 414.59 57.8053 413.736 56.184C412.84 54.5627 412.392 52.8133 412.392 50.936C412.392 49.1867 412.755 47.5013 413.48 45.88C414.206 44.2587 415.209 42.9573 416.489 41.976C417.769 40.9947 419.241 40.504 420.905 40.504C421.161 40.504 421.374 40.5893 421.545 40.76C421.758 40.888 421.865 41.0587 421.865 41.272C421.865 42.68 422.462 43.832 423.657 44.728C424.851 45.5813 426.345 46.008 428.137 46.008C431.806 46.008 435.219 44.1947 438.377 40.568C435.049 38.8613 432.425 36.6853 430.505 34.04C428.627 31.3947 427.689 28.4933 427.689 25.336C427.689 23.16 428.158 21.2827 429.097 19.704C430.035 18.1253 431.294 16.9307 432.873 16.12C434.451 15.3093 436.158 14.904 437.993 14.904C440.297 14.904 442.046 15.5227 443.241 16.76C444.435 17.9547 445.033 19.384 445.033 21.048C445.033 21.5173 444.905 21.88 444.649 22.136C444.393 22.392 444.051 22.4987 443.625 22.456C442.174 22.2853 440.915 22.648 439.849 23.544C438.782 24.44 438.249 25.9547 438.249 28.088C438.249 31.3733 439.443 34.0187 441.833 36.024L443.561 33.08C448.083 24.9307 452.414 19.192 456.553 15.864C460.734 12.536 464.787 10.872 468.713 10.872C470.846 10.872 472.467 11.4693 473.577 12.664C474.729 13.816 475.305 15.3093 475.305 17.144C475.262 19.192 474.771 20.9627 473.833 22.456C472.894 23.9067 471.763 24.632 470.441 24.632C470.185 24.632 469.801 24.5253 469.289 24.312C468.777 24.056 468.371 23.9493 468.073 23.992C467.39 23.992 466.665 24.5893 465.897 25.784C465.129 26.9787 464.361 28.8133 463.593 31.288C463.081 33.1227 462.675 34.7013 462.377 36.024C462.078 37.3467 461.929 38.5413 461.929 39.608C461.929 42.5947 463.017 44.088 465.193 44.088C466.217 44.088 467.198 43.8747 468.137 43.448C469.118 43.0213 469.886 42.36 470.441 41.464ZM453.545 39.736C454.441 36.664 455.614 33.4213 457.065 30.008C457.619 28.728 457.982 27.7893 458.153 27.192C458.366 26.5947 458.473 26.0187 458.473 25.464C458.473 24.8667 458.217 24.568 457.705 24.568C457.278 24.568 456.809 24.76 456.297 25.144C455.827 25.4853 455.145 26.168 454.249 27.192C452.371 29.624 449.982 33.464 447.081 38.712C448.83 39.2667 450.985 39.608 453.545 39.736ZM476.81 61.688C474.463 61.688 472.436 61.176 470.73 60.152C469.065 59.128 467.828 57.8053 467.017 56.184C466.164 54.52 465.737 52.7707 465.737 50.936C465.737 49.1867 466.1 47.5013 466.826 45.88C467.551 44.2587 468.553 42.9573 469.834 41.976C471.114 40.9947 472.586 40.504 474.25 40.504C474.506 40.504 474.719 40.5893 474.89 40.76C475.103 40.888 475.21 41.0587 475.21 41.272C475.21 42.6373 475.85 43.768 477.13 44.664C478.41 45.56 479.903 46.008 481.61 46.008C483.956 46.008 486.282 45.0907 488.586 43.256C490.89 41.4213 492.746 38.6907 494.154 35.064L494.858 33.272C495.156 32.4613 495.583 31.3307 496.138 29.88C496.692 28.3867 497.162 27.1493 497.546 26.168C498.314 24.12 499.7 23.096 501.706 23.096C503.711 23.096 504.714 23.8213 504.714 25.272C504.714 25.656 504.65 26.0827 504.522 26.552C504.095 27.7893 503.882 28.8133 503.882 29.624C503.882 30.9893 504.522 31.672 505.802 31.672C507.252 31.672 508.532 31.1173 509.642 30.008C510.794 28.8987 511.37 27.4053 511.37 25.528C511.37 23.6507 510.495 22.264 508.746 21.368C507.039 20.4293 504.82 19.96 502.09 19.96C498.079 19.96 494.772 20.7067 492.17 22.2C489.567 23.6507 488.266 25.8267 488.266 28.728C488.266 29.6667 488.5 30.456 488.97 31.096C489.439 31.6933 490.015 31.992 490.698 31.992C490.868 32.504 490.954 32.9093 490.954 33.208C490.954 34.232 490.591 35.2987 489.866 36.408C489.14 37.5173 488.116 38.456 486.794 39.224C485.514 39.9493 484.02 40.312 482.314 40.312C479.796 40.312 477.834 39.5013 476.426 37.88C475.018 36.2587 474.314 34.296 474.314 31.992C474.314 28.2373 475.466 24.8027 477.77 21.688C480.074 18.5307 483.338 16.0347 487.562 14.2C491.828 12.3227 496.778 11.384 502.41 11.384C506.89 11.384 510.644 11.9387 513.674 13.048C516.746 14.1573 519.028 15.672 520.522 17.592C522.058 19.4693 522.826 21.5813 522.826 23.928C522.826 26.4453 522.036 28.7067 520.458 30.712C518.922 32.7173 516.959 33.9333 514.57 34.36C514.015 34.488 513.738 34.7653 513.738 35.192C513.738 35.4053 513.823 35.5973 513.994 35.768C516.042 37.816 517.066 40.4827 517.066 43.768C517.066 46.8827 516.383 49.656 515.018 52.088C513.652 54.4773 511.86 56.3333 509.642 57.656C507.423 58.9787 505.055 59.64 502.538 59.64C499.764 59.64 497.546 58.8507 495.882 57.272C494.218 55.6933 493.3 53.56 493.13 50.872C490.783 54.4133 488.223 57.1013 485.45 58.936C482.719 60.7707 479.839 61.688 476.81 61.688ZM503.114 45.752C504.564 45.752 505.738 45.1547 506.634 43.96C507.53 42.7227 507.978 41.2933 507.978 39.672C507.978 38.7333 507.636 37.944 506.954 37.304C506.271 36.6213 505.268 36.28 503.946 36.28C502.58 36.28 501.492 36.7707 500.682 37.752C499.871 38.7333 499.466 39.9067 499.466 41.272C499.466 42.552 499.764 43.6187 500.362 44.472C501.002 45.3253 501.919 45.752 503.114 45.752ZM568.219 17.272C569.67 17.7413 570.736 18.552 571.419 19.704C572.144 20.8133 572.507 22.0507 572.507 23.416C572.507 24.696 572.08 25.9547 571.227 27.192C570.374 28.4293 569.392 29.4107 568.283 30.136C568.027 30.3067 567.686 30.328 567.259 30.2C566.875 30.0293 566.576 29.7947 566.363 29.496C566.15 29.1547 566.15 28.8347 566.363 28.536C566.79 28.024 567.003 27.3413 567.003 26.488C567.003 25.8053 566.811 25.2507 566.427 24.824C566.086 24.3547 565.552 24.12 564.827 24.12C563.974 24.12 563.27 24.4187 562.715 25.016C562.203 25.5707 561.947 26.4453 561.947 27.64C561.947 28.4507 562.16 29.2827 562.587 30.136C563.014 30.9893 563.654 32.0773 564.507 33.4C565.574 35.0213 566.384 36.4507 566.939 37.688C567.494 38.8827 567.771 40.184 567.771 41.592C567.771 43.896 567.259 45.9653 566.235 47.8C565.254 49.6347 563.846 51.064 562.011 52.088C560.219 53.112 558.192 53.624 555.931 53.624C555.035 53.624 554.054 53.5173 552.987 53.304C552.56 55.7787 551.963 57.6773 551.195 59C550.47 60.3227 549.723 60.984 548.955 60.984C547.675 60.984 546.907 60.408 546.651 59.256C546.523 58.744 546.779 57.848 547.419 56.568C548.102 55.288 549.126 53.9013 550.491 52.408C548.784 51.5973 547.44 50.36 546.459 48.696C545.52 46.9893 545.051 44.9627 545.051 42.616C545.051 40.3547 545.456 38.4773 546.267 36.984C547.078 35.4907 548.059 34.424 549.211 33.784C550.363 33.1013 551.472 32.76 552.539 32.76C553.136 32.76 553.606 32.8667 553.947 33.08C554.331 33.2933 554.523 33.592 554.523 33.976C554.523 34.232 554.352 34.552 554.011 34.936C553.67 35.2773 553.392 35.64 553.179 36.024C552.966 36.408 552.859 36.9627 552.859 37.688C552.859 38.968 553.2 39.9707 553.883 40.696C554.566 41.4213 555.526 41.784 556.763 41.784C557.872 41.784 558.79 41.4427 559.515 40.76C560.24 40.0347 560.603 39.096 560.603 37.944C560.603 37.2187 560.432 36.5147 560.091 35.832C559.792 35.1493 559.302 34.1893 558.619 32.952C557.723 31.416 557.04 30.0933 556.571 28.984C556.102 27.832 555.867 26.5733 555.867 25.208C555.867 22.8187 556.635 20.8133 558.171 19.192C559.707 17.5707 561.947 16.76 564.891 16.76H565.211C565.638 14.3707 566.214 12.536 566.939 11.256C567.707 9.976 568.475 9.336 569.243 9.336C570.566 9.336 571.334 9.89066 571.547 11C571.675 11.4693 571.44 12.3013 570.843 13.496C570.288 14.648 569.414 15.9067 568.219 17.272ZM585.797 59.768C581.018 59.768 577.178 58.2533 574.277 55.224C571.375 52.152 569.924 47.544 569.924 41.4C569.924 36.3227 571.077 31.5227 573.381 27C575.727 22.4773 578.821 18.872 582.661 16.184C586.543 13.4533 590.639 12.088 594.949 12.088C598.917 12.088 601.925 12.92 603.972 14.584C606.063 16.2053 607.109 18.424 607.109 21.24C607.109 23.5867 606.49 25.7627 605.253 27.768C604.058 29.7733 602.565 31.352 600.773 32.504C598.981 33.656 597.274 34.232 595.653 34.232C594.97 34.232 594.394 34.0613 593.925 33.72C593.498 33.3787 593.285 32.9733 593.285 32.504C593.285 32.3333 593.37 32.0347 593.541 31.608C594.778 29.2613 595.397 27.3413 595.397 25.848C595.397 24.7813 595.055 23.992 594.373 23.48C593.733 22.9253 592.858 22.648 591.749 22.648C589.871 22.648 588.143 23.2453 586.565 24.44C584.986 25.592 583.749 27.1493 582.853 29.112C581.957 31.032 581.509 33.0373 581.509 35.128C581.509 38.1573 582.575 40.6747 584.708 42.68C586.885 44.6427 589.999 45.624 594.053 45.624C596.314 45.624 598.426 45.304 600.389 44.664C602.394 44.024 603.887 42.9573 604.869 41.464C605.125 41.08 605.466 40.888 605.893 40.888C606.447 40.888 606.938 41.144 607.365 41.656C607.834 42.168 607.962 42.6373 607.749 43.064C604.975 48.6533 601.818 52.8347 598.277 55.608C594.778 58.3813 590.618 59.768 585.797 59.768ZM611.183 61.688C607.727 61.688 605.124 60.6427 603.375 58.552C601.668 56.4613 600.815 53.9227 600.815 50.936C600.815 49.1867 601.178 47.5013 601.903 45.88C602.628 44.2587 603.631 42.9573 604.911 41.976C606.191 40.9947 607.663 40.504 609.327 40.504C609.583 40.504 609.796 40.5893 609.967 40.76C610.18 40.888 610.287 41.0587 610.287 41.272C610.287 42.68 610.799 43.832 611.823 44.728C612.847 45.5813 614.127 46.008 615.663 46.008C619.887 46.008 623.663 42.36 626.991 35.064L627.695 33.272C627.994 32.4613 628.42 31.3307 628.975 29.88C629.53 28.3867 629.999 27.1493 630.383 26.168C631.151 24.12 632.538 23.096 634.543 23.096C636.548 23.096 637.551 23.8213 637.551 25.272C637.551 25.656 637.487 26.0827 637.359 26.552C636.25 29.752 635.61 32.0133 635.439 33.336C635.396 34.0613 635.567 34.5307 635.951 34.744C636.335 34.9573 636.975 35.064 637.871 35.064C639.194 35.064 640.431 34.7227 641.583 34.04C642.735 33.3147 643.652 32.3547 644.335 31.16C645.06 29.9227 645.423 28.5573 645.423 27.064C645.423 24.5893 644.399 22.7973 642.351 21.688C640.346 20.536 637.594 19.96 634.095 19.96C631.407 19.96 629.082 20.3653 627.119 21.176C625.156 21.9867 623.663 23.032 622.639 24.312C621.615 25.592 621.103 26.936 621.103 28.344C621.103 29.1973 621.338 29.9227 621.807 30.52C622.276 31.0747 622.852 31.352 623.535 31.352C623.706 31.864 623.791 32.2693 623.791 32.568C623.791 33.592 623.428 34.6587 622.703 35.768C621.978 36.8773 620.954 37.816 619.631 38.584C618.351 39.3093 616.858 39.672 615.151 39.672C612.634 39.672 610.671 38.8187 609.263 37.112C607.855 35.3627 607.151 33.2507 607.151 30.776C607.151 27.6613 608.303 24.6107 610.607 21.624C612.954 18.6373 616.26 16.184 620.527 14.264C624.836 12.344 629.743 11.384 635.247 11.384C642.116 11.384 647.258 12.5787 650.671 14.968C654.127 17.3573 655.855 20.7707 655.855 25.208C655.855 28.792 654.938 31.8213 653.103 34.296C651.311 36.728 648.836 38.2 645.679 38.712C644.826 38.84 644.228 38.9893 643.887 39.16C643.588 39.288 643.439 39.48 643.439 39.736C643.439 39.992 643.588 40.2267 643.887 40.44C644.186 40.6533 644.506 40.9307 644.847 41.272C645.231 41.5707 645.615 42.0613 645.999 42.744C646.554 43.7253 647.151 44.472 647.791 44.984C648.474 45.496 649.391 45.752 650.543 45.752C651.866 45.752 652.975 45.4107 653.871 44.728C654.81 44.0027 655.77 42.9147 656.751 41.464C657.007 41.08 657.348 40.888 657.775 40.888C658.33 40.888 658.82 41.144 659.247 41.656C659.674 42.1253 659.802 42.5947 659.631 43.064C657.796 47.3733 655.407 51.1067 652.463 54.264C649.519 57.4213 646.49 59 643.375 59C641.455 59 639.876 58.3387 638.639 57.016C637.444 55.6507 636.74 53.5813 636.527 50.808L636.399 48.888C636.271 46.4133 636.015 44.4933 635.631 43.128C635.247 41.7627 634.479 41.08 633.327 41.08C632.858 41.08 632.495 41.208 632.239 41.464C632.026 41.6773 631.834 42.04 631.663 42.552C629.53 48.2693 626.671 52.8987 623.087 56.44C619.546 59.9387 615.578 61.688 611.183 61.688ZM711.378 41.464C711.634 41.08 711.975 40.888 712.402 40.888C712.999 40.888 713.511 41.144 713.938 41.656C714.407 42.168 714.514 42.6373 714.258 43.064L713.042 45.432C711.847 47.9067 710.674 50.0613 709.522 51.896C708.413 53.7307 706.962 55.3733 705.17 56.824C703.421 58.2747 701.437 59 699.218 59C697.085 59 695.506 58.1253 694.482 56.376C693.501 54.6267 693.01 52.3227 693.01 49.464C693.01 48.0133 693.181 46.2213 693.522 44.088C690.877 43.96 688.274 43.5973 685.714 43L683.41 47.16C680.978 51.384 678.205 54.8613 675.09 57.592C672.018 60.3227 668.861 61.688 665.618 61.688C662.845 61.688 660.541 61.176 658.706 60.152C656.871 59.128 655.527 57.8053 654.674 56.184C653.778 54.5627 653.33 52.8133 653.33 50.936C653.33 49.1867 653.693 47.5013 654.418 45.88C655.143 44.2587 656.146 42.9573 657.426 41.976C658.706 40.9947 660.178 40.504 661.842 40.504C662.098 40.504 662.311 40.5893 662.482 40.76C662.695 40.888 662.802 41.0587 662.802 41.272C662.802 42.68 663.399 43.832 664.594 44.728C665.789 45.5813 667.282 46.008 669.074 46.008C672.743 46.008 676.157 44.1947 679.314 40.568C675.986 38.8613 673.362 36.6853 671.442 34.04C669.565 31.3947 668.626 28.4933 668.626 25.336C668.626 23.16 669.095 21.2827 670.034 19.704C670.973 18.1253 672.231 16.9307 673.81 16.12C675.389 15.3093 677.095 14.904 678.93 14.904C681.234 14.904 682.983 15.5227 684.178 16.76C685.373 17.9547 685.97 19.384 685.97 21.048C685.97 21.5173 685.842 21.88 685.586 22.136C685.33 22.392 684.989 22.4987 684.562 22.456C683.111 22.2853 681.853 22.648 680.786 23.544C679.719 24.44 679.186 25.9547 679.186 28.088C679.186 31.3733 680.381 34.0187 682.77 36.024L684.498 33.08C689.021 24.9307 693.351 19.192 697.49 15.864C701.671 12.536 705.725 10.872 709.65 10.872C711.783 10.872 713.405 11.4693 714.514 12.664C715.666 13.816 716.242 15.3093 716.242 17.144C716.199 19.192 715.709 20.9627 714.77 22.456C713.831 23.9067 712.701 24.632 711.378 24.632C711.122 24.632 710.738 24.5253 710.226 24.312C709.714 24.056 709.309 23.9493 709.01 23.992C708.327 23.992 707.602 24.5893 706.834 25.784C706.066 26.9787 705.298 28.8133 704.53 31.288C704.018 33.1227 703.613 34.7013 703.314 36.024C703.015 37.3467 702.866 38.5413 702.866 39.608C702.866 42.5947 703.954 44.088 706.13 44.088C707.154 44.088 708.135 43.8747 709.074 43.448C710.055 43.0213 710.823 42.36 711.378 41.464ZM694.482 39.736C695.378 36.664 696.551 33.4213 698.002 30.008C698.557 28.728 698.919 27.7893 699.09 27.192C699.303 26.5947 699.41 26.0187 699.41 25.464C699.41 24.8667 699.154 24.568 698.642 24.568C698.215 24.568 697.746 24.76 697.234 25.144C696.765 25.4853 696.082 26.168 695.186 27.192C693.309 29.624 690.919 33.464 688.018 38.712C689.767 39.2667 691.922 39.608 694.482 39.736ZM717.747 61.688C715.4 61.688 713.374 61.176 711.667 60.152C710.003 59.128 708.766 57.8053 707.955 56.184C707.102 54.52 706.675 52.7707 706.675 50.936C706.675 49.1867 707.038 47.5013 707.763 45.88C708.488 44.2587 709.491 42.9573 710.771 41.976C712.051 40.9947 713.523 40.504 715.187 40.504C715.443 40.504 715.656 40.5893 715.827 40.76C716.04 40.888 716.147 41.0587 716.147 41.272C716.147 42.6373 716.787 43.768 718.067 44.664C719.347 45.56 720.84 46.008 722.547 46.008C724.894 46.008 727.219 45.0907 729.523 43.256C731.827 41.4213 733.683 38.6907 735.091 35.064L735.795 33.272C736.094 32.4613 736.52 31.3307 737.075 29.88C737.63 28.3867 738.099 27.1493 738.483 26.168C739.251 24.12 740.638 23.096 742.643 23.096C744.648 23.096 745.651 23.8213 745.651 25.272C745.651 25.656 745.587 26.0827 745.459 26.552C745.032 27.7893 744.819 28.8133 744.819 29.624C744.819 30.9893 745.459 31.672 746.739 31.672C748.19 31.672 749.47 31.1173 750.579 30.008C751.731 28.8987 752.307 27.4053 752.307 25.528C752.307 23.6507 751.432 22.264 749.683 21.368C747.976 20.4293 745.758 19.96 743.027 19.96C739.016 19.96 735.71 20.7067 733.107 22.2C730.504 23.6507 729.203 25.8267 729.203 28.728C729.203 29.6667 729.438 30.456 729.907 31.096C730.376 31.6933 730.952 31.992 731.635 31.992C731.806 32.504 731.891 32.9093 731.891 33.208C731.891 34.232 731.528 35.2987 730.803 36.408C730.078 37.5173 729.054 38.456 727.731 39.224C726.451 39.9493 724.958 40.312 723.251 40.312C720.734 40.312 718.771 39.5013 717.363 37.88C715.955 36.2587 715.251 34.296 715.251 31.992C715.251 28.2373 716.403 24.8027 718.707 21.688C721.011 18.5307 724.275 16.0347 728.499 14.2C732.766 12.3227 737.715 11.384 743.347 11.384C747.827 11.384 751.582 11.9387 754.611 13.048C757.683 14.1573 759.966 15.672 761.459 17.592C762.995 19.4693 763.763 21.5813 763.763 23.928C763.763 26.4453 762.974 28.7067 761.395 30.712C759.859 32.7173 757.896 33.9333 755.507 34.36C754.952 34.488 754.675 34.7653 754.675 35.192C754.675 35.4053 754.76 35.5973 754.931 35.768C756.979 37.816 758.003 40.4827 758.003 43.768C758.003 46.8827 757.32 49.656 755.955 52.088C754.59 54.4773 752.798 56.3333 750.579 57.656C748.36 58.9787 745.992 59.64 743.475 59.64C740.702 59.64 738.483 58.8507 736.819 57.272C735.155 55.6933 734.238 53.56 734.067 50.872C731.72 54.4133 729.16 57.1013 726.387 58.936C723.656 60.7707 720.776 61.688 717.747 61.688ZM744.051 45.752C745.502 45.752 746.675 45.1547 747.571 43.96C748.467 42.7227 748.915 41.2933 748.915 39.672C748.915 38.7333 748.574 37.944 747.891 37.304C747.208 36.6213 746.206 36.28 744.883 36.28C743.518 36.28 742.43 36.7707 741.619 37.752C740.808 38.7333 740.403 39.9067 740.403 41.272C740.403 42.552 740.702 43.6187 741.299 44.472C741.939 45.3253 742.856 45.752 744.051 45.752ZM809.157 17.272C810.607 17.7413 811.674 18.552 812.357 19.704C813.082 20.8133 813.445 22.0507 813.445 23.416C813.445 24.696 813.018 25.9547 812.165 27.192C811.311 28.4293 810.33 29.4107 809.221 30.136C808.965 30.3067 808.623 30.328 808.197 30.2C807.813 30.0293 807.514 29.7947 807.301 29.496C807.087 29.1547 807.087 28.8347 807.301 28.536C807.727 28.024 807.941 27.3413 807.941 26.488C807.941 25.8053 807.749 25.2507 807.365 24.824C807.023 24.3547 806.49 24.12 805.765 24.12C804.911 24.12 804.207 24.4187 803.653 25.016C803.141 25.5707 802.885 26.4453 802.885 27.64C802.885 28.4507 803.098 29.2827 803.525 30.136C803.951 30.9893 804.591 32.0773 805.445 33.4C806.511 35.0213 807.322 36.4507 807.877 37.688C808.431 38.8827 808.709 40.184 808.709 41.592C808.709 43.896 808.197 45.9653 807.173 47.8C806.191 49.6347 804.783 51.064 802.949 52.088C801.157 53.112 799.13 53.624 796.869 53.624C795.973 53.624 794.991 53.5173 793.925 53.304C793.498 55.7787 792.901 57.6773 792.133 59C791.407 60.3227 790.661 60.984 789.893 60.984C788.613 60.984 787.845 60.408 787.589 59.256C787.461 58.744 787.717 57.848 788.357 56.568C789.039 55.288 790.063 53.9013 791.429 52.408C789.722 51.5973 788.378 50.36 787.397 48.696C786.458 46.9893 785.989 44.9627 785.989 42.616C785.989 40.3547 786.394 38.4773 787.205 36.984C788.015 35.4907 788.997 34.424 790.149 33.784C791.301 33.1013 792.41 32.76 793.477 32.76C794.074 32.76 794.543 32.8667 794.885 33.08C795.269 33.2933 795.461 33.592 795.461 33.976C795.461 34.232 795.29 34.552 794.949 34.936C794.607 35.2773 794.33 35.64 794.117 36.024C793.903 36.408 793.797 36.9627 793.797 37.688C793.797 38.968 794.138 39.9707 794.821 40.696C795.503 41.4213 796.463 41.784 797.701 41.784C798.81 41.784 799.727 41.4427 800.453 40.76C801.178 40.0347 801.541 39.096 801.541 37.944C801.541 37.2187 801.37 36.5147 801.029 35.832C800.73 35.1493 800.239 34.1893 799.557 32.952C798.661 31.416 797.978 30.0933 797.509 28.984C797.039 27.832 796.805 26.5733 796.805 25.208C796.805 22.8187 797.573 20.8133 799.109 19.192C800.645 17.5707 802.885 16.76 805.829 16.76H806.149C806.575 14.3707 807.151 12.536 807.877 11.256C808.645 9.976 809.413 9.336 810.181 9.336C811.503 9.336 812.271 9.89066 812.485 11C812.613 11.4693 812.378 12.3013 811.781 13.496C811.226 14.648 810.351 15.9067 809.157 17.272ZM826.734 59.768C821.955 59.768 818.115 58.2533 815.214 55.224C812.313 52.152 810.862 47.544 810.862 41.4C810.862 36.3227 812.014 31.5227 814.318 27C816.665 22.4773 819.758 18.872 823.598 16.184C827.481 13.4533 831.577 12.088 835.886 12.088C839.854 12.088 842.862 12.92 844.91 14.584C847.001 16.2053 848.046 18.424 848.046 21.24C848.046 23.5867 847.427 25.7627 846.19 27.768C844.995 29.7733 843.502 31.352 841.71 32.504C839.918 33.656 838.211 34.232 836.59 34.232C835.907 34.232 835.331 34.0613 834.862 33.72C834.435 33.3787 834.222 32.9733 834.222 32.504C834.222 32.3333 834.307 32.0347 834.478 31.608C835.715 29.2613 836.334 27.3413 836.334 25.848C836.334 24.7813 835.993 23.992 835.31 23.48C834.67 22.9253 833.795 22.648 832.686 22.648C830.809 22.648 829.081 23.2453 827.502 24.44C825.923 25.592 824.686 27.1493 823.79 29.112C822.894 31.032 822.446 33.0373 822.446 35.128C822.446 38.1573 823.513 40.6747 825.646 42.68C827.822 44.6427 830.937 45.624 834.99 45.624C837.251 45.624 839.363 45.304 841.326 44.664C843.331 44.024 844.825 42.9573 845.806 41.464C846.062 41.08 846.403 40.888 846.83 40.888C847.385 40.888 847.875 41.144 848.302 41.656C848.771 42.168 848.899 42.6373 848.686 43.064C845.913 48.6533 842.755 52.8347 839.214 55.608C835.715 58.3813 831.555 59.768 826.734 59.768ZM852.121 61.688C848.665 61.688 846.062 60.6427 844.312 58.552C842.606 56.4613 841.752 53.9227 841.752 50.936C841.752 49.1867 842.115 47.5013 842.84 45.88C843.566 44.2587 844.569 42.9573 845.849 41.976C847.129 40.9947 848.601 40.504 850.265 40.504C850.521 40.504 850.734 40.5893 850.905 40.76C851.118 40.888 851.225 41.0587 851.225 41.272C851.225 42.68 851.737 43.832 852.76 44.728C853.785 45.5813 855.065 46.008 856.601 46.008C860.825 46.008 864.601 42.36 867.929 35.064L868.633 33.272C868.931 32.4613 869.358 31.3307 869.913 29.88C870.467 28.3867 870.937 27.1493 871.321 26.168C872.089 24.12 873.475 23.096 875.481 23.096C877.486 23.096 878.489 23.8213 878.489 25.272C878.489 25.656 878.425 26.0827 878.297 26.552C877.187 29.752 876.547 32.0133 876.377 33.336C876.334 34.0613 876.505 34.5307 876.889 34.744C877.273 34.9573 877.913 35.064 878.809 35.064C880.131 35.064 881.369 34.7227 882.521 34.04C883.673 33.3147 884.59 32.3547 885.273 31.16C885.998 29.9227 886.361 28.5573 886.361 27.064C886.361 24.5893 885.337 22.7973 883.289 21.688C881.283 20.536 878.531 19.96 875.033 19.96C872.345 19.96 870.019 20.3653 868.057 21.176C866.094 21.9867 864.601 23.032 863.577 24.312C862.553 25.592 862.041 26.936 862.041 28.344C862.041 29.1973 862.275 29.9227 862.745 30.52C863.214 31.0747 863.79 31.352 864.473 31.352C864.643 31.864 864.729 32.2693 864.729 32.568C864.729 33.592 864.366 34.6587 863.641 35.768C862.915 36.8773 861.891 37.816 860.569 38.584C859.289 39.3093 857.795 39.672 856.089 39.672C853.571 39.672 851.609 38.8187 850.201 37.112C848.793 35.3627 848.089 33.2507 848.089 30.776C848.089 27.6613 849.241 24.6107 851.545 21.624C853.891 18.6373 857.198 16.184 861.465 14.264C865.774 12.344 870.681 11.384 876.185 11.384C883.054 11.384 888.195 12.5787 891.609 14.968C895.065 17.3573 896.793 20.7707 896.793 25.208C896.793 28.792 895.875 31.8213 894.041 34.296C892.249 36.728 889.774 38.2 886.617 38.712C885.763 38.84 885.166 38.9893 884.825 39.16C884.526 39.288 884.377 39.48 884.377 39.736C884.377 39.992 884.526 40.2267 884.825 40.44C885.123 40.6533 885.443 40.9307 885.785 41.272C886.169 41.5707 886.553 42.0613 886.937 42.744C887.491 43.7253 888.089 44.472 888.729 44.984C889.411 45.496 890.329 45.752 891.481 45.752C892.803 45.752 893.913 45.4107 894.809 44.728C895.747 44.0027 896.707 42.9147 897.689 41.464C897.945 41.08 898.286 40.888 898.713 40.888C899.267 40.888 899.758 41.144 900.185 41.656C900.611 42.1253 900.739 42.5947 900.569 43.064C898.734 47.3733 896.345 51.1067 893.401 54.264C890.457 57.4213 887.427 59 884.312 59C882.393 59 880.814 58.3387 879.576 57.016C878.382 55.6507 877.678 53.5813 877.465 50.808L877.337 48.888C877.209 46.4133 876.953 44.4933 876.569 43.128C876.185 41.7627 875.417 41.08 874.265 41.08C873.795 41.08 873.433 41.208 873.177 41.464C872.963 41.6773 872.771 42.04 872.601 42.552C870.467 48.2693 867.609 52.8987 864.025 56.44C860.483 59.9387 856.515 61.688 852.121 61.688ZM952.316 41.464C952.572 41.08 952.913 40.888 953.34 40.888C953.937 40.888 954.449 41.144 954.876 41.656C955.345 42.168 955.452 42.6373 955.196 43.064L953.98 45.432C952.785 47.9067 951.612 50.0613 950.46 51.896C949.35 53.7307 947.9 55.3733 946.108 56.824C944.358 58.2747 942.374 59 940.156 59C938.022 59 936.444 58.1253 935.42 56.376C934.438 54.6267 933.948 52.3227 933.948 49.464C933.948 48.0133 934.118 46.2213 934.46 44.088C931.814 43.96 929.212 43.5973 926.652 43L924.348 47.16C921.916 51.384 919.142 54.8613 916.028 57.592C912.956 60.3227 909.798 61.688 906.556 61.688C903.782 61.688 901.478 61.176 899.644 60.152C897.809 59.128 896.465 57.8053 895.611 56.184C894.715 54.5627 894.267 52.8133 894.267 50.936C894.267 49.1867 894.63 47.5013 895.355 45.88C896.081 44.2587 897.084 42.9573 898.364 41.976C899.644 40.9947 901.116 40.504 902.78 40.504C903.036 40.504 903.249 40.5893 903.42 40.76C903.633 40.888 903.74 41.0587 903.74 41.272C903.74 42.68 904.337 43.832 905.532 44.728C906.726 45.5813 908.22 46.008 910.012 46.008C913.681 46.008 917.094 44.1947 920.252 40.568C916.924 38.8613 914.3 36.6853 912.38 34.04C910.502 31.3947 909.564 28.4933 909.564 25.336C909.564 23.16 910.033 21.2827 910.972 19.704C911.91 18.1253 913.169 16.9307 914.748 16.12C916.326 15.3093 918.033 14.904 919.868 14.904C922.172 14.904 923.921 15.5227 925.116 16.76C926.31 17.9547 926.908 19.384 926.908 21.048C926.908 21.5173 926.78 21.88 926.524 22.136C926.268 22.392 925.926 22.4987 925.5 22.456C924.049 22.2853 922.79 22.648 921.724 23.544C920.657 24.44 920.124 25.9547 920.124 28.088C920.124 31.3733 921.318 34.0187 923.708 36.024L925.436 33.08C929.958 24.9307 934.289 19.192 938.428 15.864C942.609 12.536 946.662 10.872 950.588 10.872C952.721 10.872 954.342 11.4693 955.452 12.664C956.604 13.816 957.18 15.3093 957.18 17.144C957.137 19.192 956.646 20.9627 955.708 22.456C954.769 23.9067 953.638 24.632 952.316 24.632C952.06 24.632 951.676 24.5253 951.164 24.312C950.652 24.056 950.246 23.9493 949.948 23.992C949.265 23.992 948.54 24.5893 947.772 25.784C947.004 26.9787 946.236 28.8133 945.468 31.288C944.956 33.1227 944.55 34.7013 944.252 36.024C943.953 37.3467 943.804 38.5413 943.804 39.608C943.804 42.5947 944.892 44.088 947.068 44.088C948.092 44.088 949.073 43.8747 950.012 43.448C950.993 43.0213 951.761 42.36 952.316 41.464ZM935.42 39.736C936.316 36.664 937.489 33.4213 938.94 30.008C939.494 28.728 939.857 27.7893 940.028 27.192C940.241 26.5947 940.348 26.0187 940.348 25.464C940.348 24.8667 940.092 24.568 939.58 24.568C939.153 24.568 938.684 24.76 938.172 25.144C937.702 25.4853 937.02 26.168 936.124 27.192C934.246 29.624 931.857 33.464 928.956 38.712C930.705 39.2667 932.86 39.608 935.42 39.736ZM958.685 61.688C956.338 61.688 954.311 61.176 952.605 60.152C950.94 59.128 949.703 57.8053 948.892 56.184C948.039 54.52 947.612 52.7707 947.612 50.936C947.612 49.1867 947.975 47.5013 948.701 45.88C949.426 44.2587 950.428 42.9573 951.709 41.976C952.989 40.9947 954.461 40.504 956.125 40.504C956.381 40.504 956.594 40.5893 956.765 40.76C956.978 40.888 957.085 41.0587 957.085 41.272C957.085 42.6373 957.725 43.768 959.005 44.664C960.285 45.56 961.778 46.008 963.485 46.008C965.831 46.008 968.157 45.0907 970.461 43.256C972.765 41.4213 974.621 38.6907 976.029 35.064L976.733 33.272C977.031 32.4613 977.458 31.3307 978.013 29.88C978.567 28.3867 979.037 27.1493 979.421 26.168C980.189 24.12 981.575 23.096 983.581 23.096C985.586 23.096 986.589 23.8213 986.589 25.272C986.589 25.656 986.525 26.0827 986.397 26.552C985.97 27.7893 985.757 28.8133 985.757 29.624C985.757 30.9893 986.397 31.672 987.677 31.672C989.127 31.672 990.407 31.1173 991.517 30.008C992.669 28.8987 993.245 27.4053 993.245 25.528C993.245 23.6507 992.37 22.264 990.621 21.368C988.914 20.4293 986.695 19.96 983.965 19.96C979.954 19.96 976.647 20.7067 974.045 22.2C971.442 23.6507 970.141 25.8267 970.141 28.728C970.141 29.6667 970.375 30.456 970.845 31.096C971.314 31.6933 971.89 31.992 972.573 31.992C972.743 32.504 972.829 32.9093 972.829 33.208C972.829 34.232 972.466 35.2987 971.741 36.408C971.015 37.5173 969.991 38.456 968.669 39.224C967.389 39.9493 965.895 40.312 964.189 40.312C961.671 40.312 959.709 39.5013 958.301 37.88C956.893 36.2587 956.189 34.296 956.189 31.992C956.189 28.2373 957.341 24.8027 959.645 21.688C961.949 18.5307 965.213 16.0347 969.437 14.2C973.703 12.3227 978.653 11.384 984.285 11.384C988.765 11.384 992.519 11.9387 995.549 13.048C998.621 14.1573 1000.9 15.672 1002.4 17.592C1003.93 19.4693 1004.7 21.5813 1004.7 23.928C1004.7 26.4453 1003.91 28.7067 1002.33 30.712C1000.8 32.7173 998.834 33.9333 996.445 34.36C995.89 34.488 995.613 34.7653 995.613 35.192C995.613 35.4053 995.698 35.5973 995.869 35.768C997.917 37.816 998.941 40.4827 998.941 43.768C998.941 46.8827 998.258 49.656 996.893 52.088C995.527 54.4773 993.735 56.3333 991.517 57.656C989.298 58.9787 986.93 59.64 984.413 59.64C981.639 59.64 979.421 58.8507 977.757 57.272C976.093 55.6933 975.175 53.56 975.005 50.872C972.658 54.4133 970.098 57.1013 967.325 58.936C964.594 60.7707 961.714 61.688 958.685 61.688ZM984.989 45.752C986.439 45.752 987.613 45.1547 988.509 43.96C989.405 42.7227 989.853 41.2933 989.853 39.672C989.853 38.7333 989.511 37.944 988.829 37.304C988.146 36.6213 987.143 36.28 985.821 36.28C984.455 36.28 983.367 36.7707 982.557 37.752C981.746 38.7333 981.341 39.9067 981.341 41.272C981.341 42.552 981.639 43.6187 982.237 44.472C982.877 45.3253 983.794 45.752 984.989 45.752ZM1050.09 17.272C1051.54 17.7413 1052.61 18.552 1053.29 19.704C1054.02 20.8133 1054.38 22.0507 1054.38 23.416C1054.38 24.696 1053.96 25.9547 1053.1 27.192C1052.25 28.4293 1051.27 29.4107 1050.16 30.136C1049.9 30.3067 1049.56 30.328 1049.13 30.2C1048.75 30.0293 1048.45 29.7947 1048.24 29.496C1048.02 29.1547 1048.02 28.8347 1048.24 28.536C1048.66 28.024 1048.88 27.3413 1048.88 26.488C1048.88 25.8053 1048.69 25.2507 1048.3 24.824C1047.96 24.3547 1047.43 24.12 1046.7 24.12C1045.85 24.12 1045.14 24.4187 1044.59 25.016C1044.08 25.5707 1043.82 26.4453 1043.82 27.64C1043.82 28.4507 1044.04 29.2827 1044.46 30.136C1044.89 30.9893 1045.53 32.0773 1046.38 33.4C1047.45 35.0213 1048.26 36.4507 1048.81 37.688C1049.37 38.8827 1049.65 40.184 1049.65 41.592C1049.65 43.896 1049.13 45.9653 1048.11 47.8C1047.13 49.6347 1045.72 51.064 1043.89 52.088C1042.09 53.112 1040.07 53.624 1037.81 53.624C1036.91 53.624 1035.93 53.5173 1034.86 53.304C1034.44 55.7787 1033.84 57.6773 1033.07 59C1032.34 60.3227 1031.6 60.984 1030.83 60.984C1029.55 60.984 1028.78 60.408 1028.53 59.256C1028.4 58.744 1028.65 57.848 1029.29 56.568C1029.98 55.288 1031 53.9013 1032.37 52.408C1030.66 51.5973 1029.32 50.36 1028.33 48.696C1027.4 46.9893 1026.93 44.9627 1026.93 42.616C1026.93 40.3547 1027.33 38.4773 1028.14 36.984C1028.95 35.4907 1029.93 34.424 1031.09 33.784C1032.24 33.1013 1033.35 32.76 1034.41 32.76C1035.01 32.76 1035.48 32.8667 1035.82 33.08C1036.21 33.2933 1036.4 33.592 1036.4 33.976C1036.4 34.232 1036.23 34.552 1035.89 34.936C1035.54 35.2773 1035.27 35.64 1035.05 36.024C1034.84 36.408 1034.73 36.9627 1034.73 37.688C1034.73 38.968 1035.08 39.9707 1035.76 40.696C1036.44 41.4213 1037.4 41.784 1038.64 41.784C1039.75 41.784 1040.66 41.4427 1041.39 40.76C1042.12 40.0347 1042.48 39.096 1042.48 37.944C1042.48 37.2187 1042.31 36.5147 1041.97 35.832C1041.67 35.1493 1041.18 34.1893 1040.49 32.952C1039.6 31.416 1038.92 30.0933 1038.45 28.984C1037.98 27.832 1037.74 26.5733 1037.74 25.208C1037.74 22.8187 1038.51 20.8133 1040.05 19.192C1041.58 17.5707 1043.82 16.76 1046.77 16.76H1047.09C1047.51 14.3707 1048.09 12.536 1048.81 11.256C1049.58 9.976 1050.35 9.336 1051.12 9.336C1052.44 9.336 1053.21 9.89066 1053.42 11C1053.55 11.4693 1053.32 12.3013 1052.72 13.496C1052.16 14.648 1051.29 15.9067 1050.09 17.272ZM1067.67 59.768C1062.89 59.768 1059.05 58.2533 1056.15 55.224C1053.25 52.152 1051.8 47.544 1051.8 41.4C1051.8 36.3227 1052.95 31.5227 1055.26 27C1057.6 22.4773 1060.7 18.872 1064.54 16.184C1068.42 13.4533 1072.51 12.088 1076.82 12.088C1080.79 12.088 1083.8 12.92 1085.85 14.584C1087.94 16.2053 1088.98 18.424 1088.98 21.24C1088.98 23.5867 1088.36 25.7627 1087.13 27.768C1085.93 29.7733 1084.44 31.352 1082.65 32.504C1080.86 33.656 1079.15 34.232 1077.53 34.232C1076.84 34.232 1076.27 34.0613 1075.8 33.72C1075.37 33.3787 1075.16 32.9733 1075.16 32.504C1075.16 32.3333 1075.24 32.0347 1075.42 31.608C1076.65 29.2613 1077.27 27.3413 1077.27 25.848C1077.27 24.7813 1076.93 23.992 1076.25 23.48C1075.61 22.9253 1074.73 22.648 1073.62 22.648C1071.75 22.648 1070.02 23.2453 1068.44 24.44C1066.86 25.592 1065.62 27.1493 1064.73 29.112C1063.83 31.032 1063.38 33.0373 1063.38 35.128C1063.38 38.1573 1064.45 40.6747 1066.58 42.68C1068.76 44.6427 1071.87 45.624 1075.93 45.624C1078.19 45.624 1080.3 45.304 1082.26 44.664C1084.27 44.024 1085.76 42.9573 1086.74 41.464C1087 41.08 1087.34 40.888 1087.77 40.888C1088.32 40.888 1088.81 41.144 1089.24 41.656C1089.71 42.168 1089.84 42.6373 1089.62 43.064C1086.85 48.6533 1083.69 52.8347 1080.15 55.608C1076.65 58.3813 1072.49 59.768 1067.67 59.768ZM1093.06 61.688C1089.6 61.688 1087 60.6427 1085.25 58.552C1083.54 56.4613 1082.69 53.9227 1082.69 50.936C1082.69 49.1867 1083.05 47.5013 1083.78 45.88C1084.5 44.2587 1085.51 42.9573 1086.79 41.976C1088.07 40.9947 1089.54 40.504 1091.2 40.504C1091.46 40.504 1091.67 40.5893 1091.84 40.76C1092.06 40.888 1092.16 41.0587 1092.16 41.272C1092.16 42.68 1092.67 43.832 1093.7 44.728C1094.72 45.5813 1096 46.008 1097.54 46.008C1101.76 46.008 1105.54 42.36 1108.87 35.064L1109.57 33.272C1109.87 32.4613 1110.3 31.3307 1110.85 29.88C1111.4 28.3867 1111.87 27.1493 1112.26 26.168C1113.03 24.12 1114.41 23.096 1116.42 23.096C1118.42 23.096 1119.43 23.8213 1119.43 25.272C1119.43 25.656 1119.36 26.0827 1119.23 26.552C1118.12 29.752 1117.48 32.0133 1117.31 33.336C1117.27 34.0613 1117.44 34.5307 1117.83 34.744C1118.21 34.9573 1118.85 35.064 1119.75 35.064C1121.07 35.064 1122.31 34.7227 1123.46 34.04C1124.61 33.3147 1125.53 32.3547 1126.21 31.16C1126.94 29.9227 1127.3 28.5573 1127.3 27.064C1127.3 24.5893 1126.27 22.7973 1124.23 21.688C1122.22 20.536 1119.47 19.96 1115.97 19.96C1113.28 19.96 1110.96 20.3653 1108.99 21.176C1107.03 21.9867 1105.54 23.032 1104.51 24.312C1103.49 25.592 1102.98 26.936 1102.98 28.344C1102.98 29.1973 1103.21 29.9227 1103.68 30.52C1104.15 31.0747 1104.73 31.352 1105.41 31.352C1105.58 31.864 1105.67 32.2693 1105.67 32.568C1105.67 33.592 1105.3 34.6587 1104.58 35.768C1103.85 36.8773 1102.83 37.816 1101.51 38.584C1100.23 39.3093 1098.73 39.672 1097.03 39.672C1094.51 39.672 1092.55 38.8187 1091.14 37.112C1089.73 35.3627 1089.03 33.2507 1089.03 30.776C1089.03 27.6613 1090.18 24.6107 1092.48 21.624C1094.83 18.6373 1098.14 16.184 1102.4 14.264C1106.71 12.344 1111.62 11.384 1117.12 11.384C1123.99 11.384 1129.13 12.5787 1132.55 14.968C1136 17.3573 1137.73 20.7707 1137.73 25.208C1137.73 28.792 1136.81 31.8213 1134.98 34.296C1133.19 36.728 1130.71 38.2 1127.55 38.712C1126.7 38.84 1126.1 38.9893 1125.76 39.16C1125.46 39.288 1125.31 39.48 1125.31 39.736C1125.31 39.992 1125.46 40.2267 1125.76 40.44C1126.06 40.6533 1126.38 40.9307 1126.72 41.272C1127.11 41.5707 1127.49 42.0613 1127.87 42.744C1128.43 43.7253 1129.03 44.472 1129.67 44.984C1130.35 45.496 1131.27 45.752 1132.42 45.752C1133.74 45.752 1134.85 45.4107 1135.75 44.728C1136.68 44.0027 1137.64 42.9147 1138.63 41.464C1138.88 41.08 1139.22 40.888 1139.65 40.888C1140.2 40.888 1140.7 41.144 1141.12 41.656C1141.55 42.1253 1141.68 42.5947 1141.51 43.064C1139.67 47.3733 1137.28 51.1067 1134.34 54.264C1131.39 57.4213 1128.36 59 1125.25 59C1123.33 59 1121.75 58.3387 1120.51 57.016C1119.32 55.6507 1118.62 53.5813 1118.4 50.808L1118.27 48.888C1118.15 46.4133 1117.89 44.4933 1117.51 43.128C1117.12 41.7627 1116.35 41.08 1115.2 41.08C1114.73 41.08 1114.37 41.208 1114.11 41.464C1113.9 41.6773 1113.71 42.04 1113.54 42.552C1111.4 48.2693 1108.55 52.8987 1104.96 56.44C1101.42 59.9387 1097.45 61.688 1093.06 61.688ZM1193.25 41.464C1193.51 41.08 1193.85 40.888 1194.28 40.888C1194.87 40.888 1195.39 41.144 1195.81 41.656C1196.28 42.168 1196.39 42.6373 1196.13 43.064L1194.92 45.432C1193.72 47.9067 1192.55 50.0613 1191.4 51.896C1190.29 53.7307 1188.84 55.3733 1187.05 56.824C1185.3 58.2747 1183.31 59 1181.09 59C1178.96 59 1177.38 58.1253 1176.36 56.376C1175.38 54.6267 1174.89 52.3227 1174.89 49.464C1174.89 48.0133 1175.06 46.2213 1175.4 44.088C1172.75 43.96 1170.15 43.5973 1167.59 43L1165.29 47.16C1162.85 51.384 1160.08 54.8613 1156.97 57.592C1153.89 60.3227 1150.74 61.688 1147.49 61.688C1144.72 61.688 1142.42 61.176 1140.58 60.152C1138.75 59.128 1137.4 57.8053 1136.55 56.184C1135.65 54.5627 1135.2 52.8133 1135.2 50.936C1135.2 49.1867 1135.57 47.5013 1136.29 45.88C1137.02 44.2587 1138.02 42.9573 1139.3 41.976C1140.58 40.9947 1142.05 40.504 1143.72 40.504C1143.97 40.504 1144.19 40.5893 1144.36 40.76C1144.57 40.888 1144.68 41.0587 1144.68 41.272C1144.68 42.68 1145.27 43.832 1146.47 44.728C1147.66 45.5813 1149.16 46.008 1150.95 46.008C1154.62 46.008 1158.03 44.1947 1161.19 40.568C1157.86 38.8613 1155.24 36.6853 1153.32 34.04C1151.44 31.3947 1150.5 28.4933 1150.5 25.336C1150.5 23.16 1150.97 21.2827 1151.91 19.704C1152.85 18.1253 1154.11 16.9307 1155.69 16.12C1157.26 15.3093 1158.97 14.904 1160.81 14.904C1163.11 14.904 1164.86 15.5227 1166.05 16.76C1167.25 17.9547 1167.85 19.384 1167.85 21.048C1167.85 21.5173 1167.72 21.88 1167.46 22.136C1167.21 22.392 1166.86 22.4987 1166.44 22.456C1164.99 22.2853 1163.73 22.648 1162.66 23.544C1161.59 24.44 1161.06 25.9547 1161.06 28.088C1161.06 31.3733 1162.26 34.0187 1164.65 36.024L1166.37 33.08C1170.9 24.9307 1175.23 19.192 1179.37 15.864C1183.55 12.536 1187.6 10.872 1191.53 10.872C1193.66 10.872 1195.28 11.4693 1196.39 12.664C1197.54 13.816 1198.12 15.3093 1198.12 17.144C1198.07 19.192 1197.58 20.9627 1196.65 22.456C1195.71 23.9067 1194.58 24.632 1193.25 24.632C1193 24.632 1192.61 24.5253 1192.1 24.312C1191.59 24.056 1191.18 23.9493 1190.89 23.992C1190.2 23.992 1189.48 24.5893 1188.71 25.784C1187.94 26.9787 1187.17 28.8133 1186.41 31.288C1185.89 33.1227 1185.49 34.7013 1185.19 36.024C1184.89 37.3467 1184.74 38.5413 1184.74 39.608C1184.74 42.5947 1185.83 44.088 1188.01 44.088C1189.03 44.088 1190.01 43.8747 1190.95 43.448C1191.93 43.0213 1192.7 42.36 1193.25 41.464ZM1176.36 39.736C1177.25 36.664 1178.43 33.4213 1179.88 30.008C1180.43 28.728 1180.79 27.7893 1180.97 27.192C1181.18 26.5947 1181.29 26.0187 1181.29 25.464C1181.29 24.8667 1181.03 24.568 1180.52 24.568C1180.09 24.568 1179.62 24.76 1179.11 25.144C1178.64 25.4853 1177.96 26.168 1177.06 27.192C1175.18 29.624 1172.79 33.464 1169.89 38.712C1171.64 39.2667 1173.8 39.608 1176.36 39.736ZM1199.62 61.688C1197.28 61.688 1195.25 61.176 1193.54 60.152C1191.88 59.128 1190.64 57.8053 1189.83 56.184C1188.98 54.52 1188.55 52.7707 1188.55 50.936C1188.55 49.1867 1188.91 47.5013 1189.64 45.88C1190.36 44.2587 1191.37 42.9573 1192.65 41.976C1193.93 40.9947 1195.4 40.504 1197.06 40.504C1197.32 40.504 1197.53 40.5893 1197.7 40.76C1197.92 40.888 1198.02 41.0587 1198.02 41.272C1198.02 42.6373 1198.66 43.768 1199.94 44.664C1201.22 45.56 1202.72 46.008 1204.42 46.008C1206.77 46.008 1209.09 45.0907 1211.4 43.256C1213.7 41.4213 1215.56 38.6907 1216.97 35.064L1217.67 33.272C1217.97 32.4613 1218.4 31.3307 1218.95 29.88C1219.5 28.3867 1219.97 27.1493 1220.36 26.168C1221.13 24.12 1222.51 23.096 1224.52 23.096C1226.52 23.096 1227.53 23.8213 1227.53 25.272C1227.53 25.656 1227.46 26.0827 1227.33 26.552C1226.91 27.7893 1226.69 28.8133 1226.69 29.624C1226.69 30.9893 1227.33 31.672 1228.61 31.672C1230.06 31.672 1231.34 31.1173 1232.45 30.008C1233.61 28.8987 1234.18 27.4053 1234.18 25.528C1234.18 23.6507 1233.31 22.264 1231.56 21.368C1229.85 20.4293 1227.63 19.96 1224.9 19.96C1220.89 19.96 1217.58 20.7067 1214.98 22.2C1212.38 23.6507 1211.08 25.8267 1211.08 28.728C1211.08 29.6667 1211.31 30.456 1211.78 31.096C1212.25 31.6933 1212.83 31.992 1213.51 31.992C1213.68 32.504 1213.77 32.9093 1213.77 33.208C1213.77 34.232 1213.4 35.2987 1212.68 36.408C1211.95 37.5173 1210.93 38.456 1209.61 39.224C1208.33 39.9493 1206.83 40.312 1205.13 40.312C1202.61 40.312 1200.65 39.5013 1199.24 37.88C1197.83 36.2587 1197.13 34.296 1197.13 31.992C1197.13 28.2373 1198.28 24.8027 1200.58 21.688C1202.89 18.5307 1206.15 16.0347 1210.37 14.2C1214.64 12.3227 1219.59 11.384 1225.22 11.384C1229.7 11.384 1233.46 11.9387 1236.49 13.048C1239.56 14.1573 1241.84 15.672 1243.33 17.592C1244.87 19.4693 1245.64 21.5813 1245.64 23.928C1245.64 26.4453 1244.85 28.7067 1243.27 30.712C1241.73 32.7173 1239.77 33.9333 1237.38 34.36C1236.83 34.488 1236.55 34.7653 1236.55 35.192C1236.55 35.4053 1236.64 35.5973 1236.81 35.768C1238.85 37.816 1239.88 40.4827 1239.88 43.768C1239.88 46.8827 1239.2 49.656 1237.83 52.088C1236.46 54.4773 1234.67 56.3333 1232.45 57.656C1230.24 58.9787 1227.87 59.64 1225.35 59.64C1222.58 59.64 1220.36 58.8507 1218.69 57.272C1217.03 55.6933 1216.11 53.56 1215.94 50.872C1213.6 54.4133 1211.04 57.1013 1208.26 58.936C1205.53 60.7707 1202.65 61.688 1199.62 61.688ZM1225.93 45.752C1227.38 45.752 1228.55 45.1547 1229.45 43.96C1230.34 42.7227 1230.79 41.2933 1230.79 39.672C1230.79 38.7333 1230.45 37.944 1229.77 37.304C1229.08 36.6213 1228.08 36.28 1226.76 36.28C1225.39 36.28 1224.3 36.7707 1223.49 37.752C1222.68 38.7333 1222.28 39.9067 1222.28 41.272C1222.28 42.552 1222.58 43.6187 1223.17 44.472C1223.81 45.3253 1224.73 45.752 1225.93 45.752Z" fill="#0068B6"/>
</svg>
