<svg width="189" height="58" viewBox="0 0 189 58" fill="none" xmlns="http://www.w3.org/2000/svg">
<rect width="189" height="58" rx="20" fill="#0068B6"/>
<path d="M39.568 26.056C38.3093 26.056 37.328 25.6293 36.624 24.776C35.92 23.9013 35.568 22.8453 35.568 21.608C35.568 20.0293 36.0693 18.5253 37.072 17.096C38.0747 15.6453 39.5787 14.472 41.584 13.576C43.6107 12.68 46.0747 12.232 48.976 12.232C50.6187 12.232 52.1333 12.2853 53.52 12.392C53.8613 12.4133 54.2667 12.4347 54.736 12.456C55.2053 12.4773 55.76 12.488 56.4 12.488C57.5307 12.488 58.5867 12.4027 59.568 12.232C59.7387 12.2107 59.9093 12.1893 60.08 12.168C60.272 12.1467 60.4533 12.136 60.624 12.136C61.0933 12.136 61.4133 12.2427 61.584 12.456C61.776 12.6693 61.872 13 61.872 13.448C61.872 14.3013 61.6693 15.0907 61.264 15.816C60.8587 16.52 60.2613 17.096 59.472 17.544C58.6827 17.9707 57.7333 18.184 56.624 18.184C55.984 18.184 55.4187 18.1307 54.928 18.024C54.4373 17.896 53.8507 17.704 53.168 17.448C52.3573 17.1493 51.6213 16.9253 50.96 16.776C50.32 16.6053 49.5307 16.52 48.592 16.52C47.376 16.52 46.3093 16.7013 45.392 17.064C44.4747 17.4053 43.7707 17.8747 43.28 18.472C42.7893 19.0693 42.544 19.7093 42.544 20.392C42.544 20.8187 42.6613 21.1813 42.896 21.48C43.1307 21.7573 43.4187 21.896 43.76 21.896C43.8453 22.152 43.888 22.3547 43.888 22.504C43.888 23.016 43.7067 23.5493 43.344 24.104C42.9813 24.6587 42.4693 25.128 41.808 25.512C41.168 25.8747 40.4213 26.056 39.568 26.056ZM38.608 38.344C37.2 38.344 36.0267 38.088 35.088 37.576C34.1707 37.064 33.4987 36.4027 33.072 35.592C32.624 34.7813 32.4 33.9067 32.4 32.968C32.4 32.0933 32.5813 31.2507 32.944 30.44C33.3067 29.6293 33.808 28.9787 34.448 28.488C35.088 27.9973 35.824 27.752 36.656 27.752C36.784 27.752 36.8907 27.7947 36.976 27.88C37.0827 27.944 37.136 28.0293 37.136 28.136C37.136 28.84 37.4133 29.416 37.968 29.864C38.5227 30.2907 39.2587 30.504 40.176 30.504C41.2853 30.504 42.4267 30.0453 43.6 29.128C44.7947 28.2107 45.744 26.8453 46.448 25.032L46.8 24.136C46.9493 23.7307 47.1627 23.1653 47.44 22.44C47.7173 21.6933 47.952 21.0747 48.144 20.584C48.528 19.56 49.2213 19.048 50.224 19.048C51.2907 19.048 51.824 19.4107 51.824 20.136C51.824 20.264 51.7813 20.4773 51.696 20.776C50.4373 24.7227 49.36 27.752 48.464 29.864C47.2693 32.7227 45.84 34.856 44.176 36.264C42.512 37.6507 40.656 38.344 38.608 38.344ZM56.7973 37C54.9839 37 53.6079 36.4133 52.6693 35.24C51.7306 34.0453 51.2613 32.552 51.2613 30.76C51.2613 29.224 51.6026 27.6987 52.2853 26.184C52.9679 24.6693 53.9493 23.432 55.2293 22.472C56.5093 21.4907 57.9813 21 59.6453 21C61.0533 21 62.1199 21.384 62.8453 22.152C63.5706 22.92 63.9333 23.88 63.9333 25.032C63.9333 25.8213 63.7093 26.6 63.2613 27.368C62.8346 28.136 62.2266 28.7653 61.4373 29.256C60.6693 29.7467 59.7839 29.992 58.7812 29.992C57.7146 29.992 56.8826 29.8213 56.2853 29.48C56.1999 29.4373 56.1359 29.416 56.0933 29.416C55.9866 29.416 55.9013 29.4587 55.8373 29.544C55.7733 29.608 55.7413 29.7147 55.7413 29.864C55.7413 30.3973 56.0506 30.8133 56.6693 31.112C57.3093 31.4107 58.1093 31.56 59.0693 31.56C60.2213 31.56 61.3733 31.272 62.5253 30.696C63.6773 30.12 64.5946 29.2987 65.2773 28.232C65.4053 28.04 65.5759 27.944 65.7893 27.944C66.0879 27.944 66.3439 28.072 66.5573 28.328C66.7919 28.584 66.8453 28.8187 66.7173 29.032C65.3093 31.656 63.7626 33.64 62.0773 34.984C60.4133 36.328 58.6533 37 56.7973 37ZM57.9493 27.592C58.5253 27.592 58.9946 27.4107 59.3573 27.048C59.7413 26.664 59.9333 26.248 59.9333 25.8C59.9333 25.416 59.8053 25.1067 59.5493 24.872C59.2933 24.616 58.9306 24.488 58.4613 24.488C57.8639 24.488 57.3733 24.6693 56.9893 25.032C56.6266 25.3947 56.4453 25.8107 56.4453 26.28C56.4453 26.664 56.5733 26.984 56.8293 27.24C57.0853 27.4747 57.4586 27.592 57.9493 27.592ZM67.2513 37C65.2246 37 64.2112 35.9013 64.2112 33.704C64.2112 32.1253 64.5739 30.3013 65.2993 28.232L66.0033 26.184C67.1339 22.8987 67.9979 20.488 68.5953 18.952C69.2139 17.3947 69.8433 16.1787 70.4833 15.304C71.1233 14.4293 71.8273 13.992 72.5953 13.992C73.4699 13.992 73.9073 14.3867 73.9073 15.176C73.9073 15.688 73.7259 16.296 73.3633 17C71.5286 20.6907 70.2806 23.752 69.6193 26.184C69.3633 27.0587 69.2352 27.7627 69.2352 28.296C69.2352 28.7867 69.3419 29.1707 69.5553 29.448C69.7899 29.7253 70.1846 29.864 70.7393 29.864C71.7633 29.864 72.6273 29.32 73.3313 28.232C73.4593 28.04 73.6299 27.944 73.8433 27.944C74.1419 27.944 74.3979 28.072 74.6113 28.328C74.8459 28.584 74.8993 28.8187 74.7713 29.032L74.1633 30.216C73.5659 31.4533 72.9793 32.5307 72.4033 33.448C71.8486 34.3653 71.1233 35.1867 70.2273 35.912C69.3526 36.6373 68.3606 37 67.2513 37ZM78.6098 37C76.7964 37 75.4204 36.4133 74.4818 35.24C73.5431 34.0453 73.0738 32.552 73.0738 30.76C73.0738 29.224 73.4151 27.6987 74.0978 26.184C74.7804 24.6693 75.7618 23.432 77.0418 22.472C78.3218 21.4907 79.7938 21 81.4578 21C82.8658 21 83.9324 21.384 84.6578 22.152C85.3831 22.92 85.7458 23.88 85.7458 25.032C85.7458 25.8213 85.5218 26.6 85.0738 27.368C84.6471 28.136 84.0391 28.7653 83.2498 29.256C82.4818 29.7467 81.5964 29.992 80.5938 29.992C79.5271 29.992 78.6951 29.8213 78.0978 29.48C78.0124 29.4373 77.9484 29.416 77.9058 29.416C77.7991 29.416 77.7138 29.4587 77.6498 29.544C77.5858 29.608 77.5538 29.7147 77.5538 29.864C77.5538 30.3973 77.8631 30.8133 78.4818 31.112C79.1218 31.4107 79.9218 31.56 80.8818 31.56C82.0338 31.56 83.1858 31.272 84.3378 30.696C85.4898 30.12 86.4071 29.2987 87.0898 28.232C87.2178 28.04 87.3884 27.944 87.6018 27.944C87.9004 27.944 88.1564 28.072 88.3698 28.328C88.6044 28.584 88.6578 28.8187 88.5298 29.032C87.1218 31.656 85.5751 33.64 83.8898 34.984C82.2258 36.328 80.4658 37 78.6098 37ZM79.7618 27.592C80.3378 27.592 80.8071 27.4107 81.1698 27.048C81.5538 26.664 81.7458 26.248 81.7458 25.8C81.7458 25.416 81.6178 25.1067 81.3618 24.872C81.1058 24.616 80.7431 24.488 80.2738 24.488C79.6764 24.488 79.1858 24.6693 78.8018 25.032C78.4391 25.3947 78.2578 25.8107 78.2578 26.28C78.2578 26.664 78.3858 26.984 78.6418 27.24C78.8978 27.4747 79.2711 27.592 79.7618 27.592ZM103.24 28.232C103.325 28.0827 103.485 28.008 103.72 28.008C104.018 28.008 104.285 28.1147 104.52 28.328C104.754 28.5413 104.808 28.776 104.68 29.032L104.04 30.376C103.357 31.8693 102.77 33.0533 102.28 33.928C101.789 34.8027 101.202 35.5387 100.52 36.136C99.8584 36.712 99.1011 37 98.2478 37C97.7784 37 97.4051 36.7653 97.1278 36.296C96.1038 39.5387 94.9624 41.8533 93.7038 43.24C92.4451 44.648 90.8984 45.352 89.0638 45.352C87.3784 45.352 86.0771 44.9147 85.1597 44.04C84.2211 43.1653 83.7517 41.9493 83.7517 40.392C83.7517 39.4107 83.9331 38.568 84.2957 37.864C84.6371 37.1813 85.0211 36.7013 85.4477 36.424C85.8531 36.1253 86.0664 36.104 86.0877 36.36C86.1731 37.1707 86.5251 37.8107 87.1438 38.28C87.7838 38.7707 88.6371 39.0267 89.7038 39.048C90.6424 39.048 91.5384 38.7387 92.3918 38.12C93.2664 37.5227 93.9598 36.7653 94.4718 35.848C95.0051 34.9093 95.2718 33.9707 95.2718 33.032C95.2718 32.776 95.1758 32.648 94.9838 32.648C94.7704 32.648 94.5784 32.808 94.4078 33.128C93.9811 34.216 93.3624 35.0907 92.5518 35.752C91.7411 36.392 90.9198 36.712 90.0878 36.712C88.9998 36.712 88.1144 36.3067 87.4318 35.496C86.7704 34.6853 86.4398 33.672 86.4398 32.456C86.4398 30.7707 86.7597 29.0427 87.3997 27.272C88.0398 25.48 88.9784 23.9867 90.2158 22.792C91.4744 21.5973 92.9678 21 94.6958 21C95.4211 21 95.9651 21.0853 96.3278 21.256C96.6904 21.4053 96.9998 21.608 97.2558 21.864C97.5331 22.0987 97.7678 22.216 97.9598 22.216C98.1731 22.216 98.3544 22.1733 98.5038 22.088C98.6744 22.0027 98.8664 21.8747 99.0798 21.704C99.3571 21.4693 99.6131 21.2987 99.8478 21.192C100.082 21.064 100.381 21 100.744 21C101.49 21 101.864 21.3947 101.864 22.184C101.864 22.4613 101.8 22.7707 101.672 23.112C101.544 23.432 101.33 23.8907 101.032 24.488C100.306 26.0027 99.7198 27.4213 99.2718 28.744C99.1651 29.2133 99.1118 29.5653 99.1118 29.8C99.1118 30.2267 99.2078 30.536 99.3998 30.728C99.5918 30.92 99.8371 31.016 100.136 31.016C100.925 31.016 101.96 30.088 103.24 28.232ZM92.9998 30.376C93.5118 30.376 93.9704 30.2267 94.3758 29.928C94.8024 29.608 95.1331 29.2133 95.3678 28.744C95.6024 28.2747 95.7198 27.816 95.7198 27.368C95.7198 26.8773 95.5704 26.472 95.2718 26.152C94.9944 25.832 94.5571 25.672 93.9598 25.672C93.2131 25.672 92.5838 25.9813 92.0718 26.6C91.5811 27.2187 91.3358 27.9013 91.3358 28.648C91.3358 29.16 91.4638 29.576 91.7198 29.896C91.9971 30.216 92.4238 30.376 92.9998 30.376ZM115.876 28.232C116.004 28.04 116.175 27.944 116.388 27.944C116.687 27.944 116.943 28.072 117.156 28.328C117.391 28.584 117.444 28.8187 117.316 29.032L116.708 30.216C116.111 31.4533 115.524 32.5307 114.948 33.448C114.393 34.3653 113.668 35.1867 112.772 35.912C111.897 36.6373 110.905 37 109.796 37C108.58 37 107.684 36.68 107.108 36.04C106.553 35.3787 106.276 34.5787 106.276 33.64C106.276 32.872 106.393 32.1147 106.628 31.368C106.884 30.6 107.236 29.7147 107.684 28.712C107.983 28.0293 108.196 27.496 108.324 27.112C108.452 26.728 108.516 26.3973 108.516 26.12C108.516 25.9067 108.377 25.64 108.1 25.32C107.823 25 107.396 24.7333 106.82 24.52C106.436 25.352 105.721 26.856 104.676 29.032C104.591 29.2453 104.42 29.352 104.164 29.352C103.929 29.352 103.695 29.2667 103.46 29.096C103.247 28.904 103.14 28.7013 103.14 28.488C103.14 28.3813 103.172 28.296 103.236 28.232C103.812 27.4213 104.463 26.024 105.188 24.04C104.847 23.912 104.58 23.72 104.388 23.464C104.217 23.1867 104.132 22.7813 104.132 22.248C104.132 21.544 104.399 20.8933 104.932 20.296C105.487 19.6773 106.169 19.368 106.98 19.368C107.94 19.368 108.889 19.56 109.828 19.944C110.788 20.328 111.567 20.8187 112.164 21.416C112.761 21.992 113.06 22.568 113.06 23.144C113.06 23.5493 112.996 23.9333 112.868 24.296C112.761 24.6587 112.601 25.096 112.388 25.608C112.153 26.1627 111.972 26.6427 111.844 27.048C111.737 27.432 111.684 27.848 111.684 28.296C111.684 28.7653 111.844 29.1493 112.164 29.448C112.484 29.7253 112.985 29.864 113.668 29.864C114.116 29.864 114.5 29.736 114.82 29.48C115.161 29.2027 115.513 28.7867 115.876 28.232ZM118.517 37C117.45 37 116.629 36.5627 116.053 35.688C115.498 34.8133 115.221 33.64 115.221 32.168C115.221 30.568 115.541 28.904 116.181 27.176C116.821 25.4267 117.76 23.9653 118.997 22.792C120.256 21.5973 121.749 21 123.477 21C124.202 21 124.746 21.0853 125.109 21.256C125.472 21.4053 125.781 21.608 126.037 21.864C126.314 22.0987 126.549 22.216 126.741 22.216C126.954 22.216 127.136 22.1733 127.285 22.088C127.456 22.0027 127.648 21.8747 127.861 21.704C128.138 21.4693 128.394 21.2987 128.629 21.192C128.864 21.064 129.162 21 129.525 21C130.272 21 130.645 21.3947 130.645 22.184C130.645 22.5253 130.581 22.8667 130.453 23.208C130.325 23.5493 130.133 23.976 129.877 24.488C129.813 24.6587 129.696 24.9253 129.525 25.288C129.354 25.6293 129.216 25.9493 129.109 26.248C128.682 27.1227 128.469 27.88 128.469 28.52C128.469 29.416 128.906 29.864 129.781 29.864C130.784 29.864 131.626 29.32 132.309 28.232C132.437 28.04 132.608 27.944 132.821 27.944C133.098 27.944 133.344 28.072 133.557 28.328C133.792 28.584 133.856 28.8187 133.749 29.032L132.981 30.568C132.32 31.9333 131.733 33.0427 131.221 33.896C130.709 34.728 130.09 35.4533 129.365 36.072C128.64 36.6907 127.808 37 126.869 37C125.952 37 125.248 36.68 124.757 36.04C124.266 35.3787 124.021 34.5147 124.021 33.448C124.021 33.0853 124.053 32.712 124.117 32.328H123.989C123.306 33.7147 122.485 34.8453 121.525 35.72C120.586 36.5733 119.584 37 118.517 37ZM121.717 30.376C122.25 30.376 122.73 30.2267 123.157 29.928C123.584 29.608 123.914 29.2133 124.149 28.744C124.384 28.2747 124.501 27.816 124.501 27.368C124.501 26.8347 124.352 26.4187 124.053 26.12C123.754 25.8213 123.349 25.672 122.837 25.672C122.048 25.672 121.397 25.9813 120.885 26.6C120.373 27.2187 120.117 27.9013 120.117 28.648C120.117 29.1813 120.256 29.608 120.533 29.928C120.832 30.2267 121.226 30.376 121.717 30.376ZM133.579 37C132.853 37 132.277 36.7867 131.851 36.36C131.445 35.912 131.242 35.3467 131.242 34.664C131.242 32.4453 131.595 30.3013 132.299 28.232C133.067 25.928 133.76 24.1467 134.379 22.888C135.019 21.6293 135.627 21 136.203 21C136.544 21 136.789 21.1173 136.939 21.352C137.109 21.5653 137.195 21.8533 137.195 22.216C137.195 22.5573 137.259 22.8347 137.387 23.048C137.536 23.2613 137.717 23.368 137.931 23.368C138.229 23.368 138.56 23.1867 138.923 22.824C140.181 21.608 141.472 21 142.795 21C143.541 21 144.149 21.1813 144.619 21.544C145.088 21.9067 145.408 22.3973 145.579 23.016C145.643 23.2507 145.739 23.368 145.867 23.368C145.995 23.368 146.165 23.2507 146.379 23.016C147.637 21.6293 149.013 20.936 150.507 20.936C151.68 20.936 152.544 21.2133 153.099 21.768C153.653 22.3013 153.931 23.0053 153.931 23.88C153.931 24.264 153.888 24.616 153.803 24.936C153.717 25.2347 153.589 25.6293 153.419 26.12C153.248 26.5467 153.12 26.9093 153.035 27.208C152.949 27.5067 152.907 27.8373 152.907 28.2C152.907 28.7547 153.035 29.1707 153.291 29.448C153.547 29.7253 153.941 29.864 154.475 29.864C154.923 29.864 155.307 29.7253 155.627 29.448C155.968 29.1707 156.32 28.7653 156.683 28.232C156.811 28.04 156.981 27.944 157.195 27.944C157.493 27.944 157.749 28.072 157.963 28.328C158.197 28.584 158.251 28.8187 158.123 29.032L157.515 30.216C156.917 31.4533 156.331 32.5307 155.755 33.448C155.2 34.3653 154.475 35.1867 153.579 35.912C152.704 36.6373 151.712 37 150.603 37C149.643 37 148.939 36.6907 148.491 36.072C148.064 35.432 147.851 34.6107 147.851 33.608C147.851 32.9893 147.925 32.392 148.075 31.816C148.224 31.2187 148.427 30.5467 148.683 29.8C148.725 29.672 148.821 29.3733 148.971 28.904C149.12 28.4133 149.194 28.0187 149.194 27.72C149.194 27.3573 149.088 27.08 148.875 26.888C148.661 26.696 148.363 26.6 147.979 26.6C147.381 26.6 146.816 26.856 146.283 27.368C145.749 27.8587 145.323 28.4987 145.003 29.288C144.683 30.0773 144.523 30.8667 144.523 31.656C144.523 31.9547 144.565 32.3173 144.651 32.744C144.651 32.8293 144.661 32.9787 144.683 33.192C144.725 33.384 144.747 33.5973 144.747 33.832C144.747 34.6853 144.533 35.4213 144.107 36.04C143.701 36.6373 142.965 36.936 141.899 36.936C140.192 36.936 139.339 36.008 139.339 34.152C139.339 33.5547 139.413 32.9787 139.562 32.424C139.733 31.848 139.968 31.176 140.267 30.408C140.501 29.7893 140.672 29.2987 140.779 28.936C140.885 28.5733 140.939 28.232 140.939 27.912C140.939 27.08 140.533 26.664 139.723 26.664C139.125 26.664 138.56 26.9307 138.027 27.464C137.493 27.976 137.067 28.6587 136.747 29.512C136.427 30.344 136.266 31.2293 136.266 32.168V33.608C136.266 34.6107 136.075 35.432 135.691 36.072C135.307 36.6907 134.603 37 133.579 37Z" fill="white"/>
</svg>
