<svg width="55" height="46" viewBox="0 0 55 46" fill="none" xmlns="http://www.w3.org/2000/svg">
<path d="M20.3503 42.6317C18.7382 42.6317 19.0124 42.0236 18.4563 40.4878L13.7163 24.8891L50.2032 3.24243" fill="#717171"/>
<path d="M20.3506 42.6317C21.5945 42.6317 22.144 42.0634 22.8383 41.3878L29.4723 34.9374L21.1975 29.9475" fill="black"/>
<path d="M21.1963 29.9486L41.2475 44.7623C43.5362 46.0249 45.1869 45.3715 45.7575 42.6383L53.9195 4.17669C54.7554 0.826528 52.6424 -0.693757 50.4532 0.300234L2.52603 18.7803C-0.745626 20.0927 -0.725724 21.9182 1.93008 22.7308L14.2295 26.5697L42.7025 8.60598C44.047 7.7911 45.2809 8.22895 44.2681 9.12785L21.1963 29.9486Z" fill="black"/>
</svg>
