<svg width="45" height="53" viewBox="0 0 45 53" fill="none" xmlns="http://www.w3.org/2000/svg">
<g clip-path="url(#clip0_73_32)">
<path d="M17.6471 11.8437C17.0856 11.7632 17.0588 11.7363 17.3262 11.7094C17.8342 11.6289 19.0107 11.7363 19.8396 11.9243C21.7647 12.3809 23.5027 13.5625 25.3476 15.6305L25.8289 16.1945L26.5241 16.0871C29.492 15.6037 32.5401 15.9796 35.0802 17.1613C35.7754 17.4836 36.8717 18.1282 37.0054 18.2893C37.0588 18.343 37.1391 18.6922 37.1925 19.0413C37.3797 20.3036 37.2995 21.2436 36.8984 21.9687C36.6845 22.3715 36.6845 22.479 36.8182 22.8281C36.9251 23.0967 37.246 23.2847 37.5401 23.2847C38.1818 23.2847 38.8503 22.2641 39.1711 20.8407L39.3048 20.2767L39.5455 20.5453C40.9091 22.0761 41.9786 24.1978 42.1391 25.7018L42.1925 26.1046L41.9519 25.7555C41.5508 25.1378 41.1765 24.7349 40.6685 24.3858C39.7594 23.7681 38.7968 23.5801 36.2567 23.4458C33.9572 23.3115 32.6471 23.1235 31.3637 22.6938C29.1711 21.9687 28.0481 21.0287 25.4546 17.5642C24.3048 16.0334 23.5829 15.2008 22.861 14.5025C21.2834 12.9717 19.7059 12.166 17.6471 11.8437Z" fill="#FF007A"/>
<path d="M37.5667 15.2546C37.6202 14.2341 37.7539 13.5627 38.048 12.945C38.155 12.7033 38.2619 12.4884 38.2887 12.4884C38.3154 12.4884 38.2619 12.6764 38.1817 12.8913C37.9678 13.4821 37.9411 14.3147 38.0748 15.2546C38.2619 16.4632 38.3421 16.6243 39.6256 17.9403C40.2138 18.558 40.909 19.3368 41.1764 19.6591L41.6309 20.25L41.1764 19.8203C40.6149 19.2831 39.3315 18.2626 39.0373 18.1283C38.8502 18.0209 38.8234 18.0209 38.6897 18.1552C38.5828 18.2626 38.5561 18.4237 38.5561 19.2026C38.5293 20.4111 38.3689 21.1631 37.9678 21.9419C37.7539 22.3448 37.7272 22.2642 37.9143 21.8077C38.048 21.4585 38.0748 21.2974 38.0748 20.1425C38.0748 17.806 37.8074 17.242 36.1764 16.302C35.7753 16.0603 35.0801 15.7112 34.679 15.5232C34.2512 15.3352 33.9304 15.1741 33.9571 15.1741C34.0106 15.1204 35.5881 15.5769 36.2031 15.8455C37.1389 16.2215 37.2994 16.2483 37.4063 16.2215C37.4865 16.1409 37.54 15.9261 37.5667 15.2546Z" fill="#FF007A"/>
<path d="M18.7434 19.2563C17.6204 17.6986 16.8984 15.2815 17.0589 13.4821L17.1123 12.9181L17.3797 12.9718C17.861 13.0524 18.6899 13.3747 19.091 13.6164C20.1605 14.2609 20.6418 15.1472 21.0963 17.3494C21.23 17.994 21.4172 18.746 21.4974 18.9877C21.6311 19.3905 22.1391 20.3305 22.5669 20.9214C22.861 21.3511 22.6738 21.5659 22.0054 21.5122C20.9894 21.4048 19.6257 20.4648 18.7434 19.2563Z" fill="#FF007A"/>
<path d="M36.2031 30.9388C30.909 28.7903 29.0374 26.9372 29.0374 23.795C29.0374 23.3384 29.0641 22.9624 29.0641 22.9624C29.0908 22.9624 29.278 23.1235 29.5186 23.3115C30.5882 24.171 31.7914 24.5469 35.1336 25.0304C37.0855 25.3258 38.2085 25.5406 39.2245 25.8898C42.4598 26.964 44.4652 29.1663 44.9464 32.1474C45.0801 33.0068 44.9999 34.645 44.786 35.5045C44.5989 36.1759 44.0641 37.4113 43.9304 37.4381C43.9037 37.4381 43.8502 37.3039 43.8502 37.089C43.7967 35.961 43.2352 34.8868 42.2994 34.0542C41.1764 33.0874 39.7325 32.3622 36.2031 30.9388Z" fill="#FF007A"/>
<path d="M32.4598 31.8251C32.4064 31.4223 32.2727 30.912 32.1925 30.6972L32.0588 30.2943L32.2994 30.5897C32.647 30.9926 32.9144 31.476 33.155 32.1474C33.3422 32.6577 33.3422 32.8188 33.3422 33.6514C33.3422 34.4571 33.3155 34.6451 33.155 35.1017C32.8877 35.8268 32.5668 36.3371 32.032 36.901C31.0695 37.8947 29.8128 38.4319 28.0213 38.6736C27.7005 38.7004 26.7914 38.781 25.9893 38.8347C23.9839 38.9422 22.647 39.157 21.4438 39.5867C21.2834 39.6404 21.1229 39.6941 21.0962 39.6673C21.0427 39.6136 21.8716 39.1301 22.5401 38.8079C23.4759 38.3513 24.4385 38.1096 26.5508 37.7336C27.5935 37.5725 28.6631 37.3576 28.9304 37.2502C31.5775 36.4176 32.8877 34.3497 32.4598 31.8251Z" fill="#FF007A"/>
<path d="M34.8931 36.149C34.198 34.6182 34.0375 33.1679 34.4119 31.7982C34.4653 31.6639 34.5188 31.5297 34.5723 31.5297C34.6258 31.5297 34.7862 31.6102 34.9466 31.7177C35.2675 31.9325 35.9359 32.3085 37.6472 33.2485C39.8129 34.4302 41.0429 35.3433 41.8985 36.3907C42.6471 37.3038 43.1017 38.3513 43.3156 39.6404C43.4493 40.3655 43.3691 42.1112 43.1819 42.8363C42.5937 45.1191 41.2568 46.9454 39.3049 47.9928C39.0108 48.1539 38.7701 48.2614 38.7434 48.2614C38.7167 48.2614 38.8236 47.9928 38.984 47.6705C39.6258 46.3008 39.706 44.9848 39.2247 43.5077C38.9306 42.5946 38.3156 41.4935 37.0857 39.6404C35.6151 37.4918 35.2675 36.9279 34.8931 36.149Z" fill="#FF007A"/>
<path d="M14.9734 44.3672C16.952 42.702 19.3851 41.5203 21.6311 41.1444C22.5937 40.9832 24.198 41.0369 25.0803 41.2786C26.4974 41.6546 27.7808 42.4603 28.4493 43.454C29.091 44.4209 29.3851 45.2534 29.6792 47.1065C29.7862 47.8317 29.9199 48.5836 29.9466 48.7448C30.1605 49.7116 30.5883 50.4636 31.1231 50.8665C31.952 51.4842 33.3958 51.511 34.8129 50.9739C35.0536 50.8933 35.2675 50.8128 35.2675 50.8396C35.321 50.8933 34.599 51.3767 34.1177 51.6184C33.4493 51.9676 32.9145 52.075 32.1926 52.075C30.9092 52.075 29.8129 51.4036 28.9306 50.0608C28.7434 49.7922 28.3691 49.0134 28.0482 48.2882C27.1124 46.1128 26.6311 45.4683 25.5349 44.7431C24.5723 44.1254 23.3423 43.9912 22.4065 44.4477C21.1766 45.0386 20.8557 46.6231 21.7113 47.59C22.0589 47.9928 22.7006 48.3151 23.2354 48.3957C24.2247 48.5299 25.0803 47.7511 25.0803 46.7574C25.0803 46.1128 24.8397 45.7368 24.198 45.4414C23.3423 45.0654 22.4065 45.4951 22.4333 46.3277C22.4333 46.6768 22.5937 46.8917 22.9413 47.0528C23.1552 47.1602 23.1552 47.1602 22.9948 47.1334C22.2194 46.9722 22.0322 46.0054 22.6472 45.3877C23.3958 44.6357 24.9734 44.958 25.5081 46.0054C25.722 46.4351 25.7488 47.2945 25.5616 47.8317C25.1071 49.0134 23.8236 49.6311 22.5135 49.2819C21.6311 49.0402 21.2568 48.7985 20.1873 47.6974C18.3156 45.7637 17.5937 45.3877 14.9199 44.9849L14.4119 44.9043L14.9734 44.3672Z" fill="#FF007A"/>
<path fill-rule="evenodd" clip-rule="evenodd" d="M0.909059 1.15484C7.13901 8.75527 16.7379 20.5722 17.2192 21.2168C17.6203 21.7539 17.4599 22.2642 16.7914 22.6402C16.4171 22.855 15.6417 23.0699 15.2673 23.0699C14.8395 23.0699 14.3315 22.855 13.9839 22.5059C13.7433 22.2642 12.7005 20.7333 10.3476 17.054C8.55612 14.234 7.03205 11.8975 7.00532 11.8706C6.89836 11.8169 6.89836 11.8169 10.1604 17.6717C12.2192 21.351 12.8877 22.667 12.8877 22.8282C12.8877 23.1773 12.7807 23.3653 12.3529 23.8487C11.631 24.6544 11.3101 25.5675 11.0695 27.4744C10.8021 29.596 10.0802 31.1 8.02136 33.6514C6.81815 35.1554 6.63098 35.4239 6.33687 36.0416C5.96254 36.7936 5.85558 37.2233 5.80211 38.1902C5.74863 39.2107 5.85558 39.8553 6.1497 40.8221C6.41708 41.6815 6.7112 42.2455 7.43312 43.3466C8.0481 44.3135 8.42243 45.0386 8.42243 45.3072C8.42243 45.522 8.4759 45.522 9.43847 45.3072C11.7379 44.77 13.6363 43.8569 14.6791 42.7289C15.3208 42.0307 15.4813 41.6547 15.4813 40.6878C15.4813 40.0701 15.4545 39.9358 15.2941 39.5598C15.0267 38.969 14.5187 38.4856 13.4224 37.7336C11.9786 36.7399 11.3636 35.9342 11.2032 34.8599C11.0695 33.9468 11.2299 33.3291 12.0321 31.6371C12.8609 29.8915 13.0748 29.1663 13.2085 27.3938C13.2887 26.2658 13.4224 25.8092 13.7433 25.4601C14.0909 25.0841 14.385 24.9498 15.2139 24.8424C16.5775 24.6544 17.4599 24.3053 18.155 23.6339C18.77 23.0699 19.0374 22.5059 19.0641 21.6733L19.0909 21.0556L18.7433 20.6796C17.4866 19.2294 0.0801825 0 -3.13857e-05 0C-0.0267694 0 0.401038 0.510276 0.909059 1.15484ZM9.11761 39.345C9.41173 38.8347 9.2513 38.1902 8.77002 37.8679C8.31548 37.5725 7.62029 37.7067 7.62029 38.1096C7.62029 38.217 7.67376 38.3244 7.83419 38.3782C8.07483 38.5124 8.10157 38.6467 7.91441 38.9421C7.72724 39.2376 7.72724 39.5061 7.96788 39.6941C8.34221 39.9896 8.85024 39.8284 9.11761 39.345Z" fill="#FF007A"/>
<path fill-rule="evenodd" clip-rule="evenodd" d="M19.9466 25.2184C19.3049 25.4064 18.6899 26.1046 18.5028 26.8029C18.3958 27.2326 18.4493 28.0115 18.6364 28.2532C18.9306 28.6292 19.1979 28.7366 19.9466 28.7366C21.4172 28.7366 22.6739 28.092 22.8076 27.3132C22.9413 26.6686 22.3798 25.7823 21.6044 25.3795C21.2033 25.1646 20.3744 25.0841 19.9466 25.2184ZM21.6578 26.5612C21.8717 26.2389 21.7915 25.8898 21.3905 25.6481C20.6685 25.1915 19.5723 25.5675 19.5723 26.2658C19.5723 26.6149 20.1338 26.9909 20.6685 26.9909C21.0161 26.9909 21.4974 26.776 21.6578 26.5612Z" fill="#FF007A"/>
</g>
<defs>
<clipPath id="clip0_73_32">
<rect width="45" height="52.0482" fill="white"/>
</clipPath>
</defs>
</svg>
