<svg width="612" height="205" viewBox="0 0 612 205" fill="none" xmlns="http://www.w3.org/2000/svg">
<path d="M46.936 138C42.84 138 39.3413 136.123 36.44 132.368C33.5387 128.528 32.088 122.811 32.088 115.216C32.088 101.733 37.848 84.4107 49.368 63.248C46.8933 62.5653 44.7173 62.224 42.84 62.224C38.6587 62.224 35.1173 63.3333 32.216 65.552C29.4 67.7707 27.992 70.5013 27.992 73.744C27.992 75.536 28.4613 77.072 29.4 78.352C30.3387 79.5467 31.4907 80.144 32.856 80.144C33.1973 81.168 33.368 81.9787 33.368 82.576C33.368 84.624 32.6427 86.7573 31.192 88.976C29.7413 91.1947 27.6933 93.072 25.048 94.608C22.488 96.0587 19.5013 96.784 16.088 96.784C11.0533 96.784 7.128 94.9493 4.312 91.28C1.496 87.6107 0.0879993 83.1733 0.0879993 77.968C0.0879993 71.6533 2.09333 65.808 6.104 60.432C10.0293 55.056 15.5333 50.7893 22.616 47.632C29.6133 44.3893 37.464 42.768 46.168 42.768C52.824 42.768 57.5173 43.792 60.248 45.84C63.064 47.8027 64.472 50.832 64.472 54.928C64.472 57.232 64.0453 60.176 63.192 63.76L62.424 66.96C59.7787 78.6507 57.9867 86.8427 57.048 91.536C56.1093 96.2293 55.64 99.856 55.64 102.416C55.64 104.464 55.9387 105.957 56.536 106.896C57.1333 107.749 58.1147 108.176 59.48 108.176C61.784 108.176 63.96 106.043 66.008 101.776C68.1413 97.5093 70.616 90.2987 73.432 80.144C74.456 76.4747 75.5653 72.08 76.76 66.96C78.1253 61.328 79.2773 57.1467 80.216 54.416C81.1547 51.6 82.4347 49.3813 84.056 47.76C85.7627 46.1387 88.024 45.328 90.84 45.328C93.8267 45.328 96.3867 46.1813 98.52 47.888C100.739 49.5947 101.848 51.9413 101.848 54.928C101.848 57.1467 101.421 59.3227 100.568 61.456C99.8 63.504 98.5627 66.1067 96.856 69.264C95.32 72.336 94.0827 74.9387 93.144 77.072C92.2907 79.12 91.608 81.3387 91.096 83.728C89.9867 89.5307 89.432 94.352 89.432 98.192C89.432 101.435 89.7733 103.909 90.456 105.616C91.1387 107.323 91.992 108.176 93.016 108.176C95.064 108.176 96.7707 106.725 98.136 103.824C99.5867 100.837 101.293 96.1013 103.256 89.616L104.408 85.904C109.272 70.032 114.947 58.4693 121.432 51.216C128.003 43.8773 135.555 40.208 144.088 40.208C149.72 40.208 154.072 41.6587 157.144 44.56C160.216 47.376 161.752 50.7893 161.752 54.8C161.752 58.64 160.387 61.968 157.656 64.784C155.011 67.6 151.384 69.008 146.776 69.008C145.155 69.008 143.875 68.88 142.936 68.624C142.083 68.368 141.187 67.984 140.248 67.472C140.077 67.3867 139.608 67.216 138.84 66.96C138.072 66.6187 137.133 66.448 136.024 66.448C132.355 66.448 129.368 67.856 127.064 70.672C124.845 73.488 123.053 77.0293 121.688 81.296C120.408 85.4773 119 91.1947 117.464 98.448C115.587 107.067 113.795 113.979 112.088 119.184C110.381 124.389 107.821 128.827 104.408 132.496C101.08 136.165 96.6427 138 91.096 138C86.9147 138 83.4587 136.549 80.728 133.648C77.9973 130.747 76.632 126.181 76.632 119.952C76.632 117.051 76.8453 114.448 77.272 112.144L77.4 111.12C77.4 110.267 77.2293 109.627 76.888 109.2C76.5467 108.773 76.0773 108.56 75.48 108.56C74.8827 108.56 74.2427 108.859 73.56 109.456C72.9627 110.053 72.4933 110.949 72.152 112.144C69.4213 121.275 65.752 127.888 61.144 131.984C56.536 135.995 51.8 138 46.936 138ZM150.428 139.536C145.393 139.536 140.785 138.512 136.604 136.464C132.423 134.416 129.095 131.387 126.62 127.376C124.231 123.365 123.036 118.629 123.036 113.168C123.036 105.659 125.041 99.5147 129.052 94.736C133.148 89.872 138.609 87.1413 145.436 86.544C146.545 86.4587 147.1 85.9467 147.1 85.008C147.1 84.4107 146.801 83.9413 146.204 83.6C141.084 80.6987 138.524 75.6213 138.524 68.368C138.524 63.248 139.804 58.7253 142.364 54.8C144.924 50.8747 148.551 47.8453 153.244 45.712C158.023 43.5787 163.569 42.512 169.884 42.512C178.417 42.512 184.305 44.6027 187.548 48.784C190.876 52.88 192.54 57.488 192.54 62.608C192.54 66.7893 191.559 70.2453 189.596 72.976C187.633 75.7067 185.372 77.072 182.812 77.072C181.788 77.072 180.977 76.816 180.38 76.304C179.783 75.792 179.484 75.152 179.484 74.384C179.484 71.1413 178.716 68.5813 177.18 66.704C175.729 64.8267 173.084 63.888 169.244 63.888C165.148 63.888 162.033 64.9547 159.9 67.088C157.767 69.2213 156.7 71.824 156.7 74.896C156.7 76.944 157.212 78.7787 158.236 80.4C159.345 82.0213 160.753 83.216 162.46 83.984C165.361 83.984 168.689 83.728 172.444 83.216C175.175 82.8747 176.924 82.704 177.692 82.704C178.716 82.704 179.441 83.1307 179.868 83.984C180.38 84.752 180.636 85.9893 180.636 87.696C180.636 94.5227 175.516 97.936 165.276 97.936C161.351 97.936 157.767 96.8267 154.524 94.608C152.817 95.0347 151.409 96.0587 150.3 97.68C149.191 99.3013 148.636 101.093 148.636 103.056C148.636 106.043 150.3 108.389 153.628 110.096C156.956 111.717 161.649 112.528 167.708 112.528C172.743 112.528 177.265 111.717 181.276 110.096C185.372 108.475 188.444 106.085 190.492 102.928C191.004 102.16 191.687 101.776 192.54 101.776C193.649 101.776 194.631 102.288 195.484 103.312C196.423 104.336 196.679 105.275 196.252 106.128C190.961 116.795 184.348 125.029 176.412 130.832C168.476 136.635 159.815 139.536 150.428 139.536ZM267.756 102.928C268.268 102.16 268.951 101.776 269.804 101.776C270.913 101.776 271.895 102.288 272.748 103.312C273.687 104.336 273.943 105.275 273.516 106.128C268.993 114.747 265.025 121.36 261.612 125.968C258.284 130.491 255.127 133.648 252.14 135.44C249.239 137.147 246.039 138 242.54 138C237.079 138 232.3 136.592 228.204 133.776C224.108 130.96 220.14 127.12 216.3 122.256C212.801 127.973 209.047 132.283 205.036 135.184C201.111 138.085 196.588 139.536 191.468 139.536C187.031 139.536 183.233 138.597 180.076 136.72C176.919 134.757 174.572 132.197 173.036 129.04C171.415 125.797 170.604 122.341 170.604 118.672C170.604 115.003 171.543 111.504 173.42 108.176C175.297 104.848 178.071 102.16 181.74 100.112C185.409 97.9787 189.847 96.912 195.052 96.912C200.257 96.912 205.548 98.1067 210.924 100.496C211.521 99.472 212.417 97.7653 213.612 95.376C206.103 93.2427 200.215 89.744 195.948 84.88C191.767 80.016 189.676 74.2133 189.676 67.472C189.676 60.3893 191.724 54.7147 195.82 50.448C199.916 46.096 205.377 43.92 212.204 43.92C216.385 43.92 219.756 44.944 222.316 46.992C224.961 48.9547 226.284 51.5147 226.284 54.672C226.284 56.976 225.601 58.128 224.236 58.128C221.079 58.128 218.433 59.1947 216.3 61.328C214.167 63.4613 213.1 66.3627 213.1 70.032C213.1 72.592 213.612 74.9387 214.636 77.072C215.66 79.12 217.111 80.8693 218.988 82.32C222.743 73.0187 226.327 65.552 229.74 59.92C233.239 54.2027 236.993 49.936 241.004 47.12C245.015 44.2187 249.58 42.768 254.7 42.768C260.588 42.768 265.196 44.304 268.524 47.376C271.852 50.448 273.516 54.8853 273.516 60.688C273.516 66.832 271.852 72.72 268.524 78.352C265.281 83.984 260.332 88.592 253.676 92.176C247.105 95.6747 239.169 97.424 229.868 97.424H228.46C226.924 101.179 225.388 104.635 223.852 107.792C227.18 109.669 230.337 111.12 233.324 112.144C236.311 113.168 239.511 113.68 242.924 113.68C247.788 113.68 252.524 112.784 257.132 110.992C261.825 109.2 265.367 106.512 267.756 102.928ZM248.556 64.912C244.375 64.912 239.425 71.6107 233.708 85.008C233.537 85.4347 233.367 85.904 233.196 86.416C237.121 86.2453 240.535 85.264 243.436 83.472C246.423 81.68 248.684 79.5467 250.22 77.072C251.841 74.512 252.652 72.08 252.652 69.776C252.652 68.4107 252.311 67.2587 251.628 66.32C250.945 65.3813 249.921 64.912 248.556 64.912ZM198.636 112.272C200.94 112.272 203.244 110.992 205.548 108.432C203.329 106.213 201.153 105.104 199.02 105.104C197.569 105.104 196.46 105.445 195.692 106.128C194.924 106.811 194.54 107.664 194.54 108.688C194.54 109.712 194.881 110.565 195.564 111.248C196.332 111.931 197.356 112.272 198.636 112.272ZM300.718 139.536C291.161 139.536 283.481 136.507 277.678 130.448C271.875 124.304 268.974 115.088 268.974 102.8C268.974 92.6453 271.278 83.0453 275.886 74C280.579 64.9547 286.766 57.744 294.446 52.368C302.211 46.9067 310.403 44.176 319.022 44.176C326.958 44.176 332.974 45.84 337.07 49.168C341.251 52.4107 343.342 56.848 343.342 62.48C343.342 67.1733 342.105 71.5253 339.63 75.536C337.241 79.5467 334.254 82.704 330.67 85.008C327.086 87.312 323.673 88.464 320.43 88.464C319.065 88.464 317.913 88.1227 316.974 87.44C316.121 86.7573 315.694 85.9467 315.694 85.008C315.694 84.6667 315.865 84.0693 316.206 83.216C318.681 78.5227 319.918 74.6827 319.918 71.696C319.918 69.5627 319.235 67.984 317.87 66.96C316.59 65.8507 314.841 65.296 312.622 65.296C308.867 65.296 305.411 66.4907 302.254 68.88C299.097 71.184 296.622 74.2987 294.83 78.224C293.038 82.064 292.142 86.0747 292.142 90.256C292.142 96.3147 294.275 101.349 298.542 105.36C302.894 109.285 309.123 111.248 317.23 111.248C321.753 111.248 325.977 110.608 329.902 109.328C333.913 108.048 336.899 105.915 338.862 102.928C339.374 102.16 340.057 101.776 340.91 101.776C342.019 101.776 343.001 102.288 343.854 103.312C344.793 104.336 345.049 105.275 344.622 106.128C339.075 117.307 332.761 125.669 325.678 131.216C318.681 136.763 310.361 139.536 300.718 139.536ZM385.411 42.64C392.579 42.64 398.04 44.9867 401.795 49.68C405.55 54.288 407.427 60.7733 407.427 69.136C407.427 78.7787 405.336 89.0613 401.155 99.984C397.059 110.821 391.512 119.909 384.515 127.248C377.603 134.587 370.136 138.256 362.115 138.256C357.848 138.256 353.795 137.104 349.955 134.8C346.115 132.411 343 128.784 340.611 123.92C338.222 118.971 337.027 112.912 337.027 105.744C337.027 99.0027 338.051 92.048 340.099 84.88C342.232 77.6267 344.792 71.6533 347.779 66.96C351.107 61.84 354.776 59.28 358.787 59.28C360.238 59.28 361.432 59.6213 362.371 60.304C364.078 55.0987 366.851 50.8747 370.691 47.632C374.616 44.304 379.523 42.64 385.411 42.64ZM368.259 109.2C372.27 109.2 375.982 107.707 379.395 104.72C382.894 101.733 385.667 97.8933 387.715 93.2C389.763 88.4213 390.787 83.6 390.787 78.736C390.787 73.616 389.848 69.776 387.971 67.216C386.179 64.5707 383.662 63.248 380.419 63.248C378.286 63.248 376.579 63.8453 375.299 65.04C374.104 66.1493 373.507 67.6 373.507 69.392C373.507 71.0133 373.976 72.336 374.915 73.36C375.854 74.384 377.091 74.896 378.627 74.896C380.163 74.896 381.315 75.408 382.083 76.432C382.936 77.3707 383.363 78.608 383.363 80.144C383.363 82.5333 382.51 84.6667 380.803 86.544C379.096 88.4213 376.707 89.36 373.635 89.36C370.392 89.36 367.704 88.1227 365.571 85.648C363.438 83.088 361.987 79.8027 361.219 75.792C359.939 78.864 358.958 81.7653 358.275 84.496C357.592 87.1413 357.251 90.1707 357.251 93.584C357.251 103.995 360.92 109.2 368.259 109.2ZM539.046 102.928C539.558 102.245 540.07 101.904 540.582 101.904C541.265 101.904 541.99 102.373 542.758 103.312C543.611 104.165 544.294 105.104 544.806 106.128L542.374 110.864C539.985 115.813 537.638 120.123 535.334 123.792C533.115 127.461 530.214 130.747 526.63 133.648C523.131 136.549 519.163 138 514.726 138C510.033 138 506.449 136.379 503.974 133.136C501.585 129.808 500.39 125.2 500.39 119.312C500.39 115.301 500.902 111.461 501.926 107.792C503.035 104.123 504.571 99.6427 506.534 94.352C507.302 92.4747 507.942 90.7253 508.454 89.104C509.051 87.3973 509.35 86.1173 509.35 85.264C509.35 83.3867 508.539 82.448 506.918 82.448C505.297 82.448 503.718 83.5147 502.182 85.648C500.731 87.696 499.025 91.536 497.062 97.168C495.185 102.715 492.881 110.779 490.15 121.36C489.126 125.371 487.633 128.144 485.67 129.68C483.793 131.131 481.574 131.856 479.014 131.856C475.174 131.856 472.529 131.216 471.078 129.936C469.627 128.656 468.902 126.608 468.902 123.792C468.902 121.829 469.158 119.653 469.67 117.264C470.267 114.875 471.163 111.76 472.358 107.92C473.638 103.483 474.619 99.8133 475.302 96.912C475.985 93.9253 476.326 91.024 476.326 88.208C476.326 84.112 475.302 82.064 473.254 82.064C471.377 82.064 470.182 83.2587 469.67 85.648C465.659 105.445 459.302 120.037 450.598 129.424C441.979 138.725 431.867 143.376 420.262 143.376C415.569 143.376 411.515 142.352 408.102 140.304C404.774 138.256 402.299 135.611 400.678 132.368C398.971 129.04 398.118 125.541 398.118 121.872C398.118 118.373 398.843 115.003 400.294 111.76C401.745 108.517 403.75 105.915 406.31 103.952C408.87 101.989 411.814 101.008 415.142 101.008C415.654 101.008 416.081 101.179 416.422 101.52C416.849 101.776 417.062 102.117 417.062 102.544C417.062 105.36 418.257 107.664 420.646 109.456C423.121 111.163 426.235 112.016 429.99 112.016C435.622 112.016 440.785 109.883 445.478 105.616C450.257 101.349 454.054 96.1867 456.87 90.128C459.686 83.984 461.094 78.5227 461.094 73.744C461.094 70.416 460.326 67.856 458.79 66.064C457.254 64.1867 455.078 63.248 452.262 63.248C449.019 63.248 446.246 64.4427 443.942 66.832C441.638 69.136 440.486 72.208 440.486 76.048C440.486 78.2667 441.083 80.144 442.278 81.68C443.558 83.216 445.137 83.984 447.014 83.984C447.355 84.6667 447.526 85.4773 447.526 86.416C447.526 88.2933 446.886 90.256 445.606 92.304C444.326 94.352 442.449 96.0587 439.974 97.424C437.585 98.704 434.854 99.344 431.782 99.344C426.662 99.344 422.438 97.5093 419.11 93.84C415.867 90.1707 414.246 85.3493 414.246 79.376C414.246 72.8907 415.995 66.8747 419.494 61.328C422.993 55.696 427.942 51.216 434.342 47.888C440.827 44.4747 448.209 42.768 456.486 42.768C467.409 42.768 475.985 45.8827 482.214 52.112C488.443 58.256 492.113 66.7893 493.222 77.712C496.123 71.6533 499.707 65.9787 503.974 60.688C508.326 55.312 512.934 51.0027 517.798 47.76C522.747 44.432 527.483 42.768 532.006 42.768C536.614 42.768 540.027 44.0053 542.246 46.48C544.465 48.9547 545.574 52.112 545.574 55.952C545.574 58.4267 545.105 60.944 544.166 63.504C543.227 65.9787 541.99 68.0267 540.454 69.648C539.003 71.2693 537.553 72.08 536.102 72.08C535.419 72.08 534.566 71.8667 533.542 71.44C532.603 70.928 531.878 70.672 531.366 70.672C529.403 70.672 527.611 72.5067 525.99 76.176C524.369 79.8453 523.089 84.112 522.15 88.976C521.211 93.7547 520.742 97.5947 520.742 100.496C520.742 106.469 523.345 109.456 528.55 109.456C530.513 109.456 532.39 108.901 534.182 107.792C536.059 106.683 537.681 105.061 539.046 102.928ZM565.053 139.536C560.018 139.536 555.41 138.512 551.229 136.464C547.048 134.416 543.72 131.387 541.245 127.376C538.856 123.365 537.661 118.629 537.661 113.168C537.661 105.659 539.666 99.5147 543.677 94.736C547.773 89.872 553.234 87.1413 560.061 86.544C561.17 86.4587 561.725 85.9467 561.725 85.008C561.725 84.4107 561.426 83.9413 560.829 83.6C555.709 80.6987 553.149 75.6213 553.149 68.368C553.149 63.248 554.429 58.7253 556.989 54.8C559.549 50.8747 563.176 47.8453 567.869 45.712C572.648 43.5787 578.194 42.512 584.509 42.512C593.042 42.512 598.93 44.6027 602.173 48.784C605.501 52.88 607.165 57.488 607.165 62.608C607.165 66.7893 606.184 70.2453 604.221 72.976C602.258 75.7067 599.997 77.072 597.437 77.072C596.413 77.072 595.602 76.816 595.005 76.304C594.408 75.792 594.109 75.152 594.109 74.384C594.109 71.1413 593.341 68.5813 591.805 66.704C590.354 64.8267 587.709 63.888 583.869 63.888C579.773 63.888 576.658 64.9547 574.525 67.088C572.392 69.2213 571.325 71.824 571.325 74.896C571.325 76.944 571.837 78.7787 572.861 80.4C573.97 82.0213 575.378 83.216 577.085 83.984C579.986 83.984 583.314 83.728 587.069 83.216C589.8 82.8747 591.549 82.704 592.317 82.704C593.341 82.704 594.066 83.1307 594.493 83.984C595.005 84.752 595.261 85.9893 595.261 87.696C595.261 94.5227 590.141 97.936 579.901 97.936C575.976 97.936 572.392 96.8267 569.149 94.608C567.442 95.0347 566.034 96.0587 564.925 97.68C563.816 99.3013 563.261 101.093 563.261 103.056C563.261 106.043 564.925 108.389 568.253 110.096C571.581 111.717 576.274 112.528 582.333 112.528C587.368 112.528 591.89 111.717 595.901 110.096C599.997 108.475 603.069 106.085 605.117 102.928C605.629 102.16 606.312 101.776 607.165 101.776C608.274 101.776 609.256 102.288 610.109 103.312C611.048 104.336 611.304 105.275 610.877 106.128C605.586 116.795 598.973 125.029 591.037 130.832C583.101 136.635 574.44 139.536 565.053 139.536Z" fill="#FFF1E8"/>
<path d="M46.936 118C42.84 118 39.3413 116.123 36.44 112.368C33.5387 108.528 32.088 102.811 32.088 95.216C32.088 81.7333 37.848 64.4107 49.368 43.248C46.8933 42.5653 44.7173 42.224 42.84 42.224C38.6587 42.224 35.1173 43.3333 32.216 45.552C29.4 47.7707 27.992 50.5013 27.992 53.744C27.992 55.536 28.4613 57.072 29.4 58.352C30.3387 59.5467 31.4907 60.144 32.856 60.144C33.1973 61.168 33.368 61.9787 33.368 62.576C33.368 64.624 32.6427 66.7573 31.192 68.976C29.7413 71.1947 27.6933 73.072 25.048 74.608C22.488 76.0587 19.5013 76.784 16.088 76.784C11.0533 76.784 7.128 74.9493 4.312 71.28C1.496 67.6107 0.0879993 63.1733 0.0879993 57.968C0.0879993 51.6533 2.09333 45.808 6.104 40.432C10.0293 35.056 15.5333 30.7893 22.616 27.632C29.6133 24.3893 37.464 22.768 46.168 22.768C52.824 22.768 57.5173 23.792 60.248 25.84C63.064 27.8027 64.472 30.832 64.472 34.928C64.472 37.232 64.0453 40.176 63.192 43.76L62.424 46.96C59.7787 58.6507 57.9867 66.8427 57.048 71.536C56.1093 76.2293 55.64 79.856 55.64 82.416C55.64 84.464 55.9387 85.9573 56.536 86.896C57.1333 87.7493 58.1147 88.176 59.48 88.176C61.784 88.176 63.96 86.0427 66.008 81.776C68.1413 77.5093 70.616 70.2987 73.432 60.144C74.456 56.4747 75.5653 52.08 76.76 46.96C78.1253 41.328 79.2773 37.1467 80.216 34.416C81.1547 31.6 82.4347 29.3813 84.056 27.76C85.7627 26.1387 88.024 25.328 90.84 25.328C93.8267 25.328 96.3867 26.1813 98.52 27.888C100.739 29.5947 101.848 31.9413 101.848 34.928C101.848 37.1467 101.421 39.3227 100.568 41.456C99.8 43.504 98.5627 46.1067 96.856 49.264C95.32 52.336 94.0827 54.9387 93.144 57.072C92.2907 59.12 91.608 61.3387 91.096 63.728C89.9867 69.5307 89.432 74.352 89.432 78.192C89.432 81.4347 89.7733 83.9093 90.456 85.616C91.1387 87.3227 91.992 88.176 93.016 88.176C95.064 88.176 96.7707 86.7253 98.136 83.824C99.5867 80.8373 101.293 76.1013 103.256 69.616L104.408 65.904C109.272 50.032 114.947 38.4693 121.432 31.216C128.003 23.8773 135.555 20.208 144.088 20.208C149.72 20.208 154.072 21.6587 157.144 24.56C160.216 27.376 161.752 30.7893 161.752 34.8C161.752 38.64 160.387 41.968 157.656 44.784C155.011 47.6 151.384 49.008 146.776 49.008C145.155 49.008 143.875 48.88 142.936 48.624C142.083 48.368 141.187 47.984 140.248 47.472C140.077 47.3867 139.608 47.216 138.84 46.96C138.072 46.6187 137.133 46.448 136.024 46.448C132.355 46.448 129.368 47.856 127.064 50.672C124.845 53.488 123.053 57.0293 121.688 61.296C120.408 65.4773 119 71.1947 117.464 78.448C115.587 87.0667 113.795 93.9787 112.088 99.184C110.381 104.389 107.821 108.827 104.408 112.496C101.08 116.165 96.6427 118 91.096 118C86.9147 118 83.4587 116.549 80.728 113.648C77.9973 110.747 76.632 106.181 76.632 99.952C76.632 97.0507 76.8453 94.448 77.272 92.144L77.4 91.12C77.4 90.2667 77.2293 89.6267 76.888 89.2C76.5467 88.7733 76.0773 88.56 75.48 88.56C74.8827 88.56 74.2427 88.8587 73.56 89.456C72.9627 90.0533 72.4933 90.9493 72.152 92.144C69.4213 101.275 65.752 107.888 61.144 111.984C56.536 115.995 51.8 118 46.936 118ZM150.428 119.536C145.393 119.536 140.785 118.512 136.604 116.464C132.423 114.416 129.095 111.387 126.62 107.376C124.231 103.365 123.036 98.6293 123.036 93.168C123.036 85.6587 125.041 79.5147 129.052 74.736C133.148 69.872 138.609 67.1413 145.436 66.544C146.545 66.4587 147.1 65.9467 147.1 65.008C147.1 64.4107 146.801 63.9413 146.204 63.6C141.084 60.6987 138.524 55.6213 138.524 48.368C138.524 43.248 139.804 38.7253 142.364 34.8C144.924 30.8747 148.551 27.8453 153.244 25.712C158.023 23.5787 163.569 22.512 169.884 22.512C178.417 22.512 184.305 24.6027 187.548 28.784C190.876 32.88 192.54 37.488 192.54 42.608C192.54 46.7893 191.559 50.2453 189.596 52.976C187.633 55.7067 185.372 57.072 182.812 57.072C181.788 57.072 180.977 56.816 180.38 56.304C179.783 55.792 179.484 55.152 179.484 54.384C179.484 51.1413 178.716 48.5813 177.18 46.704C175.729 44.8267 173.084 43.888 169.244 43.888C165.148 43.888 162.033 44.9547 159.9 47.088C157.767 49.2213 156.7 51.824 156.7 54.896C156.7 56.944 157.212 58.7787 158.236 60.4C159.345 62.0213 160.753 63.216 162.46 63.984C165.361 63.984 168.689 63.728 172.444 63.216C175.175 62.8747 176.924 62.704 177.692 62.704C178.716 62.704 179.441 63.1307 179.868 63.984C180.38 64.752 180.636 65.9893 180.636 67.696C180.636 74.5227 175.516 77.936 165.276 77.936C161.351 77.936 157.767 76.8267 154.524 74.608C152.817 75.0347 151.409 76.0587 150.3 77.68C149.191 79.3013 148.636 81.0933 148.636 83.056C148.636 86.0427 150.3 88.3893 153.628 90.096C156.956 91.7173 161.649 92.528 167.708 92.528C172.743 92.528 177.265 91.7173 181.276 90.096C185.372 88.4747 188.444 86.0853 190.492 82.928C191.004 82.16 191.687 81.776 192.54 81.776C193.649 81.776 194.631 82.288 195.484 83.312C196.423 84.336 196.679 85.2747 196.252 86.128C190.961 96.7947 184.348 105.029 176.412 110.832C168.476 116.635 159.815 119.536 150.428 119.536ZM267.756 82.928C268.268 82.16 268.951 81.776 269.804 81.776C270.913 81.776 271.895 82.288 272.748 83.312C273.687 84.336 273.943 85.2747 273.516 86.128C268.993 94.7467 265.025 101.36 261.612 105.968C258.284 110.491 255.127 113.648 252.14 115.44C249.239 117.147 246.039 118 242.54 118C237.079 118 232.3 116.592 228.204 113.776C224.108 110.96 220.14 107.12 216.3 102.256C212.801 107.973 209.047 112.283 205.036 115.184C201.111 118.085 196.588 119.536 191.468 119.536C187.031 119.536 183.233 118.597 180.076 116.72C176.919 114.757 174.572 112.197 173.036 109.04C171.415 105.797 170.604 102.341 170.604 98.672C170.604 95.0027 171.543 91.504 173.42 88.176C175.297 84.848 178.071 82.16 181.74 80.112C185.409 77.9787 189.847 76.912 195.052 76.912C200.257 76.912 205.548 78.1067 210.924 80.496C211.521 79.472 212.417 77.7653 213.612 75.376C206.103 73.2427 200.215 69.744 195.948 64.88C191.767 60.016 189.676 54.2133 189.676 47.472C189.676 40.3893 191.724 34.7147 195.82 30.448C199.916 26.096 205.377 23.92 212.204 23.92C216.385 23.92 219.756 24.944 222.316 26.992C224.961 28.9547 226.284 31.5147 226.284 34.672C226.284 36.976 225.601 38.128 224.236 38.128C221.079 38.128 218.433 39.1947 216.3 41.328C214.167 43.4613 213.1 46.3627 213.1 50.032C213.1 52.592 213.612 54.9387 214.636 57.072C215.66 59.12 217.111 60.8693 218.988 62.32C222.743 53.0187 226.327 45.552 229.74 39.92C233.239 34.2027 236.993 29.936 241.004 27.12C245.015 24.2187 249.58 22.768 254.7 22.768C260.588 22.768 265.196 24.304 268.524 27.376C271.852 30.448 273.516 34.8853 273.516 40.688C273.516 46.832 271.852 52.72 268.524 58.352C265.281 63.984 260.332 68.592 253.676 72.176C247.105 75.6747 239.169 77.424 229.868 77.424H228.46C226.924 81.1787 225.388 84.6347 223.852 87.792C227.18 89.6693 230.337 91.12 233.324 92.144C236.311 93.168 239.511 93.68 242.924 93.68C247.788 93.68 252.524 92.784 257.132 90.992C261.825 89.2 265.367 86.512 267.756 82.928ZM248.556 44.912C244.375 44.912 239.425 51.6107 233.708 65.008C233.537 65.4347 233.367 65.904 233.196 66.416C237.121 66.2453 240.535 65.264 243.436 63.472C246.423 61.68 248.684 59.5467 250.22 57.072C251.841 54.512 252.652 52.08 252.652 49.776C252.652 48.4107 252.311 47.2587 251.628 46.32C250.945 45.3813 249.921 44.912 248.556 44.912ZM198.636 92.272C200.94 92.272 203.244 90.992 205.548 88.432C203.329 86.2133 201.153 85.104 199.02 85.104C197.569 85.104 196.46 85.4453 195.692 86.128C194.924 86.8107 194.54 87.664 194.54 88.688C194.54 89.712 194.881 90.5653 195.564 91.248C196.332 91.9307 197.356 92.272 198.636 92.272ZM300.718 119.536C291.161 119.536 283.481 116.507 277.678 110.448C271.875 104.304 268.974 95.088 268.974 82.8C268.974 72.6453 271.278 63.0453 275.886 54C280.579 44.9547 286.766 37.744 294.446 32.368C302.211 26.9067 310.403 24.176 319.022 24.176C326.958 24.176 332.974 25.84 337.07 29.168C341.251 32.4107 343.342 36.848 343.342 42.48C343.342 47.1733 342.105 51.5253 339.63 55.536C337.241 59.5467 334.254 62.704 330.67 65.008C327.086 67.312 323.673 68.464 320.43 68.464C319.065 68.464 317.913 68.1227 316.974 67.44C316.121 66.7573 315.694 65.9467 315.694 65.008C315.694 64.6667 315.865 64.0693 316.206 63.216C318.681 58.5227 319.918 54.6827 319.918 51.696C319.918 49.5627 319.235 47.984 317.87 46.96C316.59 45.8507 314.841 45.296 312.622 45.296C308.867 45.296 305.411 46.4907 302.254 48.88C299.097 51.184 296.622 54.2987 294.83 58.224C293.038 62.064 292.142 66.0747 292.142 70.256C292.142 76.3147 294.275 81.3493 298.542 85.36C302.894 89.2853 309.123 91.248 317.23 91.248C321.753 91.248 325.977 90.608 329.902 89.328C333.913 88.048 336.899 85.9147 338.862 82.928C339.374 82.16 340.057 81.776 340.91 81.776C342.019 81.776 343.001 82.288 343.854 83.312C344.793 84.336 345.049 85.2747 344.622 86.128C339.075 97.3067 332.761 105.669 325.678 111.216C318.681 116.763 310.361 119.536 300.718 119.536ZM385.411 22.64C392.579 22.64 398.04 24.9867 401.795 29.68C405.55 34.288 407.427 40.7733 407.427 49.136C407.427 58.7787 405.336 69.0613 401.155 79.984C397.059 90.8213 391.512 99.9093 384.515 107.248C377.603 114.587 370.136 118.256 362.115 118.256C357.848 118.256 353.795 117.104 349.955 114.8C346.115 112.411 343 108.784 340.611 103.92C338.222 98.9707 337.027 92.912 337.027 85.744C337.027 79.0027 338.051 72.048 340.099 64.88C342.232 57.6267 344.792 51.6533 347.779 46.96C351.107 41.84 354.776 39.28 358.787 39.28C360.238 39.28 361.432 39.6213 362.371 40.304C364.078 35.0987 366.851 30.8747 370.691 27.632C374.616 24.304 379.523 22.64 385.411 22.64ZM368.259 89.2C372.27 89.2 375.982 87.7067 379.395 84.72C382.894 81.7333 385.667 77.8933 387.715 73.2C389.763 68.4213 390.787 63.6 390.787 58.736C390.787 53.616 389.848 49.776 387.971 47.216C386.179 44.5707 383.662 43.248 380.419 43.248C378.286 43.248 376.579 43.8453 375.299 45.04C374.104 46.1493 373.507 47.6 373.507 49.392C373.507 51.0133 373.976 52.336 374.915 53.36C375.854 54.384 377.091 54.896 378.627 54.896C380.163 54.896 381.315 55.408 382.083 56.432C382.936 57.3707 383.363 58.608 383.363 60.144C383.363 62.5333 382.51 64.6667 380.803 66.544C379.096 68.4213 376.707 69.36 373.635 69.36C370.392 69.36 367.704 68.1227 365.571 65.648C363.438 63.088 361.987 59.8027 361.219 55.792C359.939 58.864 358.958 61.7653 358.275 64.496C357.592 67.1413 357.251 70.1707 357.251 73.584C357.251 83.9947 360.92 89.2 368.259 89.2ZM539.046 82.928C539.558 82.2453 540.07 81.904 540.582 81.904C541.265 81.904 541.99 82.3733 542.758 83.312C543.611 84.1653 544.294 85.104 544.806 86.128L542.374 90.864C539.985 95.8133 537.638 100.123 535.334 103.792C533.115 107.461 530.214 110.747 526.63 113.648C523.131 116.549 519.163 118 514.726 118C510.033 118 506.449 116.379 503.974 113.136C501.585 109.808 500.39 105.2 500.39 99.312C500.39 95.3013 500.902 91.4613 501.926 87.792C503.035 84.1227 504.571 79.6427 506.534 74.352C507.302 72.4747 507.942 70.7253 508.454 69.104C509.051 67.3973 509.35 66.1173 509.35 65.264C509.35 63.3867 508.539 62.448 506.918 62.448C505.297 62.448 503.718 63.5147 502.182 65.648C500.731 67.696 499.025 71.536 497.062 77.168C495.185 82.7147 492.881 90.7787 490.15 101.36C489.126 105.371 487.633 108.144 485.67 109.68C483.793 111.131 481.574 111.856 479.014 111.856C475.174 111.856 472.529 111.216 471.078 109.936C469.627 108.656 468.902 106.608 468.902 103.792C468.902 101.829 469.158 99.6533 469.67 97.264C470.267 94.8747 471.163 91.76 472.358 87.92C473.638 83.4827 474.619 79.8133 475.302 76.912C475.985 73.9253 476.326 71.024 476.326 68.208C476.326 64.112 475.302 62.064 473.254 62.064C471.377 62.064 470.182 63.2587 469.67 65.648C465.659 85.4453 459.302 100.037 450.598 109.424C441.979 118.725 431.867 123.376 420.262 123.376C415.569 123.376 411.515 122.352 408.102 120.304C404.774 118.256 402.299 115.611 400.678 112.368C398.971 109.04 398.118 105.541 398.118 101.872C398.118 98.3733 398.843 95.0027 400.294 91.76C401.745 88.5173 403.75 85.9147 406.31 83.952C408.87 81.9893 411.814 81.008 415.142 81.008C415.654 81.008 416.081 81.1787 416.422 81.52C416.849 81.776 417.062 82.1173 417.062 82.544C417.062 85.36 418.257 87.664 420.646 89.456C423.121 91.1627 426.235 92.016 429.99 92.016C435.622 92.016 440.785 89.8827 445.478 85.616C450.257 81.3493 454.054 76.1867 456.87 70.128C459.686 63.984 461.094 58.5227 461.094 53.744C461.094 50.416 460.326 47.856 458.79 46.064C457.254 44.1867 455.078 43.248 452.262 43.248C449.019 43.248 446.246 44.4427 443.942 46.832C441.638 49.136 440.486 52.208 440.486 56.048C440.486 58.2667 441.083 60.144 442.278 61.68C443.558 63.216 445.137 63.984 447.014 63.984C447.355 64.6667 447.526 65.4773 447.526 66.416C447.526 68.2933 446.886 70.256 445.606 72.304C444.326 74.352 442.449 76.0587 439.974 77.424C437.585 78.704 434.854 79.344 431.782 79.344C426.662 79.344 422.438 77.5093 419.11 73.84C415.867 70.1707 414.246 65.3493 414.246 59.376C414.246 52.8907 415.995 46.8747 419.494 41.328C422.993 35.696 427.942 31.216 434.342 27.888C440.827 24.4747 448.209 22.768 456.486 22.768C467.409 22.768 475.985 25.8827 482.214 32.112C488.443 38.256 492.113 46.7893 493.222 57.712C496.123 51.6533 499.707 45.9787 503.974 40.688C508.326 35.312 512.934 31.0027 517.798 27.76C522.747 24.432 527.483 22.768 532.006 22.768C536.614 22.768 540.027 24.0053 542.246 26.48C544.465 28.9547 545.574 32.112 545.574 35.952C545.574 38.4267 545.105 40.944 544.166 43.504C543.227 45.9787 541.99 48.0267 540.454 49.648C539.003 51.2693 537.553 52.08 536.102 52.08C535.419 52.08 534.566 51.8667 533.542 51.44C532.603 50.928 531.878 50.672 531.366 50.672C529.403 50.672 527.611 52.5067 525.99 56.176C524.369 59.8453 523.089 64.112 522.15 68.976C521.211 73.7547 520.742 77.5947 520.742 80.496C520.742 86.4693 523.345 89.456 528.55 89.456C530.513 89.456 532.39 88.9013 534.182 87.792C536.059 86.6827 537.681 85.0613 539.046 82.928ZM565.053 119.536C560.018 119.536 555.41 118.512 551.229 116.464C547.048 114.416 543.72 111.387 541.245 107.376C538.856 103.365 537.661 98.6293 537.661 93.168C537.661 85.6587 539.666 79.5147 543.677 74.736C547.773 69.872 553.234 67.1413 560.061 66.544C561.17 66.4587 561.725 65.9467 561.725 65.008C561.725 64.4107 561.426 63.9413 560.829 63.6C555.709 60.6987 553.149 55.6213 553.149 48.368C553.149 43.248 554.429 38.7253 556.989 34.8C559.549 30.8747 563.176 27.8453 567.869 25.712C572.648 23.5787 578.194 22.512 584.509 22.512C593.042 22.512 598.93 24.6027 602.173 28.784C605.501 32.88 607.165 37.488 607.165 42.608C607.165 46.7893 606.184 50.2453 604.221 52.976C602.258 55.7067 599.997 57.072 597.437 57.072C596.413 57.072 595.602 56.816 595.005 56.304C594.408 55.792 594.109 55.152 594.109 54.384C594.109 51.1413 593.341 48.5813 591.805 46.704C590.354 44.8267 587.709 43.888 583.869 43.888C579.773 43.888 576.658 44.9547 574.525 47.088C572.392 49.2213 571.325 51.824 571.325 54.896C571.325 56.944 571.837 58.7787 572.861 60.4C573.97 62.0213 575.378 63.216 577.085 63.984C579.986 63.984 583.314 63.728 587.069 63.216C589.8 62.8747 591.549 62.704 592.317 62.704C593.341 62.704 594.066 63.1307 594.493 63.984C595.005 64.752 595.261 65.9893 595.261 67.696C595.261 74.5227 590.141 77.936 579.901 77.936C575.976 77.936 572.392 76.8267 569.149 74.608C567.442 75.0347 566.034 76.0587 564.925 77.68C563.816 79.3013 563.261 81.0933 563.261 83.056C563.261 86.0427 564.925 88.3893 568.253 90.096C571.581 91.7173 576.274 92.528 582.333 92.528C587.368 92.528 591.89 91.7173 595.901 90.096C599.997 88.4747 603.069 86.0853 605.117 82.928C605.629 82.16 606.312 81.776 607.165 81.776C608.274 81.776 609.256 82.288 610.109 83.312C611.048 84.336 611.304 85.2747 610.877 86.128C605.586 96.7947 598.973 105.029 591.037 110.832C583.101 116.635 574.44 119.536 565.053 119.536Z" fill="#0068B6" fill-opacity="0.9"/>
</svg>
