<svg width="486" height="205" viewBox="0 0 486 205" fill="none" xmlns="http://www.w3.org/2000/svg">
<path d="M46.936 138C42.84 138 39.3413 136.123 36.44 132.368C33.5387 128.528 32.088 122.811 32.088 115.216C32.088 101.733 37.848 84.4107 49.368 63.248C46.8933 62.5653 44.7173 62.224 42.84 62.224C38.6587 62.224 35.1173 63.3333 32.216 65.552C29.4 67.7707 27.992 70.5013 27.992 73.744C27.992 75.536 28.4613 77.072 29.4 78.352C30.3387 79.5467 31.4907 80.144 32.856 80.144C33.1973 81.168 33.368 81.9787 33.368 82.576C33.368 84.624 32.6427 86.7573 31.192 88.976C29.7413 91.1947 27.6933 93.072 25.048 94.608C22.488 96.0587 19.5013 96.784 16.088 96.784C11.0533 96.784 7.128 94.9493 4.312 91.28C1.496 87.6107 0.0879993 83.1733 0.0879993 77.968C0.0879993 71.6533 2.09333 65.808 6.104 60.432C10.0293 55.056 15.5333 50.7893 22.616 47.632C29.6133 44.3893 37.464 42.768 46.168 42.768C52.824 42.768 57.5173 43.792 60.248 45.84C63.064 47.8027 64.472 50.832 64.472 54.928C64.472 57.232 64.0453 60.176 63.192 63.76L62.424 66.96C59.7787 78.6507 57.9867 86.8427 57.048 91.536C56.1093 96.2293 55.64 99.856 55.64 102.416C55.64 104.464 55.9387 105.957 56.536 106.896C57.1333 107.749 58.1147 108.176 59.48 108.176C61.784 108.176 63.96 106.043 66.008 101.776C68.1413 97.5093 70.616 90.2987 73.432 80.144C74.456 76.4747 75.5653 72.08 76.76 66.96C78.1253 61.328 79.2773 57.1467 80.216 54.416C81.1547 51.6 82.4347 49.3813 84.056 47.76C85.7627 46.1387 88.024 45.328 90.84 45.328C93.8267 45.328 96.3867 46.1813 98.52 47.888C100.739 49.5947 101.848 51.9413 101.848 54.928C101.848 57.1467 101.421 59.3227 100.568 61.456C99.8 63.504 98.5627 66.1067 96.856 69.264C95.32 72.336 94.0827 74.9387 93.144 77.072C92.2907 79.12 91.608 81.3387 91.096 83.728C89.9867 89.5307 89.432 94.352 89.432 98.192C89.432 101.435 89.7733 103.909 90.456 105.616C91.1387 107.323 91.992 108.176 93.016 108.176C95.064 108.176 96.7707 106.725 98.136 103.824C99.5867 100.837 101.293 96.1013 103.256 89.616L104.408 85.904C109.272 70.032 114.947 58.4693 121.432 51.216C128.003 43.8773 135.555 40.208 144.088 40.208C149.72 40.208 154.072 41.6587 157.144 44.56C160.216 47.376 161.752 50.7893 161.752 54.8C161.752 58.64 160.387 61.968 157.656 64.784C155.011 67.6 151.384 69.008 146.776 69.008C145.155 69.008 143.875 68.88 142.936 68.624C142.083 68.368 141.187 67.984 140.248 67.472C140.077 67.3867 139.608 67.216 138.84 66.96C138.072 66.6187 137.133 66.448 136.024 66.448C132.355 66.448 129.368 67.856 127.064 70.672C124.845 73.488 123.053 77.0293 121.688 81.296C120.408 85.4773 119 91.1947 117.464 98.448C115.587 107.067 113.795 113.979 112.088 119.184C110.381 124.389 107.821 128.827 104.408 132.496C101.08 136.165 96.6427 138 91.096 138C86.9147 138 83.4587 136.549 80.728 133.648C77.9973 130.747 76.632 126.181 76.632 119.952C76.632 117.051 76.8453 114.448 77.272 112.144L77.4 111.12C77.4 110.267 77.2293 109.627 76.888 109.2C76.5467 108.773 76.0773 108.56 75.48 108.56C74.8827 108.56 74.2427 108.859 73.56 109.456C72.9627 110.053 72.4933 110.949 72.152 112.144C69.4213 121.275 65.752 127.888 61.144 131.984C56.536 135.995 51.8 138 46.936 138ZM145.564 138C138.311 138 132.807 135.653 129.052 130.96C125.297 126.181 123.42 120.208 123.42 113.04C123.42 106.896 124.785 100.795 127.516 94.736C130.247 88.6773 134.172 83.728 139.292 79.888C144.412 75.9627 150.3 74 156.956 74C162.588 74 166.855 75.536 169.756 78.608C172.657 81.68 174.108 85.52 174.108 90.128C174.108 93.2853 173.212 96.4 171.42 99.472C169.713 102.544 167.281 105.061 164.124 107.024C161.052 108.987 157.511 109.968 153.5 109.968C149.233 109.968 145.905 109.285 143.516 107.92C143.175 107.749 142.919 107.664 142.748 107.664C142.321 107.664 141.98 107.835 141.724 108.176C141.468 108.432 141.34 108.859 141.34 109.456C141.34 111.589 142.577 113.253 145.052 114.448C147.612 115.643 150.812 116.24 154.652 116.24C159.26 116.24 163.868 115.088 168.476 112.784C173.084 110.48 176.753 107.195 179.484 102.928C179.996 102.16 180.679 101.776 181.532 101.776C182.727 101.776 183.751 102.288 184.604 103.312C185.543 104.336 185.756 105.275 185.244 106.128C179.612 116.624 173.425 124.56 166.684 129.936C160.028 135.312 152.988 138 145.564 138ZM150.172 100.368C152.476 100.368 154.353 99.6427 155.804 98.192C157.34 96.656 158.108 94.992 158.108 93.2C158.108 91.664 157.596 90.4267 156.572 89.488C155.548 88.464 154.097 87.952 152.22 87.952C149.831 87.952 147.868 88.6773 146.332 90.128C144.881 91.5787 144.156 93.2427 144.156 95.12C144.156 96.656 144.668 97.936 145.692 98.96C146.716 99.8987 148.209 100.368 150.172 100.368ZM187.38 138C179.273 138 175.22 133.605 175.22 124.816C175.22 118.501 176.671 111.205 179.572 102.928L182.388 94.736C186.911 81.5947 190.367 71.952 192.756 65.808C195.231 59.5787 197.748 54.7147 200.308 51.216C202.868 47.7173 205.684 45.968 208.756 45.968C212.255 45.968 214.004 47.5467 214.004 50.704C214.004 52.752 213.279 55.184 211.828 58C204.489 72.7627 199.497 85.008 196.852 94.736C195.828 98.2347 195.316 101.051 195.316 103.184C195.316 105.147 195.743 106.683 196.596 107.792C197.535 108.901 199.113 109.456 201.332 109.456C205.428 109.456 208.884 107.28 211.7 102.928C212.212 102.16 212.895 101.776 213.748 101.776C214.943 101.776 215.967 102.288 216.82 103.312C217.759 104.336 217.972 105.275 217.46 106.128L215.028 110.864C212.639 115.813 210.292 120.123 207.988 123.792C205.769 127.461 202.868 130.747 199.284 133.648C195.785 136.549 191.817 138 187.38 138ZM231.278 138C224.025 138 218.521 135.653 214.766 130.96C211.011 126.181 209.134 120.208 209.134 113.04C209.134 106.896 210.457 100.795 213.102 94.736C215.833 88.6773 219.673 83.728 224.622 79.888C229.571 75.9627 235.246 74 241.646 74C247.449 74 251.843 75.4933 254.83 78.48C257.817 81.4667 259.31 85.2213 259.31 89.744C259.31 93.1573 258.627 96.016 257.262 98.32C255.982 100.624 254.318 102.331 252.27 103.44C250.307 104.549 248.302 105.104 246.254 105.104C244.206 105.104 242.585 104.763 241.39 104.08C240.195 103.312 239.598 102.459 239.598 101.52C239.598 100.923 239.897 100.24 240.494 99.472C241.091 98.704 241.561 97.9787 241.902 97.296C242.329 96.6133 242.542 95.5893 242.542 94.224C242.542 92.944 242.115 91.8773 241.262 91.024C240.409 90.1707 239.086 89.744 237.294 89.744C234.563 89.744 232.345 90.9813 230.638 93.456C229.017 95.8453 228.206 98.7467 228.206 102.16C228.206 106.427 229.571 109.712 232.302 112.016C235.118 114.32 238.659 115.472 242.926 115.472C246.937 115.472 250.99 114.405 255.086 112.272C259.182 110.139 262.638 107.024 265.454 102.928C265.966 102.16 266.649 101.776 267.502 101.776C268.697 101.776 269.721 102.288 270.574 103.312C271.513 104.336 271.726 105.275 271.214 106.128C265.582 116.539 259.395 124.475 252.654 129.936C245.913 135.312 238.787 138 231.278 138ZM326.372 102.928C326.713 102.331 327.353 102.032 328.292 102.032C329.487 102.032 330.553 102.459 331.492 103.312C332.431 104.165 332.644 105.104 332.132 106.128C329.743 111.163 326.799 115.344 323.3 118.672C319.801 122 315.279 123.664 309.732 123.664H308.196C304.953 128.101 301.113 131.6 296.676 134.16C292.324 136.72 287.801 138 283.108 138C277.22 138 272.441 136.08 268.772 132.24C265.103 128.315 263.268 123.067 263.268 116.496C263.268 110.011 264.804 103.483 267.876 96.912C271.033 90.256 275.3 84.7947 280.676 80.528C286.052 76.176 291.983 74 298.468 74C304.1 74 308.623 75.792 312.036 79.376C315.449 82.8747 317.156 88.4213 317.156 96.016C317.156 100.539 316.516 104.933 315.236 109.2H316.132C320.057 109.2 323.471 107.109 326.372 102.928ZM290.404 111.504C292.452 111.504 294.287 110.907 295.908 109.712C297.615 108.432 298.937 106.853 299.876 104.976C300.815 103.099 301.284 101.264 301.284 99.472C301.284 97.5093 300.687 95.888 299.492 94.608C298.383 93.328 296.633 92.688 294.244 92.688C291.257 92.688 288.74 93.9253 286.692 96.4C284.729 98.8747 283.748 101.605 283.748 104.592C283.748 106.64 284.26 108.304 285.284 109.584C286.393 110.864 288.1 111.504 290.404 111.504ZM331.439 138C328.538 138 326.234 137.147 324.527 135.44C322.906 133.648 322.095 131.387 322.095 128.656C322.095 119.781 323.503 111.205 326.319 102.928C329.391 93.712 332.164 86.5867 334.639 81.552C337.199 76.5173 339.631 74 341.935 74C343.3 74 344.282 74.4693 344.879 75.408C345.562 76.2613 345.903 77.4133 345.903 78.864C345.903 80.2293 346.159 81.3387 346.671 82.192C347.268 83.0453 347.994 83.472 348.847 83.472C350.042 83.472 351.364 82.7467 352.815 81.296C357.85 76.432 363.012 74 368.303 74C371.29 74 373.722 74.7253 375.599 76.176C377.476 77.6267 378.756 79.5893 379.439 82.064C379.695 83.0027 380.079 83.472 380.591 83.472C381.103 83.472 381.786 83.0027 382.639 82.064C387.674 76.5173 393.178 73.744 399.151 73.744C403.844 73.744 407.3 74.8533 409.519 77.072C411.738 79.2053 412.847 82.0213 412.847 85.52C412.847 87.056 412.676 88.464 412.335 89.744C411.994 90.9387 411.482 92.5173 410.799 94.48C410.116 96.1867 409.604 97.6373 409.263 98.832C408.922 100.027 408.751 101.349 408.751 102.8C408.751 105.019 409.263 106.683 410.287 107.792C411.311 108.901 412.89 109.456 415.023 109.456C416.815 109.456 418.351 108.901 419.631 107.792C420.996 106.683 422.404 105.061 423.855 102.928C424.367 102.16 425.05 101.776 425.903 101.776C427.098 101.776 428.122 102.288 428.975 103.312C429.914 104.336 430.127 105.275 429.615 106.128L427.183 110.864C424.794 115.813 422.447 120.123 420.143 123.792C417.924 127.461 415.023 130.747 411.439 133.648C407.94 136.549 403.972 138 399.535 138C395.695 138 392.879 136.763 391.087 134.288C389.38 131.728 388.527 128.443 388.527 124.432C388.527 121.957 388.826 119.568 389.423 117.264C390.02 114.875 390.831 112.187 391.855 109.2C392.026 108.688 392.41 107.493 393.007 105.616C393.604 103.653 393.903 102.075 393.903 100.88C393.903 99.4293 393.476 98.32 392.623 97.552C391.77 96.784 390.575 96.4 389.039 96.4C386.65 96.4 384.388 97.424 382.255 99.472C380.122 101.435 378.415 103.995 377.135 107.152C375.855 110.309 375.215 113.467 375.215 116.624C375.215 117.819 375.386 119.269 375.727 120.976C375.727 121.317 375.77 121.915 375.855 122.768C376.026 123.536 376.111 124.389 376.111 125.328C376.111 128.741 375.258 131.685 373.551 134.16C371.93 136.549 368.986 137.744 364.719 137.744C357.892 137.744 354.479 134.032 354.479 126.608C354.479 124.219 354.778 121.915 355.375 119.696C356.058 117.392 356.996 114.704 358.191 111.632C359.13 109.157 359.812 107.195 360.239 105.744C360.666 104.293 360.879 102.928 360.879 101.648C360.879 98.32 359.258 96.656 356.015 96.656C353.626 96.656 351.364 97.7227 349.231 99.856C347.098 101.904 345.391 104.635 344.111 108.048C342.831 111.376 342.191 114.917 342.191 118.672V124.432C342.191 128.443 341.423 131.728 339.887 134.288C338.351 136.763 335.535 138 331.439 138ZM444.939 138C437.686 138 432.182 135.653 428.427 130.96C424.672 126.181 422.795 120.208 422.795 113.04C422.795 106.896 424.16 100.795 426.891 94.736C429.622 88.6773 433.547 83.728 438.667 79.888C443.787 75.9627 449.675 74 456.331 74C461.963 74 466.23 75.536 469.131 78.608C472.032 81.68 473.483 85.52 473.483 90.128C473.483 93.2853 472.587 96.4 470.795 99.472C469.088 102.544 466.656 105.061 463.499 107.024C460.427 108.987 456.886 109.968 452.875 109.968C448.608 109.968 445.28 109.285 442.891 107.92C442.55 107.749 442.294 107.664 442.123 107.664C441.696 107.664 441.355 107.835 441.099 108.176C440.843 108.432 440.715 108.859 440.715 109.456C440.715 111.589 441.952 113.253 444.427 114.448C446.987 115.643 450.187 116.24 454.027 116.24C458.635 116.24 463.243 115.088 467.851 112.784C472.459 110.48 476.128 107.195 478.859 102.928C479.371 102.16 480.054 101.776 480.907 101.776C482.102 101.776 483.126 102.288 483.979 103.312C484.918 104.336 485.131 105.275 484.619 106.128C478.987 116.624 472.8 124.56 466.059 129.936C459.403 135.312 452.363 138 444.939 138ZM449.547 100.368C451.851 100.368 453.728 99.6427 455.179 98.192C456.715 96.656 457.483 94.992 457.483 93.2C457.483 91.664 456.971 90.4267 455.947 89.488C454.923 88.464 453.472 87.952 451.595 87.952C449.206 87.952 447.243 88.6773 445.707 90.128C444.256 91.5787 443.531 93.2427 443.531 95.12C443.531 96.656 444.043 97.936 445.067 98.96C446.091 99.8987 447.584 100.368 449.547 100.368Z" fill="#FFF1E8"/>
<path d="M46.936 118C42.84 118 39.3413 116.123 36.44 112.368C33.5387 108.528 32.088 102.811 32.088 95.216C32.088 81.7333 37.848 64.4107 49.368 43.248C46.8933 42.5653 44.7173 42.224 42.84 42.224C38.6587 42.224 35.1173 43.3333 32.216 45.552C29.4 47.7707 27.992 50.5013 27.992 53.744C27.992 55.536 28.4613 57.072 29.4 58.352C30.3387 59.5467 31.4907 60.144 32.856 60.144C33.1973 61.168 33.368 61.9787 33.368 62.576C33.368 64.624 32.6427 66.7573 31.192 68.976C29.7413 71.1947 27.6933 73.072 25.048 74.608C22.488 76.0587 19.5013 76.784 16.088 76.784C11.0533 76.784 7.128 74.9493 4.312 71.28C1.496 67.6107 0.0879993 63.1733 0.0879993 57.968C0.0879993 51.6533 2.09333 45.808 6.104 40.432C10.0293 35.056 15.5333 30.7893 22.616 27.632C29.6133 24.3893 37.464 22.768 46.168 22.768C52.824 22.768 57.5173 23.792 60.248 25.84C63.064 27.8027 64.472 30.832 64.472 34.928C64.472 37.232 64.0453 40.176 63.192 43.76L62.424 46.96C59.7787 58.6507 57.9867 66.8427 57.048 71.536C56.1093 76.2293 55.64 79.856 55.64 82.416C55.64 84.464 55.9387 85.9573 56.536 86.896C57.1333 87.7493 58.1147 88.176 59.48 88.176C61.784 88.176 63.96 86.0427 66.008 81.776C68.1413 77.5093 70.616 70.2987 73.432 60.144C74.456 56.4747 75.5653 52.08 76.76 46.96C78.1253 41.328 79.2773 37.1467 80.216 34.416C81.1547 31.6 82.4347 29.3813 84.056 27.76C85.7627 26.1387 88.024 25.328 90.84 25.328C93.8267 25.328 96.3867 26.1813 98.52 27.888C100.739 29.5947 101.848 31.9413 101.848 34.928C101.848 37.1467 101.421 39.3227 100.568 41.456C99.8 43.504 98.5627 46.1067 96.856 49.264C95.32 52.336 94.0827 54.9387 93.144 57.072C92.2907 59.12 91.608 61.3387 91.096 63.728C89.9867 69.5307 89.432 74.352 89.432 78.192C89.432 81.4347 89.7733 83.9093 90.456 85.616C91.1387 87.3227 91.992 88.176 93.016 88.176C95.064 88.176 96.7707 86.7253 98.136 83.824C99.5867 80.8373 101.293 76.1013 103.256 69.616L104.408 65.904C109.272 50.032 114.947 38.4693 121.432 31.216C128.003 23.8773 135.555 20.208 144.088 20.208C149.72 20.208 154.072 21.6587 157.144 24.56C160.216 27.376 161.752 30.7893 161.752 34.8C161.752 38.64 160.387 41.968 157.656 44.784C155.011 47.6 151.384 49.008 146.776 49.008C145.155 49.008 143.875 48.88 142.936 48.624C142.083 48.368 141.187 47.984 140.248 47.472C140.077 47.3867 139.608 47.216 138.84 46.96C138.072 46.6187 137.133 46.448 136.024 46.448C132.355 46.448 129.368 47.856 127.064 50.672C124.845 53.488 123.053 57.0293 121.688 61.296C120.408 65.4773 119 71.1947 117.464 78.448C115.587 87.0667 113.795 93.9787 112.088 99.184C110.381 104.389 107.821 108.827 104.408 112.496C101.08 116.165 96.6427 118 91.096 118C86.9147 118 83.4587 116.549 80.728 113.648C77.9973 110.747 76.632 106.181 76.632 99.952C76.632 97.0507 76.8453 94.448 77.272 92.144L77.4 91.12C77.4 90.2667 77.2293 89.6267 76.888 89.2C76.5467 88.7733 76.0773 88.56 75.48 88.56C74.8827 88.56 74.2427 88.8587 73.56 89.456C72.9627 90.0533 72.4933 90.9493 72.152 92.144C69.4213 101.275 65.752 107.888 61.144 111.984C56.536 115.995 51.8 118 46.936 118ZM145.564 118C138.311 118 132.807 115.653 129.052 110.96C125.297 106.181 123.42 100.208 123.42 93.04C123.42 86.896 124.785 80.7947 127.516 74.736C130.247 68.6773 134.172 63.728 139.292 59.888C144.412 55.9627 150.3 54 156.956 54C162.588 54 166.855 55.536 169.756 58.608C172.657 61.68 174.108 65.52 174.108 70.128C174.108 73.2853 173.212 76.4 171.42 79.472C169.713 82.544 167.281 85.0613 164.124 87.024C161.052 88.9867 157.511 89.968 153.5 89.968C149.233 89.968 145.905 89.2853 143.516 87.92C143.175 87.7493 142.919 87.664 142.748 87.664C142.321 87.664 141.98 87.8347 141.724 88.176C141.468 88.432 141.34 88.8587 141.34 89.456C141.34 91.5893 142.577 93.2533 145.052 94.448C147.612 95.6427 150.812 96.24 154.652 96.24C159.26 96.24 163.868 95.088 168.476 92.784C173.084 90.48 176.753 87.1947 179.484 82.928C179.996 82.16 180.679 81.776 181.532 81.776C182.727 81.776 183.751 82.288 184.604 83.312C185.543 84.336 185.756 85.2747 185.244 86.128C179.612 96.624 173.425 104.56 166.684 109.936C160.028 115.312 152.988 118 145.564 118ZM150.172 80.368C152.476 80.368 154.353 79.6427 155.804 78.192C157.34 76.656 158.108 74.992 158.108 73.2C158.108 71.664 157.596 70.4267 156.572 69.488C155.548 68.464 154.097 67.952 152.22 67.952C149.831 67.952 147.868 68.6773 146.332 70.128C144.881 71.5787 144.156 73.2427 144.156 75.12C144.156 76.656 144.668 77.936 145.692 78.96C146.716 79.8987 148.209 80.368 150.172 80.368ZM187.38 118C179.273 118 175.22 113.605 175.22 104.816C175.22 98.5013 176.671 91.2053 179.572 82.928L182.388 74.736C186.911 61.5947 190.367 51.952 192.756 45.808C195.231 39.5787 197.748 34.7147 200.308 31.216C202.868 27.7173 205.684 25.968 208.756 25.968C212.255 25.968 214.004 27.5467 214.004 30.704C214.004 32.752 213.279 35.184 211.828 38C204.489 52.7627 199.497 65.008 196.852 74.736C195.828 78.2347 195.316 81.0507 195.316 83.184C195.316 85.1467 195.743 86.6827 196.596 87.792C197.535 88.9013 199.113 89.456 201.332 89.456C205.428 89.456 208.884 87.28 211.7 82.928C212.212 82.16 212.895 81.776 213.748 81.776C214.943 81.776 215.967 82.288 216.82 83.312C217.759 84.336 217.972 85.2747 217.46 86.128L215.028 90.864C212.639 95.8133 210.292 100.123 207.988 103.792C205.769 107.461 202.868 110.747 199.284 113.648C195.785 116.549 191.817 118 187.38 118ZM231.278 118C224.025 118 218.521 115.653 214.766 110.96C211.011 106.181 209.134 100.208 209.134 93.04C209.134 86.896 210.457 80.7947 213.102 74.736C215.833 68.6773 219.673 63.728 224.622 59.888C229.571 55.9627 235.246 54 241.646 54C247.449 54 251.843 55.4933 254.83 58.48C257.817 61.4667 259.31 65.2213 259.31 69.744C259.31 73.1573 258.627 76.016 257.262 78.32C255.982 80.624 254.318 82.3307 252.27 83.44C250.307 84.5493 248.302 85.104 246.254 85.104C244.206 85.104 242.585 84.7627 241.39 84.08C240.195 83.312 239.598 82.4587 239.598 81.52C239.598 80.9227 239.897 80.24 240.494 79.472C241.091 78.704 241.561 77.9787 241.902 77.296C242.329 76.6133 242.542 75.5893 242.542 74.224C242.542 72.944 242.115 71.8773 241.262 71.024C240.409 70.1707 239.086 69.744 237.294 69.744C234.563 69.744 232.345 70.9813 230.638 73.456C229.017 75.8453 228.206 78.7467 228.206 82.16C228.206 86.4267 229.571 89.712 232.302 92.016C235.118 94.32 238.659 95.472 242.926 95.472C246.937 95.472 250.99 94.4053 255.086 92.272C259.182 90.1387 262.638 87.024 265.454 82.928C265.966 82.16 266.649 81.776 267.502 81.776C268.697 81.776 269.721 82.288 270.574 83.312C271.513 84.336 271.726 85.2747 271.214 86.128C265.582 96.5387 259.395 104.475 252.654 109.936C245.913 115.312 238.787 118 231.278 118ZM326.372 82.928C326.713 82.3307 327.353 82.032 328.292 82.032C329.487 82.032 330.553 82.4587 331.492 83.312C332.431 84.1653 332.644 85.104 332.132 86.128C329.743 91.1627 326.799 95.344 323.3 98.672C319.801 102 315.279 103.664 309.732 103.664H308.196C304.953 108.101 301.113 111.6 296.676 114.16C292.324 116.72 287.801 118 283.108 118C277.22 118 272.441 116.08 268.772 112.24C265.103 108.315 263.268 103.067 263.268 96.496C263.268 90.0107 264.804 83.4827 267.876 76.912C271.033 70.256 275.3 64.7947 280.676 60.528C286.052 56.176 291.983 54 298.468 54C304.1 54 308.623 55.792 312.036 59.376C315.449 62.8747 317.156 68.4213 317.156 76.016C317.156 80.5387 316.516 84.9333 315.236 89.2H316.132C320.057 89.2 323.471 87.1093 326.372 82.928ZM290.404 91.504C292.452 91.504 294.287 90.9067 295.908 89.712C297.615 88.432 298.937 86.8533 299.876 84.976C300.815 83.0987 301.284 81.264 301.284 79.472C301.284 77.5093 300.687 75.888 299.492 74.608C298.383 73.328 296.633 72.688 294.244 72.688C291.257 72.688 288.74 73.9253 286.692 76.4C284.729 78.8747 283.748 81.6053 283.748 84.592C283.748 86.64 284.26 88.304 285.284 89.584C286.393 90.864 288.1 91.504 290.404 91.504ZM331.439 118C328.538 118 326.234 117.147 324.527 115.44C322.906 113.648 322.095 111.387 322.095 108.656C322.095 99.7813 323.503 91.2053 326.319 82.928C329.391 73.712 332.164 66.5867 334.639 61.552C337.199 56.5173 339.631 54 341.935 54C343.3 54 344.282 54.4693 344.879 55.408C345.562 56.2613 345.903 57.4133 345.903 58.864C345.903 60.2293 346.159 61.3387 346.671 62.192C347.268 63.0453 347.994 63.472 348.847 63.472C350.042 63.472 351.364 62.7467 352.815 61.296C357.85 56.432 363.012 54 368.303 54C371.29 54 373.722 54.7253 375.599 56.176C377.476 57.6267 378.756 59.5893 379.439 62.064C379.695 63.0027 380.079 63.472 380.591 63.472C381.103 63.472 381.786 63.0027 382.639 62.064C387.674 56.5173 393.178 53.744 399.151 53.744C403.844 53.744 407.3 54.8533 409.519 57.072C411.738 59.2053 412.847 62.0213 412.847 65.52C412.847 67.056 412.676 68.464 412.335 69.744C411.994 70.9387 411.482 72.5173 410.799 74.48C410.116 76.1867 409.604 77.6373 409.263 78.832C408.922 80.0267 408.751 81.3493 408.751 82.8C408.751 85.0187 409.263 86.6827 410.287 87.792C411.311 88.9013 412.89 89.456 415.023 89.456C416.815 89.456 418.351 88.9013 419.631 87.792C420.996 86.6827 422.404 85.0613 423.855 82.928C424.367 82.16 425.05 81.776 425.903 81.776C427.098 81.776 428.122 82.288 428.975 83.312C429.914 84.336 430.127 85.2747 429.615 86.128L427.183 90.864C424.794 95.8133 422.447 100.123 420.143 103.792C417.924 107.461 415.023 110.747 411.439 113.648C407.94 116.549 403.972 118 399.535 118C395.695 118 392.879 116.763 391.087 114.288C389.38 111.728 388.527 108.443 388.527 104.432C388.527 101.957 388.826 99.568 389.423 97.264C390.02 94.8747 390.831 92.1867 391.855 89.2C392.026 88.688 392.41 87.4933 393.007 85.616C393.604 83.6533 393.903 82.0747 393.903 80.88C393.903 79.4293 393.476 78.32 392.623 77.552C391.77 76.784 390.575 76.4 389.039 76.4C386.65 76.4 384.388 77.424 382.255 79.472C380.122 81.4347 378.415 83.9947 377.135 87.152C375.855 90.3093 375.215 93.4667 375.215 96.624C375.215 97.8187 375.386 99.2693 375.727 100.976C375.727 101.317 375.77 101.915 375.855 102.768C376.026 103.536 376.111 104.389 376.111 105.328C376.111 108.741 375.258 111.685 373.551 114.16C371.93 116.549 368.986 117.744 364.719 117.744C357.892 117.744 354.479 114.032 354.479 106.608C354.479 104.219 354.778 101.915 355.375 99.696C356.058 97.392 356.996 94.704 358.191 91.632C359.13 89.1573 359.812 87.1947 360.239 85.744C360.666 84.2933 360.879 82.928 360.879 81.648C360.879 78.32 359.258 76.656 356.015 76.656C353.626 76.656 351.364 77.7227 349.231 79.856C347.098 81.904 345.391 84.6347 344.111 88.048C342.831 91.376 342.191 94.9173 342.191 98.672V104.432C342.191 108.443 341.423 111.728 339.887 114.288C338.351 116.763 335.535 118 331.439 118ZM444.939 118C437.686 118 432.182 115.653 428.427 110.96C424.672 106.181 422.795 100.208 422.795 93.04C422.795 86.896 424.16 80.7947 426.891 74.736C429.622 68.6773 433.547 63.728 438.667 59.888C443.787 55.9627 449.675 54 456.331 54C461.963 54 466.23 55.536 469.131 58.608C472.032 61.68 473.483 65.52 473.483 70.128C473.483 73.2853 472.587 76.4 470.795 79.472C469.088 82.544 466.656 85.0613 463.499 87.024C460.427 88.9867 456.886 89.968 452.875 89.968C448.608 89.968 445.28 89.2853 442.891 87.92C442.55 87.7493 442.294 87.664 442.123 87.664C441.696 87.664 441.355 87.8347 441.099 88.176C440.843 88.432 440.715 88.8587 440.715 89.456C440.715 91.5893 441.952 93.2533 444.427 94.448C446.987 95.6427 450.187 96.24 454.027 96.24C458.635 96.24 463.243 95.088 467.851 92.784C472.459 90.48 476.128 87.1947 478.859 82.928C479.371 82.16 480.054 81.776 480.907 81.776C482.102 81.776 483.126 82.288 483.979 83.312C484.918 84.336 485.131 85.2747 484.619 86.128C478.987 96.624 472.8 104.56 466.059 109.936C459.403 115.312 452.363 118 444.939 118ZM449.547 80.368C451.851 80.368 453.728 79.6427 455.179 78.192C456.715 76.656 457.483 74.992 457.483 73.2C457.483 71.664 456.971 70.4267 455.947 69.488C454.923 68.464 453.472 67.952 451.595 67.952C449.206 67.952 447.243 68.6773 445.707 70.128C444.256 71.5787 443.531 73.2427 443.531 75.12C443.531 76.656 444.043 77.936 445.067 78.96C446.091 79.8987 447.584 80.368 449.547 80.368Z" fill="#0068B6" fill-opacity="0.9"/>
</svg>
